<svg width="48" height="48" viewBox="0 0 48 48" fill="none" xmlns="http://www.w3.org/2000/svg">
<path opacity="0.2" fill-rule="evenodd" clip-rule="evenodd" d="M24.0002 40.8C33.2786 40.8 40.8002 33.2783 40.8002 24C40.8002 14.7216 33.2786 7.19995 24.0002 7.19995C14.7218 7.19995 7.2002 14.7216 7.2002 24C7.2002 33.2783 14.7218 40.8 24.0002 40.8ZM18.2191 31.9945L24.0002 28.9783L29.7813 31.9945L28.7759 25.4594L33.3002 20.9351L26.7651 19.9297L24.0002 14.4L21.2353 19.9297L14.7002 20.9351L19.2245 25.4594L18.2191 31.9945Z" fill="url(#paint0_linear_3630_33493)"/>
<path d="M23.9999 6.5999C23.4246 6.5999 22.8557 6.62784 22.2945 6.68246C21.9646 6.71456 21.7233 7.00795 21.7554 7.33776C21.7875 7.66757 22.0809 7.90892 22.4107 7.87682C22.9334 7.82595 23.4635 7.7999 23.9999 7.7999C24.5363 7.7999 25.0664 7.82595 25.5891 7.87682C25.9189 7.90892 26.2123 7.66757 26.2444 7.33776C26.2765 7.00795 26.0352 6.71456 25.7053 6.68246C25.1441 6.62784 24.5752 6.5999 23.9999 6.5999Z" fill="url(#paint1_linear_3630_33493)"/>
<path d="M19.2954 8.49339C19.6126 8.39731 19.7918 8.06233 19.6957 7.74519C19.5996 7.42806 19.2646 7.24886 18.9475 7.34494C17.8467 7.67844 16.7922 8.11802 15.7957 8.65173C15.5036 8.80819 15.3937 9.17182 15.5501 9.46393C15.7066 9.75604 16.0702 9.86601 16.3623 9.70955C17.2898 9.21275 18.2712 8.8037 19.2954 8.49339Z" fill="url(#paint2_linear_3630_33493)"/>
<path d="M28.3041 7.74519C28.4002 7.42806 28.7352 7.24886 29.0523 7.34494C30.1531 7.67844 31.2076 8.11802 32.2041 8.65173C32.4962 8.80819 32.6061 9.17182 32.4497 9.46393C32.2932 9.75604 31.9296 9.86601 31.6375 9.70955C30.71 9.21275 29.7286 8.8037 28.7044 8.49339C28.3872 8.39731 28.208 8.06233 28.3041 7.74519Z" fill="url(#paint3_linear_3630_33493)"/>
<path d="M13.7228 11.4764C13.9789 11.2661 14.0159 10.888 13.8055 10.6319C13.5952 10.3759 13.2171 10.3389 12.961 10.5492C12.0807 11.2726 11.2726 12.0807 10.5492 12.961C10.3389 13.2171 10.3759 13.5952 10.6319 13.8055C10.888 14.0159 11.2661 13.9789 11.4764 13.7228C12.1501 12.9028 12.9028 12.1501 13.7228 11.4764Z" fill="url(#paint4_linear_3630_33493)"/>
<path d="M34.1943 10.6319C34.4046 10.3759 34.7827 10.3389 35.0388 10.5492C35.9191 11.2726 36.7272 12.0807 37.4506 12.961C37.6609 13.2171 37.6239 13.5952 37.3679 13.8055C37.1118 14.0159 36.7337 13.9789 36.5234 13.7228C35.8497 12.9028 35.097 12.1501 34.277 11.4764C34.0209 11.2661 33.9839 10.888 34.1943 10.6319Z" fill="url(#paint5_linear_3630_33493)"/>
<path d="M39.3481 15.7957C39.1916 15.5036 38.828 15.3937 38.5359 15.5501C38.2438 15.7066 38.1338 16.0702 38.2903 16.3623C38.787 17.2898 39.1961 18.2712 39.5064 19.2954C39.6025 19.6126 39.9375 19.7918 40.2546 19.6957C40.5717 19.5996 40.7509 19.2646 40.6549 18.9475C40.3214 17.8467 39.8818 16.7922 39.3481 15.7957Z" fill="url(#paint6_linear_3630_33493)"/>
<path d="M9.46393 15.5501C9.75604 15.7066 9.86601 16.0702 9.70955 16.3623C9.21275 17.2898 8.8037 18.2712 8.49339 19.2954C8.39731 19.6126 8.06233 19.7918 7.74519 19.6957C7.42806 19.5996 7.24886 19.2646 7.34494 18.9475C7.67844 17.8467 8.11802 16.7922 8.65173 15.7957C8.80819 15.5036 9.17182 15.3937 9.46393 15.5501Z" fill="url(#paint7_linear_3630_33493)"/>
<path d="M41.3173 22.2945C41.2852 21.9646 40.9919 21.7233 40.662 21.7554C40.3322 21.7875 40.0909 22.0809 40.123 22.4107C40.1739 22.9334 40.1999 23.4635 40.1999 23.9999C40.1999 24.5363 40.1739 25.0664 40.123 25.5891C40.0909 25.9189 40.3322 26.2123 40.662 26.2444C40.9919 26.2765 41.2852 26.0352 41.3173 25.7053C41.372 25.1441 41.3999 24.5752 41.3999 23.9999C41.3999 23.4246 41.372 22.8557 41.3173 22.2945Z" fill="url(#paint8_linear_3630_33493)"/>
<path d="M7.33776 21.7554C7.66757 21.7875 7.90892 22.0809 7.87682 22.4107C7.82595 22.9334 7.7999 23.4635 7.7999 23.9999C7.7999 24.5363 7.82595 25.0664 7.87682 25.5891C7.90892 25.9189 7.66757 26.2123 7.33776 26.2444C7.00795 26.2765 6.71456 26.0352 6.68246 25.7053C6.62784 25.1441 6.5999 24.5752 6.5999 23.9999C6.5999 23.4246 6.62784 22.8557 6.68246 22.2945C6.71456 21.9646 7.00795 21.7233 7.33776 21.7554Z" fill="url(#paint9_linear_3630_33493)"/>
<path d="M8.49339 28.7044C8.39731 28.3872 8.06233 28.208 7.74519 28.3041C7.42806 28.4002 7.24886 28.7352 7.34494 29.0523C7.67844 30.1531 8.11802 31.2076 8.65173 32.2041C8.80819 32.4962 9.17182 32.6061 9.46393 32.4497C9.75604 32.2932 9.86601 31.9296 9.70955 31.6375C9.21275 30.71 8.8037 29.7286 8.49339 28.7044Z" fill="url(#paint10_linear_3630_33493)"/>
<path d="M40.2546 28.3041C40.5717 28.4002 40.7509 28.7352 40.6549 29.0523C40.3214 30.1531 39.8818 31.2076 39.3481 32.2041C39.1916 32.4962 38.828 32.6061 38.5359 32.4497C38.2438 32.2932 38.1338 31.9296 38.2903 31.6375C38.787 30.71 39.1961 29.7286 39.5064 28.7044C39.6025 28.3872 39.9375 28.208 40.2546 28.3041Z" fill="url(#paint11_linear_3630_33493)"/>
<path d="M11.4764 34.277C11.2661 34.0209 10.888 33.9839 10.6319 34.1943C10.3759 34.4046 10.3389 34.7827 10.5492 35.0388C11.2726 35.9191 12.0807 36.7272 12.961 37.4506C13.2171 37.6609 13.5952 37.6239 13.8055 37.3679C14.0159 37.1118 13.9789 36.7337 13.7228 36.5234C12.9028 35.8497 12.1501 35.097 11.4764 34.277Z" fill="url(#paint12_linear_3630_33493)"/>
<path d="M37.3679 34.1943C37.6239 34.4046 37.6609 34.7827 37.4506 35.0388C36.7272 35.9191 35.9191 36.7272 35.0388 37.4506C34.7827 37.6609 34.4046 37.6239 34.1943 37.3679C33.9839 37.1118 34.0209 36.7337 34.277 36.5234C35.097 35.8497 35.8497 35.097 36.5234 34.277C36.7337 34.0209 37.1118 33.9839 37.3679 34.1943Z" fill="url(#paint13_linear_3630_33493)"/>
<path d="M16.3623 38.2903C16.0702 38.1338 15.7066 38.2438 15.5501 38.5359C15.3937 38.828 15.5036 39.1916 15.7957 39.3481C16.7922 39.8818 17.8467 40.3214 18.9475 40.6549C19.2646 40.7509 19.5996 40.5717 19.6957 40.2546C19.7918 39.9375 19.6126 39.6025 19.2954 39.5064C18.2712 39.1961 17.2898 38.787 16.3623 38.2903Z" fill="url(#paint14_linear_3630_33493)"/>
<path d="M32.4497 38.5359C32.6061 38.828 32.4962 39.1916 32.2041 39.3481C31.2076 39.8818 30.1531 40.3214 29.0523 40.6549C28.7352 40.7509 28.4002 40.5717 28.3041 40.2546C28.208 39.9375 28.3872 39.6025 28.7044 39.5064C29.7286 39.1961 30.71 38.787 31.6375 38.2903C31.9296 38.1338 32.2932 38.2438 32.4497 38.5359Z" fill="url(#paint15_linear_3630_33493)"/>
<path d="M22.4107 40.123C22.0809 40.0909 21.7875 40.3322 21.7554 40.662C21.7233 40.9919 21.9646 41.2852 22.2945 41.3173C22.8557 41.372 23.4246 41.3999 23.9999 41.3999C24.5752 41.3999 25.1441 41.372 25.7053 41.3173C26.0352 41.2852 26.2765 40.9919 26.2444 40.662C26.2123 40.3322 25.9189 40.0909 25.5891 40.123C25.0664 40.1739 24.5363 40.1999 23.9999 40.1999C23.4635 40.1999 22.9334 40.1739 22.4107 40.123Z" fill="url(#paint16_linear_3630_33493)"/>
<path fill-rule="evenodd" clip-rule="evenodd" d="M24.5366 14.1316C24.4349 13.9283 24.2272 13.7999 23.9999 13.7999C23.7727 13.7999 23.5649 13.9283 23.4633 14.1316L20.8372 19.3838L14.6087 20.342C14.3852 20.3764 14.2 20.5335 14.1297 20.7484C14.0594 20.9632 14.1158 21.1994 14.2757 21.3593L18.585 25.6686L17.6258 31.9033C17.5914 32.1268 17.6857 32.3507 17.8696 32.4824C18.0535 32.614 18.2958 32.6311 18.4964 32.5264L23.9999 29.655L29.5035 32.5264C29.704 32.6311 29.9463 32.614 30.1302 32.4824C30.3142 32.3507 30.4084 32.1268 30.374 31.9033L29.4148 25.6686L33.7242 21.3593C33.8841 21.1994 33.9405 20.9632 33.8701 20.7484C33.7998 20.5335 33.6146 20.3764 33.3912 20.342L27.1627 19.3838L24.5366 14.1316ZM21.7717 20.198L23.9999 15.7415L26.2281 20.198C26.3152 20.372 26.4812 20.4931 26.6735 20.5227L32.0384 21.348L28.3513 25.0351C28.2162 25.1702 28.1535 25.3617 28.1826 25.5506L29.0078 30.9143L24.2775 28.4463C24.1036 28.3556 23.8963 28.3556 23.7224 28.4463L18.9921 30.9143L19.8173 25.5506C19.8463 25.3617 19.7837 25.1702 19.6485 25.0351L15.9614 21.348L21.3263 20.5227C21.5186 20.4931 21.6847 20.372 21.7717 20.198Z" fill="url(#paint17_linear_3630_33493)"/>
<path fill-rule="evenodd" clip-rule="evenodd" d="M23.9999 45.5999C35.9293 45.5999 45.5999 35.9293 45.5999 23.9999C45.5999 12.0706 35.9293 2.3999 23.9999 2.3999C12.0706 2.3999 2.3999 12.0706 2.3999 23.9999C2.3999 35.9293 12.0706 45.5999 23.9999 45.5999ZM23.9999 44.3999C35.2665 44.3999 44.3999 35.2665 44.3999 23.9999C44.3999 12.7333 35.2665 3.5999 23.9999 3.5999C12.7333 3.5999 3.5999 12.7333 3.5999 23.9999C3.5999 35.2665 12.7333 44.3999 23.9999 44.3999Z" fill="url(#paint18_linear_3630_33493)"/>
<defs>
<linearGradient id="paint0_linear_3630_33493" x1="7.2002" y1="7.19995" x2="7.2002" y2="40.8" gradientUnits="userSpaceOnUse">
<stop stop-color="#13E5BF"/>
<stop offset="1" stop-color="#01C38D"/>
</linearGradient>
<linearGradient id="paint1_linear_3630_33493" x1="2.3999" y1="2.3999" x2="2.3999" y2="45.5999" gradientUnits="userSpaceOnUse">
<stop stop-color="#13E5BF"/>
<stop offset="1" stop-color="#01C38D"/>
</linearGradient>
<linearGradient id="paint2_linear_3630_33493" x1="2.3999" y1="2.3999" x2="2.3999" y2="45.5999" gradientUnits="userSpaceOnUse">
<stop stop-color="#13E5BF"/>
<stop offset="1" stop-color="#01C38D"/>
</linearGradient>
<linearGradient id="paint3_linear_3630_33493" x1="2.3999" y1="2.3999" x2="2.3999" y2="45.5999" gradientUnits="userSpaceOnUse">
<stop stop-color="#13E5BF"/>
<stop offset="1" stop-color="#01C38D"/>
</linearGradient>
<linearGradient id="paint4_linear_3630_33493" x1="2.3999" y1="2.3999" x2="2.3999" y2="45.5999" gradientUnits="userSpaceOnUse">
<stop stop-color="#13E5BF"/>
<stop offset="1" stop-color="#01C38D"/>
</linearGradient>
<linearGradient id="paint5_linear_3630_33493" x1="2.3999" y1="2.3999" x2="2.3999" y2="45.5999" gradientUnits="userSpaceOnUse">
<stop stop-color="#13E5BF"/>
<stop offset="1" stop-color="#01C38D"/>
</linearGradient>
<linearGradient id="paint6_linear_3630_33493" x1="2.3999" y1="2.3999" x2="2.3999" y2="45.5999" gradientUnits="userSpaceOnUse">
<stop stop-color="#13E5BF"/>
<stop offset="1" stop-color="#01C38D"/>
</linearGradient>
<linearGradient id="paint7_linear_3630_33493" x1="2.3999" y1="2.3999" x2="2.3999" y2="45.5999" gradientUnits="userSpaceOnUse">
<stop stop-color="#13E5BF"/>
<stop offset="1" stop-color="#01C38D"/>
</linearGradient>
<linearGradient id="paint8_linear_3630_33493" x1="2.3999" y1="2.3999" x2="2.3999" y2="45.5999" gradientUnits="userSpaceOnUse">
<stop stop-color="#13E5BF"/>
<stop offset="1" stop-color="#01C38D"/>
</linearGradient>
<linearGradient id="paint9_linear_3630_33493" x1="2.3999" y1="2.3999" x2="2.3999" y2="45.5999" gradientUnits="userSpaceOnUse">
<stop stop-color="#13E5BF"/>
<stop offset="1" stop-color="#01C38D"/>
</linearGradient>
<linearGradient id="paint10_linear_3630_33493" x1="2.3999" y1="2.3999" x2="2.3999" y2="45.5999" gradientUnits="userSpaceOnUse">
<stop stop-color="#13E5BF"/>
<stop offset="1" stop-color="#01C38D"/>
</linearGradient>
<linearGradient id="paint11_linear_3630_33493" x1="2.3999" y1="2.3999" x2="2.3999" y2="45.5999" gradientUnits="userSpaceOnUse">
<stop stop-color="#13E5BF"/>
<stop offset="1" stop-color="#01C38D"/>
</linearGradient>
<linearGradient id="paint12_linear_3630_33493" x1="2.3999" y1="2.3999" x2="2.3999" y2="45.5999" gradientUnits="userSpaceOnUse">
<stop stop-color="#13E5BF"/>
<stop offset="1" stop-color="#01C38D"/>
</linearGradient>
<linearGradient id="paint13_linear_3630_33493" x1="2.3999" y1="2.3999" x2="2.3999" y2="45.5999" gradientUnits="userSpaceOnUse">
<stop stop-color="#13E5BF"/>
<stop offset="1" stop-color="#01C38D"/>
</linearGradient>
<linearGradient id="paint14_linear_3630_33493" x1="2.3999" y1="2.3999" x2="2.3999" y2="45.5999" gradientUnits="userSpaceOnUse">
<stop stop-color="#13E5BF"/>
<stop offset="1" stop-color="#01C38D"/>
</linearGradient>
<linearGradient id="paint15_linear_3630_33493" x1="2.3999" y1="2.3999" x2="2.3999" y2="45.5999" gradientUnits="userSpaceOnUse">
<stop stop-color="#13E5BF"/>
<stop offset="1" stop-color="#01C38D"/>
</linearGradient>
<linearGradient id="paint16_linear_3630_33493" x1="2.3999" y1="2.3999" x2="2.3999" y2="45.5999" gradientUnits="userSpaceOnUse">
<stop stop-color="#13E5BF"/>
<stop offset="1" stop-color="#01C38D"/>
</linearGradient>
<linearGradient id="paint17_linear_3630_33493" x1="2.3999" y1="2.3999" x2="2.3999" y2="45.5999" gradientUnits="userSpaceOnUse">
<stop stop-color="#13E5BF"/>
<stop offset="1" stop-color="#01C38D"/>
</linearGradient>
<linearGradient id="paint18_linear_3630_33493" x1="2.3999" y1="2.3999" x2="2.3999" y2="45.5999" gradientUnits="userSpaceOnUse">
<stop stop-color="#13E5BF"/>
<stop offset="1" stop-color="#01C38D"/>
</linearGradient>
</defs>
</svg>
