<svg width="48" height="48" viewBox="0 0 48 48" fill="none" xmlns="http://www.w3.org/2000/svg">
<path opacity="0.6" d="M33.6001 15.5999C33.6001 14.9372 34.1374 14.3999 34.8001 14.3999H38.4001C39.0628 14.3999 39.6001 14.9372 39.6001 15.5999V37.1999C39.6001 37.8627 39.0628 38.3999 38.4001 38.3999H34.8001C34.1374 38.3999 33.6001 37.8627 33.6001 37.1999V15.5999Z" fill="url(#paint0_linear_1875_16294)"/>
<path opacity="0.6" d="M25.2002 23.9999C25.2002 23.3372 25.7375 22.7999 26.4002 22.7999H30.0002C30.6629 22.7999 31.2002 23.3372 31.2002 23.9999V37.1999C31.2002 37.8627 30.6629 38.3999 30.0002 38.3999H26.4002C25.7375 38.3999 25.2002 37.8627 25.2002 37.1999V23.9999Z" fill="url(#paint1_linear_1875_16294)"/>
<path opacity="0.2" d="M16.7998 20.3999C16.7998 19.7372 17.3371 19.1999 17.9998 19.1999H21.5998C22.2625 19.1999 22.7998 19.7372 22.7998 20.3999V37.1999C22.7998 37.8627 22.2625 38.3999 21.5998 38.3999H17.9998C17.3371 38.3999 16.7998 37.8627 16.7998 37.1999V20.3999Z" fill="url(#paint2_linear_1875_16294)"/>
<path fill-rule="evenodd" clip-rule="evenodd" d="M36.4076 6.02453C36.8674 5.89343 37.2971 6.30752 37.1811 6.76989L36.1704 10.7999L34.6825 9.36626L30.0158 14.033C29.0046 15.0441 27.4203 15.201 26.2304 14.4078L22.1802 11.7077C21.5093 11.2604 20.6226 11.3139 20.0104 11.8387L8.79078 21.4555C8.53918 21.6711 8.1604 21.642 7.94475 21.3904C7.7291 21.1388 7.75823 20.76 8.00983 20.5444L19.2294 10.9276C20.2499 10.0529 21.7276 9.96368 22.8459 10.7092L26.896 13.4093C27.61 13.8853 28.5606 13.7911 29.1673 13.1844L33.8182 8.53347L32.4003 7.16718L36.4076 6.02453ZM38.4003 15.5999H34.8003V37.1999H38.4003V15.5999ZM34.8003 14.3999C34.1376 14.3999 33.6003 14.9372 33.6003 15.5999V37.1999C33.6003 37.8627 34.1376 38.3999 34.8003 38.3999H38.4003C39.063 38.3999 39.6003 37.8627 39.6003 37.1999V15.5999C39.6003 14.9372 39.063 14.3999 38.4003 14.3999H34.8003ZM30.0003 23.9999H26.4003V37.1999H30.0003V23.9999ZM26.4003 22.7999C25.7376 22.7999 25.2003 23.3372 25.2003 23.9999V37.1999C25.2003 37.8627 25.7376 38.3999 26.4003 38.3999H30.0003C30.663 38.3999 31.2003 37.8627 31.2003 37.1999V23.9999C31.2003 23.3372 30.663 22.7999 30.0003 22.7999H26.4003ZM18.0003 20.3999H21.6003V37.1999H18.0003V20.3999ZM16.8003 20.3999C16.8003 19.7372 17.3376 19.1999 18.0003 19.1999H21.6003C22.263 19.1999 22.8003 19.7372 22.8003 20.3999V37.1999C22.8003 37.8627 22.263 38.3999 21.6003 38.3999H18.0003C17.3376 38.3999 16.8003 37.8627 16.8003 37.1999V20.3999ZM13.2003 28.7999H9.60029L9.60029 37.1999L13.2003 37.1999V28.7999ZM9.60029 27.5999C8.93755 27.5999 8.40029 28.1372 8.40029 28.7999V37.1999C8.40029 37.8627 8.93755 38.3999 9.60029 38.3999H13.2003C13.863 38.3999 14.4003 37.8627 14.4003 37.1999V28.7999C14.4003 28.1372 13.863 27.5999 13.2003 27.5999H9.60029ZM12.6003 40.7999C12.2689 40.7999 12.0003 41.0686 12.0003 41.3999C12.0003 41.7313 12.2689 41.9999 12.6003 41.9999L35.4003 41.9999C35.7317 41.9999 36.0003 41.7313 36.0003 41.3999C36.0003 41.0686 35.7317 40.7999 35.4003 40.7999L12.6003 40.7999Z" fill="url(#paint3_linear_1875_16294)"/>
<defs>
<linearGradient id="paint0_linear_1875_16294" x1="36.6001" y1="14.3999" x2="36.6001" y2="38.3999" gradientUnits="userSpaceOnUse">
<stop stop-color="#13E5BF"/>
<stop offset="1" stop-color="#01C38D"/>
</linearGradient>
<linearGradient id="paint1_linear_1875_16294" x1="28.2002" y1="22.7999" x2="28.2002" y2="38.3999" gradientUnits="userSpaceOnUse">
<stop stop-color="#13E5BF"/>
<stop offset="1" stop-color="#01C38D"/>
</linearGradient>
<linearGradient id="paint2_linear_1875_16294" x1="19.7998" y1="19.1999" x2="19.7998" y2="38.3999" gradientUnits="userSpaceOnUse">
<stop stop-color="#13E5BF"/>
<stop offset="1" stop-color="#01C38D"/>
</linearGradient>
<linearGradient id="paint3_linear_1875_16294" x1="23.7003" y1="5.99994" x2="23.7003" y2="41.9999" gradientUnits="userSpaceOnUse">
<stop stop-color="#13E5BF"/>
<stop offset="1" stop-color="#01C38D"/>
</linearGradient>
</defs>
</svg>
