<svg width="36" height="36" viewBox="0 0 36 36" fill="none" xmlns="http://www.w3.org/2000/svg">
<path d="M31.0909 0H4.90909C2.19787 0 0 2.19787 0 4.90909V31.0909C0 33.8021 2.19787 36 4.90909 36H31.0909C33.8021 36 36 33.8021 36 31.0909V4.90909C36 2.19787 33.8021 0 31.0909 0Z" fill="white"/>
<path fill-rule="evenodd" clip-rule="evenodd" d="M5.99976 13H10.9998V30H5.99976V13Z" fill="#9387FF"/>
<path fill-rule="evenodd" clip-rule="evenodd" d="M8.48413 11H8.45679C6.9646 11 5.99976 9.88672 5.99976 8.5C5.99976 7.07813 6.99585 6 8.51538 6C10.0349 6 10.9724 7.07813 10.9998 8.5C10.9998 9.88672 10.0349 11 8.48413 11Z" fill="#9387FF"/>
<path fill-rule="evenodd" clip-rule="evenodd" d="M30.0002 30H25.0002V20.9023C25.0002 18.7031 23.7737 17.2031 21.8088 17.2031C20.3088 17.2031 19.4963 18.2148 19.1018 19.1914C18.9573 19.543 19.0002 20.5117 19.0002 21V30H14.0002V13H19.0002V15.6172C19.7229 14.5 20.8518 13 23.7385 13C27.3166 13 30.0002 15.25 30.0002 20.2734V30Z" fill="#9387FF"/>
</svg>
