<svg width="36" height="36" viewBox="0 0 36 36" fill="none" xmlns="http://www.w3.org/2000/svg">
<path d="M31.0909 0H4.90909C2.19787 0 0 2.19787 0 4.90909V31.0909C0 33.8021 2.19787 36 4.90909 36H31.0909C33.8021 36 36 33.8021 36 31.0909V4.90909C36 2.19787 33.8021 0 31.0909 0Z" fill="white"/>
<path d="M7.19962 8L15.8624 19.5827L7.14502 29H9.1071L16.7393 20.7548L22.9057 29H29.5822L20.4319 16.7659L28.546 8H26.5839L19.5553 15.5934L13.8762 8H7.19962ZM10.0849 9.44511H13.1521L26.6965 27.5549H23.6293L10.0849 9.44511Z" fill="#9387FF"/>
</svg>
