<svg width="36" height="36" viewBox="0 0 36 36" fill="none" xmlns="http://www.w3.org/2000/svg">
<path d="M31.0909 0H4.90909C2.19787 0 0 2.19787 0 4.90909V31.0909C0 33.8021 2.19787 36 4.90909 36H31.0909C33.8021 36 36 33.8021 36 31.0909V4.90909C36 2.19787 33.8021 0 31.0909 0Z" fill="white"/>
<path d="M28.9373 10.6796L25.6174 26.3365C25.3669 27.4415 24.7137 27.7165 23.7854 27.196L18.727 23.4683L16.2862 25.8159C16.0161 26.086 15.7901 26.312 15.2696 26.312L15.633 21.1601L25.0084 12.6883C25.416 12.3249 24.92 12.1235 24.3748 12.4869L12.7846 19.7849L7.7948 18.2232C6.70943 17.8843 6.68982 17.1378 8.02068 16.6172L27.5376 9.09825C28.4412 8.7594 29.232 9.29955 28.9373 10.6796Z" fill="#9387FF"/>
</svg>
