<svg width="36" height="36" viewBox="0 0 36 36" fill="none" xmlns="http://www.w3.org/2000/svg">
<path d="M31.0909 0H4.90909C2.19787 0 0 2.19787 0 4.90909V31.0909C0 33.8021 2.19787 36 4.90909 36H31.0909C33.8021 36 36 33.8021 36 31.0909V4.90909C36 2.19787 33.8021 0 31.0909 0Z" fill="white"/>
<path d="M19.2377 12.3721C19.2044 12.2695 19.0593 12.2695 19.026 12.3721L18.3571 14.4307C18.2776 14.6753 18.0497 14.8409 17.7925 14.8409H15.628C15.5201 14.8409 15.4753 14.9789 15.5625 15.0423L17.3137 16.3146C17.5218 16.4657 17.6088 16.7337 17.5294 16.9783L16.8605 19.0369C16.8271 19.1395 16.9445 19.2247 17.0318 19.1614L18.7829 17.8891C18.991 17.7379 19.2727 17.7379 19.4808 17.8891L21.232 19.1614C21.3192 19.2247 21.4366 19.1395 21.4032 19.0369L20.7344 16.9783C20.6549 16.7337 20.742 16.4657 20.9501 16.3146L22.7012 15.0423C22.7884 14.9789 22.7436 14.8409 22.6357 14.8409H20.4712C20.214 14.8409 19.9861 14.6753 19.9066 14.4307L19.2377 12.3721Z" fill="#9387FF"/>
<path fill-rule="evenodd" clip-rule="evenodd" d="M15.0133 7C12.3493 7 10.1896 9.15961 10.1896 11.8236V22.1759C10.1896 23.1797 9.86496 25.1955 8 27.0266L8.5199 28.2982H10.9317C11.6719 28.2982 12.8612 28.1983 13.999 27.6877C15.0586 27.2122 16.0808 26.3737 16.6225 24.9588H23.1764C25.8404 24.9588 28 22.7992 28 20.1352V11.8236C28 9.15961 25.8404 7 23.1764 7H15.0133ZM11.6738 11.8236C11.6738 9.97932 13.169 8.4842 15.0133 8.4842H23.1764C25.0207 8.4842 26.5158 9.97932 26.5158 11.8236V20.1352C26.5158 21.9795 25.0207 23.4746 23.1764 23.4746H15.5233L15.3703 24.0142L15.354 24.0714L15.3398 24.1202C14.9968 25.2961 14.2392 25.9531 13.3913 26.3337C12.5198 26.7247 11.5645 26.814 10.9317 26.814H10.1268C11.4012 25.0162 11.6738 23.2238 11.6738 22.1759V11.8236Z" fill="#9387FF"/>
</svg>
