<svg width="36" height="36" viewBox="0 0 36 36" fill="none" xmlns="http://www.w3.org/2000/svg">
<path d="M31.0909 0H4.90909C2.19787 0 0 2.19787 0 4.90909V31.0909C0 33.8021 2.19787 36 4.90909 36H31.0909C33.8021 36 36 33.8021 36 31.0909V4.90909C36 2.19787 33.8021 0 31.0909 0Z" fill="white"/>
<path d="M25.0137 11.5973C23.7783 10.7911 22.8871 9.50343 22.6084 8.00111C22.5482 7.67657 22.5155 7.34286 22.5155 7H18.5725L18.566 22.8019C18.4992 24.5712 17.0427 25.991 15.2577 25.991C14.7029 25.991 14.1807 25.8523 13.7201 25.6102C12.6653 25.0554 11.9429 23.9496 11.9429 22.6762C11.9429 20.8481 13.4296 19.3614 15.2577 19.3614C15.5993 19.3614 15.9265 19.4177 16.2353 19.5146V16.4235V15.4892C15.9147 15.446 15.5888 15.4185 15.2577 15.4185C11.2559 15.4185 8 18.6744 8 22.6762C8 25.1313 9.2262 27.3049 11.0976 28.6188C12.2766 29.4459 13.7096 29.934 15.2564 29.934C19.2583 29.934 22.5142 26.6781 22.5142 22.6762V14.6634C24.061 15.7731 25.9546 16.4275 28 16.4275V13.3626V12.4845C26.9007 12.4845 25.8748 12.1574 25.0137 11.5973Z" fill="#9387FF"/>
</svg>
