<svg width="36" height="36" viewBox="0 0 36 36" fill="none" xmlns="http://www.w3.org/2000/svg">
<path d="M31.0909 0H4.90909C2.19787 0 0 2.19787 0 4.90909V31.0909C0 33.8021 2.19787 36 4.90909 36H31.0909C33.8021 36 36 33.8021 36 31.0909V4.90909C36 2.19787 33.8021 0 31.0909 0Z" fill="white"/>
<path fill-rule="evenodd" clip-rule="evenodd" d="M15.0333 9.00083C15.0333 9.00083 12.1726 8.89306 9.08632 11.1392C9.08632 11.1392 6 16.4329 6 22.9591C6 22.9591 7.71069 25.8889 12.4016 26C12.4016 26 13.0869 25.1026 13.7789 24.3129C11.1439 23.5249 10.1185 21.9489 10.1185 21.9489C10.1185 21.9489 10.3475 22.06 10.6909 22.2856H10.792C10.8412 22.2856 10.8649 22.3081 10.8901 22.3318L10.8947 22.3362V22.3463C10.9216 22.3732 10.9452 22.3968 10.9974 22.3968C16.5992 24.6698 21.2817 25.1952 26.6243 21.831C26.6243 21.831 25.5972 23.407 22.8527 24.195C23.4184 24.9796 24.2132 25.8788 24.2132 25.8788C28.0581 25.796 29.9768 23.8142 30.6011 23.1694C30.7387 23.0273 30.8134 22.9501 30.832 22.9726C30.832 16.4565 27.7272 11.1527 27.7272 11.1527C24.9523 9.12374 22.3594 9.03282 21.8694 9.03113L21.5562 9.33926C25.1005 10.3495 26.8162 11.9272 26.8162 11.9272C18.2067 7.68987 10.9989 11.22 9.91317 11.7517L9.91316 11.7517L9.91316 11.7517L9.91313 11.7517C9.8336 11.7907 9.78693 11.8135 9.77498 11.8161C9.77498 11.8161 11.4874 10.1289 15.264 9.22813L15.0333 9.00083ZM21.8795 9.02271L21.935 9.00251H21.8997L21.8795 9.02271ZM22.2379 20.9367C23.435 20.9367 24.4099 19.9264 24.4099 18.6805C24.4099 17.4429 23.4401 16.4327 22.2379 16.4327V16.4377C21.0458 16.4377 20.0692 17.4446 20.0658 18.6906C20.0658 19.9264 21.0407 20.9367 22.2379 20.9367ZM16.6344 18.6805C16.6344 19.9264 15.6595 20.9367 14.4624 20.9367C13.2652 20.9367 12.2903 19.9264 12.2903 18.6906C12.2903 17.4446 13.2652 16.4377 14.4624 16.4377L14.4691 16.4327C15.6663 16.4327 16.6344 17.4429 16.6344 18.6805Z" fill="#9387FF"/>
</svg>
