<svg width="36" height="36" viewBox="0 0 36 36" fill="none" xmlns="http://www.w3.org/2000/svg">
<path d="M31.0909 0H4.90909C2.19787 0 0 2.19787 0 4.90909V31.0909C0 33.8021 2.19787 36 4.90909 36H31.0909C33.8021 36 36 33.8021 36 31.0909V4.90909C36 2.19787 33.8021 0 31.0909 0Z" fill="white"/>
<path fill-rule="evenodd" clip-rule="evenodd" d="M28.3669 19H24.9998V32H19.9998V19H16.9998V15H19.9998V12.5898C20.0037 9.08203 21.4607 7 25.5935 7H28.9998V11H26.7146C25.1052 11 24.9998 11.6016 24.9998 12.7227V15H28.9998L28.3669 19Z" fill="#9387FF"/>
</svg>
