<svg width="36" height="36" viewBox="0 0 36 36" fill="none" xmlns="http://www.w3.org/2000/svg">
<path d="M31.0909 0H4.90909C2.19787 0 0 2.19787 0 4.90909V31.0909C0 33.8021 2.19787 36 4.90909 36H31.0909C33.8021 36 36 33.8021 36 31.0909V4.90909C36 2.19787 33.8021 0 31.0909 0Z" fill="white"/>
<path d="M18.0003 6.01157C13.0851 6.01157 8.41766 5.57468 6.63487 10.1465C5.89848 12.0347 6.00542 14.487 6.00542 17.9983C6.00542 21.0795 5.9066 23.9755 6.63487 25.8488C8.4136 30.4233 13.119 29.9851 17.9976 29.9851C22.7043 29.9851 27.5572 30.4747 29.3617 25.8488C30.0994 23.9416 29.9911 21.5259 29.9911 17.9983C29.9911 13.3156 30.2497 10.2925 27.9769 8.02288C25.6756 5.72346 22.5635 6.01157 17.9949 6.01157H18.0003ZM16.9255 8.17167C27.1782 8.15544 28.4831 7.01655 27.763 22.8379C27.5071 28.4336 23.2431 27.8195 18.0017 27.8195C8.44473 27.8195 8.16994 27.5463 8.16994 17.9929C8.16994 8.32857 8.92799 8.17708 16.9255 8.16897V8.17167ZM24.4032 10.1613C23.6086 10.1613 22.9642 10.8052 22.9642 11.5992C22.9642 12.3931 23.6086 13.037 24.4032 13.037C25.1978 13.037 25.8421 12.3931 25.8421 11.5992C25.8421 10.8052 25.1978 10.1613 24.4032 10.1613ZM18.0003 11.8426C14.5985 11.8426 11.8411 14.5992 11.8411 17.9983C11.8411 21.3974 14.5985 24.1526 18.0003 24.1526C21.4021 24.1526 24.1582 21.3974 24.1582 17.9983C24.1582 14.5992 21.4021 11.8426 18.0003 11.8426ZM18.0003 14.0027C23.2864 14.0027 23.2932 21.9939 18.0003 21.9939C12.7156 21.9939 12.7074 14.0027 18.0003 14.0027Z" fill="#9387FF"/>
</svg>
