<svg width="48" height="48" viewBox="0 0 48 48" fill="none" xmlns="http://www.w3.org/2000/svg">
<g opacity="0.2">
<path d="M24.3871 5.69443C24.4931 7.45576 23.5847 10.9784 19.103 10.9784C18.8658 8.88272 19.5906 4.89196 24.3871 5.69443Z" fill="url(#paint0_linear_3630_33492)"/>
<path d="M15.998 34.7785L17.7398 33.6985L18.7154 34.0121L20.6316 34.7785L22.8614 35.6147L23.9414 35.8237L24.491 37.3077C25.0369 37.2735 25.7529 37.1895 26.5767 37.0929C26.947 37.0494 27.3397 37.0033 27.748 36.9581C28.4634 36.5699 29.3365 36.1839 30.1537 35.8225C31.5534 35.2036 32.7893 34.6572 32.7893 34.296C34.2754 34.2558 36.2424 34.6342 37.976 35.2682L32.3919 30.56C32.3727 30.5438 32.3562 30.5248 32.3429 30.5035L29.529 25.9909C29.4707 25.8974 29.3278 25.9253 29.309 26.0339L29.0502 27.524C28.8419 28.7234 28.8173 29.9475 28.9773 31.1543L29.3628 34.0623L24.0225 35.2929V27.4109L21.4263 25.912C20.7015 25.4935 20.4531 24.5667 20.8716 23.8419C21.2901 23.1171 22.2169 22.8688 22.9416 23.2873L24.0225 23.9113V27.4109L26.6186 25.9118C27.3434 25.4933 27.5917 24.5666 27.1732 23.8418C26.7548 23.117 25.828 22.8686 25.1032 23.2871L24.0225 23.9113V16.6462L26.1358 15.9774V18.0281C26.1358 18.6949 26.7411 19.2354 27.4878 19.2354H29.3628C31.1992 19.2354 32.3629 20.2718 32.7605 21.6058L35.2262 28.5139C35.2685 28.544 35.314 28.5759 35.3622 28.6099C36.2864 29.2606 38.2329 30.631 39.3955 32.969C39.4159 33.0101 39.4579 33.0366 39.5038 33.0366H41.0355C41.0648 33.0366 41.093 33.0259 41.1149 33.0066L42.1168 32.1214L44.0578 34.3497L41.3476 37.1584L41.2039 37.0782C41.6962 37.5489 41.989 38.0536 41.989 38.571C41.7902 38.7251 41.5523 38.9851 41.264 39.3002C40.8385 39.765 40.3033 40.3499 39.6222 40.8916C39.6379 41.1246 39.6386 41.3697 39.6234 41.6275C38.1374 42.78 31.8554 43.8212 23.8484 39.6721L23.8324 39.6391L23.7672 39.7956L20.8058 38.611L15.998 34.7785Z" fill="url(#paint1_linear_3630_33492)"/>
<path d="M24.6342 5.95931C24.5565 7.24987 25.2221 9.83098 28.506 9.83098C28.6798 8.29543 28.1487 5.37133 24.6342 5.95931Z" fill="url(#paint2_linear_3630_33492)"/>
</g>
<path fill-rule="evenodd" clip-rule="evenodd" d="M20.1657 9.80555C20.1657 8.57692 20.4789 7.61687 21.0445 6.97753C21.5523 6.40349 22.3912 5.94387 23.7942 5.88746C23.7954 5.94969 23.7952 6.01394 23.7935 6.07996L23.7709 6.08681C23.7774 6.10822 23.7842 6.12995 23.7911 6.15198C23.7601 6.89753 23.5393 7.84841 22.9745 8.65166C22.4438 9.40643 21.5813 10.0726 20.1761 10.2975C20.1692 10.1379 20.1657 9.97396 20.1657 9.80555ZM20.3014 11.4921C20.6252 13.356 21.4888 14.4485 22.4591 14.9925C22.6744 15.1132 22.8847 15.2535 23.0584 15.3699L23.1003 15.398C23.2685 15.5109 23.4101 15.6059 23.5525 15.6914C23.8791 15.8875 24.0311 15.9189 24.0896 15.9189C24.0893 15.9189 24.0894 15.9189 24.0901 15.9188C24.0992 15.9174 24.2042 15.9009 24.4886 15.7245C24.5911 15.661 24.6854 15.5976 24.7968 15.5229L24.7969 15.5228L24.797 15.5227C24.8436 15.4914 24.8932 15.4582 24.9475 15.422C25.1125 15.3125 25.3197 15.1783 25.5409 15.0666C25.5592 15.0574 25.5774 15.048 25.5956 15.0384C25.6453 14.9988 25.7013 14.967 25.762 14.9446C26.9015 14.2613 27.8648 12.8082 27.9978 10.3875C26.7794 10.2827 25.8356 9.53699 25.1704 8.72165C24.9777 8.48547 24.8033 8.23761 24.647 7.98769C24.486 8.44666 24.261 8.90825 23.9561 9.3419C23.2197 10.3892 22.0469 11.2289 20.3014 11.4921ZM24.9949 5.96817C25.1992 6.54573 25.5725 7.31624 26.1002 7.96306C26.6301 8.6126 27.2611 9.07499 27.9844 9.1783C27.8946 8.24691 27.6001 7.50364 27.1347 6.97753C26.7052 6.49205 26.0389 6.08841 24.9949 5.9413L24.9949 5.96817ZM25.3692 16.5838C24.9602 16.8563 24.5314 17.1189 24.0896 17.1189C23.5488 17.1189 23.0276 16.7928 22.5383 16.466V17.5586C22.5383 18.6188 21.5987 19.3659 20.5863 19.3659H18.7113C17.1411 19.3659 16.2106 20.2271 15.8886 21.3076L15.8841 21.3229L15.8787 21.338L13.413 28.2461C13.3716 28.3621 13.2955 28.4625 13.195 28.5338L13.0653 28.6254C12.145 29.2741 10.309 30.5683 9.21586 32.7666C9.09616 33.0073 8.84871 33.1671 8.57029 33.1671H7.51424L7.86438 33.7739C8.03 34.0609 7.93159 34.4278 7.64457 34.5935C7.35756 34.7591 6.99063 34.6607 6.82501 34.3736L5.76325 32.5336C5.73305 32.4813 5.71163 32.4263 5.69853 32.3704L4.95794 33.7339C4.81693 33.9936 4.88591 34.3172 5.12053 34.4968L7.26958 36.1416C7.32222 36.1818 7.36632 36.2291 7.40159 36.2811C8.08942 35.8907 8.8335 35.5201 9.59985 35.1976C9.39763 34.9445 9.43287 34.5747 9.68207 34.3646L15.2521 29.6683L18.0359 25.2039C18.3857 24.643 19.2432 24.8104 19.3563 25.4617L19.6151 26.9518C19.8338 28.2112 19.8596 29.4965 19.6916 30.7636L19.3061 33.6717C19.3037 33.6899 19.3005 33.7079 19.2965 33.7255C19.6881 34.0062 20.1298 34.2827 20.5916 34.5042C21.3243 34.8558 22.0468 35.0398 22.6777 34.9497C23.0199 34.9008 23.3816 34.9633 23.6854 35.1305C23.8182 35.2036 23.9453 35.3003 24.0537 35.4204L24.0796 35.2574C24.1482 34.8244 24.4224 34.5119 24.731 34.3303C25.035 34.1515 25.4034 34.0776 25.7556 34.1231C26.4132 34.2082 27.1836 34.0268 27.959 33.6878C28.1655 33.5975 28.3682 33.4979 28.5643 33.3926L28.2159 30.7636C28.0479 29.4965 28.0737 28.2112 28.2924 26.9518L28.5512 25.4617C28.6643 24.8104 29.5218 24.643 29.8715 25.2039L32.6554 29.6683L38.2254 34.3646C38.3768 34.4923 38.4492 34.6788 38.4374 34.8624C39.2092 35.2462 39.9578 35.6887 40.6509 36.1459C40.6745 36.1201 40.7007 36.096 40.7295 36.0739L42.8786 34.4291C43.1132 34.2496 43.1822 33.9259 43.0412 33.6663L42.5058 32.6806L41.5289 34.3736C41.3633 34.6607 40.9964 34.7591 40.7093 34.5935C40.4223 34.4278 40.3239 34.0609 40.4895 33.7739L40.8397 33.1671H39.3372C39.0588 33.1671 38.8113 33.0073 38.6916 32.7666C37.5985 30.5683 35.7624 29.2741 34.8422 28.6254L34.7125 28.5338C34.612 28.4625 34.5359 28.3621 34.4945 28.2461L32.0288 21.338L32.0234 21.3229L32.0189 21.3076C31.6968 20.2271 30.7663 19.3659 29.1961 19.3659H27.3212C26.3088 19.3659 25.3692 18.6188 25.3692 17.5586V16.5838ZM29.682 32.6918C29.7791 32.6217 29.8716 32.5523 29.9585 32.4847C30.3498 32.1801 30.9022 32.1064 31.3681 32.3602L32.6404 33.0531C32.8926 33.1905 33.0523 33.3875 33.1331 33.6047H34.0429H34.0535V33.6048C34.6052 33.6147 35.1716 33.6989 35.74 33.8387L31.8385 30.5492C31.7714 30.4926 31.7136 30.4259 31.6672 30.3514L29.5184 26.9055L29.4747 27.1571C29.2768 28.2965 29.2535 29.4594 29.4054 30.6059L29.682 32.6918ZM32.8195 34.8048C32.7805 34.8384 32.7387 34.8692 32.6945 34.8966C32.6325 34.935 32.573 34.9649 32.5262 34.9874C32.5026 34.9986 32.4796 35.0092 32.4606 35.018L32.4571 35.0196C32.4385 35.0282 32.4235 35.035 32.409 35.0419C32.368 35.0614 32.3515 35.0715 32.3474 35.0739L32.3472 35.0741L31.5368 35.8344C31.6662 35.8329 31.7953 35.8326 31.9239 35.8335C33.2198 35.8435 34.4954 35.9864 35.6074 36.3439C36.72 36.7016 37.707 37.2871 38.3629 38.2073C38.5553 38.4771 38.4925 38.8518 38.2226 39.0441C37.9528 39.2365 37.5781 39.1737 37.3858 38.9038C36.9265 38.2595 36.1962 37.7937 35.2402 37.4863C34.2836 37.1788 33.1393 37.0429 31.9147 37.0335C29.4652 37.0147 26.7997 37.5019 24.9119 38.0039C24.2137 38.1896 23.4812 37.7588 23.3352 37.0303L23.1801 36.256C23.1784 36.2474 23.1708 36.217 23.1068 36.1818C23.0379 36.1439 22.9398 36.1244 22.8474 36.1376C21.8819 36.2755 20.9057 35.9859 20.0725 35.5861C19.231 35.1824 18.4727 34.6362 17.917 34.1759C17.8855 34.1499 17.8537 34.1507 17.8364 34.1578L16.432 34.7332C16.499 34.7637 16.586 34.8076 16.6618 34.8614L21.7284 38.4579C22.4812 38.718 23.256 38.9974 24.0445 39.2817C26.5432 40.1826 29.1795 41.1333 31.692 41.6768C35.0332 42.3997 37.9098 42.3421 39.8388 40.7006L41.4176 39.1217C41.7171 38.8223 41.6781 38.3685 41.3845 38.1425C40.3696 37.3611 39.1161 36.5305 37.8128 35.8923C36.5034 35.251 35.1891 34.8264 34.0374 34.8048H32.8195ZM29.676 35.9349L31.5304 34.195C31.6383 34.0938 31.7546 34.0273 31.8407 33.984L30.7941 33.414C30.7776 33.405 30.7378 33.3987 30.6956 33.4316C30.1164 33.8824 29.3172 34.4037 28.4397 34.7873C27.5711 35.1671 26.5666 35.4381 25.6016 35.3132C25.5098 35.3014 25.4102 35.323 25.3394 35.3646C25.2733 35.4035 25.2662 35.4363 25.2648 35.4453L25.0616 36.7264C26.3825 36.3981 28.0082 36.0889 29.676 35.9349ZM18.502 30.6059L18.1852 32.9959C17.9261 32.9274 17.6451 32.9394 17.3814 33.0474L15.8783 33.6632C15.629 33.7654 15.4472 33.9272 15.329 34.1183C14.0812 33.9394 12.662 34.1628 11.2835 34.584L16.069 30.5492C16.1361 30.4926 16.1939 30.4259 16.2403 30.3514L18.3891 26.9055L18.4328 27.1571C18.6306 28.2965 18.654 29.4594 18.502 30.6059ZM10.991 35.9442C12.5892 35.377 14.1337 35.1124 15.3302 35.3343C15.4455 35.5266 15.6187 35.6883 15.8457 35.7875C15.8644 35.7957 15.8843 35.8041 15.8997 35.8106L15.9106 35.8153L15.9253 35.8215C14.9773 35.8528 14.0367 35.957 13.1686 36.1592C11.7393 36.4921 10.4156 37.1124 9.63512 38.2073C9.44277 38.4771 9.50559 38.8518 9.77542 39.0441C10.0453 39.2365 10.4199 39.1736 10.6123 38.9038C11.1463 38.1547 12.1334 37.6324 13.4408 37.3279C14.7153 37.0311 16.2085 36.9619 17.6609 37.0422L21.104 39.4863L21.1744 39.5363L21.256 39.5644C21.5256 39.6572 21.7999 39.7533 22.0784 39.852C19.7175 40.6753 17.246 41.4563 14.9509 41.8191C12.1312 42.2648 9.74771 42.0509 8.15928 40.7005L6.49399 39.0352C6.23718 38.7784 6.28962 38.4195 6.51777 38.258C7.72146 37.406 9.34236 36.5294 10.991 35.9442ZM15.1383 43.0044C18.0115 42.5502 21.1136 41.4774 23.8639 40.4928C26.2998 41.3709 28.9381 42.3088 31.4382 42.8497C34.8481 43.5874 38.2479 43.6474 40.6372 41.5967L40.6545 41.5819L40.6707 41.5657L42.2661 39.9703C43.0398 39.1966 43.0256 37.8915 42.1166 37.1917C41.9743 37.0821 41.8274 36.9715 41.6762 36.8605L43.6079 35.382C44.3118 34.8433 44.5187 33.8724 44.0957 33.0936L43.028 31.1278C42.8699 30.8366 42.5056 30.7288 42.2144 30.8869C42.1353 30.9299 42.0697 30.9881 42.0193 31.0559C41.8561 31.037 41.6858 31.0849 41.5529 31.2023L40.6872 31.9671H39.6291C38.3923 29.6616 36.4615 28.297 35.5607 27.6636L33.1641 20.949C32.6865 19.3694 31.2919 18.1659 29.1961 18.1659H27.3212C26.8402 18.1659 26.5692 17.8319 26.5692 17.5586V15.8543C28.146 14.8081 29.2135 12.7591 29.2135 9.80555C29.2135 6.97569 27.7746 4.68164 24.0896 4.68164C20.4045 4.68164 18.9657 6.97569 18.9657 9.80555C18.9657 12.6743 19.9118 14.6208 21.3383 15.6913V17.5586C21.3383 17.8319 21.0673 18.1659 20.5863 18.1659H18.7113C16.6156 18.1659 15.221 19.3694 14.7434 20.949L12.3468 27.6636C11.446 28.297 9.51521 29.6616 8.27842 31.9671H7.22027L6.35453 31.2023C6.22987 31.0921 6.07224 31.0432 5.9184 31.0532C5.87955 31.0151 5.83485 30.9818 5.7847 30.9546C5.49351 30.7964 5.12924 30.9043 4.97109 31.1955L3.90343 33.1612C3.48041 33.9401 3.68734 34.911 4.39119 35.4497L6.33061 36.934C6.15561 37.0487 5.98665 37.1638 5.82449 37.2785C4.92206 37.9173 4.92283 39.1611 5.64546 39.8837L7.3274 41.5657L7.34355 41.5818L7.36089 41.5967C9.36604 43.3177 12.2201 43.4657 15.1383 43.0044Z" fill="url(#paint3_linear_3630_33492)"/>
<defs>
<linearGradient id="paint0_linear_3630_33492" x1="15.998" y1="5.58936" x2="15.998" y2="42.6531" gradientUnits="userSpaceOnUse">
<stop stop-color="#13E5BF"/>
<stop offset="1" stop-color="#01C38D"/>
</linearGradient>
<linearGradient id="paint1_linear_3630_33492" x1="15.998" y1="5.58936" x2="15.998" y2="42.6531" gradientUnits="userSpaceOnUse">
<stop stop-color="#13E5BF"/>
<stop offset="1" stop-color="#01C38D"/>
</linearGradient>
<linearGradient id="paint2_linear_3630_33492" x1="15.998" y1="5.58936" x2="15.998" y2="42.6531" gradientUnits="userSpaceOnUse">
<stop stop-color="#13E5BF"/>
<stop offset="1" stop-color="#01C38D"/>
</linearGradient>
<linearGradient id="paint3_linear_3630_33492" x1="3.68506" y1="4.68164" x2="3.68506" y2="43.3186" gradientUnits="userSpaceOnUse">
<stop stop-color="#13E5BF"/>
<stop offset="1" stop-color="#01C38D"/>
</linearGradient>
</defs>
</svg>
