<svg width="81" height="81" viewBox="0 0 81 81" fill="none" xmlns="http://www.w3.org/2000/svg">
<g clip-path="url(#clip0)">
<mask id="mask0" mask-type="alpha" maskUnits="userSpaceOnUse" x="9" y="7" width="63" height="68">
<path fill-rule="evenodd" clip-rule="evenodd" d="M40.4999 7.16675C39.441 7.16675 38.3821 7.43258 37.4333 7.96424L12.8996 21.7146C11.0021 22.7779 9.83301 24.744 9.83301 26.871V54.3717C9.83301 56.4988 11.0021 58.4644 12.8996 59.5281L37.4333 73.2781C39.3308 74.3418 41.6689 74.3418 43.5665 73.2781L68.0998 59.5281C69.9973 58.4644 71.1664 56.4988 71.1664 54.3717V26.871C71.1664 24.744 69.9973 22.7779 68.0998 21.7146L43.5665 7.96424C42.6177 7.43258 41.5588 7.16675 40.4999 7.16675Z" fill="url(#paint0_linear)"/>
</mask>
<g mask="url(#mask0)">
<g filter="url(#filter0_ii)">
<path fill-rule="evenodd" clip-rule="evenodd" d="M40.4999 7.16675C39.441 7.16675 38.3821 7.43258 37.4333 7.96424L12.8996 21.7146C11.0021 22.7779 9.83301 24.744 9.83301 26.871V54.3717C9.83301 56.4988 11.0021 58.4644 12.8996 59.5281L37.4333 73.2781C39.3308 74.3418 41.6689 74.3418 43.5665 73.2781L68.0998 59.5281C69.9973 58.4644 71.1664 56.4988 71.1664 54.3717V26.871C71.1664 24.744 69.9973 22.7779 68.0998 21.7146L43.5665 7.96424C42.6177 7.43258 41.5588 7.16675 40.4999 7.16675Z" fill="url(#paint1_linear)"/>
</g>
<g style="mix-blend-mode:multiply">
<path d="M9.80195 80.5002L54.9655 54.8445V49.1117L59.6947 46.0377V35.0424L54.9655 32.3232V26.8846L45.5072 21.5643L42.0785 22.2737L38.5316 24.4018L39.0046 22.3919L35.6941 20.5002L-2.9668 42.7273V80.5002H9.80195Z" fill="url(#paint2_linear)" fill-opacity="0.5"/>
</g>
</g>
<path fill-rule="evenodd" clip-rule="evenodd" d="M45.2685 20.5L41.9872 22.3666V38.2242L43.7791 39.245V27.1683L49.9302 30.6687L49.9362 30.6659L51.1305 31.3445L52.1277 30.7808V29.8277L43.7791 25.0834V23.4323L45.2685 22.5853L53.9145 27.506V31.8856L49.7639 34.2342L49.6237 34.1646C49.3711 34.04 49.1093 33.9765 48.8464 33.9765C47.8588 33.9765 47.0549 34.7926 47.0549 35.7952C47.0549 36.7979 47.8588 37.6144 48.8464 37.6144C49.7627 37.6144 50.5247 36.912 50.6185 35.981L50.6343 35.8242L54.8233 33.4539L58.7081 35.665V45.4477L54.8189 47.6588L39.0124 38.6604V22.3678L35.7311 20.5L25.294 26.4402V31.8611L20.5 34.586V46.501L25.294 49.2295V54.66L35.7311 60.6003L39.0124 58.7329V42.841L37.2205 41.8215V53.9324L29.8695 49.7558L28.8719 50.3194V51.273L37.2205 56.0176V57.6671L35.7311 58.515L27.0856 53.5943V49.2138L31.2361 46.8665L31.3755 46.9356C31.6293 47.0602 31.8903 47.1237 32.1528 47.1237C33.1409 47.1237 33.9447 46.3081 33.9447 45.305C33.9447 44.3016 33.1409 43.4863 32.1528 43.4863C31.2373 43.4863 30.4761 44.1882 30.3811 45.1197L30.3661 45.2761L26.1763 47.6468L22.2915 45.4353V35.6525L26.1811 33.4418L41.9872 42.439V58.7329L45.2685 60.6003L55.706 54.66V49.2392L60.5 46.5147V34.5992L55.706 31.8715V26.4402L45.2685 20.5ZM27.0843 27.5058L35.7298 22.5851L37.2192 23.4325V25.0824L27.0843 30.8422V27.5058ZM28.0135 32.399L37.219 27.1663V37.6389L28.0135 32.399ZM43.7793 43.4593L52.9856 48.7004L43.7793 53.9331V43.4593ZM43.7793 57.6671V56.018L53.9146 50.2575V53.5942L45.2686 58.5149L43.7793 57.6671Z" fill="white"/>
</g>
<defs>
<filter id="filter0_ii" x="8.18301" y="7.16675" width="64.0833" height="66.9091" filterUnits="userSpaceOnUse" color-interpolation-filters="sRGB">
<feFlood flood-opacity="0" result="BackgroundImageFix"/>
<feBlend mode="normal" in="SourceGraphic" in2="BackgroundImageFix" result="shape"/>
<feColorMatrix in="SourceAlpha" type="matrix" values="0 0 0 0 0 0 0 0 0 0 0 0 0 0 0 0 0 0 127 0" result="hardAlpha"/>
<feOffset dx="-2.2"/>
<feGaussianBlur stdDeviation="0.825"/>
<feComposite in2="hardAlpha" operator="arithmetic" k2="-1" k3="1"/>
<feColorMatrix type="matrix" values="0 0 0 0 1 0 0 0 0 1 0 0 0 0 1 0 0 0 0.6 0"/>
<feBlend mode="normal" in2="shape" result="effect1_innerShadow"/>
<feColorMatrix in="SourceAlpha" type="matrix" values="0 0 0 0 0 0 0 0 0 0 0 0 0 0 0 0 0 0 127 0" result="hardAlpha"/>
<feOffset dx="2.2"/>
<feGaussianBlur stdDeviation="0.55"/>
<feComposite in2="hardAlpha" operator="arithmetic" k2="-1" k3="1"/>
<feColorMatrix type="matrix" values="0 0 0 0 0 0 0 0 0 0 0 0 0 0 0 0 0 0 0.2 0"/>
<feBlend mode="normal" in2="effect1_innerShadow" result="effect2_innerShadow"/>
</filter>
<linearGradient id="paint0_linear" x1="42.953" y1="7.91573" x2="25.9706" y2="70.6828" gradientUnits="userSpaceOnUse">
<stop stop-color="#5F697A"/>
<stop offset="1" stop-color="#191E29"/>
</linearGradient>
<linearGradient id="paint1_linear" x1="9.83301" y1="7.16675" x2="9.83301" y2="74.0759" gradientUnits="userSpaceOnUse">
<stop stop-color="#13E5BF"/>
<stop offset="1" stop-color="#01C38D"/>
</linearGradient>
<linearGradient id="paint2_linear" x1="43.9005" y1="22.2725" x2="32.5011" y2="64.0134" gradientUnits="userSpaceOnUse">
<stop stop-color="#8F96A1"/>
<stop offset="1" stop-color="#8F96A1" stop-opacity="0"/>
</linearGradient>
<clipPath id="clip0">
<rect width="80" height="80" fill="white" transform="translate(0.5 0.5)"/>
</clipPath>
</defs>
</svg>
