<svg width="81" height="81" viewBox="0 0 81 81" fill="none" xmlns="http://www.w3.org/2000/svg">
<mask id="mask0" mask-type="alpha" maskUnits="userSpaceOnUse" x="9" y="7" width="63" height="68">
<path fill-rule="evenodd" clip-rule="evenodd" d="M40.4999 7.16675C39.441 7.16675 38.3821 7.43258 37.4333 7.96424L12.8996 21.7146C11.0021 22.7779 9.83301 24.744 9.83301 26.871V54.3717C9.83301 56.4988 11.0021 58.4644 12.8996 59.5281L37.4333 73.2781C39.3308 74.3418 41.6689 74.3418 43.5665 73.2781L68.0998 59.5281C69.9973 58.4644 71.1664 56.4988 71.1664 54.3717V26.871C71.1664 24.744 69.9973 22.7779 68.0998 21.7146L43.5665 7.96424C42.6177 7.43258 41.5588 7.16675 40.4999 7.16675Z" fill="url(#paint0_linear)"/>
</mask>
<g mask="url(#mask0)">
<g filter="url(#filter0_ii)">
<path fill-rule="evenodd" clip-rule="evenodd" d="M40.4999 7.16675C39.441 7.16675 38.3821 7.43258 37.4333 7.96424L12.8996 21.7146C11.0021 22.7779 9.83301 24.744 9.83301 26.871V54.3717C9.83301 56.4988 11.0021 58.4644 12.8996 59.5281L37.4333 73.2781C39.3308 74.3418 41.6689 74.3418 43.5665 73.2781L68.0998 59.5281C69.9973 58.4644 71.1664 56.4988 71.1664 54.3717V26.871C71.1664 24.744 69.9973 22.7779 68.0998 21.7146L43.5665 7.96424C42.6177 7.43258 41.5588 7.16675 40.4999 7.16675Z" fill="url(#paint1_linear)"/>
</g>
<g style="mix-blend-mode:multiply">
<path d="M9.80195 80.5002L40.4999 60.5002L39.9665 59.1669V57.7002V56.3669V45.7002L34.6332 43.8335L31.2999 41.1669L28.7665 36.9002L28.0999 32.9002L28.7665 29.3002L30.2332 26.2335L33.0332 22.6335L-2.9668 43.0335V80.5002H9.80195Z" fill="url(#paint2_linear)" fill-opacity="0.5"/>
</g>
</g>
<path d="M24.583 46.2312L40.4998 55.7812C37.4736 56.7352 33.5947 56.3902 30.6245 54.712C27.6496 53.0312 25.2489 49.2785 24.583 46.2312Z" fill="white" fill-opacity="0.3"/>
<path d="M56.417 46.2312L40.5002 55.2507C43.9298 56.3718 48.326 55.9549 51.6922 53.9827C55.0637 52.0074 55.6623 49.8124 56.417 46.2312Z" fill="white" fill-opacity="0.3"/>
<ellipse cx="40.5002" cy="32.967" rx="9.55005" ry="9.55005" fill="white" fill-opacity="0.3"/>
<path fill-rule="evenodd" clip-rule="evenodd" d="M40.5001 44.6391C46.9466 44.6391 52.1724 39.4132 52.1724 32.9668C52.1724 26.5204 46.9466 21.2945 40.5001 21.2945C34.0537 21.2945 28.8278 26.5204 28.8278 32.9668C28.8278 39.4132 34.0537 44.6391 40.5001 44.6391ZM40.5001 45.7002C47.5326 45.7002 53.2335 39.9993 53.2335 32.9668C53.2335 25.9343 47.5326 20.2334 40.5001 20.2334C33.4677 20.2334 27.7667 25.9343 27.7667 32.9668C27.7667 39.9993 33.4677 45.7002 40.5001 45.7002Z" fill="white"/>
<path fill-rule="evenodd" clip-rule="evenodd" d="M55.7914 46.6366C55.0498 49.7238 53.4036 52.5901 50.5146 54.2587C47.6064 55.9385 44.1599 56.1484 41.1289 55.2779C41.8989 52.2738 43.9427 49.6525 46.8782 47.957C49.8171 46.2595 52.8363 45.8027 55.7914 46.6366ZM56.5824 45.7688C53.1612 44.6454 49.6688 45.1198 46.3475 47.0382C43.0224 48.9587 40.7181 52.0092 39.9808 55.5307C39.9254 55.7953 40.0778 56.0592 40.3346 56.1435C43.7179 57.2544 47.6899 57.1156 51.0454 55.1776C54.4224 53.2271 56.2125 49.838 56.9362 46.3816L57.0335 45.9169L56.5824 45.7688Z" fill="white"/>
<path fill-rule="evenodd" clip-rule="evenodd" d="M25.2088 46.6366C25.9504 49.7238 27.5966 52.5901 30.4856 54.2587C33.3938 55.9385 36.8404 56.1484 39.8714 55.2779C39.1013 52.2738 37.0576 49.6525 34.1221 47.957C31.1831 46.2595 28.164 45.8027 25.2088 46.6366ZM24.4179 45.7688C27.839 44.6454 31.3314 45.1198 34.6528 47.0382C37.9779 48.9587 40.2822 52.0092 41.0194 55.5307C41.0748 55.7953 40.9225 56.0592 40.6656 56.1435C37.2823 57.2544 33.3103 57.1156 29.9549 55.1776C26.5779 53.2271 24.7877 49.838 24.0641 46.3816L23.9668 45.9169L24.4179 45.7688Z" fill="white"/>
<path fill-rule="evenodd" clip-rule="evenodd" d="M39.9696 60.0253V45.7002H41.0307V60.0253C41.0307 60.3183 40.7931 60.5558 40.5001 60.5558C40.2071 60.5558 39.9696 60.3183 39.9696 60.0253Z" fill="white"/>
<path d="M40.9328 39.4927H39.8186V38.1079C38.0837 37.901 37.0332 36.7072 37.0332 35.1156H38.3065C38.3065 36.3093 39.0228 37.0256 40.3757 37.0256C41.7286 37.0256 42.4449 36.3093 42.4449 35.4339C42.4449 32.9668 37.1128 34.2401 37.1128 30.6589C37.1128 29.4492 38.1951 28.2236 39.8186 28.0008V26.6001H40.9328V28.0008C42.1103 28.2056 43.0408 29.0484 43.3602 30.1404L42.2061 30.9772C42.2061 29.863 41.4103 29.0672 40.3757 29.0672C39.182 29.0672 38.3861 29.863 38.3861 30.6589C38.3861 33.126 43.7182 31.8526 43.7182 35.4339C43.7182 36.7391 42.6677 37.901 40.9328 38.1079V39.4927Z" fill="white"/>
<defs>
<filter id="filter0_ii" x="8.18301" y="7.16675" width="64.0833" height="66.9091" filterUnits="userSpaceOnUse" color-interpolation-filters="sRGB">
<feFlood flood-opacity="0" result="BackgroundImageFix"/>
<feBlend mode="normal" in="SourceGraphic" in2="BackgroundImageFix" result="shape"/>
<feColorMatrix in="SourceAlpha" type="matrix" values="0 0 0 0 0 0 0 0 0 0 0 0 0 0 0 0 0 0 127 0" result="hardAlpha"/>
<feOffset dx="-2.2"/>
<feGaussianBlur stdDeviation="0.825"/>
<feComposite in2="hardAlpha" operator="arithmetic" k2="-1" k3="1"/>
<feColorMatrix type="matrix" values="0 0 0 0 1 0 0 0 0 1 0 0 0 0 1 0 0 0 0.6 0"/>
<feBlend mode="normal" in2="shape" result="effect1_innerShadow"/>
<feColorMatrix in="SourceAlpha" type="matrix" values="0 0 0 0 0 0 0 0 0 0 0 0 0 0 0 0 0 0 127 0" result="hardAlpha"/>
<feOffset dx="2.2"/>
<feGaussianBlur stdDeviation="0.55"/>
<feComposite in2="hardAlpha" operator="arithmetic" k2="-1" k3="1"/>
<feColorMatrix type="matrix" values="0 0 0 0 0 0 0 0 0 0 0 0 0 0 0 0 0 0 0.2 0"/>
<feBlend mode="normal" in2="effect1_innerShadow" result="effect2_innerShadow"/>
</filter>
<linearGradient id="paint0_linear" x1="42.953" y1="7.91573" x2="25.9706" y2="70.6828" gradientUnits="userSpaceOnUse">
<stop stop-color="#5F697A"/>
<stop offset="1" stop-color="#191E29"/>
</linearGradient>
<linearGradient id="paint1_linear" x1="9.83301" y1="7.16675" x2="9.83301" y2="74.0759" gradientUnits="userSpaceOnUse">
<stop stop-color="#13E5BF"/>
<stop offset="1" stop-color="#01C38D"/>
</linearGradient>
<linearGradient id="paint2_linear" x1="43.9005" y1="22.2724" x2="32.501" y2="64.0134" gradientUnits="userSpaceOnUse">
<stop stop-color="#8F96A1" stop-opacity="0.5"/>
<stop offset="1" stop-color="#8F96A1" stop-opacity="0"/>
</linearGradient>
</defs>
</svg>
