<svg width="100" height="100" viewBox="0 0 100 100" fill="none" xmlns="http://www.w3.org/2000/svg">
<path d="M90.3335 79.0231C93.3586 77.3128 95.8334 73.1148 95.8334 69.6942V30.3058C95.8334 26.8852 93.3586 22.6872 90.3335 20.9769L55.4999 1.28272C52.4747 -0.427572 47.5253 -0.427572 44.5001 1.28272L9.66656 20.9769C6.64142 22.6872 4.16669 26.8852 4.16669 30.3058V69.6942C4.16669 73.1148 6.64142 77.3128 9.66656 79.0231L44.5001 98.7173C47.5253 100.428 52.4747 100.428 55.4999 98.7173L90.3335 79.0231Z" fill="url(#paint0_linear_121_48502)"/>
<path d="M74.7382 63.2201L66.4841 72.2912C66.3055 72.4883 66.0894 72.6455 65.8489 72.7531C65.6085 72.8607 65.349 72.9164 65.0867 72.9167H25.959C25.7724 72.9166 25.5899 72.8607 25.4338 72.7559C25.2776 72.6511 25.1547 72.5019 25.0801 72.3266C25.0055 72.1513 24.9823 71.9575 25.0135 71.7689C25.0447 71.5803 25.1288 71.4051 25.2557 71.2648L33.5004 62.1936C33.679 61.9966 33.8951 61.8394 34.1356 61.7318C34.376 61.6242 34.6355 61.5685 34.8978 61.5682H74.0255C74.2137 61.5642 74.3991 61.6174 74.5579 61.7211C74.7167 61.8248 74.8425 61.9743 74.9184 62.1509C74.9948 62.3275 75.0181 62.5232 74.986 62.7135C74.9538 62.9037 74.8677 63.08 74.7382 63.2201ZM66.4841 44.9489C66.3049 44.7528 66.0885 44.5962 65.8483 44.4886C65.608 44.3811 65.3488 44.3249 65.0867 44.3235H25.959C25.7724 44.3236 25.5899 44.3795 25.4338 44.4843C25.2776 44.5891 25.1547 44.7383 25.0801 44.9136C25.0055 45.0889 24.9823 45.2827 25.0135 45.4713C25.0447 45.6599 25.1288 45.8351 25.2557 45.9754L33.5004 55.0513C33.6796 55.2475 33.896 55.4041 34.1362 55.5116C34.3765 55.6191 34.6357 55.6753 34.8978 55.6767H74.0255C74.2118 55.6757 74.3935 55.6191 74.549 55.514C74.7046 55.4088 74.8267 55.2596 74.9007 55.0845C74.9748 54.9093 74.9976 54.7159 74.9659 54.5277C74.9347 54.3396 74.8509 54.1648 74.7242 54.0249L66.4841 44.9489ZM25.959 38.432H65.0867C65.349 38.4318 65.6085 38.376 65.8489 38.2684C66.0894 38.1609 66.3055 38.0036 66.4841 37.8066L74.7382 28.7354C74.8677 28.5953 74.9538 28.4191 74.986 28.2288C75.0181 28.0386 74.9948 27.8428 74.9184 27.6662C74.8425 27.4897 74.7167 27.3401 74.5579 27.2364C74.3991 27.1328 74.2137 27.0796 74.0255 27.0835H34.8978C34.6355 27.0838 34.376 27.1395 34.1356 27.2471C33.8951 27.3547 33.679 27.5119 33.5004 27.709L25.2557 36.7801C25.1288 36.9204 25.0447 37.0956 25.0135 37.2842C24.9823 37.4728 25.0055 37.6666 25.0801 37.8419C25.1547 38.0172 25.2776 38.1664 25.4338 38.2712C25.5899 38.376 25.7724 38.4319 25.959 38.432Z" fill="white"/>
<defs>
<linearGradient id="paint0_linear_121_48502" x1="11.9027" y1="102.386" x2="104.027" y2="17.2396" gradientUnits="userSpaceOnUse">
<stop offset="0.08" stop-color="#9945FF"/>
<stop offset="0.3" stop-color="#8752F3"/>
<stop offset="0.5" stop-color="#5497D5"/>
<stop offset="0.6" stop-color="#43B4CA"/>
<stop offset="0.72" stop-color="#28E0B9"/>
<stop offset="0.97" stop-color="#19FB9B"/>
</linearGradient>
</defs>
</svg>
