<svg width="100" height="100" viewBox="0 0 100 100" fill="none" xmlns="http://www.w3.org/2000/svg">
<path d="M90.3334 79.0231C93.3586 77.3128 95.8333 73.1148 95.8333 69.6942V30.3058C95.8333 26.8852 93.3586 22.6872 90.3334 20.9769L55.4999 1.28272C52.4747 -0.427572 47.5253 -0.427572 44.5001 1.28272L9.66653 20.9769C6.64139 22.6872 4.16666 26.8852 4.16666 30.3058V69.6942C4.16666 73.1148 6.64139 77.3128 9.66653 79.0231L44.5001 98.7173C47.5253 100.428 52.4747 100.428 55.4999 98.7173L90.3334 79.0231Z" fill="url(#paint0_linear_121_48508)"/>
<path fill-rule="evenodd" clip-rule="evenodd" d="M36.5111 70.8324H27.4033C25.4895 70.8324 24.5441 70.8324 23.9676 70.4807C23.3451 70.0959 22.9646 69.4585 22.9184 68.7551C22.8839 68.1066 23.3565 67.3152 24.302 65.7325L46.7903 27.9428C47.7472 26.3381 48.2315 25.5358 48.8425 25.239C49.4997 24.9203 50.2836 24.9203 50.9408 25.239C51.5518 25.5358 52.0361 26.3381 52.993 27.9428L57.6161 35.6366L57.6397 35.6759C58.6732 37.3974 59.1973 38.2704 59.4261 39.1867C59.6797 40.1869 59.6797 41.242 59.4261 42.2422C59.1956 43.1655 58.6767 44.0448 57.6275 45.7924L45.815 65.6995L45.7844 65.7506C44.744 67.4863 44.2168 68.3659 43.4861 69.0299C42.6907 69.7553 41.7338 70.2827 40.6846 70.5795C39.7277 70.8324 38.6555 70.8324 36.5111 70.8324ZM59.5114 70.8333H72.5623C74.4876 70.8333 75.456 70.8333 76.0325 70.4707C76.655 70.0859 77.047 69.4374 77.0816 68.734C77.115 68.107 76.6525 67.3462 75.7463 65.8555C75.7154 65.8046 75.6839 65.7531 75.652 65.7005L69.1151 55.0392L69.0407 54.9193C68.1221 53.4382 67.6581 52.6904 67.0629 52.4013C66.4058 52.0825 65.6334 52.0825 64.9762 52.4013C64.3767 52.698 63.8924 53.4784 62.9355 55.0501L56.4217 65.7114L56.3994 65.7482C55.4458 67.3174 54.9693 68.1016 55.0037 68.7451C55.0498 69.4485 55.4302 70.097 56.0528 70.4816C56.6177 70.8333 57.5861 70.8333 59.5114 70.8333Z" fill="white"/>
<defs>
<linearGradient id="paint0_linear_121_48508" x1="50" y1="0" x2="50" y2="100" gradientUnits="userSpaceOnUse">
<stop stop-color="#F7716B"/>
<stop offset="1" stop-color="#CC3831"/>
</linearGradient>
</defs>
</svg>
