<svg width="24" height="25" viewBox="0 0 24 25" fill="none" xmlns="http://www.w3.org/2000/svg">
<g clip-path="url(#clip0_606_7245)">
<path d="M21.68 19.4655C22.4061 19.0551 23 18.0476 23 17.2266V7.77339C23 6.95245 22.4061 5.94493 21.68 5.53446L13.32 0.807852C12.5939 0.397383 11.4061 0.397383 10.68 0.807852L2.31997 5.53446C1.59394 5.94493 1 6.95245 1 7.77339V17.2266C1 18.0476 1.59394 19.0551 2.31997 19.4655L10.68 24.1921C11.4061 24.6026 12.5939 24.6026 13.32 24.1921L21.68 19.4655Z" fill="url(#paint0_linear_606_7245)"/>
<path d="M12.0003 8.14635C13.5231 8.14635 14.7575 7.44202 14.7575 6.57318C14.7575 5.70434 13.5231 5 12.0003 5C10.4776 5 9.24316 5.70434 9.24316 6.57318C9.24316 7.44202 10.4776 8.14635 12.0003 8.14635Z" fill="#E6007A"/>
<path d="M12.0003 20C13.5231 20 14.7575 19.2957 14.7575 18.4268C14.7575 17.558 13.5231 16.8536 12.0003 16.8536C10.4776 16.8536 9.24316 17.558 9.24316 18.4268C9.24316 19.2957 10.4776 20 12.0003 20Z" fill="#E6007A"/>
<path d="M8.15783 10.324C8.9192 9.03026 8.91426 7.62909 8.1468 7.19438C7.37933 6.75966 6.13996 7.45602 5.37859 8.74973C4.61721 10.0434 4.62216 11.4446 5.38962 11.8793C6.15709 12.314 7.39646 11.6177 8.15783 10.324Z" fill="#E6007A"/>
<path d="M18.6208 16.2501C19.3822 14.9564 19.3777 13.5555 18.6107 13.1211C17.8438 12.6867 16.6048 13.3833 15.8434 14.677C15.0821 15.9707 15.0866 17.3716 15.8535 17.806C16.6205 18.2404 17.8594 17.5439 18.6208 16.2501Z" fill="#E6007A"/>
<path d="M8.14728 17.8057C8.91475 17.3709 8.91969 15.9698 8.15832 14.6761C7.39695 13.3824 6.15758 12.686 5.39011 13.1207C4.62264 13.5554 4.6177 14.9566 5.37907 16.2503C6.14045 17.544 7.37981 18.2404 8.14728 17.8057Z" fill="#E6007A"/>
<path d="M18.6112 11.8796C19.3781 11.4452 19.3827 10.0443 18.6213 8.75058C17.8599 7.45687 16.621 6.76028 15.854 7.1947C15.0871 7.62913 15.0825 9.03005 15.8439 10.3238C16.6053 11.6175 17.8442 12.3141 18.6112 11.8796Z" fill="#E6007A"/>
</g>
<defs>
<linearGradient id="paint0_linear_606_7245" x1="12" y1="24.5" x2="14.0478" y2="0.676012" gradientUnits="userSpaceOnUse">
<stop stop-color="#E6E6E6"/>
<stop offset="1" stop-color="white"/>
</linearGradient>
<clipPath id="clip0_606_7245">
<rect width="24" height="24" fill="white" transform="translate(0 0.5)"/>
</clipPath>
</defs>
</svg>
