<?xml version="1.0" encoding="UTF-8"?>
<svg width="24px" height="24px" viewBox="0 0 24 24" version="1.1" xmlns="http://www.w3.org/2000/svg" xmlns:xlink="http://www.w3.org/1999/xlink">
    <title>Assets/Crypto/bnb</title>
    <defs>
        <linearGradient x1="34.2308436%" y1="3.92267742%" x2="55.6670012%" y2="93.5384115%" id="linearGradient-1">
            <stop stop-color="#F7CF6D" offset="0%"></stop>
            <stop stop-color="#F3BA2F" offset="100%"></stop>
        </linearGradient>
    </defs>
    <g id="Assets/Crypto/bnb" stroke="none" stroke-width="1" fill="none" fill-rule="evenodd">
        <path d="M21.6800305,18.9655351 C22.4060645,18.5550661 23,17.5475512 23,16.7266131 L23,7.27338689 C23,6.45244882 22.4060645,5.44493392 21.6800305,5.03446489 L13.3199695,0.307851775 C12.5939355,-0.102617258 11.4060645,-0.102617258 10.6800305,0.307851775 L2.31996952,5.03446489 C1.59393547,5.44493392 1,6.45244882 1,7.27338689 L1,16.7266131 C1,17.5475512 1.59393547,18.5550661 2.31996952,18.9655351 L10.6800305,23.6921482 C11.4060645,24.1026173 12.5939355,24.1026173 13.3199695,23.6921482 L21.6800305,18.9655351 Z" id="Stroke-3" fill="url(#linearGradient-1)" fill-rule="nonzero"></path>
        <g id="binance-coin-bnb-logo" transform="translate(5.000000, 5.000000)" fill="#FFFFFF" fill-rule="nonzero">
            <path d="M4.4034048,6.0509952 L7.2,3.2544 L9.99792,6.0522048 L11.62512,4.4250048 L7.2,0 L2.77632,4.42368 L4.4034624,6.05088 M0,7.2 L1.6272576,5.572512 L3.2544,7.1996544 L1.6271424,8.826912 L0,7.2 Z M4.4034048,8.3491776 L7.2,11.1456 L9.9978624,8.3478528 L11.6259264,9.9741888 L11.62512,9.9750528 L7.2,14.4 L2.77632,9.97632 L2.774016,9.974016 L4.4035776,8.3490048 M11.1456,7.2006912 L12.7728576,5.5734336 L14.4,7.200576 L12.7728,8.8278336 L11.1456,7.2006912 Z" id="Shape"></path>
            <polyline id="Path" points="8.8503552 7.199136 8.8510464 7.199136 7.2 5.5479744 5.9796288 6.768 5.9796288 6.768 5.8394304 6.908256 5.5502784 7.1974656 5.5479744 7.199712 5.5502784 7.2020736 7.2 8.8520256 8.8511616 7.200864 8.851968 7.1999424 8.8504704 7.199136"></polyline>
        </g>
    </g>
</svg>