<svg width="49" height="48" viewBox="0 0 49 48" fill="none" xmlns="http://www.w3.org/2000/svg">
<g opacity="0.2">
<path d="M5.51111 10.7566C3.55309 11.1018 2.24569 12.969 2.59094 14.927L5.71661 32.6535C5.90507 33.7224 6.54705 34.5974 7.40975 35.1155V19.2252C7.40975 17.2369 9.02153 15.6252 11.0098 15.6252H39.2694L38.044 8.67566C37.6988 6.71764 35.8316 5.41024 33.8736 5.75549L5.51111 10.7566Z" fill="url(#paint0_linear_2824_28183)"/>
<path d="M41.0098 37.2C41.0098 40.5137 38.3235 43.2 35.0098 43.2C31.6961 43.2 29.0098 40.5137 29.0098 37.2C29.0098 33.8863 31.6961 31.2 35.0098 31.2C38.3235 31.2 41.0098 33.8863 41.0098 37.2Z" fill="url(#paint1_linear_2824_28183)"/>
<path d="M13.4098 20.4451C12.747 20.4451 12.2098 20.9823 12.2098 21.6451V25.2451C12.2098 25.9078 12.747 26.4451 13.4098 26.4451H18.2098C18.8725 26.4451 19.4098 25.9078 19.4098 25.2451V21.6451C19.4098 20.9824 18.8725 20.4451 18.2098 20.4451H13.4098Z" fill="url(#paint2_linear_2824_28183)"/>
</g>
<path fill-rule="evenodd" clip-rule="evenodd" d="M12.2098 21.6451C12.2098 20.9823 12.747 20.4451 13.4098 20.4451H18.2098C18.8725 20.4451 19.4098 20.9824 19.4098 21.6451V25.2451C19.4098 25.9078 18.8725 26.4451 18.2098 26.4451H13.4098C12.747 26.4451 12.2098 25.9078 12.2098 25.2451V21.6451ZM13.4098 21.6451H18.2098V25.2451H13.4098V21.6451Z" fill="url(#paint3_linear_2824_28183)"/>
<path d="M17.0098 35.373C17.0098 35.7044 16.7411 35.973 16.4098 35.973H12.8098C12.4784 35.973 12.2098 35.7044 12.2098 35.373C12.2098 35.0417 12.4784 34.773 12.8098 34.773H16.4098C16.7411 34.773 17.0098 35.0417 17.0098 35.373Z" fill="url(#paint4_linear_2824_28183)"/>
<path d="M23.6098 35.973C23.9411 35.973 24.2098 35.7044 24.2098 35.373C24.2098 35.0417 23.9411 34.773 23.6098 34.773H20.0098C19.6784 34.773 19.4098 35.0417 19.4098 35.373C19.4098 35.7044 19.6784 35.973 20.0098 35.973H23.6098Z" fill="url(#paint5_linear_2824_28183)"/>
<path d="M31.4672 37.1197C31.4672 36.7883 31.7358 36.5197 32.0672 36.5197H34.4139V34.2575C34.4139 33.9261 34.6825 33.6575 35.0139 33.6575C35.3452 33.6575 35.6139 33.9261 35.6139 34.2575V36.5197H37.9522C38.2836 36.5197 38.5522 36.7883 38.5522 37.1197C38.5522 37.4511 38.2836 37.7197 37.9522 37.7197H35.6139V40.1425C35.6139 40.4739 35.3452 40.7425 35.0139 40.7425C34.6825 40.7425 34.4139 40.4739 34.4139 40.1425V37.7197H32.0672C31.7358 37.7197 31.4672 37.4511 31.4672 37.1197Z" fill="url(#paint6_linear_2824_28183)"/>
<path fill-rule="evenodd" clip-rule="evenodd" d="M5.71661 32.6535C5.90507 33.7224 6.54706 34.5974 7.40977 35.1155V37.2252C7.40977 39.2134 9.02154 40.8252 11.0098 40.8252H27.4301C28.7834 43.6495 31.6688 45.6 35.0098 45.6C39.6362 45.6 43.3891 41.8598 43.4097 37.2381L43.4098 37.2252V19.2252C43.4098 17.2369 41.798 15.6252 39.8098 15.6252H39.2694L38.044 8.67566C37.6988 6.71764 35.8316 5.41024 33.8736 5.75549L5.51111 10.7566C3.55309 11.1018 2.24569 12.969 2.59094 14.927L5.71661 32.6535ZM5.71949 11.9383L34.082 6.93726C35.3873 6.70709 36.6321 7.5787 36.8622 8.88404L37.2063 10.8353L4.11677 16.6699L3.77271 14.7186C3.54254 13.4133 4.41414 12.1685 5.71949 11.9383ZM4.32515 17.8517L6.89837 32.4452C6.97301 32.8684 7.15431 33.2461 7.40977 33.5553V19.2252C7.40977 18.4732 7.64033 17.775 8.03463 17.1976L4.32515 17.8517ZM42.2098 32.8709V19.2252C42.2098 17.8997 41.1352 16.8252 39.8098 16.8252H11.0098C9.68428 16.8252 8.60977 17.8997 8.60977 19.2252V37.2252C8.60977 38.5507 9.68428 39.6252 11.0098 39.6252H26.9651C26.734 38.8573 26.6098 38.0432 26.6098 37.2C26.6098 32.5608 30.3706 28.8 35.0098 28.8C38.0654 28.8 40.7399 30.4315 42.2098 32.8709ZM37.4147 12.0171L38.0509 15.6252H16.9522L37.4147 12.0171ZM42.2098 37.2C42.2098 41.1765 38.9862 44.4 35.0098 44.4C31.0333 44.4 27.8098 41.1765 27.8098 37.2C27.8098 33.2236 31.0333 30 35.0098 30C38.9862 30 42.2098 33.2236 42.2098 37.2Z" fill="url(#paint7_linear_2824_28183)"/>
<defs>
<linearGradient id="paint0_linear_2824_28183" x1="2.53564" y1="5.7002" x2="2.53564" y2="43.2" gradientUnits="userSpaceOnUse">
<stop stop-color="#13E5BF"/>
<stop offset="1" stop-color="#01C38D"/>
</linearGradient>
<linearGradient id="paint1_linear_2824_28183" x1="2.53564" y1="5.7002" x2="2.53564" y2="43.2" gradientUnits="userSpaceOnUse">
<stop stop-color="#13E5BF"/>
<stop offset="1" stop-color="#01C38D"/>
</linearGradient>
<linearGradient id="paint2_linear_2824_28183" x1="2.53564" y1="5.7002" x2="2.53564" y2="43.2" gradientUnits="userSpaceOnUse">
<stop stop-color="#13E5BF"/>
<stop offset="1" stop-color="#01C38D"/>
</linearGradient>
<linearGradient id="paint3_linear_2824_28183" x1="2.53564" y1="5.7002" x2="2.53564" y2="45.6" gradientUnits="userSpaceOnUse">
<stop stop-color="#13E5BF"/>
<stop offset="1" stop-color="#01C38D"/>
</linearGradient>
<linearGradient id="paint4_linear_2824_28183" x1="2.53564" y1="5.7002" x2="2.53564" y2="45.6" gradientUnits="userSpaceOnUse">
<stop stop-color="#13E5BF"/>
<stop offset="1" stop-color="#01C38D"/>
</linearGradient>
<linearGradient id="paint5_linear_2824_28183" x1="2.53564" y1="5.7002" x2="2.53564" y2="45.6" gradientUnits="userSpaceOnUse">
<stop stop-color="#13E5BF"/>
<stop offset="1" stop-color="#01C38D"/>
</linearGradient>
<linearGradient id="paint6_linear_2824_28183" x1="2.53564" y1="5.7002" x2="2.53564" y2="45.6" gradientUnits="userSpaceOnUse">
<stop stop-color="#13E5BF"/>
<stop offset="1" stop-color="#01C38D"/>
</linearGradient>
<linearGradient id="paint7_linear_2824_28183" x1="2.53564" y1="5.7002" x2="2.53564" y2="45.6" gradientUnits="userSpaceOnUse">
<stop stop-color="#13E5BF"/>
<stop offset="1" stop-color="#01C38D"/>
</linearGradient>
</defs>
</svg>
