<svg width="81" height="81" viewBox="0 0 81 81" fill="none" xmlns="http://www.w3.org/2000/svg">
<path d="M40.5003 42.8784C47.8337 43.545 51.8892 49.2673 53.0003 52.045C40.5003 59.5454 30.7781 53.9894 27.167 51.2117C28.5559 48.1561 33.167 42.2117 40.5003 42.8784Z" fill="#13E5BF" fill-opacity="0.2"/>
<path fill-rule="evenodd" clip-rule="evenodd" d="M48.5461 32.0457C48.5461 36.6481 44.8151 40.3791 40.2128 40.3791C35.6104 40.3791 31.8794 36.6481 31.8794 32.0457C31.8794 27.4434 35.6104 23.7124 40.2128 23.7124C44.8151 23.7124 48.5461 27.4434 48.5461 32.0457ZM46.8794 32.0457C46.8794 35.7276 43.8947 38.7124 40.2128 38.7124C36.5309 38.7124 33.5461 35.7276 33.5461 32.0457C33.5461 28.3638 36.5309 25.3791 40.2128 25.3791C43.8947 25.3791 46.8794 28.3638 46.8794 32.0457Z" fill="url(#paint0_linear)"/>
<path fill-rule="evenodd" clip-rule="evenodd" d="M28.14 53.1905C27.3991 52.7695 26.7048 52.3751 26.0461 52.0457C28.2474 46.4982 33.8814 42.0457 40.2128 42.0457C46.386 42.0457 52.078 46.7173 54.3794 52.0457C53.7501 52.3604 53.0788 52.7345 52.3614 53.1343C49.2785 54.8522 45.3423 57.0457 40.2128 57.0457C34.9261 57.0457 31.1485 54.8996 28.14 53.1905ZM40.2128 43.7124C45.0668 43.7124 49.7583 47.0942 52.1638 51.3324C51.9157 51.4686 51.6651 51.6076 51.4118 51.7481C48.3434 53.45 44.8656 55.3791 40.2128 55.3791C35.4099 55.3791 32.0942 53.5039 29.1091 51.8157L29.1058 51.8138C28.8067 51.6447 28.5106 51.4772 28.2169 51.3139C30.5137 46.97 35.1633 43.7124 40.2128 43.7124Z" fill="url(#paint1_linear)"/>
<path d="M28.094 45.604C26.1643 46.0202 24.4419 46.9934 23.1031 48.3468L25.5854 49.6337L24.8401 51.1244L20.5 48.9136C22.5912 45.7784 26.1599 43.7129 30.2111 43.7124C29.4526 44.2823 28.7442 44.9154 28.094 45.604Z" fill="url(#paint2_linear)"/>
<path d="M57.3208 48.3468C55.982 46.9934 54.2595 46.0202 52.3299 45.604C51.6796 44.9154 50.9713 44.2823 50.2128 43.7124C54.264 43.7129 57.8327 45.7784 59.9239 48.9136L55.5838 51.1244L54.8385 49.6337L57.3208 48.3468Z" fill="url(#paint3_linear)"/>
<path d="M47.1022 39.2939C47.9559 39.9732 49.037 40.3791 50.2128 40.3791C52.9742 40.3791 55.2128 38.1405 55.2128 35.3791C55.2128 32.6176 52.9742 30.3791 50.2128 30.3791C50.1666 30.3791 50.1206 30.3797 50.0748 30.3809C49.98 29.815 49.8376 29.2651 49.6519 28.7357C49.8368 28.7203 50.0239 28.7124 50.2128 28.7124C53.8947 28.7124 56.8794 31.6972 56.8794 35.3791C56.8794 39.061 53.8947 42.0457 50.2128 42.0457C48.5095 42.0457 46.9554 41.407 45.777 40.356C46.2487 40.0395 46.692 39.6839 47.1022 39.2939Z" fill="url(#paint4_linear)"/>
<path d="M30.2128 30.3791C30.2589 30.3791 30.3049 30.3797 30.3507 30.3809C30.4455 29.815 30.5879 29.2651 30.7736 28.7357C30.5887 28.7203 30.4016 28.7124 30.2128 28.7124C26.5309 28.7124 23.5461 31.6972 23.5461 35.3791C23.5461 39.061 26.5309 42.0457 30.2128 42.0457C31.916 42.0457 33.4701 41.407 34.6485 40.356C34.1768 40.0395 33.7335 39.6839 33.3233 39.2939C32.4696 39.9732 31.3886 40.3791 30.2128 40.3791C27.4513 40.3791 25.2128 38.1405 25.2128 35.3791C25.2128 32.6176 27.4513 30.3791 30.2128 30.3791Z" fill="url(#paint5_linear)"/>
<path fill-rule="evenodd" clip-rule="evenodd" d="M65.7139 25.1377L40.8541 10.7647C29.1449 3.99486 14.5 12.4543 14.5 26.0054L14.5 54.7515C14.5 68.3025 29.1449 76.762 40.8541 69.9921L65.7139 55.6191C77.4287 48.846 77.4287 31.9108 65.7139 25.1377ZM41.8551 9.03325C28.8084 1.49009 12.5 10.9191 12.5 26.0054V54.7515C12.5 69.8378 28.8084 79.2667 41.8552 71.7236L66.715 57.3505C79.7617 49.8074 79.7617 30.9495 66.7149 23.4063L41.8551 9.03325Z" fill="url(#paint6_linear)"/>
<path fill-rule="evenodd" clip-rule="evenodd" d="M40.1469 10.7647L15.2871 25.1377C3.57228 31.9108 3.57227 48.846 15.2871 55.6191L40.1469 69.9921C51.856 76.762 66.501 68.3025 66.501 54.7515L66.501 26.0054C66.501 12.4543 51.8561 3.99486 40.1469 10.7647ZM39.1458 9.03325C52.1926 1.49009 68.501 10.9191 68.501 26.0054L68.501 54.7515C68.501 69.8378 52.1925 79.2667 39.1458 71.7236L14.286 57.3505C1.23928 49.8074 1.23931 30.9495 14.286 23.4063L39.1458 9.03325Z" fill="url(#paint7_linear)"/>
<path fill-rule="evenodd" clip-rule="evenodd" d="M41.4802 9.41945C40.8714 9.07698 40.128 9.07698 39.5191 9.41945L14.8525 23.2944C14.2227 23.6487 13.833 24.3151 13.833 25.0376V54.3649C13.833 55.0874 14.2227 55.7538 14.8525 56.108L39.5191 69.983C40.128 70.3255 40.8714 70.3255 41.4802 69.983L66.1469 56.108C66.7766 55.7538 67.1663 55.0874 67.1663 54.3649V25.0376C67.1663 24.3151 66.7766 23.6487 66.1469 23.2944L41.4802 9.41945ZM41.3126 16.1793C40.6698 15.7837 39.8591 15.7837 39.2163 16.1793L19.5496 28.2819C18.9581 28.6459 18.5978 29.2907 18.5978 29.9852V51.0833C18.5978 51.7779 18.9581 52.4227 19.5496 52.7867L39.2163 64.8892C39.8591 65.2848 40.6698 65.2848 41.3126 64.8892L60.9793 52.7867C61.5708 52.4227 61.9311 51.7779 61.9311 51.0833V29.9852C61.9311 29.2907 61.5708 28.6459 60.9793 28.2819L41.3126 16.1793Z" fill="#13E5BF" fill-opacity="0.2"/>
<defs>
<linearGradient id="paint0_linear" x1="20.5" y1="23.7124" x2="20.5" y2="57.0457" gradientUnits="userSpaceOnUse">
<stop stop-color="#13E5BF"/>
<stop offset="1" stop-color="#01C38D"/>
</linearGradient>
<linearGradient id="paint1_linear" x1="20.5" y1="23.7124" x2="20.5" y2="57.0457" gradientUnits="userSpaceOnUse">
<stop stop-color="#13E5BF"/>
<stop offset="1" stop-color="#01C38D"/>
</linearGradient>
<linearGradient id="paint2_linear" x1="20.5" y1="23.7124" x2="20.5" y2="57.0457" gradientUnits="userSpaceOnUse">
<stop stop-color="#13E5BF"/>
<stop offset="1" stop-color="#01C38D"/>
</linearGradient>
<linearGradient id="paint3_linear" x1="20.5" y1="23.7124" x2="20.5" y2="57.0457" gradientUnits="userSpaceOnUse">
<stop stop-color="#13E5BF"/>
<stop offset="1" stop-color="#01C38D"/>
</linearGradient>
<linearGradient id="paint4_linear" x1="20.5" y1="23.7124" x2="20.5" y2="57.0457" gradientUnits="userSpaceOnUse">
<stop stop-color="#13E5BF"/>
<stop offset="1" stop-color="#01C38D"/>
</linearGradient>
<linearGradient id="paint5_linear" x1="20.5" y1="23.7124" x2="20.5" y2="57.0457" gradientUnits="userSpaceOnUse">
<stop stop-color="#13E5BF"/>
<stop offset="1" stop-color="#01C38D"/>
</linearGradient>
<linearGradient id="paint6_linear" x1="12.5" y1="6.37842" x2="12.5" y2="74.3784" gradientUnits="userSpaceOnUse">
<stop stop-color="#13E5BF"/>
<stop offset="1" stop-color="#01C38D"/>
</linearGradient>
<linearGradient id="paint7_linear" x1="4.50098" y1="6.37842" x2="4.50098" y2="74.3784" gradientUnits="userSpaceOnUse">
<stop stop-color="#13E5BF"/>
<stop offset="1" stop-color="#01C38D"/>
</linearGradient>
</defs>
</svg>
