<svg width="51" height="51" viewBox="0 0 51 51" fill="none" xmlns="http://www.w3.org/2000/svg">
<path d="M25.4998 26.7686C30.0832 27.1853 32.6179 30.7617 33.3123 32.4978C25.4998 37.1855 19.4234 33.713 17.1665 31.977C18.0346 30.0673 20.9165 26.352 25.4998 26.7686Z" fill="#13E5BF" fill-opacity="0.2"/>
<path fill-rule="evenodd" clip-rule="evenodd" d="M30.5288 19.9993C30.5288 22.8758 28.197 25.2077 25.3205 25.2077C22.444 25.2077 20.1121 22.8758 20.1121 19.9993C20.1121 17.1229 22.444 14.791 25.3205 14.791C28.197 14.791 30.5288 17.1229 30.5288 19.9993ZM29.4871 19.9993C29.4871 22.3005 27.6217 24.166 25.3205 24.166C23.0193 24.166 21.1538 22.3005 21.1538 19.9993C21.1538 17.6982 23.0193 15.8327 25.3205 15.8327C27.6217 15.8327 29.4871 17.6982 29.4871 19.9993Z" fill="url(#paint0_linear)"/>
<path fill-rule="evenodd" clip-rule="evenodd" d="M17.775 33.2148C17.3119 32.9517 16.878 32.7052 16.4663 32.4993C17.8421 29.0321 21.3634 26.2493 25.3205 26.2493C29.1787 26.2493 32.7362 29.1691 34.1746 32.4993C33.7813 32.696 33.3618 32.9298 32.9134 33.1797C30.9866 34.2534 28.5264 35.6243 25.3205 35.6243C22.0163 35.6243 19.6553 34.283 17.775 33.2148ZM25.3205 27.291C28.3542 27.291 31.2865 29.4047 32.7899 32.0535C32.6348 32.1387 32.4782 32.2255 32.3199 32.3133C30.4022 33.377 28.2285 34.5827 25.3205 34.5827C22.3187 34.5827 20.2464 33.4107 18.3807 32.3556L18.3786 32.3544C18.1917 32.2487 18.0066 32.144 17.8231 32.042C19.2586 29.327 22.1646 27.291 25.3205 27.291Z" fill="url(#paint1_linear)"/>
<path d="M17.7462 28.4732C16.5402 28.7334 15.4637 29.3416 14.6269 30.1875L16.1784 30.9918L15.7125 31.9235L13 30.5418C14.307 28.5823 16.5374 27.2914 19.0695 27.291C18.5954 27.6472 18.1527 28.0429 17.7462 28.4732Z" fill="url(#paint2_linear)"/>
<path d="M36.013 30.1875C35.1763 29.3416 34.0997 28.7334 32.8937 28.4732C32.4873 28.0429 32.0446 27.6472 31.5705 27.291C34.1025 27.2914 36.3329 28.5823 37.6399 30.5418L34.9274 31.9235L34.4615 30.9918L36.013 30.1875Z" fill="url(#paint3_linear)"/>
<path d="M29.6264 24.5295C30.16 24.954 30.8356 25.2077 31.5705 25.2077C33.2964 25.2077 34.6955 23.8086 34.6955 22.0827C34.6955 20.3568 33.2964 18.9577 31.5705 18.9577C31.5416 18.9577 31.5129 18.9581 31.4843 18.9589C31.425 18.6051 31.336 18.2615 31.22 17.9306C31.3355 17.9209 31.4524 17.916 31.5705 17.916C33.8717 17.916 35.7371 19.7815 35.7371 22.0827C35.7371 24.3839 33.8717 26.2493 31.5705 26.2493C30.5059 26.2493 29.5346 25.8501 28.7981 25.1932C29.0929 24.9955 29.37 24.7732 29.6264 24.5295Z" fill="url(#paint4_linear)"/>
<path d="M19.0705 18.9577C19.0993 18.9577 19.128 18.9581 19.1567 18.9588C19.216 18.6051 19.3049 18.2615 19.421 17.9306C19.3054 17.9209 19.1885 17.916 19.0705 17.916C16.7693 17.916 14.9038 19.7815 14.9038 22.0827C14.9038 24.3839 16.7693 26.2493 19.0705 26.2493C20.135 26.2493 21.1063 25.8501 21.8428 25.1932C21.548 24.9955 21.271 24.7732 21.0146 24.5295C20.481 24.954 19.8054 25.2077 19.0705 25.2077C17.3446 25.2077 15.9455 23.8086 15.9455 22.0827C15.9455 20.3568 17.3446 18.9577 19.0705 18.9577Z" fill="url(#paint5_linear)"/>
<path fill-rule="evenodd" clip-rule="evenodd" d="M41.2587 15.6816L25.7213 6.69845C18.4031 2.46731 9.25 7.75446 9.25 16.2239L9.25 34.1902C9.25 42.6596 18.4031 47.9468 25.7213 43.7156L41.2587 34.7325C48.5804 30.4993 48.5804 19.9148 41.2587 15.6816ZM26.347 5.6163C18.1928 0.901824 8 6.79493 8 16.2239V34.1902C8 43.6192 18.1928 49.5122 26.347 44.7978L41.8844 35.8146C50.0386 31.1001 50.0385 19.3139 41.8843 14.5995L26.347 5.6163Z" fill="url(#paint6_linear)"/>
<path fill-rule="evenodd" clip-rule="evenodd" d="M25.2792 6.69845L9.74181 15.6816C2.42006 19.9148 2.42004 30.4993 9.74179 34.7325L25.2792 43.7156C32.5974 47.9468 41.7505 42.6596 41.7505 34.1902L41.7505 16.2239C41.7505 7.75446 32.5974 2.46731 25.2792 6.69845ZM24.6535 5.6163C32.8077 0.901824 43.0005 6.79493 43.0005 16.2239L43.0005 34.1902C43.0005 43.6192 32.8077 49.5122 24.6535 44.7978L9.11613 35.8146C0.961928 31.1001 0.961946 19.3139 9.11615 14.5995L24.6535 5.6163Z" fill="url(#paint7_linear)"/>
<path fill-rule="evenodd" clip-rule="evenodd" d="M26.4807 6.06544C25.8719 5.72298 25.1285 5.72298 24.5196 6.06544L9.85297 14.3154C9.22322 14.6697 8.8335 15.336 8.8335 16.0586V33.5109C8.8335 34.2334 9.22322 34.8998 9.85297 35.254L24.5196 43.504C25.1285 43.8465 25.8719 43.8465 26.4807 43.504L41.1473 35.254C41.7771 34.8998 42.1668 34.2334 42.1668 33.5109V16.0586C42.1668 15.336 41.7771 14.6697 41.1473 14.3154L26.4807 6.06544ZM26.4013 10.3253C25.7585 9.92973 24.9478 9.92973 24.3049 10.3253L12.7633 17.4279C12.1718 17.7919 11.8115 18.4367 11.8115 19.1312V31.4793C11.8115 32.1739 12.1718 32.8187 12.7633 33.1827L24.3049 40.2852C24.9478 40.6808 25.7585 40.6808 26.4013 40.2852L37.943 33.1827C38.5345 32.8187 38.8948 32.1739 38.8948 31.4793V19.1312C38.8948 18.4367 38.5345 17.7919 37.943 17.4279L26.4013 10.3253Z" fill="#13E5BF" fill-opacity="0.2"/>
<defs>
<linearGradient id="paint0_linear" x1="13" y1="14.791" x2="13" y2="35.6243" gradientUnits="userSpaceOnUse">
<stop stop-color="#13E5BF"/>
<stop offset="1" stop-color="#01C38D"/>
</linearGradient>
<linearGradient id="paint1_linear" x1="13" y1="14.791" x2="13" y2="35.6243" gradientUnits="userSpaceOnUse">
<stop stop-color="#13E5BF"/>
<stop offset="1" stop-color="#01C38D"/>
</linearGradient>
<linearGradient id="paint2_linear" x1="13" y1="14.791" x2="13" y2="35.6243" gradientUnits="userSpaceOnUse">
<stop stop-color="#13E5BF"/>
<stop offset="1" stop-color="#01C38D"/>
</linearGradient>
<linearGradient id="paint3_linear" x1="13" y1="14.791" x2="13" y2="35.6243" gradientUnits="userSpaceOnUse">
<stop stop-color="#13E5BF"/>
<stop offset="1" stop-color="#01C38D"/>
</linearGradient>
<linearGradient id="paint4_linear" x1="13" y1="14.791" x2="13" y2="35.6243" gradientUnits="userSpaceOnUse">
<stop stop-color="#13E5BF"/>
<stop offset="1" stop-color="#01C38D"/>
</linearGradient>
<linearGradient id="paint5_linear" x1="13" y1="14.791" x2="13" y2="35.6243" gradientUnits="userSpaceOnUse">
<stop stop-color="#13E5BF"/>
<stop offset="1" stop-color="#01C38D"/>
</linearGradient>
<linearGradient id="paint6_linear" x1="8" y1="3.95703" x2="8" y2="46.457" gradientUnits="userSpaceOnUse">
<stop stop-color="#13E5BF"/>
<stop offset="1" stop-color="#01C38D"/>
</linearGradient>
<linearGradient id="paint7_linear" x1="3.00049" y1="3.95703" x2="3.00049" y2="46.457" gradientUnits="userSpaceOnUse">
<stop stop-color="#13E5BF"/>
<stop offset="1" stop-color="#01C38D"/>
</linearGradient>
</defs>
</svg>
