<svg width="24" height="24" viewBox="0 0 24 24" fill="none" xmlns="http://www.w3.org/2000/svg">
<g clip-path="url(#clip0_3102_31334)">
<mask id="mask0_3102_31334" style="mask-type:alpha" maskUnits="userSpaceOnUse" x="0" y="0" width="24" height="24">
<path d="M12 24C18.6274 24 24 18.6274 24 12C24 5.37258 18.6274 0 12 0C5.37258 0 0 5.37258 0 12C0 18.6274 5.37258 24 12 24Z" fill="#F0F0F0"/>
</mask>
<g mask="url(#mask0_3102_31334)">
<path d="M12 24C18.6274 24 24 18.6274 24 12C24 5.37258 18.6274 0 12 0C5.37258 0 0 5.37258 0 12C0 18.6274 5.37258 24 12 24Z" fill="#538ED2"/>
<rect y="16" width="25" height="8" fill="#F6F7F8"/>
<rect y="8" width="25" height="8" fill="#241C11"/>
</g>
</g>
<defs>
<clipPath id="clip0_3102_31334">
<rect width="24" height="24" fill="white"/>
</clipPath>
</defs>
</svg>
