<svg width="24" height="24" viewBox="0 0 24 24" fill="none" xmlns="http://www.w3.org/2000/svg">
<g clip-path="url(#clip0_3103_30956)">
<mask id="mask0_3103_30956" style="mask-type:alpha" maskUnits="userSpaceOnUse" x="0" y="0" width="24" height="24">
<path d="M12 24C18.6274 24 24 18.6274 24 12C24 5.37258 18.6274 0 12 0C5.37258 0 0 5.37258 0 12C0 18.6274 5.37258 24 12 24Z" fill="#F0F0F0"/>
</mask>
<g mask="url(#mask0_3103_30956)">
<path d="M12.0002 16.8C14.6512 16.8 16.8002 14.6509 16.8002 12C16.8002 9.34898 14.6512 7.19995 12.0002 7.19995C9.34923 7.19995 7.2002 9.34898 7.2002 12C7.2002 14.6509 9.34923 16.8 12.0002 16.8Z" fill="#538ED2"/>
<path d="M8.7998 0H27.9998V24H8.7998V0Z" fill="#FF0000"/>
<path d="M-4 0H8.8V24H-4V0Z" fill="#006600"/>
<path fill-rule="evenodd" clip-rule="evenodd" d="M12.9748 15.31C11.3598 15.26 3.9748 10.65 3.9248 9.90999L4.3298 9.23499C5.06481 10.3 12.6148 14.785 13.3598 14.625L12.9748 15.31Z" fill="#FFFF00" stroke="black" stroke-width="0.03" stroke-linecap="round" stroke-linejoin="round"/>
<path fill-rule="evenodd" clip-rule="evenodd" d="M4.24495 9.14001C4.09995 9.53001 6.17495 10.81 8.66495 12.33C11.16 13.845 13.31 14.78 13.465 14.65L13.54 14.51C13.51 14.56 13.44 14.575 13.325 14.54C12.65 14.345 10.895 13.54 8.71995 12.22C6.53995 10.9 4.64995 9.68501 4.35495 9.17001C4.33196 9.12173 4.32163 9.06839 4.32495 9.01501H4.31495L4.25495 9.12501L4.24495 9.14001ZM13.01 15.33C12.985 15.38 12.93 15.38 12.835 15.37C12.235 15.305 10.405 14.415 8.23995 13.12C5.71995 11.61 3.63995 10.24 3.86995 9.88001L3.92995 9.77001L3.93995 9.77501C3.73995 10.385 8.04495 12.845 8.29995 13.005C10.79 14.545 12.89 15.45 13.075 15.215L13.01 15.33Z" fill="#FFFF00" stroke="black" stroke-width="0.03" stroke-linecap="round" stroke-linejoin="round"/>
<path fill-rule="evenodd" clip-rule="evenodd" d="M8.80984 10.36C10.4198 10.345 12.4098 10.14 13.5598 9.67995L13.3098 9.27995C12.6348 9.65495 10.6348 9.90495 8.79484 9.93995C6.62484 9.91995 5.08984 9.71495 4.31984 9.19995L4.08984 9.62995C5.49984 10.23 6.94984 10.355 8.80984 10.36Z" fill="#FFFF00"/>
<path d="M8.80984 10.36C10.4198 10.345 12.4098 10.14 13.5598 9.67995L13.3098 9.27995C12.6348 9.65495 10.6348 9.90495 8.79484 9.93995C6.62484 9.91995 5.08984 9.71495 4.31984 9.19995L4.08984 9.62995C5.49984 10.23 6.94984 10.355 8.80984 10.36" stroke="black" stroke-width="0.03" stroke-linecap="round" stroke-linejoin="round"/>
<path fill-rule="evenodd" clip-rule="evenodd" d="M13.6248 9.69003C13.5848 9.75503 12.8348 10.01 11.7348 10.2C10.7651 10.347 9.78551 10.4189 8.80477 10.415C7.86511 10.4186 6.92629 10.3584 5.99477 10.235C4.83977 10.055 4.24477 9.80503 4.01977 9.71503L4.07477 9.60503C4.70977 9.85503 5.30977 10.005 6.00977 10.115C6.93449 10.2399 7.86665 10.3017 8.79977 10.3C9.77543 10.3011 10.7498 10.2292 11.7148 10.085C12.8398 9.90003 13.4548 9.66503 13.5448 9.56003L13.6248 9.69503V9.69003ZM13.4048 9.28503C13.2848 9.38503 12.6748 9.60003 11.6048 9.77003C10.6808 9.90371 9.74836 9.97055 8.81477 9.97003C7.71477 9.97003 6.80977 9.89003 6.12477 9.79003C5.03477 9.65003 4.45477 9.39003 4.24477 9.32003L4.30977 9.21003C4.47477 9.29503 5.02977 9.52003 6.13477 9.67503C7.02305 9.79401 7.91856 9.85082 8.81477 9.84503C9.74172 9.84532 10.6675 9.77847 11.5848 9.64503C12.6598 9.49503 13.2398 9.22503 13.3298 9.15503L13.4048 9.28503ZM3.51477 12.3C4.50477 12.835 6.70977 13.1 8.79477 13.12C10.6948 13.125 13.1648 12.83 14.0898 12.34L14.0648 11.805C13.7748 12.255 11.1248 12.69 8.77477 12.675C6.42477 12.655 4.23977 12.295 3.50977 11.825V12.3" fill="#FFFF00"/>
<path d="M3.51477 12.3C4.50477 12.835 6.70977 13.1 8.79477 13.12C10.6948 13.125 13.1648 12.83 14.0898 12.34L14.0648 11.805C13.7748 12.255 11.1248 12.69 8.77477 12.675C6.42477 12.655 4.23977 12.295 3.50977 11.825V12.3M13.6248 9.69003C13.5848 9.75503 12.8348 10.01 11.7348 10.2C10.7651 10.347 9.78551 10.4189 8.80477 10.415C7.86511 10.4186 6.92629 10.3584 5.99477 10.235C4.83977 10.055 4.24477 9.80503 4.01977 9.71503L4.07477 9.60503C4.70977 9.85503 5.30977 10.005 6.00977 10.115C6.93449 10.2399 7.86665 10.3017 8.79977 10.3C9.77543 10.3011 10.7498 10.2292 11.7148 10.085C12.8398 9.90003 13.4548 9.66503 13.5448 9.56003L13.6248 9.69503V9.69003ZM13.4048 9.28503C13.2848 9.38503 12.6748 9.60003 11.6048 9.77003C10.6808 9.90371 9.74836 9.97055 8.81477 9.97003C7.71477 9.97003 6.80977 9.89003 6.12477 9.79003C5.03477 9.65003 4.45477 9.39003 4.24477 9.32003L4.30977 9.21003C4.47477 9.29503 5.02977 9.52003 6.13477 9.67503C7.02305 9.79401 7.91856 9.85082 8.81477 9.84503C9.74172 9.84532 10.6675 9.77847 11.5848 9.64503C12.6598 9.49503 13.2398 9.22503 13.3298 9.15503L13.4048 9.28503V9.28503Z" stroke="black" stroke-width="0.03" stroke-linecap="round" stroke-linejoin="round"/>
<path fill-rule="evenodd" clip-rule="evenodd" d="M14.1402 12.225V12.35C14.0002 12.52 13.1302 12.77 12.0402 12.95C10.9573 13.1057 9.86418 13.1792 8.7702 13.17C7.73285 13.1788 6.69639 13.107 5.6702 12.955C4.90447 12.8665 4.15624 12.6643 3.4502 12.355V12.21C3.9352 12.53 5.2452 12.77 5.6852 12.84C6.4752 12.96 7.4902 13.05 8.7702 13.05C10.1152 13.05 11.1902 12.955 12.0202 12.83C12.8052 12.715 13.9202 12.42 14.1402 12.225ZM14.1402 11.775V11.9C14.0002 12.065 13.1302 12.315 12.0402 12.495C10.9574 12.6523 9.86431 12.7276 8.7702 12.72C7.73293 12.7261 6.69668 12.6542 5.6702 12.505C4.90447 12.4165 4.15624 12.2143 3.4502 11.905V11.755C3.9352 12.08 5.2502 12.315 5.6852 12.385C6.70661 12.5346 7.7379 12.6065 8.7702 12.6C10.1152 12.6 11.1952 12.5 12.0202 12.375C12.8052 12.265 13.9202 11.97 14.1402 11.775ZM8.7902 15.215C6.5102 15.205 4.5552 14.595 4.1402 14.495L4.4402 14.965C5.84265 15.4617 7.32257 15.7039 8.8102 15.68C10.5452 15.63 12.0602 15.495 13.1252 14.975L13.4352 14.485C12.7102 14.83 10.2352 15.215 8.7852 15.215" fill="#FFFF00"/>
<path d="M8.7902 15.215C6.5102 15.205 4.5552 14.595 4.1402 14.495L4.4402 14.965C5.84265 15.4617 7.32257 15.7039 8.8102 15.68C10.5452 15.63 12.0602 15.495 13.1252 14.975L13.4352 14.485C12.7102 14.83 10.2352 15.215 8.7852 15.215M14.1402 12.225V12.35C14.0002 12.52 13.1302 12.77 12.0402 12.95C10.9573 13.1057 9.86418 13.1792 8.7702 13.17C7.73285 13.1788 6.69639 13.107 5.6702 12.955C4.90447 12.8665 4.15624 12.6643 3.4502 12.355V12.21C3.9352 12.53 5.2452 12.77 5.6852 12.84C6.4752 12.96 7.4902 13.05 8.7702 13.05C10.1152 13.05 11.1902 12.955 12.0202 12.83C12.8052 12.715 13.9202 12.42 14.1402 12.225V12.225ZM14.1402 11.775V11.9C14.0002 12.065 13.1302 12.315 12.0402 12.495C10.9574 12.6523 9.86431 12.7276 8.7702 12.72C7.73293 12.7261 6.69668 12.6542 5.6702 12.505C4.90447 12.4165 4.15624 12.2143 3.4502 11.905V11.755C3.9352 12.08 5.2502 12.315 5.6852 12.385C6.70661 12.5346 7.7379 12.6065 8.7702 12.6C10.1152 12.6 11.1952 12.5 12.0202 12.375C12.8052 12.265 13.9202 11.97 14.1402 11.775V11.775Z" stroke="black" stroke-width="0.03" stroke-linecap="round" stroke-linejoin="round"/>
<path fill-rule="evenodd" clip-rule="evenodd" d="M13.2448 14.8649C13.1993 14.9324 13.1526 14.9991 13.1048 15.0649C12.6048 15.2449 11.8048 15.4349 11.4748 15.4849C10.5893 15.6499 9.69055 15.7336 8.7898 15.7349C6.7698 15.7049 5.1148 15.3099 4.3398 14.9699L4.2748 14.8649L4.2848 14.8449L4.3898 14.8899C5.81282 15.3608 7.30093 15.6055 8.7998 15.6149C9.7398 15.6149 10.6748 15.5099 11.4298 15.3749C12.5898 15.1399 13.0598 14.9649 13.2048 14.8849L13.2398 14.8649H13.2448ZM13.5098 14.4249C13.4769 14.4835 13.4435 14.5418 13.4098 14.5999C13.1398 14.6999 12.4098 14.9099 11.3448 15.0599C10.6448 15.1549 10.2098 15.2499 8.8148 15.2749C7.22011 15.2589 5.63523 15.0234 4.1048 14.5749L4.0498 14.4499C5.60473 14.8797 7.20697 15.1148 8.8198 15.1499C10.0948 15.1249 10.6398 15.0299 11.3348 14.9349C12.5748 14.7449 13.1998 14.5349 13.3848 14.4799C13.3849 14.4766 13.3849 14.4733 13.3848 14.4699L13.5148 14.4199L13.5098 14.4249Z" fill="#FFFF00" stroke="black" stroke-width="0.03" stroke-linecap="round" stroke-linejoin="round"/>
<path fill-rule="evenodd" clip-rule="evenodd" d="M13.5398 11.88C13.5448 13.38 12.7748 14.73 12.1598 15.32C11.2514 16.2059 10.0384 16.7104 8.76977 16.73C7.25477 16.755 5.82977 15.77 5.44477 15.335C4.58349 14.4216 4.09329 13.2202 4.06977 11.965C4.15977 10.325 4.80477 9.185 5.73477 8.4C6.6382 7.65629 7.77466 7.25445 8.94477 7.265C9.62783 7.29812 10.2964 7.47356 10.9078 7.78008C11.5191 8.0866 12.0596 8.51744 12.4948 9.045C13.1198 9.805 13.3948 10.63 13.5398 11.88ZM8.77977 6.75C10.1785 6.74996 11.5206 7.30286 12.5134 8.28817C13.5062 9.27347 14.0692 10.6113 14.0798 12.01C14.0798 12.704 13.9431 13.3913 13.6775 14.0325C13.4119 14.6737 13.0226 15.2563 12.5318 15.7471C12.0411 16.2378 11.4585 16.6271 10.8173 16.8927C10.176 17.1583 9.48881 17.295 8.79477 17.295C8.10074 17.295 7.4135 17.1583 6.77229 16.8927C6.13109 16.6271 5.54847 16.2378 5.05771 15.7471C4.56696 15.2563 4.17767 14.6737 3.91207 14.0325C3.64647 13.3913 3.50977 12.704 3.50977 12.01C3.50477 9.11 5.87477 6.75 8.77977 6.75Z" fill="#FFFF00"/>
<path d="M8.77977 6.75C10.1785 6.74996 11.5206 7.30286 12.5134 8.28817C13.5062 9.27347 14.0692 10.6113 14.0798 12.01C14.0798 12.704 13.9431 13.3913 13.6775 14.0325C13.4119 14.6737 13.0226 15.2563 12.5318 15.7471C12.0411 16.2378 11.4585 16.6271 10.8173 16.8927C10.176 17.1583 9.48881 17.295 8.79477 17.295C8.10074 17.295 7.4135 17.1583 6.77229 16.8927C6.13109 16.6271 5.54847 16.2378 5.05771 15.7471C4.56696 15.2563 4.17767 14.6737 3.91207 14.0325C3.64647 13.3913 3.50977 12.704 3.50977 12.01C3.50477 9.11 5.87477 6.75 8.77977 6.75M13.5398 11.88C13.5448 13.38 12.7748 14.73 12.1598 15.32C11.2514 16.2059 10.0384 16.7104 8.76977 16.73C7.25477 16.755 5.82977 15.77 5.44477 15.335C4.58349 14.4216 4.09329 13.2202 4.06977 11.965C4.15977 10.325 4.80477 9.185 5.73477 8.4C6.6382 7.65629 7.77466 7.25445 8.94477 7.265C9.62783 7.29812 10.2964 7.47356 10.9078 7.78008C11.5191 8.0866 12.0596 8.51744 12.4948 9.045C13.1198 9.805 13.3948 10.63 13.5398 11.88V11.88Z" stroke="black" stroke-width="0.03" stroke-linecap="round" stroke-linejoin="round"/>
<path fill-rule="evenodd" clip-rule="evenodd" d="M8.79453 6.72498C11.7045 6.72498 14.0745 9.09498 14.0745 12.005C14.0745 14.915 11.7045 17.285 8.79953 17.285C5.89453 17.285 3.51953 14.915 3.51953 12.005C3.51953 9.09498 5.88953 6.72498 8.79953 6.72498H8.79453ZM3.62953 12C3.62953 14.84 5.96453 17.165 8.79453 17.165C11.6245 17.165 13.9595 14.84 13.9595 12C13.9595 9.15998 11.6245 6.83498 8.79453 6.83498C5.96453 6.83498 3.62953 9.15998 3.62953 12Z" fill="#FFFF00" stroke="black" stroke-width="0.03" stroke-linecap="round" stroke-linejoin="round"/>
<path fill-rule="evenodd" clip-rule="evenodd" d="M8.79984 7.16504C10.0809 7.169 11.3085 7.67967 12.2143 8.58555C13.1202 9.49143 13.6309 10.7189 13.6348 12C13.6309 13.2816 13.1204 14.5096 12.2146 15.4163C11.3089 16.323 10.0814 16.8348 8.79984 16.84C6.14984 16.84 3.96484 14.66 3.96484 12C3.97011 10.7193 4.4812 9.49259 5.3868 8.58699C6.2924 7.68139 7.51914 7.1703 8.79984 7.16504ZM4.07984 12C4.07984 14.6 6.20984 16.72 8.79984 16.72C11.3898 16.72 13.5198 14.595 13.5198 12C13.5198 9.40004 11.3898 7.28004 8.79984 7.28004C7.54964 7.2853 6.35215 7.78428 5.46812 8.66831C4.58408 9.55234 4.08511 10.7498 4.07984 12Z" fill="#FFFF00" stroke="black" stroke-width="0.03" stroke-linecap="round" stroke-linejoin="round"/>
<path fill-rule="evenodd" clip-rule="evenodd" d="M9.01555 6.69995H8.56055V17.315H9.01055L9.01555 6.69995Z" fill="#FFFF00" stroke="black" stroke-width="0.03" stroke-linecap="round" stroke-linejoin="round"/>
<path fill-rule="evenodd" clip-rule="evenodd" d="M8.96465 6.64001H9.07965V17.375H8.96965V6.64001H8.96465ZM8.51465 6.64001H8.63465V17.375H8.51965V6.64001H8.51465Z" fill="#FFFF00" stroke="black" stroke-width="0.03" stroke-linecap="round" stroke-linejoin="round"/>
<path fill-rule="evenodd" clip-rule="evenodd" d="M14.0801 12.21V11.82L13.7601 11.52L11.9451 11.04L9.33512 10.775L6.18512 10.935L3.94512 11.465L3.49512 11.8V12.195L4.64012 11.68L7.36012 11.255H9.97512L11.8951 11.465L13.2251 11.785L14.0801 12.21Z" fill="#FFFF00" stroke="black" stroke-width="0.03" stroke-linecap="round" stroke-linejoin="round"/>
<path fill-rule="evenodd" clip-rule="evenodd" d="M8.8002 11.1901C10.0452 11.1901 11.2502 11.3051 12.2152 11.4901C13.2052 11.6901 13.9002 11.9401 14.1402 12.2151V12.3551C13.8502 12.0051 12.9152 11.7551 12.1902 11.6051C11.2402 11.4251 10.0402 11.3051 8.7952 11.3051C7.4902 11.3051 6.2702 11.4351 5.3302 11.6151C4.5802 11.7651 3.5752 12.0651 3.4502 12.3551V12.2101C3.5152 12.0101 4.2652 11.7101 5.3152 11.4951C6.2602 11.3101 7.4802 11.1901 8.7952 11.1901H8.8002ZM8.8002 10.7351C9.94521 10.7328 11.0881 10.8332 12.2152 11.0351C13.2052 11.2351 13.9002 11.4851 14.1402 11.7651V11.9001C13.8502 11.5551 12.9152 11.3001 12.1902 11.1551C11.2402 10.9701 10.0402 10.8551 8.7952 10.8551C7.63477 10.8514 6.47649 10.9552 5.3352 11.1651C4.6102 11.3001 3.5652 11.6101 3.4502 11.9001V11.7601C3.5202 11.5601 4.2802 11.2451 5.3152 11.0451C6.2652 10.8601 7.4802 10.7351 8.8002 10.7351ZM8.7702 8.42506C10.7352 8.41506 12.4502 8.70006 13.2352 9.10006L13.5202 9.60006C12.8402 9.23006 10.9902 8.85006 8.7752 8.90006C6.9702 8.91506 5.0402 9.10006 4.0752 9.62006L4.4152 9.05006C5.2102 8.63506 7.0802 8.42506 8.7702 8.42506Z" fill="#FFFF00"/>
<path d="M8.7702 8.42506C10.7352 8.41506 12.4502 8.70006 13.2352 9.10006L13.5202 9.60006C12.8402 9.23006 10.9902 8.85006 8.7752 8.90006C6.9702 8.91506 5.0402 9.10006 4.0752 9.62006L4.4152 9.05006C5.2102 8.63506 7.0802 8.42506 8.7702 8.42506M8.8002 11.1901C10.0452 11.1901 11.2502 11.3051 12.2152 11.4901C13.2052 11.6901 13.9002 11.9401 14.1402 12.2151V12.3551C13.8502 12.0051 12.9152 11.7551 12.1902 11.6051C11.2402 11.4251 10.0402 11.3051 8.7952 11.3051C7.4902 11.3051 6.2702 11.4351 5.3302 11.6151C4.5802 11.7651 3.5752 12.0651 3.4502 12.3551V12.2101C3.5152 12.0101 4.2652 11.7101 5.3152 11.4951C6.2602 11.3101 7.4802 11.1901 8.7952 11.1901H8.8002ZM8.8002 10.7351C9.94521 10.7328 11.0881 10.8332 12.2152 11.0351C13.2052 11.2351 13.9002 11.4851 14.1402 11.7651V11.9001C13.8502 11.5551 12.9152 11.3001 12.1902 11.1551C11.2402 10.9701 10.0402 10.8551 8.7952 10.8551C7.63477 10.8514 6.47649 10.9552 5.3352 11.1651C4.6102 11.3001 3.5652 11.6101 3.4502 11.9001V11.7601C3.5202 11.5601 4.2802 11.2451 5.3152 11.0451C6.2652 10.8601 7.4802 10.7351 8.8002 10.7351V10.7351Z" stroke="black" stroke-width="0.03" stroke-linecap="round" stroke-linejoin="round"/>
<path fill-rule="evenodd" clip-rule="evenodd" d="M8.80004 8.83497C9.82601 8.81765 10.8515 8.88959 11.865 9.04997C12.665 9.19997 13.43 9.41997 13.54 9.53997L13.625 9.68997C13.36 9.51997 12.695 9.32497 11.845 9.16497C10.995 9.00497 9.91004 8.94997 8.79504 8.95497C7.53004 8.94997 6.54504 9.01497 5.70504 9.16497C5.12599 9.24612 4.56379 9.42001 4.04004 9.67997L4.12504 9.52497C4.42504 9.37497 4.89004 9.18997 5.68004 9.04497C6.55504 8.88497 7.55004 8.83997 8.80004 8.83497ZM8.80004 8.38497C9.87004 8.37497 10.93 8.43497 11.755 8.58497C12.2895 8.66432 12.8068 8.83337 13.285 9.08497L13.41 9.28497C13.2 9.04997 12.41 8.82497 11.705 8.70497C10.885 8.55997 9.87004 8.50497 8.80004 8.49497C7.804 8.48609 6.80894 8.55967 5.82504 8.71497C5.31058 8.78665 4.81092 8.94026 4.34504 9.16997L4.45504 9.00497C4.74504 8.85497 5.21504 8.71497 5.80504 8.59997C6.79542 8.44263 7.7973 8.36904 8.80004 8.37997V8.38497ZM11.42 14.2C10.5534 14.0499 9.67441 13.9829 8.79504 14C5.52004 14.04 4.46504 14.675 4.33504 14.865L4.08504 14.465C4.92504 13.865 6.70504 13.525 8.81504 13.555C9.91004 13.575 10.855 13.65 11.645 13.805L11.42 14.205" fill="#FFFF00"/>
<path d="M11.42 14.2C10.5534 14.0499 9.67441 13.9829 8.79504 14C5.52004 14.04 4.46504 14.675 4.33504 14.865L4.08504 14.465C4.92504 13.865 6.70504 13.525 8.81504 13.555C9.91004 13.575 10.855 13.65 11.645 13.805L11.42 14.205M8.80004 8.83497C9.82601 8.81765 10.8515 8.88959 11.865 9.04997C12.665 9.19997 13.43 9.41997 13.54 9.53997L13.625 9.68997C13.36 9.51997 12.695 9.32497 11.845 9.16497C10.995 9.00497 9.91004 8.94997 8.79504 8.95497C7.53004 8.94997 6.54504 9.01497 5.70504 9.16497C5.12599 9.24612 4.56379 9.42001 4.04004 9.67997L4.12504 9.52497C4.42504 9.37497 4.89004 9.18997 5.68004 9.04497C6.55504 8.88497 7.55004 8.83997 8.80004 8.83497V8.83497ZM8.80004 8.38497C9.87004 8.37497 10.93 8.43497 11.755 8.58497C12.2895 8.66432 12.8068 8.83337 13.285 9.08497L13.41 9.28497C13.2 9.04997 12.41 8.82497 11.705 8.70497C10.885 8.55997 9.87004 8.50497 8.80004 8.49497C7.804 8.48609 6.80894 8.55967 5.82504 8.71497C5.31058 8.78665 4.81092 8.94026 4.34504 9.16997L4.45504 9.00497C4.74504 8.85497 5.21504 8.71497 5.80504 8.59997C6.79542 8.44263 7.7973 8.36904 8.80004 8.37997V8.38497Z" stroke="black" stroke-width="0.03" stroke-linecap="round" stroke-linejoin="round"/>
<path fill-rule="evenodd" clip-rule="evenodd" d="M8.77992 13.945C9.68992 13.96 10.5799 13.995 11.4449 14.155L11.3849 14.265C10.5849 14.115 9.72492 14.065 8.78492 14.065C7.56992 14.055 6.34992 14.17 5.28492 14.475C4.94992 14.57 4.39492 14.785 4.33492 14.965L4.27492 14.865C4.29492 14.755 4.62492 14.535 5.25492 14.365C6.47492 14.015 7.61492 13.95 8.77992 13.945ZM8.81992 13.485C9.78041 13.484 10.7391 13.5677 11.6849 13.735L11.6199 13.85C10.6964 13.6806 9.75888 13.5985 8.81992 13.605C7.60992 13.605 6.32492 13.695 5.15492 14.035C4.77992 14.145 4.12492 14.385 4.10492 14.57L4.04492 14.46C4.05492 14.29 4.61992 14.065 5.12992 13.92C6.30492 13.575 7.59492 13.49 8.81992 13.485Z" fill="#FFFF00" stroke="black" stroke-width="0.03" stroke-linecap="round" stroke-linejoin="round"/>
<path fill-rule="evenodd" clip-rule="evenodd" d="M13.4702 14.525L13.0802 15.14L11.9452 14.135L9.01523 12.16L5.70523 10.345L3.99023 9.76001L4.35523 9.08001L4.48023 9.01501L5.54523 9.28001L9.06523 11.095L11.0952 12.375L12.8002 13.6L13.4952 14.4L13.4702 14.525Z" fill="#FFFF00" stroke="black" stroke-width="0.03" stroke-linecap="round" stroke-linejoin="round"/>
<path fill-rule="evenodd" clip-rule="evenodd" d="M3.93023 9.77493C4.23023 9.57493 6.44023 10.5549 8.76023 11.9549C11.0652 13.3549 13.2752 14.9349 13.0752 15.2299L13.0102 15.3349L12.9802 15.3599C12.9852 15.3549 13.0202 15.3099 12.9802 15.2049C12.8802 14.8799 11.3102 13.6299 8.71523 12.0599C6.18023 10.5549 4.07023 9.64493 3.86523 9.90493L3.93023 9.77493ZM13.5502 14.5199C13.7402 14.1399 11.6902 12.5949 9.14523 11.0899C6.54523 9.61493 4.66523 8.74493 4.32023 9.00493L4.25023 9.14993C4.25023 9.15493 4.25023 9.13993 4.27023 9.12493C4.33023 9.07493 4.43523 9.07493 4.48023 9.07493C5.07023 9.08493 6.75523 9.85993 9.12023 11.2149C10.1602 11.8149 13.5002 13.9649 13.4852 14.5649C13.4852 14.6149 13.4902 14.6249 13.4702 14.6549L13.5552 14.5249L13.5502 14.5199Z" fill="#FFFF00" stroke="black" stroke-width="0.03" stroke-linecap="round" stroke-linejoin="round"/>
<path d="M5.63184 12.5884C5.63263 13.0024 5.71553 13.4121 5.87573 13.7938C6.03594 14.1756 6.27027 14.5218 6.56517 14.8124C6.85648 15.1081 7.20343 15.3434 7.58604 15.5045C7.96866 15.6656 8.37937 15.7494 8.79451 15.751C9.6347 15.751 10.4404 15.4172 11.0345 14.823C11.3284 14.5308 11.5616 14.1835 11.7209 13.8009C11.8801 13.4183 11.9623 13.0081 11.9625 12.5937V8.36968L5.63184 8.35901V12.5884Z" fill="white" stroke="black" stroke-width="0.0373334"/>
<path d="M5.74902 12.5937C5.75015 12.9908 5.82991 13.3838 5.98369 13.75C6.13747 14.1161 6.36224 14.4482 6.64503 14.727C7.21285 15.2978 7.98391 15.6201 8.78903 15.623C9.59274 15.6235 10.3638 15.3051 10.933 14.7377C11.2149 14.4584 11.4386 14.1261 11.5915 13.76C11.7444 13.3939 11.8233 13.0011 11.8237 12.6044V8.49768H5.75969V12.5937M10.613 9.72968V12.3377L10.6077 12.6097C10.6095 12.848 10.5632 13.0841 10.4716 13.3041C10.3799 13.524 10.2448 13.7232 10.0744 13.8897C9.73521 14.23 9.27484 14.4219 8.79437 14.423C8.29303 14.423 7.85036 14.2097 7.5197 13.879C7.17936 13.5399 6.98754 13.0795 6.98636 12.599V9.71902L10.613 9.72968Z" fill="#FF0000"/>
<path d="M5.74902 12.5937C5.75015 12.9908 5.82991 13.3838 5.98369 13.75C6.13747 14.1161 6.36224 14.4482 6.64503 14.727C7.21285 15.2978 7.98391 15.6201 8.78903 15.623C9.59274 15.6235 10.3638 15.3051 10.933 14.7377C11.2149 14.4584 11.4386 14.1261 11.5915 13.76C11.7444 13.3939 11.8233 13.0011 11.8237 12.6044V8.49768H5.75969V12.5937M10.613 9.72968V12.3377L10.6077 12.6097C10.6095 12.848 10.5632 13.0841 10.4716 13.3041C10.3799 13.524 10.2448 13.7232 10.0744 13.8897C9.73521 14.23 9.27484 14.4219 8.79437 14.423C8.29303 14.423 7.85036 14.2097 7.5197 13.879C7.17936 13.5399 6.98754 13.0795 6.98636 12.599V9.71902L10.613 9.72968Z" stroke="black" stroke-width="0.0266667"/>
<path d="M6.14453 9.56982C6.14986 9.27649 6.35787 9.20715 6.35787 9.20715C6.3632 9.20715 6.5872 9.28182 6.5872 9.57515H6.14453" fill="#FFFF00"/>
<path d="M5.96326 9.21249L5.92593 9.54849H6.14993C6.14993 9.27115 6.36326 9.22849 6.36326 9.22849C6.3686 9.22849 6.5766 9.28715 6.58193 9.54849H6.80593L6.76327 9.20715H5.96326V9.21249ZM5.90993 9.55382H6.8166C6.8326 9.55382 6.8486 9.56982 6.8486 9.59115C6.8486 9.61782 6.8326 9.63382 6.8166 9.63382H5.90993C5.89393 9.63382 5.87793 9.61782 5.87793 9.59115C5.87793 9.56982 5.89393 9.55382 5.91526 9.55382H5.90993Z" fill="#FFFF00" stroke="black" stroke-width="0.0266667"/>
<path d="M6.24075 9.54843C6.24075 9.37243 6.36342 9.32443 6.36342 9.32443C6.36342 9.32443 6.48608 9.37776 6.48608 9.54843H6.24075ZM5.93141 9.06843H6.80075C6.81675 9.06843 6.83275 9.08976 6.83275 9.11109C6.83275 9.12709 6.81675 9.14309 6.80075 9.14309H5.93141C5.91541 9.14309 5.89941 9.12709 5.89941 9.10576C5.89941 9.08976 5.91541 9.07376 5.93141 9.07376V9.06843ZM5.95275 9.14843H6.77408C6.79008 9.14843 6.80608 9.16443 6.80608 9.18576C6.80608 9.20709 6.79008 9.22309 6.77408 9.22309H5.94741C5.92608 9.22309 5.91541 9.20709 5.91541 9.18576C5.91541 9.16443 5.92608 9.14843 5.94741 9.14843H5.95275ZM6.21942 8.58309H6.28342V8.62576H6.33141V8.58309H6.40075V8.63109H6.44875V8.57776H6.51275V8.68443C6.51275 8.70576 6.50208 8.71643 6.48608 8.71643H6.25141C6.23541 8.71643 6.21942 8.70576 6.21942 8.68976V8.58309ZM6.46475 8.72709L6.48075 9.06843H6.25141L6.26741 8.72176H6.46475" fill="#FFFF00"/>
<path d="M6.46475 8.72709L6.48075 9.06843H6.25141L6.26741 8.72176H6.46475M6.24075 9.54843C6.24075 9.37243 6.36342 9.32443 6.36342 9.32443C6.36342 9.32443 6.48608 9.37776 6.48608 9.54843H6.24075ZM5.93141 9.06843H6.80075C6.81675 9.06843 6.83275 9.08976 6.83275 9.11109C6.83275 9.12709 6.81675 9.14309 6.80075 9.14309H5.93141C5.91541 9.14309 5.89941 9.12709 5.89941 9.10576C5.89941 9.08976 5.91541 9.07376 5.93141 9.07376V9.06843ZM5.95275 9.14843H6.77408C6.79008 9.14843 6.80608 9.16443 6.80608 9.18576C6.80608 9.20709 6.79008 9.22309 6.77408 9.22309H5.94741C5.92608 9.22309 5.91541 9.20709 5.91541 9.18576C5.91541 9.16443 5.92608 9.14843 5.94741 9.14843H5.95275ZM6.21942 8.58309H6.28342V8.62576H6.33141V8.58309H6.40075V8.63109H6.44875V8.57776H6.51275V8.68443C6.51275 8.70576 6.50208 8.71643 6.48608 8.71643H6.25141C6.23541 8.71643 6.21942 8.70576 6.21942 8.68976V8.58309Z" stroke="black" stroke-width="0.0266667"/>
<path d="M6.18697 8.88708V9.06842H5.97363V8.88708H6.18697Z" fill="#FFFF00" stroke="black" stroke-width="0.0266667"/>
<path d="M6.18697 8.88708V9.06842H5.97363V8.88708H6.18697Z" fill="#FFFF00" stroke="black" stroke-width="0.0266667"/>
<path d="M5.93652 8.74841H6.00052V8.80175H6.04852V8.74841H6.11252V8.80175H6.16052V8.74841H6.22452V8.85508C6.22452 8.87641 6.21386 8.88708 6.19786 8.88708H5.96852C5.96004 8.88708 5.9519 8.88371 5.9459 8.87771C5.93989 8.87171 5.93652 8.86357 5.93652 8.85508V8.74841Z" fill="#FFFF00" stroke="black" stroke-width="0.0266667"/>
<path d="M5.93652 8.74841H6.00052V8.80175H6.04852V8.74841H6.11252V8.80175H6.16052V8.74841H6.22452V8.85508C6.22452 8.87641 6.21386 8.88708 6.19786 8.88708H5.96852C5.96004 8.88708 5.9519 8.88371 5.9459 8.87771C5.93989 8.87171 5.93652 8.86357 5.93652 8.85508V8.74841Z" fill="#FFFF00" stroke="black" stroke-width="0.0266667"/>
<path d="M6.3418 8.83369C6.3418 8.80169 6.3898 8.80169 6.3898 8.83369V8.91903H6.3418V8.83369Z" fill="black"/>
<path d="M6.05957 8.95112C6.05957 8.91912 6.10224 8.91912 6.10224 8.95112V9.01512H6.05957V8.95112Z" fill="black"/>
<path d="M6.05957 8.95112C6.05957 8.91912 6.10224 8.91912 6.10224 8.95112V9.01512H6.05957V8.95112Z" fill="black"/>
<path d="M6.14453 9.56982C6.14986 9.27649 6.35787 9.20715 6.35787 9.20715C6.3632 9.20715 6.5872 9.28182 6.5872 9.57515H6.14453" fill="#FFFF00"/>
<path d="M5.96326 9.21249L5.92593 9.54849H6.14993C6.14993 9.27115 6.36326 9.22849 6.36326 9.22849C6.3686 9.22849 6.5766 9.28715 6.58193 9.54849H6.80593L6.76327 9.20715H5.96326V9.21249ZM5.90993 9.55382H6.8166C6.8326 9.55382 6.8486 9.56982 6.8486 9.59115C6.8486 9.61782 6.8326 9.63382 6.8166 9.63382H5.90993C5.89393 9.63382 5.87793 9.61782 5.87793 9.59115C5.87793 9.56982 5.89393 9.55382 5.91526 9.55382H5.90993Z" fill="#FFFF00" stroke="black" stroke-width="0.0266667"/>
<path d="M6.24075 9.54843C6.24075 9.37243 6.36342 9.32443 6.36342 9.32443C6.36342 9.32443 6.48608 9.37776 6.48608 9.54843H6.24075ZM5.93141 9.06843H6.80075C6.81675 9.06843 6.83275 9.08976 6.83275 9.11109C6.83275 9.12709 6.81675 9.14309 6.80075 9.14309H5.93141C5.91541 9.14309 5.89941 9.12709 5.89941 9.10576C5.89941 9.08976 5.91541 9.07376 5.93141 9.07376V9.06843ZM5.95275 9.14843H6.77408C6.79008 9.14843 6.80608 9.16443 6.80608 9.18576C6.80608 9.20709 6.79008 9.22309 6.77408 9.22309H5.94741C5.92608 9.22309 5.91541 9.20709 5.91541 9.18576C5.91541 9.16443 5.92608 9.14843 5.94741 9.14843H5.95275ZM6.21942 8.58309H6.28342V8.62576H6.33141V8.58309H6.40075V8.63109H6.44875V8.57776H6.51275V8.68443C6.51275 8.70576 6.50208 8.71643 6.48608 8.71643H6.25141C6.23541 8.71643 6.21942 8.70576 6.21942 8.68976V8.58309ZM6.46475 8.72709L6.48075 9.06843H6.25141L6.26741 8.72176H6.46475" fill="#FFFF00"/>
<path d="M6.46475 8.72709L6.48075 9.06843H6.25141L6.26741 8.72176H6.46475M6.24075 9.54843C6.24075 9.37243 6.36342 9.32443 6.36342 9.32443C6.36342 9.32443 6.48608 9.37776 6.48608 9.54843H6.24075ZM5.93141 9.06843H6.80075C6.81675 9.06843 6.83275 9.08976 6.83275 9.11109C6.83275 9.12709 6.81675 9.14309 6.80075 9.14309H5.93141C5.91541 9.14309 5.89941 9.12709 5.89941 9.10576C5.89941 9.08976 5.91541 9.07376 5.93141 9.07376V9.06843ZM5.95275 9.14843H6.77408C6.79008 9.14843 6.80608 9.16443 6.80608 9.18576C6.80608 9.20709 6.79008 9.22309 6.77408 9.22309H5.94741C5.92608 9.22309 5.91541 9.20709 5.91541 9.18576C5.91541 9.16443 5.92608 9.14843 5.94741 9.14843H5.95275ZM6.21942 8.58309H6.28342V8.62576H6.33141V8.58309H6.40075V8.63109H6.44875V8.57776H6.51275V8.68443C6.51275 8.70576 6.50208 8.71643 6.48608 8.71643H6.25141C6.23541 8.71643 6.21942 8.70576 6.21942 8.68976V8.58309Z" stroke="black" stroke-width="0.0266667"/>
<path d="M6.18697 8.88708V9.06842H5.97363V8.88708H6.18697Z" fill="#FFFF00" stroke="black" stroke-width="0.0266667"/>
<path d="M6.18697 8.88708V9.06842H5.97363V8.88708H6.18697Z" fill="#FFFF00" stroke="black" stroke-width="0.0266667"/>
<path d="M5.93652 8.74841H6.00052V8.80175H6.04852V8.74841H6.11252V8.80175H6.16052V8.74841H6.22452V8.85508C6.22452 8.87641 6.21386 8.88708 6.19786 8.88708H5.96852C5.96004 8.88708 5.9519 8.88371 5.9459 8.87771C5.93989 8.87171 5.93652 8.86357 5.93652 8.85508V8.74841Z" fill="#FFFF00" stroke="black" stroke-width="0.0266667"/>
<path d="M5.93652 8.74841H6.00052V8.80175H6.04852V8.74841H6.11252V8.80175H6.16052V8.74841H6.22452V8.85508C6.22452 8.87641 6.21386 8.88708 6.19786 8.88708H5.96852C5.96004 8.88708 5.9519 8.88371 5.9459 8.87771C5.93989 8.87171 5.93652 8.86357 5.93652 8.85508V8.74841Z" fill="#FFFF00" stroke="black" stroke-width="0.0266667"/>
<path d="M6.3418 8.83369C6.3418 8.80169 6.3898 8.80169 6.3898 8.83369V8.91903H6.3418V8.83369Z" fill="black"/>
<path d="M6.05957 8.95112C6.05957 8.91912 6.10224 8.91912 6.10224 8.95112V9.01512H6.05957V8.95112Z" fill="black"/>
<path d="M6.05957 8.95112C6.05957 8.91912 6.10224 8.91912 6.10224 8.95112V9.01512H6.05957V8.95112Z" fill="black"/>
<path d="M7.10695 14.6127C6.90256 14.4022 6.99993 14.2058 6.99993 14.2058C7.00369 14.202 7.21451 14.0957 7.42265 14.3024L7.11073 14.6165" fill="#FFFF00"/>
<path d="M6.72505 14.4896L6.93716 14.7528L7.09499 14.5939C6.89821 14.3985 7.01825 14.217 7.01825 14.217C7.02201 14.2133 7.2102 14.107 7.3994 14.2874L7.55724 14.1284L7.28497 13.9182L6.72126 14.4858L6.72505 14.4896ZM6.92967 14.768L7.56854 14.1246C7.57981 14.1133 7.60244 14.1132 7.61758 14.1282C7.6365 14.147 7.63658 14.1696 7.6253 14.181L6.98643 14.8243C6.97516 14.8357 6.95253 14.8358 6.93361 14.817C6.91847 14.8019 6.91839 14.7793 6.93342 14.7642L6.92967 14.768Z" fill="#FFFF00" stroke="black" stroke-width="0.0266667"/>
<path d="M7.15877 14.5295C7.03388 14.4055 7.08626 14.2847 7.08626 14.2847C7.08626 14.2847 7.21054 14.2352 7.33164 14.3555L7.15877 14.5295ZM6.6002 14.4108L7.21277 13.7939C7.22404 13.7826 7.25045 13.7863 7.26559 13.8013C7.27694 13.8126 7.27702 13.8352 7.26575 13.8466L6.65319 14.4634C6.64191 14.4748 6.61928 14.4748 6.60415 14.4598C6.59279 14.4485 6.59271 14.4259 6.60399 14.4146L6.6002 14.4108ZM6.672 14.452L7.25074 13.8692C7.26202 13.8579 7.28465 13.8578 7.29978 13.8728C7.31492 13.8879 7.315 13.9105 7.30372 13.9219L6.72123 14.5084C6.70619 14.5236 6.68732 14.5199 6.67219 14.5048C6.65705 14.4898 6.65321 14.471 6.66824 14.4558L6.672 14.452ZM6.45876 13.8645L6.50386 13.8191L6.53413 13.8491L6.56795 13.8151L6.53768 13.785L6.58653 13.7358L6.62059 13.7696L6.65442 13.7356L6.61657 13.698L6.66167 13.6526L6.73736 13.7277C6.75249 13.7428 6.75255 13.7578 6.74127 13.7692L6.57592 13.9357C6.56464 13.9471 6.5458 13.9509 6.53445 13.9396L6.45876 13.8645ZM6.73381 13.7918L6.98728 14.021L6.82569 14.1837L6.59098 13.9281L6.73002 13.7881" fill="#FFFF00"/>
<path d="M6.73381 13.7918L6.98728 14.021L6.82569 14.1837L6.59098 13.9281L6.73002 13.7881M7.15877 14.5295C7.03388 14.4055 7.08626 14.2847 7.08626 14.2847C7.08626 14.2847 7.21054 14.2352 7.33164 14.3555L7.15877 14.5295ZM6.6002 14.4108L7.21277 13.7939C7.22404 13.7826 7.25045 13.7863 7.26559 13.8013C7.27694 13.8126 7.27702 13.8352 7.26575 13.8466L6.65319 14.4634C6.64191 14.4748 6.61928 14.4748 6.60415 14.4598C6.59279 14.4485 6.59271 14.4259 6.60399 14.4146L6.6002 14.4108ZM6.672 14.452L7.25074 13.8692C7.26202 13.8579 7.28465 13.8578 7.29978 13.8728C7.31492 13.8879 7.315 13.9105 7.30372 13.9219L6.72123 14.5084C6.70619 14.5236 6.68732 14.5199 6.67219 14.5048C6.65705 14.4898 6.65321 14.471 6.66824 14.4558L6.672 14.452ZM6.45876 13.8645L6.50386 13.8191L6.53413 13.8491L6.56795 13.8151L6.53768 13.785L6.58653 13.7358L6.62059 13.7696L6.65442 13.7356L6.61657 13.698L6.66167 13.6526L6.73736 13.7277C6.75249 13.7428 6.75255 13.7578 6.74127 13.7692L6.57592 13.9357C6.56464 13.9471 6.5458 13.9509 6.53445 13.9396L6.45876 13.8645Z" stroke="black" stroke-width="0.0266667"/>
<path d="M6.65228 14.1014L6.78094 14.2292L6.63062 14.3806L6.50195 14.2528L6.65228 14.1014Z" fill="#FFFF00" stroke="black" stroke-width="0.0266667"/>
<path d="M6.65228 14.1014L6.78094 14.2292L6.63062 14.3806L6.50195 14.2528L6.65228 14.1014Z" fill="#FFFF00" stroke="black" stroke-width="0.0266667"/>
<path d="M6.37695 14.1815L6.42205 14.1361L6.45989 14.1737L6.49372 14.1396L6.45587 14.102L6.50097 14.0566L6.53881 14.0942L6.57264 14.0602L6.53479 14.0226L6.57989 13.9772L6.65558 14.0523C6.67071 14.0674 6.67077 14.0824 6.65949 14.0938L6.4979 14.2565C6.49192 14.2625 6.48379 14.2659 6.4753 14.266C6.46681 14.266 6.45866 14.2627 6.45264 14.2567L6.37695 14.1815Z" fill="#FFFF00" stroke="black" stroke-width="0.0266667"/>
<path d="M6.37695 14.1815L6.42205 14.1361L6.45989 14.1737L6.49372 14.1396L6.45587 14.102L6.50097 14.0566L6.53881 14.0942L6.57264 14.0602L6.53479 14.0226L6.57989 13.9772L6.65558 14.0523C6.67071 14.0674 6.67077 14.0824 6.65949 14.0938L6.4979 14.2565C6.49192 14.2625 6.48379 14.2659 6.4753 14.266C6.46681 14.266 6.45866 14.2627 6.45264 14.2567L6.37695 14.1815Z" fill="#FFFF00" stroke="black" stroke-width="0.0266667"/>
<path d="M6.72308 13.954C6.70038 13.9315 6.7342 13.8974 6.75691 13.92L6.81746 13.9801L6.78363 14.0142L6.72308 13.954Z" fill="black"/>
<path d="M6.60785 14.2374C6.58514 14.2148 6.61521 14.1845 6.63791 14.2071L6.68333 14.2522L6.65326 14.2825L6.60785 14.2374Z" fill="black"/>
<path d="M6.60785 14.2374C6.58514 14.2148 6.61521 14.1845 6.63791 14.2071L6.68333 14.2522L6.65326 14.2825L6.60785 14.2374Z" fill="black"/>
<path d="M6.14453 9.56982C6.14986 9.27649 6.35787 9.20715 6.35787 9.20715C6.3632 9.20715 6.5872 9.28182 6.5872 9.57515H6.14453" fill="#FFFF00"/>
<path d="M5.96326 9.21249L5.92593 9.54849H6.14993C6.14993 9.27115 6.36326 9.22849 6.36326 9.22849C6.3686 9.22849 6.5766 9.28715 6.58193 9.54849H6.80593L6.76327 9.20715H5.96326V9.21249ZM5.90993 9.55382H6.8166C6.8326 9.55382 6.8486 9.56982 6.8486 9.59115C6.8486 9.61782 6.8326 9.63382 6.8166 9.63382H5.90993C5.89393 9.63382 5.87793 9.61782 5.87793 9.59115C5.87793 9.56982 5.89393 9.55382 5.91526 9.55382H5.90993Z" fill="#FFFF00" stroke="black" stroke-width="0.0266667"/>
<path d="M6.24075 9.54843C6.24075 9.37243 6.36342 9.32443 6.36342 9.32443C6.36342 9.32443 6.48608 9.37776 6.48608 9.54843H6.24075ZM5.93141 9.06843H6.80075C6.81675 9.06843 6.83275 9.08976 6.83275 9.11109C6.83275 9.12709 6.81675 9.14309 6.80075 9.14309H5.93141C5.91541 9.14309 5.89941 9.12709 5.89941 9.10576C5.89941 9.08976 5.91541 9.07376 5.93141 9.07376V9.06843ZM5.95275 9.14843H6.77408C6.79008 9.14843 6.80608 9.16443 6.80608 9.18576C6.80608 9.20709 6.79008 9.22309 6.77408 9.22309H5.94741C5.92608 9.22309 5.91541 9.20709 5.91541 9.18576C5.91541 9.16443 5.92608 9.14843 5.94741 9.14843H5.95275ZM6.21942 8.58309H6.28342V8.62576H6.33141V8.58309H6.40075V8.63109H6.44875V8.57776H6.51275V8.68443C6.51275 8.70576 6.50208 8.71643 6.48608 8.71643H6.25141C6.23541 8.71643 6.21942 8.70576 6.21942 8.68976V8.58309ZM6.46475 8.72709L6.48075 9.06843H6.25141L6.26741 8.72176H6.46475" fill="#FFFF00"/>
<path d="M6.46475 8.72709L6.48075 9.06843H6.25141L6.26741 8.72176H6.46475M6.24075 9.54843C6.24075 9.37243 6.36342 9.32443 6.36342 9.32443C6.36342 9.32443 6.48608 9.37776 6.48608 9.54843H6.24075ZM5.93141 9.06843H6.80075C6.81675 9.06843 6.83275 9.08976 6.83275 9.11109C6.83275 9.12709 6.81675 9.14309 6.80075 9.14309H5.93141C5.91541 9.14309 5.89941 9.12709 5.89941 9.10576C5.89941 9.08976 5.91541 9.07376 5.93141 9.07376V9.06843ZM5.95275 9.14843H6.77408C6.79008 9.14843 6.80608 9.16443 6.80608 9.18576C6.80608 9.20709 6.79008 9.22309 6.77408 9.22309H5.94741C5.92608 9.22309 5.91541 9.20709 5.91541 9.18576C5.91541 9.16443 5.92608 9.14843 5.94741 9.14843H5.95275ZM6.21942 8.58309H6.28342V8.62576H6.33141V8.58309H6.40075V8.63109H6.44875V8.57776H6.51275V8.68443C6.51275 8.70576 6.50208 8.71643 6.48608 8.71643H6.25141C6.23541 8.71643 6.21942 8.70576 6.21942 8.68976V8.58309Z" stroke="black" stroke-width="0.0266667"/>
<path d="M6.18697 8.88708V9.06842H5.97363V8.88708H6.18697Z" fill="#FFFF00" stroke="black" stroke-width="0.0266667"/>
<path d="M6.18697 8.88708V9.06842H5.97363V8.88708H6.18697Z" fill="#FFFF00" stroke="black" stroke-width="0.0266667"/>
<path d="M5.93652 8.74841H6.00052V8.80175H6.04852V8.74841H6.11252V8.80175H6.16052V8.74841H6.22452V8.85508C6.22452 8.87641 6.21386 8.88708 6.19786 8.88708H5.96852C5.96004 8.88708 5.9519 8.88371 5.9459 8.87771C5.93989 8.87171 5.93652 8.86357 5.93652 8.85508V8.74841Z" fill="#FFFF00" stroke="black" stroke-width="0.0266667"/>
<path d="M5.93652 8.74841H6.00052V8.80175H6.04852V8.74841H6.11252V8.80175H6.16052V8.74841H6.22452V8.85508C6.22452 8.87641 6.21386 8.88708 6.19786 8.88708H5.96852C5.96004 8.88708 5.9519 8.88371 5.9459 8.87771C5.93989 8.87171 5.93652 8.86357 5.93652 8.85508V8.74841Z" fill="#FFFF00" stroke="black" stroke-width="0.0266667"/>
<path d="M6.3418 8.83369C6.3418 8.80169 6.3898 8.80169 6.3898 8.83369V8.91903H6.3418V8.83369Z" fill="black"/>
<path d="M6.05957 8.95112C6.05957 8.91912 6.10224 8.91912 6.10224 8.95112V9.01512H6.05957V8.95112Z" fill="black"/>
<path d="M6.05957 8.95112C6.05957 8.91912 6.10224 8.91912 6.10224 8.95112V9.01512H6.05957V8.95112Z" fill="black"/>
<path d="M11.4453 9.5697C11.44 9.27636 11.232 9.20703 11.232 9.20703C11.2266 9.20703 11.0026 9.2817 11.0026 9.57503H11.4453" fill="#FFFF00"/>
<path d="M11.6266 9.21236L11.6639 9.54837H11.4399C11.4399 9.27103 11.2266 9.22836 11.2266 9.22836C11.2212 9.22836 11.0132 9.28703 11.0079 9.54837H10.7839L10.8266 9.20703H11.6266V9.21236ZM11.6799 9.5537H10.7732C10.7572 9.5537 10.7412 9.5697 10.7412 9.59103C10.7412 9.6177 10.7572 9.6337 10.7732 9.6337H11.6799C11.6959 9.6337 11.7119 9.6177 11.7119 9.59103C11.7119 9.5697 11.6959 9.5537 11.6746 9.5537H11.6799Z" fill="#FFFF00" stroke="black" stroke-width="0.0266667"/>
<path d="M11.3491 9.54831C11.3491 9.37231 11.2264 9.32431 11.2264 9.32431C11.2264 9.32431 11.1038 9.37764 11.1038 9.54831H11.3491ZM11.6584 9.0683H10.7891C10.7731 9.0683 10.7571 9.08964 10.7571 9.11097C10.7571 9.12697 10.7731 9.14297 10.7891 9.14297H11.6584C11.6744 9.14297 11.6904 9.12697 11.6904 9.10564C11.6904 9.08964 11.6744 9.07364 11.6584 9.07364V9.0683ZM11.6371 9.14831H10.8158C10.7998 9.14831 10.7838 9.1643 10.7838 9.18564C10.7838 9.20697 10.7998 9.22297 10.8158 9.22297H11.6424C11.6638 9.22297 11.6744 9.20697 11.6744 9.18564C11.6744 9.1643 11.6638 9.14831 11.6424 9.14831H11.6371ZM11.3704 8.58297H11.3064V8.62564H11.2584V8.58297H11.1891V8.63097H11.1411V8.57764H11.0771V8.6843C11.0771 8.70564 11.0878 8.7163 11.1038 8.7163H11.3384C11.3544 8.7163 11.3704 8.70564 11.3704 8.68964V8.58297ZM11.1251 8.72697L11.1091 9.0683H11.3384L11.3224 8.72164H11.1251" fill="#FFFF00"/>
<path d="M11.1251 8.72697L11.1091 9.0683H11.3384L11.3224 8.72164H11.1251M11.3491 9.54831C11.3491 9.37231 11.2264 9.32431 11.2264 9.32431C11.2264 9.32431 11.1038 9.37764 11.1038 9.54831H11.3491ZM11.6584 9.0683H10.7891C10.7731 9.0683 10.7571 9.08964 10.7571 9.11097C10.7571 9.12697 10.7731 9.14297 10.7891 9.14297H11.6584C11.6744 9.14297 11.6904 9.12697 11.6904 9.10564C11.6904 9.08964 11.6744 9.07364 11.6584 9.07364V9.0683ZM11.6371 9.14831H10.8158C10.7998 9.14831 10.7838 9.1643 10.7838 9.18564C10.7838 9.20697 10.7998 9.22297 10.8158 9.22297H11.6424C11.6638 9.22297 11.6744 9.20697 11.6744 9.18564C11.6744 9.1643 11.6638 9.14831 11.6424 9.14831H11.6371ZM11.3704 8.58297H11.3064V8.62564H11.2584V8.58297H11.1891V8.63097H11.1411V8.57764H11.0771V8.6843C11.0771 8.70564 11.0878 8.7163 11.1038 8.7163H11.3384C11.3544 8.7163 11.3704 8.70564 11.3704 8.68964V8.58297Z" stroke="black" stroke-width="0.0266667"/>
<path d="M11.4029 8.88696V9.0683H11.6162V8.88696H11.4029Z" fill="#FFFF00" stroke="black" stroke-width="0.0266667"/>
<path d="M11.4029 8.88696V9.0683H11.6162V8.88696H11.4029Z" fill="#FFFF00" stroke="black" stroke-width="0.0266667"/>
<path d="M11.6533 8.74829H11.5893V8.80162H11.5413V8.74829H11.4773V8.80162H11.4293V8.74829H11.3653V8.85496C11.3653 8.87629 11.376 8.88696 11.392 8.88696H11.6213C11.6298 8.88696 11.6379 8.88359 11.6439 8.87759C11.6499 8.87158 11.6533 8.86344 11.6533 8.85496V8.74829Z" fill="#FFFF00" stroke="black" stroke-width="0.0266667"/>
<path d="M11.6533 8.74829H11.5893V8.80162H11.5413V8.74829H11.4773V8.80162H11.4293V8.74829H11.3653V8.85496C11.3653 8.87629 11.376 8.88696 11.392 8.88696H11.6213C11.6298 8.88696 11.6379 8.88359 11.6439 8.87759C11.6499 8.87158 11.6533 8.86344 11.6533 8.85496V8.74829Z" fill="#FFFF00" stroke="black" stroke-width="0.0266667"/>
<path d="M11.248 8.83369C11.248 8.80169 11.2 8.80169 11.2 8.83369V8.91903H11.248V8.83369Z" fill="black"/>
<path d="M11.5312 8.951C11.5312 8.919 11.4886 8.919 11.4886 8.951V9.015H11.5312V8.951Z" fill="black"/>
<path d="M11.5312 8.951C11.5312 8.919 11.4886 8.919 11.4886 8.951V9.015H11.5312V8.951Z" fill="black"/>
<path d="M11.4453 9.5697C11.44 9.27636 11.232 9.20703 11.232 9.20703C11.2266 9.20703 11.0026 9.2817 11.0026 9.57503H11.4453" fill="#FFFF00"/>
<path d="M11.6266 9.21236L11.6639 9.54837H11.4399C11.4399 9.27103 11.2266 9.22836 11.2266 9.22836C11.2212 9.22836 11.0132 9.28703 11.0079 9.54837H10.7839L10.8266 9.20703H11.6266V9.21236ZM11.6799 9.5537H10.7732C10.7572 9.5537 10.7412 9.5697 10.7412 9.59103C10.7412 9.6177 10.7572 9.6337 10.7732 9.6337H11.6799C11.6959 9.6337 11.7119 9.6177 11.7119 9.59103C11.7119 9.5697 11.6959 9.5537 11.6746 9.5537H11.6799Z" fill="#FFFF00" stroke="black" stroke-width="0.0266667"/>
<path d="M11.3491 9.54831C11.3491 9.37231 11.2264 9.32431 11.2264 9.32431C11.2264 9.32431 11.1038 9.37764 11.1038 9.54831H11.3491ZM11.6584 9.0683H10.7891C10.7731 9.0683 10.7571 9.08964 10.7571 9.11097C10.7571 9.12697 10.7731 9.14297 10.7891 9.14297H11.6584C11.6744 9.14297 11.6904 9.12697 11.6904 9.10564C11.6904 9.08964 11.6744 9.07364 11.6584 9.07364V9.0683ZM11.6371 9.14831H10.8158C10.7998 9.14831 10.7838 9.1643 10.7838 9.18564C10.7838 9.20697 10.7998 9.22297 10.8158 9.22297H11.6424C11.6638 9.22297 11.6744 9.20697 11.6744 9.18564C11.6744 9.1643 11.6638 9.14831 11.6424 9.14831H11.6371ZM11.3704 8.58297H11.3064V8.62564H11.2584V8.58297H11.1891V8.63097H11.1411V8.57764H11.0771V8.6843C11.0771 8.70564 11.0878 8.7163 11.1038 8.7163H11.3384C11.3544 8.7163 11.3704 8.70564 11.3704 8.68964V8.58297ZM11.1251 8.72697L11.1091 9.0683H11.3384L11.3224 8.72164H11.1251" fill="#FFFF00"/>
<path d="M11.1251 8.72697L11.1091 9.0683H11.3384L11.3224 8.72164H11.1251M11.3491 9.54831C11.3491 9.37231 11.2264 9.32431 11.2264 9.32431C11.2264 9.32431 11.1038 9.37764 11.1038 9.54831H11.3491ZM11.6584 9.0683H10.7891C10.7731 9.0683 10.7571 9.08964 10.7571 9.11097C10.7571 9.12697 10.7731 9.14297 10.7891 9.14297H11.6584C11.6744 9.14297 11.6904 9.12697 11.6904 9.10564C11.6904 9.08964 11.6744 9.07364 11.6584 9.07364V9.0683ZM11.6371 9.14831H10.8158C10.7998 9.14831 10.7838 9.1643 10.7838 9.18564C10.7838 9.20697 10.7998 9.22297 10.8158 9.22297H11.6424C11.6638 9.22297 11.6744 9.20697 11.6744 9.18564C11.6744 9.1643 11.6638 9.14831 11.6424 9.14831H11.6371ZM11.3704 8.58297H11.3064V8.62564H11.2584V8.58297H11.1891V8.63097H11.1411V8.57764H11.0771V8.6843C11.0771 8.70564 11.0878 8.7163 11.1038 8.7163H11.3384C11.3544 8.7163 11.3704 8.70564 11.3704 8.68964V8.58297Z" stroke="black" stroke-width="0.0266667"/>
<path d="M11.4029 8.88696V9.0683H11.6162V8.88696H11.4029Z" fill="#FFFF00" stroke="black" stroke-width="0.0266667"/>
<path d="M11.4029 8.88696V9.0683H11.6162V8.88696H11.4029Z" fill="#FFFF00" stroke="black" stroke-width="0.0266667"/>
<path d="M11.6533 8.74829H11.5893V8.80162H11.5413V8.74829H11.4773V8.80162H11.4293V8.74829H11.3653V8.85496C11.3653 8.87629 11.376 8.88696 11.392 8.88696H11.6213C11.6298 8.88696 11.6379 8.88359 11.6439 8.87759C11.6499 8.87158 11.6533 8.86344 11.6533 8.85496V8.74829Z" fill="#FFFF00" stroke="black" stroke-width="0.0266667"/>
<path d="M11.6533 8.74829H11.5893V8.80162H11.5413V8.74829H11.4773V8.80162H11.4293V8.74829H11.3653V8.85496C11.3653 8.87629 11.376 8.88696 11.392 8.88696H11.6213C11.6298 8.88696 11.6379 8.88359 11.6439 8.87759C11.6499 8.87158 11.6533 8.86344 11.6533 8.85496V8.74829Z" fill="#FFFF00" stroke="black" stroke-width="0.0266667"/>
<path d="M11.248 8.83369C11.248 8.80169 11.2 8.80169 11.2 8.83369V8.91903H11.248V8.83369Z" fill="black"/>
<path d="M11.5312 8.951C11.5312 8.919 11.4886 8.919 11.4886 8.951V9.015H11.5312V8.951Z" fill="black"/>
<path d="M11.5312 8.951C11.5312 8.919 11.4886 8.919 11.4886 8.951V9.015H11.5312V8.951Z" fill="black"/>
<path d="M10.4819 14.6126C10.6863 14.4021 10.5889 14.2057 10.5889 14.2057C10.5852 14.2019 10.3744 14.0956 10.1662 14.3023L10.4781 14.6164" fill="#FFFF00"/>
<path d="M10.8628 14.4895L10.6507 14.7527L10.4929 14.5938C10.6897 14.3984 10.5696 14.2169 10.5696 14.2169C10.5659 14.2131 10.3777 14.1069 10.1885 14.2872L10.0307 14.1283L10.3029 13.9181L10.8666 14.4857L10.8628 14.4895ZM10.6582 14.7678L10.0194 14.1245C10.0081 14.1131 9.98545 14.1131 9.97031 14.1281C9.95139 14.1469 9.95131 14.1695 9.96259 14.1809L10.6015 14.8242C10.6127 14.8356 10.6354 14.8356 10.6543 14.8168C10.6694 14.8018 10.6695 14.7792 10.6545 14.764L10.6582 14.7678Z" fill="#FFFF00" stroke="black" stroke-width="0.0266667"/>
<path d="M10.4291 14.5294C10.554 14.4054 10.5016 14.2845 10.5016 14.2845C10.5016 14.2845 10.3774 14.2351 10.2563 14.3553L10.4291 14.5294ZM10.9877 14.4107L10.3751 13.7938C10.3638 13.7825 10.3374 13.7862 10.3223 13.8012C10.3109 13.8125 10.3109 13.8351 10.3221 13.8464L10.9347 14.4633C10.946 14.4746 10.9686 14.4747 10.9837 14.4597C10.9951 14.4484 10.9952 14.4258 10.9839 14.4144L10.9877 14.4107ZM10.9159 14.4519L10.3371 13.8691C10.3259 13.8578 10.3032 13.8577 10.2881 13.8727C10.273 13.8878 10.2729 13.9104 10.2842 13.9217L10.8667 14.5083C10.8817 14.5234 10.9006 14.5197 10.9157 14.5047C10.9308 14.4897 10.9347 14.4708 10.9196 14.4557L10.9159 14.4519ZM11.1291 13.8643L11.084 13.8189L11.0538 13.849L11.0199 13.8149L11.0502 13.7849L11.0014 13.7357L10.9673 13.7695L10.9335 13.7354L10.9713 13.6979L10.9262 13.6524L10.8505 13.7276C10.8354 13.7426 10.8353 13.7577 10.8466 13.7691L11.012 13.9356C11.0232 13.9469 11.0421 13.9508 11.0534 13.9395L11.1291 13.8643ZM10.8541 13.7917L10.6006 14.0209L10.7622 14.1836L10.9969 13.928L10.8579 13.788" fill="#FFFF00"/>
<path d="M10.8541 13.7917L10.6006 14.0209L10.7622 14.1836L10.9969 13.928L10.8579 13.788M10.4291 14.5294C10.554 14.4054 10.5016 14.2845 10.5016 14.2845C10.5016 14.2845 10.3774 14.2351 10.2563 14.3553L10.4291 14.5294ZM10.9877 14.4107L10.3751 13.7938C10.3638 13.7825 10.3374 13.7862 10.3223 13.8012C10.3109 13.8125 10.3109 13.8351 10.3221 13.8464L10.9347 14.4633C10.946 14.4746 10.9686 14.4747 10.9837 14.4597C10.9951 14.4484 10.9952 14.4258 10.9839 14.4144L10.9877 14.4107ZM10.9159 14.4519L10.3371 13.8691C10.3259 13.8578 10.3032 13.8577 10.2881 13.8727C10.273 13.8878 10.2729 13.9104 10.2842 13.9217L10.8667 14.5083C10.8817 14.5234 10.9006 14.5197 10.9157 14.5047C10.9308 14.4897 10.9347 14.4708 10.9196 14.4557L10.9159 14.4519ZM11.1291 13.8643L11.084 13.8189L11.0538 13.849L11.0199 13.8149L11.0502 13.7849L11.0014 13.7357L10.9673 13.7695L10.9335 13.7354L10.9713 13.6979L10.9262 13.6524L10.8505 13.7276C10.8354 13.7426 10.8353 13.7577 10.8466 13.7691L11.012 13.9356C11.0232 13.9469 11.0421 13.9508 11.0534 13.9395L11.1291 13.8643Z" stroke="black" stroke-width="0.0266667"/>
<path d="M10.9366 14.1013L10.8079 14.2291L10.9582 14.3805L11.0869 14.2527L10.9366 14.1013Z" fill="#FFFF00" stroke="black" stroke-width="0.0266667"/>
<path d="M10.9366 14.1013L10.8079 14.2291L10.9582 14.3805L11.0869 14.2527L10.9366 14.1013Z" fill="#FFFF00" stroke="black" stroke-width="0.0266667"/>
<path d="M11.2109 14.1814L11.1658 14.136L11.128 14.1736L11.0942 14.1395L11.132 14.1019L11.0869 14.0565L11.0491 14.0941L11.0153 14.06L11.0531 14.0225L11.008 13.977L10.9323 14.0522C10.9172 14.0672 10.9171 14.0823 10.9284 14.0937L11.09 14.2564C11.096 14.2624 11.1041 14.2658 11.1126 14.2659C11.1211 14.2659 11.1292 14.2625 11.1352 14.2566L11.2109 14.1814Z" fill="#FFFF00" stroke="black" stroke-width="0.0266667"/>
<path d="M11.2109 14.1814L11.1658 14.136L11.128 14.1736L11.0942 14.1395L11.132 14.1019L11.0869 14.0565L11.0491 14.0941L11.0153 14.06L11.0531 14.0225L11.008 13.977L10.9323 14.0522C10.9172 14.0672 10.9171 14.0823 10.9284 14.0937L11.09 14.2564C11.096 14.2624 11.1041 14.2658 11.1126 14.2659C11.1211 14.2659 11.1292 14.2625 11.1352 14.2566L11.2109 14.1814Z" fill="#FFFF00" stroke="black" stroke-width="0.0266667"/>
<path d="M10.8648 13.9539C10.8875 13.9314 10.8537 13.8973 10.831 13.9199L10.7704 13.98L10.8043 14.0141L10.8648 13.9539Z" fill="black"/>
<path d="M10.981 14.2372C11.0037 14.2147 10.9737 14.1844 10.951 14.207L10.9055 14.2521L10.9356 14.2823L10.981 14.2372Z" fill="black"/>
<path d="M10.981 14.2372C11.0037 14.2147 10.9737 14.1844 10.951 14.207L10.9055 14.2521L10.9356 14.2823L10.981 14.2372Z" fill="black"/>
<path d="M8.40529 12.1297C8.40432 12.2423 8.44628 12.351 8.52262 12.4337C8.55824 12.4735 8.60178 12.5055 8.65045 12.5275C8.69913 12.5496 8.75186 12.5612 8.80529 12.5617C8.91729 12.5617 9.01862 12.5084 9.08796 12.4337C9.1643 12.351 9.20626 12.2423 9.20529 12.1297V11.5537H8.40529V12.1297Z" fill="#003399"/>
<path d="M8.59172 11.8524C8.6359 11.8524 8.67172 11.8166 8.67172 11.7724C8.67172 11.7282 8.6359 11.6924 8.59172 11.6924C8.54754 11.6924 8.51172 11.7282 8.51172 11.7724C8.51172 11.8166 8.54754 11.8524 8.59172 11.8524Z" fill="white"/>
<path d="M9.03508 11.8524C9.07926 11.8524 9.11508 11.8166 9.11508 11.7724C9.11508 11.7282 9.07926 11.6924 9.03508 11.6924C8.9909 11.6924 8.95508 11.7282 8.95508 11.7724C8.95508 11.8166 8.9909 11.8524 9.03508 11.8524Z" fill="white"/>
<path d="M8.81047 12.0658C8.85465 12.0658 8.89047 12.0299 8.89047 11.9858C8.89047 11.9416 8.85465 11.9058 8.81047 11.9058C8.76629 11.9058 8.73047 11.9416 8.73047 11.9858C8.73047 12.0299 8.76629 12.0658 8.81047 12.0658Z" fill="white"/>
<path d="M8.59172 12.2896C8.6359 12.2896 8.67172 12.2538 8.67172 12.2096C8.67172 12.1655 8.6359 12.1296 8.59172 12.1296C8.54754 12.1296 8.51172 12.1655 8.51172 12.2096C8.51172 12.2538 8.54754 12.2896 8.59172 12.2896Z" fill="white"/>
<path d="M9.03508 12.2896C9.07926 12.2896 9.11508 12.2538 9.11508 12.2096C9.11508 12.1655 9.07926 12.1296 9.03508 12.1296C8.9909 12.1296 8.95508 12.1655 8.95508 12.2096C8.95508 12.2538 8.9909 12.2896 9.03508 12.2896Z" fill="white"/>
<path d="M8.40529 12.1297C8.40432 12.2423 8.44628 12.351 8.52262 12.4337C8.55824 12.4735 8.60178 12.5055 8.65045 12.5275C8.69913 12.5496 8.75186 12.5612 8.80529 12.5617C8.91729 12.5617 9.01862 12.5084 9.08796 12.4337C9.1643 12.351 9.20626 12.2423 9.20529 12.1297V11.5537H8.40529V12.1297Z" fill="#003399"/>
<path d="M8.59172 11.8524C8.6359 11.8524 8.67172 11.8166 8.67172 11.7724C8.67172 11.7282 8.6359 11.6924 8.59172 11.6924C8.54754 11.6924 8.51172 11.7282 8.51172 11.7724C8.51172 11.8166 8.54754 11.8524 8.59172 11.8524Z" fill="white"/>
<path d="M9.03508 11.8524C9.07926 11.8524 9.11508 11.8166 9.11508 11.7724C9.11508 11.7282 9.07926 11.6924 9.03508 11.6924C8.9909 11.6924 8.95508 11.7282 8.95508 11.7724C8.95508 11.8166 8.9909 11.8524 9.03508 11.8524Z" fill="white"/>
<path d="M8.81047 12.0658C8.85465 12.0658 8.89047 12.0299 8.89047 11.9858C8.89047 11.9416 8.85465 11.9058 8.81047 11.9058C8.76629 11.9058 8.73047 11.9416 8.73047 11.9858C8.73047 12.0299 8.76629 12.0658 8.81047 12.0658Z" fill="white"/>
<path d="M8.59172 12.2896C8.6359 12.2896 8.67172 12.2538 8.67172 12.2096C8.67172 12.1655 8.6359 12.1296 8.59172 12.1296C8.54754 12.1296 8.51172 12.1655 8.51172 12.2096C8.51172 12.2538 8.54754 12.2896 8.59172 12.2896Z" fill="white"/>
<path d="M9.03508 12.2896C9.07926 12.2896 9.11508 12.2538 9.11508 12.2096C9.11508 12.1655 9.07926 12.1296 9.03508 12.1296C8.9909 12.1296 8.95508 12.1655 8.95508 12.2096C8.95508 12.2538 8.9909 12.2896 9.03508 12.2896Z" fill="white"/>
<path d="M8.40529 12.1297C8.40432 12.2423 8.44628 12.351 8.52262 12.4337C8.55824 12.4735 8.60178 12.5055 8.65045 12.5275C8.69913 12.5496 8.75186 12.5612 8.80529 12.5617C8.91729 12.5617 9.01862 12.5084 9.08796 12.4337C9.1643 12.351 9.20626 12.2423 9.20529 12.1297V11.5537H8.40529V12.1297Z" fill="#003399"/>
<path d="M8.59172 11.8524C8.6359 11.8524 8.67172 11.8166 8.67172 11.7724C8.67172 11.7282 8.6359 11.6924 8.59172 11.6924C8.54754 11.6924 8.51172 11.7282 8.51172 11.7724C8.51172 11.8166 8.54754 11.8524 8.59172 11.8524Z" fill="white"/>
<path d="M9.03508 11.8524C9.07926 11.8524 9.11508 11.8166 9.11508 11.7724C9.11508 11.7282 9.07926 11.6924 9.03508 11.6924C8.9909 11.6924 8.95508 11.7282 8.95508 11.7724C8.95508 11.8166 8.9909 11.8524 9.03508 11.8524Z" fill="white"/>
<path d="M8.81047 12.0658C8.85465 12.0658 8.89047 12.0299 8.89047 11.9858C8.89047 11.9416 8.85465 11.9058 8.81047 11.9058C8.76629 11.9058 8.73047 11.9416 8.73047 11.9858C8.73047 12.0299 8.76629 12.0658 8.81047 12.0658Z" fill="white"/>
<path d="M8.59172 12.2896C8.6359 12.2896 8.67172 12.2538 8.67172 12.2096C8.67172 12.1655 8.6359 12.1296 8.59172 12.1296C8.54754 12.1296 8.51172 12.1655 8.51172 12.2096C8.51172 12.2538 8.54754 12.2896 8.59172 12.2896Z" fill="white"/>
<path d="M9.03508 12.2896C9.07926 12.2896 9.11508 12.2538 9.11508 12.2096C9.11508 12.1655 9.07926 12.1296 9.03508 12.1296C8.9909 12.1296 8.95508 12.1655 8.95508 12.2096C8.95508 12.2538 8.9909 12.2896 9.03508 12.2896Z" fill="white"/>
<path d="M8.40529 12.1297C8.40432 12.2423 8.44628 12.351 8.52262 12.4337C8.55824 12.4735 8.60178 12.5055 8.65045 12.5275C8.69913 12.5496 8.75186 12.5612 8.80529 12.5617C8.91729 12.5617 9.01862 12.5084 9.08796 12.4337C9.1643 12.351 9.20626 12.2423 9.20529 12.1297V11.5537H8.40529V12.1297Z" fill="#003399"/>
<path d="M8.59172 11.8524C8.6359 11.8524 8.67172 11.8166 8.67172 11.7724C8.67172 11.7282 8.6359 11.6924 8.59172 11.6924C8.54754 11.6924 8.51172 11.7282 8.51172 11.7724C8.51172 11.8166 8.54754 11.8524 8.59172 11.8524Z" fill="white"/>
<path d="M9.03508 11.8524C9.07926 11.8524 9.11508 11.8166 9.11508 11.7724C9.11508 11.7282 9.07926 11.6924 9.03508 11.6924C8.9909 11.6924 8.95508 11.7282 8.95508 11.7724C8.95508 11.8166 8.9909 11.8524 9.03508 11.8524Z" fill="white"/>
<path d="M8.81047 12.0658C8.85465 12.0658 8.89047 12.0299 8.89047 11.9858C8.89047 11.9416 8.85465 11.9058 8.81047 11.9058C8.76629 11.9058 8.73047 11.9416 8.73047 11.9858C8.73047 12.0299 8.76629 12.0658 8.81047 12.0658Z" fill="white"/>
<path d="M8.59172 12.2896C8.6359 12.2896 8.67172 12.2538 8.67172 12.2096C8.67172 12.1655 8.6359 12.1296 8.59172 12.1296C8.54754 12.1296 8.51172 12.1655 8.51172 12.2096C8.51172 12.2538 8.54754 12.2896 8.59172 12.2896Z" fill="white"/>
<path d="M9.03508 12.2896C9.07926 12.2896 9.11508 12.2538 9.11508 12.2096C9.11508 12.1655 9.07926 12.1296 9.03508 12.1296C8.9909 12.1296 8.95508 12.1655 8.95508 12.2096C8.95508 12.2538 8.9909 12.2896 9.03508 12.2896Z" fill="white"/>
<path d="M8.40529 12.1297C8.40432 12.2423 8.44628 12.351 8.52262 12.4337C8.55824 12.4735 8.60178 12.5055 8.65045 12.5275C8.69913 12.5496 8.75186 12.5612 8.80529 12.5617C8.91729 12.5617 9.01862 12.5084 9.08796 12.4337C9.1643 12.351 9.20626 12.2423 9.20529 12.1297V11.5537H8.40529V12.1297Z" fill="#003399"/>
<path d="M8.59172 11.8524C8.6359 11.8524 8.67172 11.8166 8.67172 11.7724C8.67172 11.7282 8.6359 11.6924 8.59172 11.6924C8.54754 11.6924 8.51172 11.7282 8.51172 11.7724C8.51172 11.8166 8.54754 11.8524 8.59172 11.8524Z" fill="white"/>
<path d="M9.03508 11.8524C9.07926 11.8524 9.11508 11.8166 9.11508 11.7724C9.11508 11.7282 9.07926 11.6924 9.03508 11.6924C8.9909 11.6924 8.95508 11.7282 8.95508 11.7724C8.95508 11.8166 8.9909 11.8524 9.03508 11.8524Z" fill="white"/>
<path d="M8.81047 12.0658C8.85465 12.0658 8.89047 12.0299 8.89047 11.9858C8.89047 11.9416 8.85465 11.9058 8.81047 11.9058C8.76629 11.9058 8.73047 11.9416 8.73047 11.9858C8.73047 12.0299 8.76629 12.0658 8.81047 12.0658Z" fill="white"/>
<path d="M8.59172 12.2896C8.6359 12.2896 8.67172 12.2538 8.67172 12.2096C8.67172 12.1655 8.6359 12.1296 8.59172 12.1296C8.54754 12.1296 8.51172 12.1655 8.51172 12.2096C8.51172 12.2538 8.54754 12.2896 8.59172 12.2896Z" fill="white"/>
<path d="M9.03508 12.2896C9.07926 12.2896 9.11508 12.2538 9.11508 12.2096C9.11508 12.1655 9.07926 12.1296 9.03508 12.1296C8.9909 12.1296 8.95508 12.1655 8.95508 12.2096C8.95508 12.2538 8.9909 12.2896 9.03508 12.2896Z" fill="white"/>
</g>
</g>
<defs>
<clipPath id="clip0_3103_30956">
<rect width="24" height="24" fill="white"/>
</clipPath>
</defs>
</svg>
