<?xml version="1.0" encoding="UTF-8"?>
<svg width="24px" height="24px" viewBox="0 0 24 24" version="1.1" xmlns="http://www.w3.org/2000/svg" xmlns:xlink="http://www.w3.org/1999/xlink">
    <title>Assets/Crypto/DAI</title>
    <defs>
        <linearGradient x1="22.7538215%" y1="-2.49328613%" x2="50%" y2="69.1999464%" id="linearGradient-1">
            <stop stop-color="#F7BD5F" offset="0%"></stop>
            <stop stop-color="#F5AC37" offset="100%"></stop>
        </linearGradient>
    </defs>
    <g id="Assets/Crypto/DAI" stroke="none" stroke-width="1" fill="none" fill-rule="evenodd">
        <path d="M21.6800305,18.9655351 C22.4060645,18.5550661 23,17.5475512 23,16.7266131 L23,7.27338689 C23,6.45244882 22.4060645,5.44493392 21.6800305,5.03446489 L13.3199695,0.307851775 C12.5939355,-0.102617258 11.4060645,-0.102617258 10.6800305,0.307851775 L2.31996952,5.03446489 C1.59393547,5.44493392 1,6.45244882 1,7.27338689 L1,16.7266131 C1,17.5475512 1.59393547,18.5550661 2.31996952,18.9655351 L10.6800305,23.6921482 C11.4060645,24.1026173 12.5939355,24.1026173 13.3199695,23.6921482 L21.6800305,18.9655351 Z" id="Stroke-3" fill="url(#linearGradient-1)" fill-rule="nonzero"></path>
        <path d="M12.1432958,12.7525766 L15.6308574,12.7525766 C15.7052014,12.7525766 15.7403083,12.7525766 15.7456776,12.6551033 C15.7741762,12.300317 15.7741762,11.9434656 15.7456776,11.5882663 C15.7456776,11.5192916 15.7113967,11.490793 15.6366397,11.490793 L8.6957975,11.490793 C8.60988883,11.490793 8.58675957,11.5192916 8.58675957,11.599831 L8.58675957,12.6208225 C8.58675957,12.7525766 8.58675957,12.7525766 8.72429605,12.7525766 L12.1432958,12.7525766 L12.1432958,12.7525766 Z M15.3561974,10.2975712 C15.36611,10.2715508 15.36611,10.2430522 15.3561974,10.2174448 C15.2979613,10.090647 15.2289865,9.96963138 15.1488602,9.85605021 C15.0282576,9.66192966 14.8861779,9.48309094 14.7242731,9.32242521 C14.6478639,9.22536493 14.5594771,9.1382172 14.4603518,9.06428618 C13.9638988,8.64176422 13.3736897,8.34273597 12.7392872,8.1923958 C12.4191948,8.12052989 12.0920811,8.08624903 11.7641412,8.08914019 L8.68381985,8.08914019 C8.59791118,8.08914019 8.58634655,8.12342105 8.58634655,8.19817811 L8.58634655,10.2343788 C8.58634655,10.3202874 8.58634655,10.3434167 8.69538447,10.3434167 L15.3148952,10.3434167 C15.3148952,10.3434167 15.3723053,10.3318521 15.3838699,10.2975712 L15.3557844,10.2975712 L15.3561974,10.2975712 Z M15.3561974,13.9457985 C15.2587241,13.9350599 15.1604248,13.9350599 15.0629515,13.9457985 L8.70157981,13.9457985 C8.61567114,13.9457985 8.58675957,13.9457985 8.58675957,14.0606187 L8.58675957,16.0513869 C8.58675957,16.1430779 8.58675957,16.1662071 8.70157981,16.1662071 L11.6385824,16.1662071 C11.77901,16.1769457 11.9194377,16.1670332 12.0569742,16.1377086 C12.4832133,16.1071449 12.9024311,16.0146279 13.3022368,15.8622226 C13.4476207,15.8118339 13.5880484,15.7461633 13.7206286,15.667276 L13.7606917,15.667276 C14.4492002,15.3091855 15.0084325,14.746649 15.3611537,14.0560754 C15.3611537,14.0560754 15.4012169,13.9693407 15.3561974,13.9466245 L15.3561974,13.9457985 Z M7.43401393,17.1983502 L7.43401393,17.1640693 L7.43401393,15.8275287 L7.43401393,15.3744431 L7.43401393,14.0263378 C7.43401393,13.9515808 7.43401393,13.9404292 7.34232295,13.9404292 L6.0974733,13.9404292 C6.02849855,13.9404292 6,13.9404292 6,13.8487382 L6,12.7587719 L7.33075832,12.7587719 C7.40510236,12.7587719 7.43401393,12.7587719 7.43401393,12.6612986 L7.43401393,11.582897 C7.43401393,11.5139223 7.43401393,11.4969884 7.34232295,11.4969884 L6.0974733,11.4969884 C6.02849855,11.4969884 6,11.4969884 6,11.4052974 L6,10.3958705 C6,10.3326781 6,10.3157442 6.09169098,10.3157442 L7.324976,10.3157442 C7.41088467,10.3157442 7.43401393,10.3157442 7.43401393,10.2067063 L7.43401393,7.11482024 C7.43401393,7.02312926 7.43401393,7 7.54883417,7 L11.850876,7 C12.1631209,7.01239067 12.4733008,7.04667154 12.7801765,7.10325561 C13.4125138,7.22014096 14.0200698,7.44606424 14.575585,7.76863477 C14.944001,7.98547155 15.2830925,8.24732778 15.5850119,8.54883417 C15.8121742,8.78466998 16.0170334,9.03991785 16.1987632,9.31168662 C16.379254,9.58717259 16.5291812,9.8816576 16.6468926,10.1893593 C16.6613484,10.2694857 16.7381705,10.3235916 16.8182969,10.3099619 L17.8450707,10.3099619 C17.9768249,10.3099619 17.9768249,10.3099619 17.9826072,10.4363467 L17.9826072,11.3772119 C17.9826072,11.4689029 17.9483263,11.4920321 17.8562223,11.4920321 L17.0644583,11.4920321 C16.9843319,11.4920321 16.9612027,11.4920321 16.966985,11.5952877 C16.9983747,11.9447047 16.9983747,12.2953608 16.966985,12.6447778 C16.966985,12.742251 16.966985,12.7538157 17.0764359,12.7538157 L17.9821941,12.7538157 C18.0222573,12.8054435 17.9821941,12.8570713 17.9821941,12.9091121 C17.9879765,12.9756087 17.9879765,13.0429314 17.9821941,13.109428 L17.9821941,13.8037187 C17.9821941,13.901192 17.9536956,13.9301036 17.8673739,13.9301036 L16.78319,13.9301036 C16.7076069,13.9156478 16.6340889,13.9639714 16.6167419,14.0391415 C16.3586029,14.710303 15.9455805,15.3120767 15.4119555,15.7944869 C15.2170089,15.9700215 15.0121497,16.1352304 14.7982041,16.2876357 C14.5685636,16.4198029 14.3451185,16.5573394 14.1096957,16.6663773 C13.6764352,16.8613239 13.2221105,17.0050557 12.7558081,17.0963337 C12.3130481,17.175634 11.8640927,17.2115669 11.4134852,17.2053716 L7.43236184,17.2053716 L7.43236184,17.1995893 L7.43401393,17.1983502 Z" id="Shape" fill="#FEFEFD" fill-rule="nonzero"></path>
    </g>
</svg>