<svg width="48" height="48" viewBox="0 0 48 48" fill="none" xmlns="http://www.w3.org/2000/svg">
<path opacity="0.2" fill-rule="evenodd" clip-rule="evenodd" d="M23.9 40L32.3 29.2L27.5 29.2L27.5 17.4004H20.3L20.3 29.2L15.5 29.2L23.9 40Z" fill="url(#paint0_linear_1880_16724)"/>
<path fill-rule="evenodd" clip-rule="evenodd" d="M27.5 29.2L27.5 17.4004H20.3L20.3 29.2L15.5 29.2L23.9 40L32.3 29.2L27.5 29.2ZM21.5 18.6006L21.5 30.4L17.9536 30.4L23.9 38.0454L29.8464 30.4L26.3 30.4L26.3 18.6006H21.5Z" fill="url(#paint1_linear_1880_16724)"/>
<path d="M17 34.35C17 34.709 16.709 35 16.35 35H7C5.89543 35 5 34.1046 5 33V9C5 7.89543 5.89543 7 7 7H41C42.1046 7 43 7.89543 43 9V33C43 34.1046 42.1046 35 41 35H31.65C31.291 35 31 34.709 31 34.35C31 33.991 31.291 33.7 31.65 33.7H41C41.3866 33.7 41.7 33.3866 41.7 33V9C41.7 8.6134 41.3866 8.3 41 8.3H7C6.6134 8.3 6.3 8.6134 6.3 9V33C6.3 33.3866 6.6134 33.7 7 33.7H16.35C16.709 33.7 17 33.991 17 34.35Z" fill="url(#paint2_linear_1880_16724)"/>
<rect opacity="0.2" width="32" height="5" rx="1" transform="matrix(1 0 0 -1 8 15)" fill="url(#paint3_linear_1880_16724)"/>
<defs>
<linearGradient id="paint0_linear_1880_16724" x1="23.9" y1="40" x2="23.9" y2="17.4004" gradientUnits="userSpaceOnUse">
<stop stop-color="#13E5BF"/>
<stop offset="1" stop-color="#01C38D"/>
</linearGradient>
<linearGradient id="paint1_linear_1880_16724" x1="23.9" y1="40" x2="23.9" y2="17.4004" gradientUnits="userSpaceOnUse">
<stop stop-color="#13E5BF"/>
<stop offset="1" stop-color="#01C38D"/>
</linearGradient>
<linearGradient id="paint2_linear_1880_16724" x1="24" y1="35" x2="24" y2="7" gradientUnits="userSpaceOnUse">
<stop stop-color="#13E5BF"/>
<stop offset="1" stop-color="#01C38D"/>
</linearGradient>
<linearGradient id="paint3_linear_1880_16724" x1="16" y1="3.19691e-07" x2="16" y2="5" gradientUnits="userSpaceOnUse">
<stop stop-color="#13E5BF"/>
<stop offset="1" stop-color="#01C38D"/>
</linearGradient>
</defs>
</svg>
