<svg width="48" height="48" viewBox="0 0 48 48" fill="none" xmlns="http://www.w3.org/2000/svg">
<path fill-rule="evenodd" clip-rule="evenodd" d="M6.30014 8.00005C6.30014 7.61345 6.61354 7.30005 7.00015 7.30005C7.38675 7.30005 7.70015 7.61345 7.70015 8.00005V35.1478C19.8623 32.6693 32.1757 27.038 38.6351 13.7924L34.3985 15.4673C34.039 15.6094 33.6323 15.4332 33.4902 15.0737C33.3481 14.7141 33.5243 14.3075 33.8838 14.1653L39.7426 11.8491C40.1021 11.7069 40.5088 11.8832 40.6509 12.2427L42.9672 18.1014C43.1093 18.461 42.9331 18.8676 42.5735 19.0098C42.214 19.1519 41.8074 18.9757 41.6652 18.6162L39.9526 14.2843C33.1902 28.2771 20.1904 34.0783 7.70015 36.5761V37.5567C7.70015 38.5154 8.4774 39.2927 9.43619 39.2927H41.0568C41.4434 39.2927 41.7568 39.6061 41.7568 39.9927C41.7568 40.3793 41.4434 40.6927 41.0568 40.6927H9.43619C7.7042 40.6927 6.30014 39.2886 6.30014 37.5567V36.021C6.29969 36.0065 6.29969 35.992 6.30014 35.9775V8.00005Z" fill="url(#paint0_linear_2787_31325)"/>
<path opacity="0.2" d="M40 13.5C32.5 27.5 20 34.5 7 36L8 39.5H40V19V13.5Z" fill="url(#paint1_linear_2787_31325)"/>
<defs>
<linearGradient id="paint0_linear_2787_31325" x1="24.6581" y1="7.30005" x2="24.6581" y2="40.6927" gradientUnits="userSpaceOnUse">
<stop stop-color="#13E5BF"/>
<stop offset="1" stop-color="#01C38D"/>
</linearGradient>
<linearGradient id="paint1_linear_2787_31325" x1="23.5" y1="13.5" x2="23.5" y2="39.5" gradientUnits="userSpaceOnUse">
<stop stop-color="#13E5BF"/>
<stop offset="1" stop-color="#01C38D"/>
</linearGradient>
</defs>
</svg>
