<svg width="48" height="49" viewBox="0 0 48 49" fill="none" xmlns="http://www.w3.org/2000/svg">
<path d="M29.1121 3.90934L20.9356 8.63002C19.6115 8.22692 18.2062 8.01011 16.7503 8.01011C8.8248 8.01011 2.3999 14.435 2.3999 22.3605C2.3999 29.9945 8.36086 36.2363 15.8821 36.6851C15.4788 36.2466 15.1427 35.7659 14.8738 35.2568C8.56644 34.3471 3.7199 28.9198 3.7199 22.3605C3.7199 15.164 9.55382 9.33011 16.7503 9.33011C17.6743 9.33011 18.5757 9.42627 19.4453 9.60914C19.4343 9.61944 19.4233 9.62981 19.4124 9.64023C19.9695 9.75623 20.5136 9.90791 21.042 10.0928L21.0845 10.0683C24.0891 11.1277 26.5887 13.2575 28.1255 15.9998C28.1267 16.0286 28.1284 16.0571 28.1305 16.0853C28.3699 16.5187 28.5854 16.9672 28.775 17.429C28.7943 17.4448 28.814 17.4602 28.8341 17.4754C29.0666 18.05 29.2593 18.6449 29.4088 19.2569C29.836 19.1168 30.2672 19.0217 30.6975 18.9687C30.624 18.6654 30.5409 18.3659 30.4485 18.0705C30.6246 18.1011 30.8109 18.1274 31.0077 18.1501C32.0743 18.3346 32.5485 18.5493 32.6855 19.0167C33.2114 19.1069 33.7234 19.2573 34.2117 19.4623C34.2165 19.4013 34.219 19.3396 34.219 19.2772C34.219 17.6992 33.2416 17.1581 31.2869 16.9327C30.4662 16.8267 30.0314 16.6584 29.8125 16.4094C29.7549 16.2834 29.6956 16.1583 29.6346 16.0342C29.6181 15.9492 29.6115 15.858 29.6115 15.7604C29.6115 15.1291 30.0769 14.7235 31.0077 14.7235C31.8454 14.7235 32.3108 14.994 32.5435 15.6703C32.5901 15.8055 32.7297 15.8957 32.8693 15.8957H33.6139C33.8001 15.8957 33.9397 15.7604 33.9397 15.5801V15.535C33.7535 14.5431 32.9158 13.7766 31.8454 13.6865V12.6044C31.8454 12.424 31.7058 12.2888 31.4731 12.2436H30.775C30.5888 12.2436 30.4492 12.3789 30.4026 12.6044V13.6414C29.6857 13.734 29.1038 14.0168 28.7073 14.4226C27.1979 12.1536 25.0599 10.3388 22.542 9.2268L29.7721 5.0525C30.5943 4.57779 31.6073 4.57779 32.4295 5.0525L41.3692 10.2138C42.1915 10.6886 42.698 11.5659 42.698 12.5153V22.838C42.698 23.7874 42.1915 24.6647 41.3692 25.1394L39.137 26.4282C39.5146 26.7126 39.8532 27.0273 40.1529 27.3659L42.0292 26.2826C43.2599 25.5721 44.018 24.259 44.018 22.838V12.5153C44.018 11.0943 43.2599 9.7812 42.0292 9.0707L33.0895 3.90934C31.8589 3.19884 30.3427 3.19884 29.1121 3.90934Z" fill="url(#paint0_linear_7794_21795)"/>
<path d="M31.0918 33.5774C31.0918 31.9994 30.1144 31.4583 28.1597 31.2329C26.7635 31.0525 26.4843 30.6919 26.4843 30.0606C26.4843 29.4293 26.9497 29.0236 27.8805 29.0236C28.7182 29.0236 29.1836 29.2941 29.4163 29.9705C29.4629 30.1057 29.6025 30.1958 29.7421 30.1958H30.4867C30.6729 30.1958 30.8125 30.0606 30.8125 29.8803V29.8352C30.6263 28.8432 29.7886 28.0768 28.7182 27.9867V26.9046C28.7182 26.7242 28.5786 26.5889 28.3459 26.5438H27.6478C27.4616 26.5438 27.322 26.6791 27.2754 26.9046V27.9415C25.8792 28.1219 24.995 29.0236 24.995 30.1508C24.995 31.6387 25.9258 32.2248 27.8805 32.4503C29.1836 32.6757 29.6025 32.9462 29.6025 33.6676C29.6025 34.389 28.9509 34.885 28.0667 34.885C26.8565 34.885 26.4377 34.3889 26.298 33.7126C26.2516 33.5324 26.112 33.4421 25.9723 33.4421H25.1811C24.995 33.4421 24.8554 33.5774 24.8554 33.7578V33.8029C25.0415 34.93 25.7861 35.7415 27.322 35.967V37.0491C27.322 37.2294 27.4616 37.3647 27.6943 37.4098H28.3924C28.5786 37.4098 28.7182 37.2745 28.7648 37.0491V35.967C30.161 35.7415 31.0918 34.7947 31.0918 33.5774Z" fill="url(#paint1_linear_7794_21795)"/>
<path fill-rule="evenodd" clip-rule="evenodd" d="M16.1543 25.2568C15.4528 25.1008 15.1711 24.681 15.0615 24.1501C15.0151 23.9698 14.8754 23.8795 14.7358 23.8795H13.9446C13.7585 23.8795 13.6188 24.0148 13.6188 24.1952V24.2403C13.7609 25.1008 14.2285 25.7773 15.1252 26.1496C11.6426 29.6535 11.9852 35.672 16.1532 38.681C16.5702 44.4791 22.7482 48.0586 27.9735 45.5379C33.1989 48.0586 39.3769 44.4791 39.7939 38.681C44.3352 35.4025 44.3352 28.5511 39.7939 25.2726C39.3769 19.4745 33.1989 15.895 27.9735 18.4157C24.9421 16.9534 21.5902 17.544 19.2284 19.4299C18.849 18.8711 18.2208 18.4863 17.4817 18.4241V17.342C17.4817 17.1616 17.342 17.0264 17.1094 16.9812H16.4113C16.2251 16.9812 16.0855 17.1165 16.0389 17.342V18.379C14.6427 18.5594 13.7585 19.4611 13.7585 20.5883C13.7585 22.0761 14.6892 22.6622 16.6439 22.8877C16.6562 22.8898 16.6685 22.892 16.6806 22.8941C16.3983 23.6274 16.2162 24.4188 16.1543 25.2568ZM18.5977 22.0462C18.3426 22.4298 18.124 22.8424 17.9482 23.2803C17.7064 23.8825 17.5455 24.5326 17.4818 25.2211C17.4773 25.2696 17.4733 25.3184 17.4698 25.3673L17.4256 25.982L16.9258 26.3428C16.6214 26.5626 16.3413 26.8016 16.0855 27.0568C13.1387 29.9962 13.4188 35.0789 16.9258 37.6108L17.4256 37.9716L17.4698 38.5863C17.8201 43.4568 23.0163 46.4637 27.4 44.349L27.9735 44.0723L28.5471 44.349C32.9308 46.4637 38.127 43.4568 38.4773 38.5863L38.5215 37.9716L39.0213 37.6108C42.8328 34.8591 42.8328 29.0945 39.0213 26.3428L38.5215 25.982L38.4773 25.3673C38.127 20.4968 32.9308 17.4899 28.5471 19.6046L27.9735 19.8813L27.4 19.6046C24.1392 18.0316 20.4288 19.2924 18.5977 22.0462ZM17.2493 21.7123C17.1438 21.6972 17.0351 21.6833 16.9232 21.6704C15.527 21.49 15.2477 21.1293 15.2477 20.498C15.2477 19.8667 15.7132 19.4611 16.6439 19.4611C17.4817 19.4611 17.9471 19.7316 18.1798 20.4079C18.1814 20.4125 18.1831 20.4171 18.1849 20.4216C17.8345 20.8176 17.5203 21.2492 17.2493 21.7123Z" fill="url(#paint2_linear_7794_21795)"/>
<path opacity="0.2" d="M31.5811 7.7834C31.284 7.61191 30.9181 7.61191 30.6211 7.7834L25.352 10.8255C24.7478 11.1744 24.7053 12.0336 25.2156 12.5024C22.9288 10.524 19.9471 9.32712 16.6859 9.32712C9.48229 9.32712 3.64258 15.1668 3.64258 22.3705C3.64258 28.9657 8.53744 34.4176 14.8924 35.2915C14.3405 34.261 14.0655 33.1128 14.0675 31.9651C9.8465 30.8158 6.74296 26.9556 6.74296 22.3705C6.74296 16.8791 11.1946 12.4275 16.6859 12.4275C21.0413 12.4275 24.7426 15.2278 26.0876 19.1261C26.5294 19.2382 26.9688 19.3967 27.4003 19.6048L27.9738 19.8815L28.5473 19.6048C28.8154 19.4755 29.0865 19.3653 29.3594 19.2736C28.722 16.6559 27.2947 14.3476 25.3443 12.6152C27.0478 14.1185 28.3541 16.0615 29.0856 18.2666C29.2624 18.7995 29.831 19.1096 30.3845 19.015C33.3544 18.5071 36.3398 20.035 37.7142 22.6623C37.9986 23.206 38.6762 23.474 39.2076 23.1672L39.4291 23.0393C39.7261 22.8678 39.9091 22.5509 39.9091 22.2079V13.1458C39.9091 12.8029 39.7261 12.4859 39.4291 12.3144L31.5811 7.7834Z" fill="url(#paint3_linear_7794_21795)"/>
<defs>
<linearGradient id="paint0_linear_7794_21795" x1="2.3999" y1="3.37646" x2="2.3999" y2="46.3572" gradientUnits="userSpaceOnUse">
<stop stop-color="#13E5BF"/>
<stop offset="1" stop-color="#01C38D"/>
</linearGradient>
<linearGradient id="paint1_linear_7794_21795" x1="2.3999" y1="3.37646" x2="2.3999" y2="46.3572" gradientUnits="userSpaceOnUse">
<stop stop-color="#13E5BF"/>
<stop offset="1" stop-color="#01C38D"/>
</linearGradient>
<linearGradient id="paint2_linear_7794_21795" x1="2.3999" y1="3.37646" x2="2.3999" y2="46.3572" gradientUnits="userSpaceOnUse">
<stop stop-color="#13E5BF"/>
<stop offset="1" stop-color="#01C38D"/>
</linearGradient>
<linearGradient id="paint3_linear_7794_21795" x1="3.64258" y1="7.65479" x2="3.64258" y2="35.2915" gradientUnits="userSpaceOnUse">
<stop stop-color="#13E5BF"/>
<stop offset="1" stop-color="#01C38D"/>
</linearGradient>
</defs>
</svg>
