<svg width="48" height="48" viewBox="0 0 48 48" fill="none" xmlns="http://www.w3.org/2000/svg">
<path opacity="0.2" fill-rule="evenodd" clip-rule="evenodd" d="M24.0476 44.9357C35.6192 44.9357 44.9999 35.555 44.9999 23.9834C44.9999 12.4117 35.6192 3.03101 24.0476 3.03101C12.4759 3.03101 3.09521 12.4117 3.09521 23.9834C3.09521 35.555 12.4759 44.9357 24.0476 44.9357ZM24.0475 41C33.4456 41 41.0642 33.3814 41.0642 23.9833C41.0642 14.5853 33.4456 6.96667 24.0475 6.96667C14.6495 6.96667 7.03088 14.5853 7.03088 23.9833C7.03088 33.3814 14.6495 41 24.0475 41Z" fill="url(#paint0_linear_2630_23446)"/>
<path fill-rule="evenodd" clip-rule="evenodd" d="M3.46348 19.9837C3.35971 19.9598 3.26619 19.9151 3.18635 19.8548C2.89582 19.7361 2.6486 19.5091 2.51152 19.1977L0.328945 14.2399C0.165761 13.8692 0.333969 13.4364 0.704647 13.2733C1.07533 13.1101 1.50811 13.2783 1.67129 13.649L3.35573 17.4752C6.11991 8.67853 14.3378 2.29761 24.0477 2.29761C36.0244 2.29761 45.7334 12.0066 45.7334 23.9833C45.7334 35.96 36.0244 45.669 24.0477 45.669L24.0346 45.6689C23.5624 45.6686 23.0937 45.6532 22.6288 45.6232C22.2247 45.5971 21.9182 45.2482 21.9443 44.8441C21.9704 44.4399 22.3192 44.1334 22.7234 44.1596C23.1611 44.1879 23.6027 44.2022 24.0478 44.2022C24.4928 44.2022 24.9344 44.1879 25.3722 44.1596L25.3825 44.159C35.9269 43.4717 44.2667 34.7015 44.2667 23.9833C44.2667 12.8166 35.2143 3.76427 24.0477 3.76427C14.9985 3.76427 7.33643 9.70962 4.75713 17.9079L8.41748 16.0731C8.77955 15.8916 9.22019 16.038 9.40168 16.4C9.58318 16.7621 9.43679 17.2028 9.07472 17.3842L4.22545 19.815C4.15029 19.8527 4.07324 19.8821 3.99529 19.9036C3.84018 19.9935 3.65196 20.027 3.46348 19.9837ZM3.87141 22.6588C3.89753 22.2547 3.59106 21.9058 3.18689 21.8797C2.78273 21.8536 2.43391 22.1601 2.4078 22.5642C2.37748 23.0334 2.36209 23.5066 2.36209 23.9832C2.36209 24.4598 2.37748 24.933 2.40779 25.4021C2.43391 25.8063 2.78273 26.1128 3.18689 26.0867C3.59106 26.0605 3.89753 25.7117 3.87141 25.3076C3.84312 24.8699 3.82875 24.4283 3.82875 23.9832C3.82875 23.5381 3.84312 23.0965 3.87141 22.6588ZM4.21362 27.93C4.13502 27.5327 3.74922 27.2743 3.35191 27.3529C2.9546 27.4315 2.69624 27.8173 2.77484 28.2146C2.96019 29.1516 3.2059 30.0669 3.50775 30.9563C3.63791 31.3398 4.05433 31.5452 4.43786 31.415C4.82138 31.2848 5.02677 30.8684 4.89661 30.4849C4.61534 29.6561 4.38637 28.8032 4.21362 27.93ZM5.90942 32.9274C5.73002 32.5643 5.29023 32.4153 4.92712 32.5947C4.56402 32.7741 4.4151 33.2139 4.5945 33.577C5.01533 34.4288 5.49039 35.2488 6.01515 36.0326C6.24046 36.3692 6.69594 36.4593 7.03249 36.234C7.36904 36.0087 7.45921 35.5532 7.2339 35.2167C6.74456 34.4858 6.30168 33.7213 5.90942 32.9274ZM8.84585 37.3144C8.57868 37.01 8.11535 36.9798 7.81095 37.247C7.50655 37.5141 7.47637 37.9775 7.74353 38.2819C8.36778 38.9931 9.03783 39.6632 9.74909 40.2875C10.0535 40.5546 10.5168 40.5244 10.784 40.22C11.0511 39.9156 11.021 39.4523 10.7166 39.1851C10.0531 38.6029 9.42812 37.9778 8.84585 37.3144ZM12.8143 40.7971C12.4777 40.5718 12.0223 40.6619 11.7969 40.9985C11.5716 41.335 11.6618 41.7905 11.9984 42.0158C12.7822 42.5406 13.6022 43.0157 14.4539 43.4365C14.817 43.6159 15.2568 43.467 15.4362 43.1039C15.6156 42.7407 15.4667 42.301 15.1036 42.1216C14.3097 41.7293 13.5452 41.2864 12.8143 40.7971ZM17.5461 43.1344C17.1626 43.0042 16.7461 43.2096 16.616 43.5931C16.4858 43.9766 16.6912 44.3931 17.0747 44.5232C17.9641 44.8251 18.8794 45.0708 19.8164 45.2561C20.2137 45.3347 20.5995 45.0764 20.6781 44.6791C20.7567 44.2818 20.4983 43.896 20.101 43.8174C19.2278 43.6446 18.3748 43.4156 17.5461 43.1344ZM27.0989 16.5957C28.0806 17.3027 28.762 18.4018 28.762 19.8332H26.6667C26.6667 19.1425 26.366 18.6499 25.8744 18.2958C25.3519 17.9195 24.5967 17.6976 23.7857 17.6976C22.9747 17.6976 22.2196 17.9195 21.6971 18.2958C21.2056 18.6499 20.9048 19.1425 20.9048 19.8333C20.9049 20.5537 21.2064 21.0266 21.786 21.4513C22.4294 21.9227 23.3272 22.2662 24.4065 22.6595L24.5507 22.712C25.5232 23.0657 26.6478 23.4748 27.5247 24.0815C28.5094 24.7627 29.2858 25.7654 29.2858 27.2611C29.2858 28.89 28.631 30.1874 27.6137 31.0666C26.8895 31.6925 26.0075 32.0857 25.0953 32.2597V33.4118C25.0953 33.9904 24.6263 34.4594 24.0477 34.4594C23.4691 34.4594 23.0001 33.9904 23.0001 33.4118V32.2802C22.0923 32.1242 21.2114 31.7481 20.4855 31.1267C19.4559 30.2451 18.8098 28.9287 18.8098 27.2611H20.905C20.905 28.3476 21.3065 29.0713 21.8482 29.5351C22.4123 30.0181 23.2016 30.2787 24.0351 30.2687C24.8687 30.2586 25.6686 29.9783 26.2437 29.4814C26.7977 29.0026 27.1905 28.2851 27.1905 27.2611C27.1905 26.6346 26.9193 26.2105 26.3326 25.8045C25.6822 25.3545 24.7814 25.0262 23.6912 24.6289L23.6889 24.628C22.6731 24.2578 21.4754 23.8213 20.5476 23.1413C19.5557 22.4145 18.8097 21.364 18.8096 19.8334C18.8095 18.4019 19.4909 17.3028 20.4725 16.5957C21.2087 16.0655 22.0999 15.7608 23.0001 15.6502V14.5547C23.0001 13.9761 23.4691 13.5071 24.0477 13.5071C24.6263 13.5071 25.0953 13.9761 25.0953 14.5547V15.7371C25.8129 15.888 26.5061 16.1687 27.0989 16.5957Z" fill="url(#paint1_linear_2630_23446)"/>
<defs>
<linearGradient id="paint0_linear_2630_23446" x1="24.0476" y1="3.03101" x2="24.0476" y2="44.9357" gradientUnits="userSpaceOnUse">
<stop stop-color="#13E5BF"/>
<stop offset="1" stop-color="#01C38D"/>
</linearGradient>
<linearGradient id="paint1_linear_2630_23446" x1="23" y1="2.29761" x2="23" y2="45.669" gradientUnits="userSpaceOnUse">
<stop stop-color="#13E5BF"/>
<stop offset="1" stop-color="#01C38D"/>
</linearGradient>
</defs>
</svg>
