<svg width="48" height="48" viewBox="0 0 48 48" fill="none" xmlns="http://www.w3.org/2000/svg">
<path opacity="0.2" d="M8.51953 11.9634C8.51953 10.618 9.61019 9.52734 10.9556 9.52734H40.1402C41.4856 9.52734 42.5762 10.618 42.5762 11.9634V19.8476H8.51953V11.9634Z" fill="url(#paint0_linear_2630_23451)"/>
<path fill-rule="evenodd" clip-rule="evenodd" d="M16.7 6.00005C16.7 5.61345 16.3866 5.30005 16 5.30005C15.6134 5.30005 15.3 5.61345 15.3 6.00005V8.82739H10.9556C9.22364 8.82739 7.81958 10.2314 7.81958 11.9634V25.5237C7.81958 25.9103 8.13298 26.2237 8.51958 26.2237C8.90618 26.2237 9.21958 25.9103 9.21958 25.5237V11.9634C9.21958 11.0046 9.99683 10.2274 10.9556 10.2274H15.3V14C15.3 14.3866 15.6134 14.7 16 14.7C16.3866 14.7 16.7 14.3866 16.7 14V10.2274H34.3V14C34.3 14.3866 34.6134 14.7 35 14.7C35.3866 14.7 35.7 14.3866 35.7 14V10.2274H40.1402C41.099 10.2274 41.8763 11.0046 41.8763 11.9634V39.084C41.8763 40.0428 41.099 40.82 40.1402 40.82H10.9556C9.99684 40.82 9.21958 40.0428 9.21958 39.084V33.5219C9.21958 33.1353 8.90618 32.8219 8.51958 32.8219C8.13298 32.8219 7.81958 33.1353 7.81958 33.5219V39.084C7.81958 40.816 9.22364 42.22 10.9556 42.22H40.1402C41.8722 42.22 43.2763 40.816 43.2763 39.084V11.9634C43.2763 10.2314 41.8722 8.82739 40.1402 8.82739H35.7V6.00005C35.7 5.61345 35.3866 5.30005 35 5.30005C34.6134 5.30005 34.3 5.61345 34.3 6.00005V8.82739H16.7V6.00005ZM28.6231 28.6409L24.1683 24.1861C23.8949 23.9127 23.4517 23.9127 23.1783 24.1861C22.905 24.4595 22.905 24.9027 23.1783 25.1761L26.4381 28.4359L5.42363 28.4359C5.03703 28.4359 4.72363 28.7493 4.72363 29.1359C4.72363 29.5225 5.03703 29.8359 5.42363 29.8359L26.4381 29.8358L23.1783 33.0956C22.905 33.369 22.905 33.8122 23.1783 34.0856C23.4517 34.359 23.8949 34.359 24.1683 34.0856L28.6231 29.6308C28.8964 29.3575 28.8964 28.9142 28.6231 28.6409Z" fill="url(#paint1_linear_2630_23451)"/>
<defs>
<linearGradient id="paint0_linear_2630_23451" x1="25.5479" y1="9.52734" x2="25.5479" y2="19.8476" gradientUnits="userSpaceOnUse">
<stop stop-color="#13E5BF"/>
<stop offset="1" stop-color="#01C38D"/>
</linearGradient>
<linearGradient id="paint1_linear_2630_23451" x1="24" y1="5.30005" x2="24" y2="42.22" gradientUnits="userSpaceOnUse">
<stop stop-color="#13E5BF"/>
<stop offset="1" stop-color="#01C38D"/>
</linearGradient>
</defs>
</svg>
