<svg width="48" height="48" viewBox="0 0 48 48" fill="none" xmlns="http://www.w3.org/2000/svg">
<path opacity="0.2" d="M26.286 18.1979L21.5412 20.9093C20.7934 21.3366 20.3319 22.1318 20.3319 22.993V28.8776C18.886 29.5962 17.2561 30.0003 15.5319 30.0003C9.56726 30.0003 4.73193 25.1649 4.73193 19.2003C4.73193 13.2356 9.56726 8.40027 15.5319 8.40027C21.1586 8.40027 25.7804 12.7032 26.286 18.1979Z" fill="url(#paint0_linear_1880_16890)"/>
<path d="M21.6352 3.62418C21.6381 3.40694 21.7582 3.20823 21.9492 3.10468L26.1084 0.849515C26.3997 0.691568 26.7638 0.799671 26.9218 1.09098C27.0798 1.38228 26.9716 1.74647 26.6803 1.90442L24.6231 3.01988C33.2124 3.29887 40.5558 8.76384 43.5203 16.4501L41.8048 15.4949L41.801 15.4903C38.6776 8.94389 32.0739 4.41081 24.4463 4.21528L26.633 5.4771C26.92 5.64272 27.0184 6.00965 26.8528 6.29666C26.6872 6.58367 26.3202 6.68209 26.0332 6.51647L21.9353 4.15182C21.7471 4.04323 21.6324 3.84141 21.6352 3.62418Z" fill="url(#paint1_linear_1880_16890)"/>
<path d="M23.3689 45.0021C14.3341 44.772 6.65325 38.8041 3.95465 30.5317C4.55749 31.1475 5.20905 31.7154 5.90311 32.2291C8.99793 39.0048 15.7924 43.6999 23.6369 43.8071L21.5043 42.4401C21.2253 42.2612 21.1441 41.8901 21.323 41.6111C21.5018 41.3321 21.8729 41.251 22.1519 41.4298L26.135 43.9831C26.3179 44.1003 26.4231 44.3073 26.4101 44.5241C26.3971 44.741 26.2679 44.9339 26.0723 45.0284L21.8124 47.0871C21.5141 47.2313 21.1553 47.1063 21.0111 46.8079C20.8669 46.5096 20.9919 46.1508 21.2903 46.0066L23.3689 45.0021Z" fill="url(#paint2_linear_1880_16890)"/>
<path d="M14.9315 24.853V26.3996H16.1315V24.853C18.0001 24.6219 19.1315 23.3241 19.1315 21.8663C19.1315 19.6805 17.4167 19.1138 15.8611 18.5998C14.57 18.1731 13.3887 17.7828 13.3887 16.533C13.3887 15.6441 14.2458 14.7552 15.5315 14.7552C16.6458 14.7552 17.503 15.6441 17.503 16.8885L18.7459 15.9539C18.4019 14.7342 17.3998 13.7928 16.1315 13.5641V11.9996H14.9315V13.5641C13.183 13.813 12.0173 15.1819 12.0173 16.533C12.0173 18.7188 13.7321 19.2855 15.2877 19.7995C16.5788 20.2262 17.7601 20.6165 17.7601 21.8663C17.7601 22.8441 16.9887 23.6441 15.5315 23.6441C14.0744 23.6441 13.303 22.8441 13.303 21.5108H11.9315C11.9315 23.2885 13.063 24.6219 14.9315 24.853Z" fill="url(#paint3_linear_1880_16890)"/>
<path fill-rule="evenodd" clip-rule="evenodd" d="M29.9315 36.5997V34.7997H28.1315V33.5997H29.9315V24.5996H28.1315V23.3996H29.9315V21.5996H31.1315V23.3996H32.3315V21.5996H33.5315V23.3996H34.1315C35.7884 23.3996 37.1315 24.7428 37.1315 26.3996C37.1315 27.1965 36.8208 27.9209 36.3139 28.4581C37.4995 28.9586 38.3315 30.1319 38.3315 31.4997C38.3315 33.3222 36.8541 34.7997 35.0315 34.7997H33.5315V36.5997H32.3315V34.7997H31.1315V36.5997H29.9315ZM35.0315 33.5997H31.1315V29.3997H35.0315C36.1913 29.3997 37.1315 30.3399 37.1315 31.4997C37.1315 32.6595 36.1913 33.5997 35.0315 33.5997ZM34.1315 28.1996H31.1315V24.5996H34.1315C35.1257 24.5996 35.9315 25.4055 35.9315 26.3996C35.9315 27.3938 35.1257 28.1996 34.1315 28.1996Z" fill="url(#paint4_linear_1880_16890)"/>
<path fill-rule="evenodd" clip-rule="evenodd" d="M20.3315 31.4998C18.8439 32.0808 17.2249 32.3996 15.5315 32.3996C8.24138 32.3996 2.33154 26.4898 2.33154 19.1996C2.33154 11.9095 8.24138 5.99965 15.5315 5.99965C22.0417 5.99965 27.451 10.7124 28.5341 16.9125L31.7408 15.0801C32.4786 14.6584 33.3844 14.6584 34.1223 15.0801L44.3223 20.9086C45.0701 21.3359 45.5315 22.1312 45.5315 22.9924V34.6069C45.5315 35.4681 45.0701 36.2634 44.3223 36.6907L34.1223 42.5192C33.3844 42.9408 32.4786 42.9408 31.7408 42.5192L21.5408 36.6907C20.793 36.2634 20.3315 35.4681 20.3315 34.6069V31.4998ZM20.3315 30.2011C18.8616 30.8434 17.2382 31.1996 15.5315 31.1996C8.90413 31.1996 3.53154 25.8271 3.53154 19.1996C3.53154 12.5722 8.90413 7.19965 15.5315 7.19965C21.5992 7.19965 26.615 11.703 27.419 17.5496L21.5408 20.9086C20.793 21.3359 20.3315 22.1312 20.3315 22.9924V30.2011ZM33.5269 16.122L43.7269 21.9505C44.1008 22.1642 44.3315 22.5618 44.3315 22.9924V34.6069C44.3315 35.0375 44.1008 35.4351 43.7269 35.6488L33.5269 41.4773C33.158 41.6881 32.7051 41.6881 32.3362 41.4773L22.1362 35.6488C21.7623 35.4351 21.5315 35.0375 21.5315 34.6069V22.9924C21.5315 22.5618 21.7623 22.1642 22.1362 21.9505L32.3362 16.122C32.7051 15.9111 33.158 15.9111 33.5269 16.122Z" fill="url(#paint5_linear_1880_16890)"/>
<defs>
<linearGradient id="paint0_linear_1880_16890" x1="15.509" y1="8.40027" x2="15.509" y2="30.0003" gradientUnits="userSpaceOnUse">
<stop stop-color="#13E5BF"/>
<stop offset="1" stop-color="#01C38D"/>
</linearGradient>
<linearGradient id="paint1_linear_1880_16890" x1="23.9315" y1="0.776858" x2="23.9315" y2="47.147" gradientUnits="userSpaceOnUse">
<stop stop-color="#13E5BF"/>
<stop offset="1" stop-color="#01C38D"/>
</linearGradient>
<linearGradient id="paint2_linear_1880_16890" x1="23.9315" y1="0.776858" x2="23.9315" y2="47.147" gradientUnits="userSpaceOnUse">
<stop stop-color="#13E5BF"/>
<stop offset="1" stop-color="#01C38D"/>
</linearGradient>
<linearGradient id="paint3_linear_1880_16890" x1="23.9315" y1="0.776858" x2="23.9315" y2="47.147" gradientUnits="userSpaceOnUse">
<stop stop-color="#13E5BF"/>
<stop offset="1" stop-color="#01C38D"/>
</linearGradient>
<linearGradient id="paint4_linear_1880_16890" x1="23.9315" y1="0.776858" x2="23.9315" y2="47.147" gradientUnits="userSpaceOnUse">
<stop stop-color="#13E5BF"/>
<stop offset="1" stop-color="#01C38D"/>
</linearGradient>
<linearGradient id="paint5_linear_1880_16890" x1="23.9315" y1="0.776858" x2="23.9315" y2="47.147" gradientUnits="userSpaceOnUse">
<stop stop-color="#13E5BF"/>
<stop offset="1" stop-color="#01C38D"/>
</linearGradient>
</defs>
</svg>
