<svg width="48" height="48" viewBox="0 0 48 48" fill="none" xmlns="http://www.w3.org/2000/svg">
<g clip-path="url(#clip0_2062_17024)">
<mask id="mask0_2062_17024" style="mask-type:alpha" maskUnits="userSpaceOnUse" x="12" y="2" width="25" height="18">
<path d="M32.1249 14.3552H32.1289V19.9352H36.256V14.3552C36.2197 7.74631 30.8509 2.40002 24.2334 2.40002C17.616 2.40002 12.2473 7.74631 12.2109 14.3552V19.9352H16.3381V14.3552H16.3414C16.3653 10.017 19.8894 6.50765 24.2331 6.50765C28.5769 6.50765 32.101 10.017 32.1249 14.3552Z" fill="#8F96A1"/>
</mask>
<g mask="url(#mask0_2062_17024)">
<path d="M32.1249 14.3552H32.1289V19.9352H36.256V14.3552C36.2197 7.74631 30.8509 2.40002 24.2334 2.40002C17.616 2.40002 12.2473 7.74631 12.2109 14.3552V19.9352H16.3381V14.3552H16.3414C16.3653 10.017 19.8894 6.50765 24.2331 6.50765C28.5769 6.50765 32.101 10.017 32.1249 14.3552Z" fill="#8F96A1"/>
<g filter="url(#filter0_f_2062_17024)">
<path d="M16.3381 18.5214H14.6749V14.0851C14.7038 8.83074 18.9721 4.58021 24.2333 4.58021C29.4944 4.58021 33.7628 8.83074 33.7917 14.0851V18.5214H32.1289V19.9352H36.256V14.3552C36.2197 7.74631 30.8509 2.40002 24.2334 2.40002C17.616 2.40002 12.2473 7.74631 12.2109 14.3552V19.9352H16.3381V18.5214Z" fill="white"/>
</g>
</g>
<g filter="url(#filter1_di_2062_17024)">
<path d="M9.5752 43.6816C9.5752 43.5115 9.71307 43.3737 9.88314 43.3737H38.5837C38.7538 43.3737 38.8917 43.5115 38.8917 43.6816V45.2921C38.8917 45.4622 38.7538 45.6 38.5837 45.6H9.88314C9.71307 45.6 9.5752 45.4622 9.5752 45.2921V43.6816Z" fill="#676B73"/>
</g>
<g filter="url(#filter2_dii_2062_17024)">
<rect x="5.29834" y="15.9744" width="37.4034" height="28.0202" rx="2.22639" fill="white"/>
<rect x="5.29834" y="15.9744" width="37.4034" height="28.0202" rx="2.22639" fill="url(#paint0_linear_2062_17024)"/>
</g>
<g filter="url(#filter3_i_2062_17024)">
<path fill-rule="evenodd" clip-rule="evenodd" d="M23.9999 37.0384C27.8955 37.0384 31.0536 33.8804 31.0536 29.9848C31.0536 26.0892 27.8955 22.9312 23.9999 22.9312C20.1043 22.9312 16.9463 26.0892 16.9463 29.9848C16.9463 33.8804 20.1043 37.0384 23.9999 37.0384ZM27.8616 27.729C28.0913 27.4403 28.0434 27.0201 27.7547 26.7905C27.466 26.5608 27.0458 26.6087 26.8162 26.8974L22.9891 31.7086L21.0848 30.1376C20.8003 29.9028 20.3793 29.9432 20.1445 30.2277C19.9098 30.5123 19.9502 30.9332 20.2347 31.168L22.6635 33.1717C22.8017 33.2858 22.98 33.3395 23.1582 33.3208C23.3365 33.3021 23.4997 33.2126 23.6113 33.0723L27.8616 27.729Z" fill="#8F96A1"/>
</g>
<g filter="url(#filter4_d_2062_17024)">
<path d="M23.9999 17.6509H22.3301V17.6443H7.52486C7.21746 17.6443 6.96826 17.8935 6.96826 18.2009V41.7683C6.96826 42.0757 7.21746 42.3249 7.52486 42.3249H22.3301V42.3085H23.9999V38.6992C19.1872 38.6991 15.2857 34.7975 15.2857 29.9847C15.2857 25.1718 19.1872 21.2702 23.9999 21.2701V17.6509Z" fill="url(#paint1_linear_2062_17024)" fill-opacity="0.7"/>
</g>
</g>
<defs>
<filter id="filter0_f_2062_17024" x="9.98455" y="0.173633" width="28.4977" height="21.9879" filterUnits="userSpaceOnUse" color-interpolation-filters="sRGB">
<feFlood flood-opacity="0" result="BackgroundImageFix"/>
<feBlend mode="normal" in="SourceGraphic" in2="BackgroundImageFix" result="shape"/>
<feGaussianBlur stdDeviation="1.1132" result="effect1_foregroundBlur_2062_17024"/>
</filter>
<filter id="filter1_di_2062_17024" x="8.9593" y="42.7578" width="31.1641" height="3.45823" filterUnits="userSpaceOnUse" color-interpolation-filters="sRGB">
<feFlood flood-opacity="0" result="BackgroundImageFix"/>
<feColorMatrix in="SourceAlpha" type="matrix" values="0 0 0 0 0 0 0 0 0 0 0 0 0 0 0 0 0 0 127 0" result="hardAlpha"/>
<feOffset dx="0.615895"/>
<feGaussianBlur stdDeviation="0.307947"/>
<feColorMatrix type="matrix" values="0 0 0 0 0 0 0 0 0 0 0 0 0 0 0 0 0 0 0.05 0"/>
<feBlend mode="normal" in2="BackgroundImageFix" result="effect1_dropShadow_2062_17024"/>
<feBlend mode="normal" in="SourceGraphic" in2="effect1_dropShadow_2062_17024" result="shape"/>
<feColorMatrix in="SourceAlpha" type="matrix" values="0 0 0 0 0 0 0 0 0 0 0 0 0 0 0 0 0 0 127 0" result="hardAlpha"/>
<feOffset dx="-0.615895"/>
<feGaussianBlur stdDeviation="0.615895"/>
<feComposite in2="hardAlpha" operator="arithmetic" k2="-1" k3="1"/>
<feColorMatrix type="matrix" values="0 0 0 0 0.991667 0 0 0 0 0.991667 0 0 0 0 0.991667 0 0 0 0.3 0"/>
<feBlend mode="screen" in2="shape" result="effect2_innerShadow_2062_17024"/>
</filter>
<filter id="filter2_dii_2062_17024" x="3.8022" y="15.2263" width="39.0865" height="29.5163" filterUnits="userSpaceOnUse" color-interpolation-filters="sRGB">
<feFlood flood-opacity="0" result="BackgroundImageFix"/>
<feColorMatrix in="SourceAlpha" type="matrix" values="0 0 0 0 0 0 0 0 0 0 0 0 0 0 0 0 0 0 127 0" result="hardAlpha"/>
<feOffset dx="-0.748067"/>
<feGaussianBlur stdDeviation="0.374034"/>
<feColorMatrix type="matrix" values="0 0 0 0 0 0 0 0 0 0 0 0 0 0 0 0 0 0 0.15 0"/>
<feBlend mode="normal" in2="BackgroundImageFix" result="effect1_dropShadow_2062_17024"/>
<feBlend mode="normal" in="SourceGraphic" in2="effect1_dropShadow_2062_17024" result="shape"/>
<feColorMatrix in="SourceAlpha" type="matrix" values="0 0 0 0 0 0 0 0 0 0 0 0 0 0 0 0 0 0 127 0" result="hardAlpha"/>
<feOffset dx="-0.374034"/>
<feGaussianBlur stdDeviation="0.140263"/>
<feComposite in2="hardAlpha" operator="arithmetic" k2="-1" k3="1"/>
<feColorMatrix type="matrix" values="0 0 0 0 1 0 0 0 0 1 0 0 0 0 1 0 0 0 0.6 0"/>
<feBlend mode="normal" in2="shape" result="effect2_innerShadow_2062_17024"/>
<feColorMatrix in="SourceAlpha" type="matrix" values="0 0 0 0 0 0 0 0 0 0 0 0 0 0 0 0 0 0 127 0" result="hardAlpha"/>
<feOffset dx="0.374034"/>
<feGaussianBlur stdDeviation="0.0935084"/>
<feComposite in2="hardAlpha" operator="arithmetic" k2="-1" k3="1"/>
<feColorMatrix type="matrix" values="0 0 0 0 0 0 0 0 0 0 0 0 0 0 0 0 0 0 0.2 0"/>
<feBlend mode="normal" in2="effect2_innerShadow_2062_17024" result="effect3_innerShadow_2062_17024"/>
</filter>
<filter id="filter3_i_2062_17024" x="16.3897" y="22.9312" width="14.664" height="14.1073" filterUnits="userSpaceOnUse" color-interpolation-filters="sRGB">
<feFlood flood-opacity="0" result="BackgroundImageFix"/>
<feBlend mode="normal" in="SourceGraphic" in2="BackgroundImageFix" result="shape"/>
<feColorMatrix in="SourceAlpha" type="matrix" values="0 0 0 0 0 0 0 0 0 0 0 0 0 0 0 0 0 0 127 0" result="hardAlpha"/>
<feOffset dx="-0.556598"/>
<feGaussianBlur stdDeviation="0.278299"/>
<feComposite in2="hardAlpha" operator="arithmetic" k2="-1" k3="1"/>
<feColorMatrix type="matrix" values="0 0 0 0 0 0 0 0 0 0 0 0 0 0 0 0 0 0 0.2 0"/>
<feBlend mode="normal" in2="shape" result="effect1_innerShadow_2062_17024"/>
</filter>
<filter id="filter4_d_2062_17024" x="-1.9373" y="10.9651" width="34.8429" height="42.4918" filterUnits="userSpaceOnUse" color-interpolation-filters="sRGB">
<feFlood flood-opacity="0" result="BackgroundImageFix"/>
<feColorMatrix in="SourceAlpha" type="matrix" values="0 0 0 0 0 0 0 0 0 0 0 0 0 0 0 0 0 0 127 0" result="hardAlpha"/>
<feOffset dy="2.22639"/>
<feGaussianBlur stdDeviation="4.45278"/>
<feColorMatrix type="matrix" values="0 0 0 0 0 0 0 0 0 0 0 0 0 0 0 0 0 0 0.16 0"/>
<feBlend mode="normal" in2="BackgroundImageFix" result="effect1_dropShadow_2062_17024"/>
<feBlend mode="normal" in="SourceGraphic" in2="effect1_dropShadow_2062_17024" result="shape"/>
</filter>
<linearGradient id="paint0_linear_2062_17024" x1="5.29834" y1="47.0542" x2="22.631" y2="3.09417" gradientUnits="userSpaceOnUse">
<stop stop-color="#9AA1AA"/>
<stop offset="1" stop-color="#9AA1AA" stop-opacity="0"/>
</linearGradient>
<linearGradient id="paint1_linear_2062_17024" x1="23.9999" y1="17.6443" x2="5.66549" y2="43.7741" gradientUnits="userSpaceOnUse">
<stop stop-color="white" stop-opacity="0.83"/>
<stop offset="1" stop-color="white" stop-opacity="0.17"/>
</linearGradient>
<clipPath id="clip0_2062_17024">
<rect width="48" height="48" fill="white"/>
</clipPath>
</defs>
</svg>
