<svg width="48" height="48" viewBox="0 0 48 48" fill="none" xmlns="http://www.w3.org/2000/svg">
<path opacity="0.2" fill-rule="evenodd" clip-rule="evenodd" d="M11.5957 9.37734L6.63486 12.1678C5.50131 12.8054 4.7998 14.0049 4.7998 15.3055V30.5791L17.1657 37.7185L17.1743 41.7607L22.2349 44.6073C23.3308 45.2237 24.6689 45.2237 25.7647 44.6073L39.6775 36.7813V22.7085L43.1998 20.665V15.3055C43.1998 14.0049 42.4983 12.8054 41.3647 12.1678L27.8815 4.5835L15.186 11.4967L11.5957 9.37734ZM33.7592 22.9608C34.5592 23.4227 34.5592 24.5774 33.7592 25.0393L19.2552 33.4131C18.4552 33.875 17.4552 33.2976 17.4552 32.3739L17.4552 15.6262C17.4552 14.7024 18.4552 14.1251 19.2552 14.587L33.7592 22.9608Z" fill="url(#paint0_linear_3630_33494)"/>
<g opacity="0.2">
<path d="M13.529 14.5466L4.7998 19.7178V15.3054C4.7998 14.8483 4.88644 14.4038 5.04801 13.9917L11.0826 10.4168C11.4801 10.1814 11.8946 9.98725 12.3203 9.83447L27.4477 18.5683L27.1236 19.1297L19.2552 14.5869C18.5192 14.1619 17.6139 14.6166 17.4738 15.4115L15.9523 14.533C15.2014 14.0995 14.275 14.1047 13.529 14.5466Z" fill="#01C38D"/>
<path d="M40.8003 11.8501L40.7719 14.3795C40.7625 15.2177 40.3165 15.9902 39.5953 16.4175L31.1211 21.4375L33.7593 22.9606C34.5593 23.4225 34.5593 24.5772 33.7593 25.0391L28.9557 27.8125L29.3031 28.0131C29.6083 27.8855 29.9067 27.7359 30.1961 27.5645L42.0417 20.5472C42.4598 20.2996 42.847 20.0133 43.1999 19.6943V15.3053C43.1999 14.0047 42.4984 12.8053 41.3648 12.1677L40.8003 11.8501Z" fill="#01C38D"/>
<path d="M26.2524 44.333L22.3141 42.0592C21.5632 41.6257 21.1045 40.8208 21.1142 39.9538L21.2001 32.2902L19.2555 33.413C18.6173 33.7814 17.8518 33.4885 17.5683 32.886L16.3699 34.9618L16.3145 39.9C16.309 40.3922 16.3538 40.8778 16.4453 41.3503L22.2351 44.6071C23.331 45.2235 24.6691 45.2235 25.765 44.6071L26.2524 44.333Z" fill="#01C38D"/>
</g>
<path fill-rule="evenodd" clip-rule="evenodd" d="M43.1998 15.3054V17.8289L43.2275 17.8449L43.2261 18.1445C43.2253 18.3054 43.2164 18.4651 43.1998 18.6232V32.6945C43.1998 33.9951 42.4983 35.1946 41.3647 35.8322L25.7647 44.6072C24.6689 45.2236 23.3308 45.2236 22.2349 44.6072L6.63487 35.8322C5.50131 35.1946 4.7998 33.9951 4.7998 32.6945V15.3054C4.7998 14.0048 5.50131 12.8054 6.63486 12.1677L9.39296 10.6163L9.39297 10.6143L9.5932 10.5037L22.2349 3.39275C23.3308 2.77631 24.6689 2.77631 25.7647 3.39275L41.3647 12.1677C42.4983 12.8054 43.1998 14.0048 43.1998 15.3054ZM22.8232 4.43864C23.5538 4.02768 24.4458 4.02768 25.1764 4.43864L40.7764 13.2136C41.5321 13.6387 41.9998 14.4384 41.9998 15.3054V18.5556C41.865 19.6647 41.2199 20.6581 40.2415 21.2295L35.5589 23.9639C35.5472 23.1677 35.1473 22.3765 34.3592 21.9215L19.8552 13.5477C19.6896 13.452 19.5198 13.3787 19.3483 13.3261L14.3911 10.4885C13.9539 10.2382 13.4869 10.0619 13.0078 9.95977L22.8232 4.43864ZM40.8466 22.2658C41.2839 22.0104 41.6713 21.6918 41.9998 21.3254V32.6945C41.9998 33.5616 41.5321 34.3612 40.7764 34.7863L25.1764 43.5613C24.4458 43.9723 23.5538 43.9723 22.8232 43.5613L19.4806 41.6811L19.0061 41.3855C17.9389 40.7206 17.2959 39.5471 17.3099 38.2898L17.3535 34.3902C18.0665 34.8495 19.0159 34.9369 19.8552 34.4523L26.9443 30.3594L26.9656 30.3717L30.683 28.2009L34.3592 26.0784C34.4587 26.021 34.552 25.9582 34.6391 25.8907L40.8466 22.2658ZM17.4552 25.2662L17.4943 21.769C17.4951 21.6908 17.4985 21.613 17.5044 21.5357L17.4552 21.5627V15.6261C17.4552 14.8381 18.1829 14.3022 18.8933 14.4484L28.1337 19.7378C28.2015 19.7766 28.2678 19.8175 28.3325 19.8603L28.3327 19.8278L33.7592 22.9607C34.4892 23.3822 34.5531 24.3807 33.9507 24.9031L30.0807 27.1629L19.2552 33.413C18.4552 33.8749 17.4552 33.2976 17.4552 32.3738V25.2662ZM16.2552 25.2594L16.11 38.2764C16.1036 38.8523 16.2006 39.4151 16.3884 39.9417L7.22318 34.7863C6.46747 34.3612 5.9998 33.5616 5.9998 32.6945V15.3054C5.9998 14.4384 6.46747 13.6387 7.22318 13.2136L10.1776 11.5518L10.2651 11.5034C11.3656 10.8952 12.7037 10.9053 13.7949 11.5299L17.389 13.5873C16.7239 13.9997 16.2552 14.7317 16.2552 15.6261L16.2552 25.2594Z" fill="url(#paint1_linear_3630_33494)"/>
<defs>
<linearGradient id="paint0_linear_3630_33494" x1="4.7998" y1="4.5835" x2="4.7998" y2="45.0696" gradientUnits="userSpaceOnUse">
<stop stop-color="#13E5BF"/>
<stop offset="1" stop-color="#01C38D"/>
</linearGradient>
<linearGradient id="paint1_linear_3630_33494" x1="4.7998" y1="2.93042" x2="4.7998" y2="45.0695" gradientUnits="userSpaceOnUse">
<stop stop-color="#13E5BF"/>
<stop offset="1" stop-color="#01C38D"/>
</linearGradient>
</defs>
</svg>
