<svg width="48" height="48" viewBox="0 0 48 48" fill="none" xmlns="http://www.w3.org/2000/svg">
<path d="M45.1713 27.2895V22.4452C45.1713 20.7174 44.2509 19.1189 42.7493 18.2469L39.1968 16.1961V12.0946C39.1968 10.3668 38.2763 8.76816 36.7746 7.89619L32.5763 5.47405C31.0745 4.60207 29.2337 4.60207 27.7319 5.47405L24.1794 7.52479L20.627 5.47405C19.1252 4.60207 17.2844 4.60207 15.7827 5.47405L11.5843 7.89619C10.0825 8.76816 9.16212 10.3668 9.16212 12.0946V16.1961L5.60964 18.2469C4.10791 19.1189 3.1875 20.7174 3.1875 22.4452V27.2895C3.1875 29.0174 4.10791 30.6159 5.60964 31.4878L9.16212 33.5387V37.6401C9.16212 39.368 10.0825 40.9665 11.5843 41.8385L15.7827 44.2607C17.2844 45.1326 19.1252 45.1326 20.627 44.2607L24.1794 42.2099L27.7319 44.2607C29.2337 45.1326 31.0745 45.1326 32.5763 44.2607L36.7746 41.8385C38.2763 40.9665 39.1968 39.368 39.1968 37.6401V33.5387L42.7493 31.4878C44.2509 30.6159 45.1713 29.0174 45.1713 27.2895Z" fill="black" fill-opacity="0.1"/>
<path d="M42.9375 16.3077L42.9368 16.3073L39.5718 14.3648V10.4798C39.5718 8.61795 38.5799 6.89598 36.9629 5.95709L36.962 5.95656L32.7645 3.53495C32.7644 3.53483 32.7641 3.53471 32.7639 3.5346C31.1459 2.59541 29.1617 2.59548 27.5438 3.53484C27.5438 3.53487 27.5436 3.53492 27.5436 3.53495L24.1794 5.477L20.8152 3.53495C20.8151 3.53486 20.8149 3.53478 20.8148 3.53469C19.1969 2.59544 17.2127 2.59545 15.5948 3.53474C15.5946 3.53481 15.5945 3.53487 15.5943 3.53495L11.3969 5.95656L11.396 5.95709C9.779 6.89598 8.78712 8.61795 8.78712 10.4798V14.3648L5.42217 16.3073L5.42135 16.3077C3.80437 17.2466 2.8125 18.9686 2.8125 20.8304V25.6748C2.8125 27.5366 3.80437 29.2585 5.42135 30.1974L5.42217 30.1979L8.78712 32.1404V36.0253C8.78712 37.8871 9.779 39.6091 11.396 40.548L11.3969 40.5486L15.5943 42.9702C15.5945 42.9702 15.5946 42.9704 15.5946 42.9704C17.2127 43.9097 19.197 43.9097 20.8149 42.9704C20.8151 42.9702 20.8152 42.9702 20.8152 42.9702L24.1794 41.0282L27.5436 42.9702C27.5438 42.9702 27.5438 42.9702 27.5439 42.9704C29.1618 43.9097 31.146 43.9096 32.7639 42.9705C32.7642 42.9703 32.7644 42.9702 32.7645 42.9702L36.962 40.5486L36.9629 40.548C38.5799 39.6091 39.5718 37.8871 39.5718 36.0253V32.1404L42.9368 30.1979L42.9375 30.1974C44.5545 29.2585 45.5463 27.5366 45.5463 25.6748V20.8304C45.5463 18.9686 44.5545 17.2466 42.9375 16.3077Z" stroke="url(#paint0_linear_8528_373822)" stroke-width="0.5"/>
<path d="M11.5842 6.28182C10.0825 7.15379 9.16211 8.7524 9.16211 10.4802V14.5817L24.1793 23.253L13.6835 5.07074L11.5842 6.28182Z" fill="#01C38D"/>
<path d="M24.1797 23.2527V40.5952L27.7321 42.646C29.2339 43.518 31.0747 43.518 32.5765 42.646L34.6756 41.4349L24.1797 23.2527Z" fill="#67DBBB"/>
<path d="M20.6437 3.85976C19.1419 3.00394 17.285 3.00394 15.7994 3.85976L13.7002 5.07083L24.1961 23.2531V5.9105L20.6437 3.85976Z" fill="#34CFA4"/>
<path d="M39.2126 36.0255V31.924L24.1953 23.2527L34.6913 41.4349L36.7904 40.2238C38.2922 39.3519 39.2126 37.7533 39.2126 36.0255Z" fill="#99E7D1"/>
<path d="M5.60964 29.8732L9.16212 31.924L24.1794 23.2527H3.1875V25.6749C3.1875 27.4027 4.10791 29.0013 5.60964 29.8732Z" fill="url(#paint1_linear_8528_373822)"/>
<path d="M39.2131 31.924L42.7656 29.8732C44.2674 29.0013 45.1878 27.4027 45.1878 25.6749V23.2527H24.1797L39.1971 31.924H39.2131Z" fill="#CCF3E8"/>
<path d="M9.16212 14.5812L5.60964 16.632C4.10791 17.5039 3.1875 19.1026 3.1875 20.8303V23.2525H24.1794L9.16212 14.5812Z" fill="url(#paint2_linear_8528_373822)"/>
<path d="M42.7495 16.632L39.1971 14.5812L24.1797 23.2525H45.1716V20.8303C45.1716 19.1026 44.2512 17.5039 42.7495 16.632Z" fill="url(#paint3_linear_8528_373822)"/>
<path d="M20.6437 42.6298L24.1961 40.5792V23.2527L13.7002 41.4349L15.7994 42.646C17.3011 43.518 19.1419 43.518 20.6437 42.646V42.6298Z" fill="#01C38D"/>
<path d="M36.7904 6.28182L34.6913 5.07074L24.1953 23.253L39.2126 14.5817V10.4802C39.2126 8.7524 38.2922 7.15379 36.7904 6.28182Z" fill="#99E7D1"/>
<path d="M24.1793 23.2527L9.16211 31.924V36.0255C9.16211 37.7533 10.0825 39.3519 11.5842 40.2238L13.6835 41.4349L24.1793 23.2527Z" fill="#34CFA4"/>
<path d="M32.5765 3.85976C31.0909 3.00394 29.2339 3.00394 27.7321 3.85976L24.1797 5.9105V23.2531L34.6756 5.07083L32.5765 3.85976Z" fill="#67DBBB"/>
<path d="M13.6836 5.07074L18.9962 14.2587L13.6836 5.07074Z" fill="#34CFA4"/>
<path opacity="0.4" d="M13.6836 5.07074L20.0297 13.6613C20.4333 14.2103 20.3202 14.9692 19.7712 15.3729C19.1576 15.8412 18.2211 15.5829 17.9304 14.8724L13.6836 5.07074Z" fill="white"/>
<path d="M29.3789 32.23L34.6916 41.418L29.3789 32.23Z" fill="#99E7D1"/>
<path opacity="0.4" d="M30.4287 31.6335L34.6917 41.4351L28.3457 32.8444C27.3284 31.375 29.6699 30.0187 30.4449 31.6335H30.4287Z" fill="white"/>
<path d="M33.1738 28.4361L39.1969 31.9078L33.1738 28.4361Z" fill="url(#paint4_linear_8528_373822)"/>
<path opacity="0.4" d="M33.7876 27.387L39.2131 31.9083L32.5765 29.4701C30.8164 28.7435 32.2696 26.2082 33.7876 27.3708V27.387Z" fill="white"/>
<path opacity="0.4" d="M3.1875 23.2521L13.7965 22.041C14.4585 21.9601 15.0722 22.4446 15.1529 23.1067C15.2498 23.8818 14.5716 24.5439 13.7965 24.463L3.1875 23.2521Z" fill="white"/>
<path d="M15.2008 18.0529L9.17773 14.5812L15.2008 18.0529Z" fill="url(#paint5_linear_8528_373822)"/>
<path opacity="0.4" d="M14.5877 19.1026L9.16211 14.5812L15.7988 17.0196C17.5589 17.7462 16.1056 20.2813 14.5877 19.1187V19.1026Z" fill="white"/>
<path opacity="0.4" d="M34.5626 22.0408L45.1716 23.2519L34.5626 24.463C32.7864 24.6084 32.7864 21.8956 34.5626 22.0408Z" fill="white"/>
<path opacity="0.4" d="M24.1796 40.5789L22.9685 33.6192C22.8555 32.9572 23.3076 32.3113 23.9697 32.1982C24.7932 32.0368 25.5521 32.7957 25.3907 33.6192L24.1796 40.5789Z" fill="white"/>
<path d="M33.1738 18.0529L39.1969 14.5812L33.1738 18.0529Z" fill="#99E7D1"/>
<path opacity="0.4" d="M32.5765 17.0038L39.2131 14.5655L33.7876 19.0869C32.2696 20.2494 30.8164 17.7142 32.5765 16.9876V17.0038Z" fill="white"/>
<path d="M13.6836 41.418L18.9962 32.23L13.6836 41.418Z" fill="#01C38D"/>
<path opacity="0.4" d="M13.6836 41.4184L17.9466 31.6168C18.2211 31.0032 18.9315 30.7125 19.5452 30.987C20.2557 31.2939 20.4978 32.2143 20.0457 32.8279L13.6997 41.4184H13.6836Z" fill="white"/>
<path d="M15.2008 28.4361L9.17773 31.9078L15.2008 28.4361Z" fill="#01C38D"/>
<path opacity="0.4" d="M15.7988 29.4855L9.16211 31.9239L14.5877 27.4024C16.1056 26.2399 17.5589 28.7751 15.7988 29.5017V29.4855Z" fill="white"/>
<path opacity="0.4" d="M24.1792 5.90973L25.3903 12.8694C25.5033 13.5314 25.0512 14.1773 24.3892 14.2903C23.5656 14.4518 22.8067 13.6929 22.9681 12.8694L24.1792 5.90973Z" fill="white"/>
<path d="M29.3789 14.2587L34.6916 5.07074L29.3789 14.2587Z" fill="#67DBBB"/>
<path opacity="0.4" d="M28.3294 13.6441L34.6755 5.05353L30.4125 14.8551C29.6535 16.4698 27.2959 15.1135 28.3132 13.6441H28.3294Z" fill="white"/>
<path d="M19.883 14.2819L19.8837 14.2817L23.4516 13.3292C23.4518 13.3291 23.4519 13.3291 23.4521 13.3291C23.9379 13.2005 24.4527 13.2005 24.9386 13.3291C24.9387 13.3291 24.9389 13.3291 24.939 13.3292L28.5069 14.2817L28.5077 14.2819C28.9914 14.41 29.4341 14.6665 29.7918 15.0242L32.4077 17.6402C32.7654 17.9979 33.0219 18.4404 33.15 18.9242L33.1502 18.9251L34.1027 22.4928C34.1028 22.4931 34.1028 22.4933 34.1028 22.4934C34.2314 22.9793 34.2314 23.4939 34.1028 23.9798C34.1028 23.9799 34.1028 23.9801 34.1027 23.9804L33.1502 27.5481L33.15 27.5489C33.0219 28.0328 32.7654 28.4753 32.4077 28.833L29.7918 31.4489C29.4341 31.8066 28.9914 32.0631 28.5077 32.1912L28.5069 32.1915L24.939 33.144C24.9389 33.144 24.9387 33.144 24.9384 33.1442C24.4527 33.2726 23.9379 33.2726 23.4522 33.1442C23.4519 33.144 23.4518 33.144 23.4516 33.144L19.8837 32.1915L19.883 32.1912C19.3992 32.0631 18.9566 31.8066 18.5988 31.4489L15.983 28.833C15.6252 28.4753 15.3687 28.0328 15.2406 27.5489L15.2405 27.5481L14.2879 23.9804C14.2879 23.9802 14.2878 23.9801 14.2878 23.9799C14.1593 23.4941 14.1593 22.9791 14.2878 22.4933C14.2878 22.4931 14.2879 22.493 14.2879 22.4928L15.2405 18.9251L15.2406 18.9242C15.3687 18.4404 15.6252 17.9979 15.983 17.6402L18.5988 15.0242C18.9566 14.6665 19.3992 14.41 19.883 14.2819Z" fill="#CCF3E8" stroke="white" stroke-width="0.5"/>
<defs>
<linearGradient id="paint0_linear_8528_373822" x1="9.86675" y1="3.20526" x2="47.316" y2="15.0257" gradientUnits="userSpaceOnUse">
<stop stop-color="white"/>
<stop offset="1" stop-color="white" stop-opacity="0.4"/>
</linearGradient>
<linearGradient id="paint1_linear_8528_373822" x1="3.1875" y1="27.5803" x2="24.1794" y2="27.5803" gradientUnits="userSpaceOnUse">
<stop stop-color="#01C38D"/>
<stop offset="1" stop-color="#13E5BF"/>
</linearGradient>
<linearGradient id="paint2_linear_8528_373822" x1="3.1875" y1="18.9088" x2="24.1794" y2="18.9088" gradientUnits="userSpaceOnUse">
<stop stop-color="#13E5BF"/>
<stop offset="1" stop-color="#01C38D"/>
</linearGradient>
<linearGradient id="paint3_linear_8528_373822" x1="24.1797" y1="18.9088" x2="45.1555" y2="18.9088" gradientUnits="userSpaceOnUse">
<stop stop-color="#CCF3E8"/>
<stop offset="1" stop-color="white"/>
</linearGradient>
<linearGradient id="paint4_linear_8528_373822" x1="28.6687" y1="30.18" x2="39.2131" y2="30.18" gradientUnits="userSpaceOnUse">
<stop stop-color="#CCF3E8"/>
<stop offset="1" stop-color="white"/>
</linearGradient>
<linearGradient id="paint5_linear_8528_373822" x1="9.16159" y1="16.309" x2="19.706" y2="16.309" gradientUnits="userSpaceOnUse">
<stop stop-color="#13E5BF"/>
<stop offset="1" stop-color="#01C38D"/>
</linearGradient>
</defs>
</svg>
