<svg width="48" height="48" viewBox="0 0 48 48" fill="none" xmlns="http://www.w3.org/2000/svg">
<path d="M4.68066 19.1094V32.9694C4.68066 35.6544 6.10566 38.1294 8.43066 39.4644L20.4306 46.3944C22.7556 47.7294 25.6056 47.7294 27.9306 46.3944L39.9306 39.4644C42.2556 38.1294 43.6806 35.6544 43.6806 32.9694V19.1094C43.6806 16.4244 42.2556 13.9494 39.9306 12.6144L27.9456 5.68436C25.6206 4.34936 22.7556 4.34936 20.4306 5.68436L8.43066 12.6144C6.12066 13.9644 4.68066 16.4394 4.68066 19.1094Z" fill="black" fill-opacity="0.1"/>
<path d="M20.2431 45.2199L20.2439 45.2204C22.6845 46.6217 25.6767 46.6217 28.1174 45.2204L28.1181 45.2199L40.1174 38.2904C42.5595 36.888 44.0556 34.2885 44.0556 31.4702V17.6102C44.0556 14.7918 42.5597 12.1924 40.1177 10.79C40.1175 10.79 40.1175 10.7899 40.1174 10.7899L28.1334 3.86045L28.1324 3.85989C25.6917 2.45849 22.6845 2.45849 20.2439 3.85989L20.2431 3.86036L8.24312 10.7903L8.24145 10.7913C5.81817 12.2075 4.30566 14.8048 4.30566 17.6102V31.4702C4.30566 34.2885 5.80172 36.888 8.24393 38.2904L20.2431 45.2199Z" stroke="url(#paint0_linear_8528_373821)" stroke-width="0.5"/>
<path d="M18.4656 13.095L23.4006 11.775C23.6556 11.7 23.9106 11.67 24.1806 11.67V3.17999C22.8906 3.17999 21.5856 3.50999 20.4306 4.18499L14.4307 7.64999L17.7456 13.38C17.9706 13.245 18.2106 13.155 18.4656 13.08V13.095Z" fill="#AB34FF"/>
<path d="M5.68555 13.86L13.0205 18.105C13.1555 17.88 13.3055 17.67 13.5005 17.49L17.1155 13.875C17.2955 13.695 17.5055 13.53 17.7305 13.395L14.4155 7.66498L8.43055 11.115C7.27555 11.79 6.33055 12.735 5.68555 13.86Z" fill="#9601FF"/>
<path d="M29.9103 36L24.9753 37.32C24.7203 37.395 24.4653 37.4252 24.1953 37.4252V45.9C25.4853 45.9 26.7903 45.57 27.9453 44.895L33.9453 41.4302L30.6303 35.7C30.4053 35.835 30.1653 35.925 29.9103 36Z" fill="#C067FF"/>
<path d="M42.6905 35.22L35.3555 30.975C35.2205 31.2 35.0705 31.41 34.8755 31.59L31.2605 35.205C31.0805 35.385 30.8705 35.55 30.6455 35.685L33.9605 41.415L39.9605 37.95C41.1155 37.275 42.0605 36.33 42.7055 35.205L42.6905 35.22Z" fill="#D599FF"/>
<path d="M13.0357 30.99C12.9007 30.765 12.8107 30.525 12.7357 30.27L11.4157 25.335C11.3407 25.08 11.3107 24.825 11.3107 24.555H4.68066V31.485C4.68066 32.82 5.04066 34.11 5.68566 35.235L13.0207 30.99H13.0357Z" fill="url(#paint1_linear_8528_373821)"/>
<path d="M36.9598 25.32L35.6398 30.255C35.5648 30.51 35.4748 30.75 35.3398 30.975L42.6748 35.22C43.3198 34.095 43.6798 32.805 43.6798 31.47V24.54H37.0648C37.0648 24.795 37.0348 25.065 36.9598 25.32Z" fill="url(#paint2_linear_8528_373821)"/>
<path d="M11.4157 23.76L12.7357 18.825C12.8107 18.57 12.9007 18.33 13.0357 18.105L5.68566 13.86C5.04066 14.985 4.68066 16.275 4.68066 17.61V24.54H11.3107C11.3107 24.285 11.3407 24.015 11.4157 23.76Z" fill="url(#paint3_linear_8528_373821)"/>
<path d="M35.3398 18.105C35.4748 18.33 35.5648 18.57 35.6398 18.825L36.9598 23.76C37.0348 24.015 37.0648 24.27 37.0648 24.54H43.6798V17.61C43.6798 16.275 43.3198 14.985 42.6748 13.86L35.3398 18.105Z" fill="#EACCFF"/>
<path d="M24.1806 45.9V37.4252C23.9256 37.4252 23.6556 37.395 23.4006 37.32L18.4656 36C18.2106 35.925 17.9706 35.835 17.7456 35.7L14.4307 41.4302L20.4306 44.895C21.5856 45.57 22.8906 45.9 24.1806 45.9Z" fill="#AB34FF"/>
<path d="M31.2452 13.8599L34.8602 17.475C35.0402 17.655 35.2052 17.865 35.3402 18.09L42.6752 13.8449C42.0302 12.7199 41.0852 11.7749 39.9302 11.0999L33.9302 7.63495L30.6152 13.3649C30.8402 13.4999 31.0502 13.6499 31.2302 13.8449L31.2452 13.8599Z" fill="#D599FF"/>
<path d="M17.1305 35.22L13.5155 31.605C13.3355 31.425 13.1705 31.215 13.0355 30.99L5.68555 35.22C6.33055 36.345 7.27555 37.29 8.43055 37.965L14.4305 41.43L17.7455 35.7C17.5205 35.565 17.3105 35.415 17.1305 35.22Z" fill="#9601FF"/>
<path d="M24.1797 11.67C24.4347 11.67 24.7047 11.7 24.9597 11.775L29.8947 13.095C30.1497 13.17 30.3897 13.26 30.6147 13.395L33.9297 7.66499L27.9297 4.18499C26.7747 3.50999 25.4697 3.17999 24.1797 3.17999V11.67Z" fill="#C067FF"/>
<path d="M16.7706 13.95L14.4307 7.64996L18.7206 12.825C19.7856 14.22 17.4606 15.57 16.7706 13.95Z" fill="white" fill-opacity="0.4"/>
<path d="M31.6058 35.13L33.9458 41.43L29.6558 36.255C28.5908 34.86 30.9158 33.51 31.6058 35.13Z" fill="white" fill-opacity="0.4"/>
<path d="M35.9103 30.015L42.6903 35.22L34.7853 31.95C33.2403 31.245 34.5303 29.025 35.9103 30V30.015Z" fill="white" fill-opacity="0.4"/>
<path d="M4.68066 24.54L11.2957 23.415C11.9107 23.31 12.5107 23.73 12.6157 24.345C12.7657 25.11 12.0607 25.8 11.2957 25.665L4.68066 24.54Z" fill="white" fill-opacity="0.4"/>
<path d="M12.4655 19.08L5.68555 13.86L13.5905 17.13C15.1355 17.835 13.8455 20.055 12.4655 19.08Z" fill="white" fill-opacity="0.4"/>
<path d="M37.0648 23.415L43.6798 24.54L37.0648 25.665C35.3248 25.89 35.3248 23.19 37.0648 23.415Z" fill="white" fill-opacity="0.4"/>
<path d="M24.1803 45.9L23.0553 37.425C22.9803 36.81 23.4153 36.24 24.0303 36.15C24.7653 36.045 25.4103 36.705 25.3053 37.425L24.1803 45.9Z" fill="white" fill-opacity="0.4"/>
<path d="M34.7853 17.13L42.6903 13.86L35.9103 19.065C34.5303 20.04 33.2403 17.82 34.7853 17.115V17.13Z" fill="white" fill-opacity="0.4"/>
<path d="M14.4307 41.4301L16.7706 35.1301C16.9956 34.5451 17.6406 34.2451 18.2406 34.4551C18.9756 34.7101 19.2156 35.6701 18.7206 36.2551L14.4307 41.4301Z" fill="white" fill-opacity="0.4"/>
<path d="M13.5905 31.965L5.68555 35.22L12.4655 30.015C13.8455 29.04 15.1355 31.26 13.5905 31.965Z" fill="white" fill-opacity="0.4"/>
<path d="M24.1792 3.17999L25.3042 11.655C25.3792 12.27 24.9442 12.84 24.3292 12.93C23.5942 13.035 22.9492 12.375 23.0542 11.655L24.1792 3.17999Z" fill="white" fill-opacity="0.4"/>
<path d="M29.6546 12.825L33.9446 7.64996L31.6046 13.95C30.9296 15.57 28.5896 14.22 29.6546 12.825Z" fill="white" fill-opacity="0.4"/>
<path d="M18.5758 13.4425L18.5767 13.4422L23.5108 12.1225C23.5108 12.1224 23.5109 12.1224 23.5111 12.1224C23.9579 12.0041 24.4315 12.0041 24.8785 12.1224C24.8785 12.1224 24.8786 12.1224 24.8788 12.1225L29.8129 13.4422L29.8138 13.4425C30.2585 13.5602 30.6655 13.796 30.9946 14.1251L34.6096 17.74C34.9387 18.0691 35.1745 18.4761 35.2922 18.9208L35.2925 18.9219L36.6122 23.8558C36.6122 23.8561 36.6124 23.8563 36.6124 23.8564C36.7306 24.3033 36.7306 24.7767 36.6124 25.2234C36.6124 25.2235 36.6122 25.2238 36.6122 25.224L35.2925 30.1581L35.2922 30.159C35.1745 30.6038 34.9387 31.0107 34.6096 31.3398L30.9946 34.9548C30.6655 35.2839 30.2585 35.5197 29.8138 35.6374L29.8129 35.6376L24.8788 36.9574C24.8786 36.9574 24.8783 36.9576 24.8782 36.9576C24.4315 37.0756 23.9581 37.0756 23.5112 36.9576C23.5111 36.9576 23.5109 36.9574 23.5108 36.9574L18.5767 35.6376L18.5758 35.6374C18.1309 35.5197 17.7239 35.2839 17.395 34.9548L13.7799 31.3398C13.4508 31.0107 13.215 30.6038 13.0972 30.159L13.097 30.1581L11.7772 25.224C11.7772 25.2238 11.7772 25.2237 11.7771 25.2235C11.6589 24.7767 11.6589 24.3031 11.7771 23.8563C11.7772 23.8561 11.7772 23.856 11.7772 23.8558L13.097 18.9219L13.0972 18.9208C13.215 18.4761 13.4508 18.0691 13.7799 17.74L17.395 14.1251C17.7239 13.796 18.1309 13.5602 18.5758 13.4425Z" fill="#EACCFF" stroke="white" stroke-width="0.5"/>
<defs>
<linearGradient id="paint0_linear_8528_373821" x1="10.8852" y1="3.18384" x2="46.445" y2="12.9711" gradientUnits="userSpaceOnUse">
<stop stop-color="white"/>
<stop offset="1" stop-color="white" stop-opacity="0.4"/>
</linearGradient>
<linearGradient id="paint1_linear_8528_373821" x1="4.68066" y1="29.88" x2="13.0357" y2="29.88" gradientUnits="userSpaceOnUse">
<stop stop-color="#9601FF"/>
<stop offset="1" stop-color="#3E2EFF"/>
</linearGradient>
<linearGradient id="paint2_linear_8528_373821" x1="35.3398" y1="29.88" x2="43.6798" y2="29.88" gradientUnits="userSpaceOnUse">
<stop stop-color="#EACCFF"/>
<stop offset="1" stop-color="white"/>
</linearGradient>
<linearGradient id="paint3_linear_8528_373821" x1="4.68066" y1="19.2" x2="13.0357" y2="19.2" gradientUnits="userSpaceOnUse">
<stop stop-color="#3E2EFF"/>
<stop offset="1" stop-color="#9601FF"/>
</linearGradient>
</defs>
</svg>
