<svg width="100" height="100" viewBox="0 0 100 100" fill="none" xmlns="http://www.w3.org/2000/svg">
<g filter="url(#filter0_d_6108_63627)">
<path d="M16.667 37C16.667 24.1133 27.1137 13.6666 40.0003 13.6666H80.0003C81.8413 13.6666 83.3337 15.159 83.3337 17V57C83.3337 69.8866 72.887 80.3333 60.0003 80.3333H20.0003C18.1594 80.3333 16.667 78.8409 16.667 77V37Z" fill="#FE0000"/>
<path d="M44.0574 23.6666C35.3731 23.6666 28.333 30.3072 28.333 38.4987V55.5013C28.333 63.6928 35.3731 70.3333 44.0574 70.3333H55.9465C64.5027 70.3333 71.4627 63.8874 71.6663 55.863H64.7593C64.5586 60.2904 60.6897 63.8217 55.9465 63.8217H44.0574C39.1857 63.8217 35.2364 60.0965 35.2364 55.5013V38.4987C35.2364 33.9034 39.1857 30.1783 44.0574 30.1783H55.9465C60.6897 30.1783 64.5586 33.7095 64.7593 38.1369H71.6663C71.4627 30.1125 64.5027 23.6666 55.9465 23.6666H44.0574Z" fill="white"/>
<path d="M40.2222 39.9457C40.2222 37.1486 42.6261 34.8811 45.5915 34.8811H54.6042C57.4637 34.8811 59.7818 37.0676 59.7818 39.7648C59.7818 42.462 57.4637 44.6485 54.6042 44.6485H40.2222V39.9457Z" fill="white"/>
<path d="M54.6042 49.3514H40.2222V54.0542C40.2222 56.8513 42.6261 59.1188 45.5915 59.1188H54.6042C57.4637 59.1188 59.7818 56.9323 59.7818 54.2351C59.7818 51.5379 57.4637 49.3514 54.6042 49.3514Z" fill="white"/>
</g>
<defs>
<filter id="filter0_d_6108_63627" x="-6" y="-6" width="112" height="112" filterUnits="userSpaceOnUse" color-interpolation-filters="sRGB">
<feFlood flood-opacity="0" result="BackgroundImageFix"/>
<feColorMatrix in="SourceAlpha" type="matrix" values="0 0 0 0 0 0 0 0 0 0 0 0 0 0 0 0 0 0 127 0" result="hardAlpha"/>
<feOffset dy="3"/>
<feGaussianBlur stdDeviation="8"/>
<feColorMatrix type="matrix" values="0 0 0 0 0.0980392 0 0 0 0 0.117647 0 0 0 0 0.160784 0 0 0 0.1 0"/>
<feBlend mode="normal" in2="BackgroundImageFix" result="effect1_dropShadow_6108_63627"/>
<feBlend mode="normal" in="SourceGraphic" in2="effect1_dropShadow_6108_63627" result="shape"/>
</filter>
</defs>
</svg>
