<svg width="48" height="48" viewBox="0 0 48 48" fill="none" xmlns="http://www.w3.org/2000/svg">
<g filter="url(#filter0_ii_1880_18755)">
<path d="M42.9734 19.5518H41.2639C39.8692 19.5518 38.6995 18.3483 38.6995 16.92C38.6995 16.2001 39.0032 15.5478 39.5431 15.0642L40.6453 13.9845C41.7362 12.9048 41.7362 11.139 40.6453 10.0592L38.1372 7.57365C37.6423 7.07877 36.9113 6.78635 36.1689 6.78635C35.4266 6.78635 34.7068 7.07877 34.2007 7.57365L33.1435 8.63087C32.6374 9.19322 31.9625 9.49689 31.2315 9.49689C29.7919 9.49689 28.5884 8.3272 28.5884 6.94381V5.22301C28.5884 3.70465 27.3625 2.39999 25.8329 2.39999H22.4138C20.8842 2.39999 19.6695 3.69341 19.6695 5.22301V6.93256C19.6695 8.31595 18.4661 9.48565 17.0264 9.48565C16.3066 9.48565 15.643 9.18198 15.1594 8.65336L14.0685 7.57365C13.5736 7.06753 12.8425 6.78635 12.1002 6.78635C11.3579 6.78635 10.6381 7.07877 10.132 7.57365L7.60139 10.048C6.52167 11.1277 6.52167 12.8935 7.60139 13.962L8.65861 15.0192C9.22097 15.5253 9.53588 16.2001 9.53588 16.92C9.53588 18.3596 8.36619 19.5518 6.97155 19.5518H5.262C3.72115 19.5518 2.42773 20.7552 2.42773 22.2848V23.9944V25.7039C2.42773 27.2223 3.72115 28.437 5.262 28.437H6.97155C8.36619 28.437 9.53588 29.6404 9.53588 31.0688C9.53588 31.7886 9.22097 32.4634 8.65861 32.9695L7.60139 34.0155C6.52167 35.0952 6.52167 36.861 7.60139 37.9295L10.1095 40.4263C10.6044 40.9325 11.3354 41.2136 12.0777 41.2136C12.82 41.2136 13.5398 40.9212 14.046 40.4263L15.1369 39.3466C15.6093 38.818 16.2841 38.5143 17.0039 38.5143C18.4436 38.5143 19.647 39.684 19.647 41.0674V42.777C19.647 44.2953 20.8617 45.6 22.4025 45.6H25.8216C27.3512 45.6 28.5659 44.3066 28.5659 42.777V41.0674C28.5659 39.684 29.7694 38.5143 31.209 38.5143C31.9288 38.5143 32.6036 38.8293 33.121 39.3804L34.1782 40.4376C34.6843 40.9325 35.4041 41.2249 36.1465 41.2249C36.8888 41.2249 37.6086 40.9325 38.1147 40.4376L40.6228 37.9407C41.7025 36.861 41.7025 35.0952 40.6228 34.0155L39.5206 32.9358C38.9807 32.4522 38.677 31.7886 38.677 31.08C38.677 29.6404 39.8467 28.4482 41.2414 28.4482H42.9509C44.4805 28.4482 45.5715 27.2448 45.5715 25.7152V23.9944V22.2848C45.594 20.7552 44.503 19.5518 42.9734 19.5518ZM33.1097 23.9944C33.1097 28.9543 29.0945 32.992 24.1121 32.992C19.1296 32.992 15.1144 28.9543 15.1144 23.9944C15.1144 19.0344 19.1296 14.9967 24.1121 14.9967C29.0945 14.9967 33.1097 19.0344 33.1097 23.9944Z" fill="url(#paint0_linear_1880_18755)"/>
</g>
<defs>
<filter id="filter0_ii_1880_18755" x="2.15141" y="2.39999" width="43.6046" height="43.2" filterUnits="userSpaceOnUse" color-interpolation-filters="sRGB">
<feFlood flood-opacity="0" result="BackgroundImageFix"/>
<feBlend mode="normal" in="SourceGraphic" in2="BackgroundImageFix" result="shape"/>
<feColorMatrix in="SourceAlpha" type="matrix" values="0 0 0 0 0 0 0 0 0 0 0 0 0 0 0 0 0 0 127 0" result="hardAlpha"/>
<feOffset dx="-0.368437"/>
<feGaussianBlur stdDeviation="0.138164"/>
<feComposite in2="hardAlpha" operator="arithmetic" k2="-1" k3="1"/>
<feColorMatrix type="matrix" values="0 0 0 0 1 0 0 0 0 1 0 0 0 0 1 0 0 0 0.6 0"/>
<feBlend mode="normal" in2="shape" result="effect1_innerShadow_1880_18755"/>
<feColorMatrix in="SourceAlpha" type="matrix" values="0 0 0 0 0 0 0 0 0 0 0 0 0 0 0 0 0 0 127 0" result="hardAlpha"/>
<feOffset dx="0.368437"/>
<feGaussianBlur stdDeviation="0.0921093"/>
<feComposite in2="hardAlpha" operator="arithmetic" k2="-1" k3="1"/>
<feColorMatrix type="matrix" values="0 0 0 0 0 0 0 0 0 0 0 0 0 0 0 0 0 0 0.2 0"/>
<feBlend mode="normal" in2="effect1_innerShadow_1880_18755" result="effect2_innerShadow_1880_18755"/>
</filter>
<linearGradient id="paint0_linear_1880_18755" x1="23.9998" y1="-0.0567643" x2="23.9998" y2="41.5538" gradientUnits="userSpaceOnUse">
<stop stop-color="#7ABCFF"/>
<stop offset="1" stop-color="#2D95FF"/>
</linearGradient>
</defs>
</svg>
