<svg width="48" height="48" viewBox="0 0 48 48" fill="none" xmlns="http://www.w3.org/2000/svg">
<path d="M19.7602 7.02334L4.24271 22.0705C1.89956 24.3427 1.89956 28.0266 4.24271 30.2988L19.7602 45.346C22.1033 47.6182 25.9024 47.6182 28.2455 45.346L43.7629 30.2988C46.106 28.0266 46.106 24.3427 43.7629 22.0705L28.2455 7.02334C25.9024 4.75121 22.1033 4.75121 19.7602 7.02334Z" fill="black" fill-opacity="0.1"/>
<path d="M19.495 3.85695L3.97755 18.9042C1.48795 21.3184 1.48795 25.2324 3.97755 27.6466L19.495 42.6938C21.9847 45.1079 26.021 45.1079 28.5106 42.6938L44.0281 27.6466C46.5176 25.2324 46.5176 21.3184 44.0281 18.9042L28.5106 3.85695C26.021 1.4428 21.9847 1.4428 19.495 3.85695Z" stroke="url(#paint0_linear_8528_373819)" stroke-width="0.5"/>
<path d="M45.5182 23.2754H35.0482C35.0482 23.6535 34.9732 24.0317 34.8232 24.3954L32.4682 29.9226C32.3182 30.2717 32.0932 30.5917 31.8232 30.8681L36.0082 34.9263L43.7632 27.4063C44.9332 26.2717 45.5182 24.7881 45.5182 23.2899V23.2754Z" fill="url(#paint1_linear_8528_373819)"/>
<path d="M32.4682 16.6438L34.8232 22.1711C34.9732 22.5201 35.0482 22.9129 35.0482 23.2911H45.5182C45.5182 21.8074 44.9332 20.3092 43.7632 19.1747L36.0082 11.6546L31.8232 15.7129C32.0932 15.9747 32.3182 16.2947 32.4682 16.6583V16.6438Z" fill="#B5C5FF"/>
<path d="M30.8472 31.479L25.1472 33.7626C24.7872 33.9081 24.3822 33.9808 23.9922 33.9808V44.1335C25.5222 44.1335 27.0672 43.5662 28.2372 42.4317L35.9922 34.9117L31.8072 30.8535C31.5372 31.1153 31.2072 31.3335 30.8322 31.479H30.8472Z" fill="#90A9FF"/>
<path d="M22.8531 33.7626L17.1531 31.479C16.7931 31.3335 16.4631 31.1153 16.1781 30.8535L11.9932 34.9117L19.7481 42.4317C20.9181 43.5662 22.4481 44.1335 23.9931 44.1335V33.9808C23.6031 33.9808 23.2131 33.9081 22.8381 33.7626H22.8531Z" fill="#6B8CFF"/>
<path d="M19.7629 4.11914L12.0078 11.6391L19.7629 4.11914Z" fill="#38D2DA"/>
<path d="M24.0078 2.40323V12.556C24.3978 12.556 24.7878 12.6287 25.1628 12.7741L30.8628 15.0577C31.2378 15.2032 31.5528 15.4214 31.8378 15.6832L36.0228 11.625L28.2528 4.11959C27.0828 2.98505 25.5528 2.41777 24.0078 2.41777V2.40323Z" fill="#6B8CFF"/>
<path d="M16.1929 15.6977C16.4629 15.4359 16.7929 15.2177 17.1679 15.0723L22.8679 12.7887C23.2279 12.6432 23.6329 12.5705 24.0229 12.5705V2.40323C22.4929 2.40323 20.9479 2.9705 19.7779 4.10505L12.0078 11.6396L16.1929 15.6977Z" fill="#466FFF"/>
<path d="M12.953 23.2758C12.953 22.8976 13.028 22.5194 13.178 22.1558L15.533 16.6285C15.683 16.2649 15.908 15.9594 16.178 15.6831L11.993 11.6248L4.25305 19.1594C3.08305 20.294 2.49805 21.7776 2.49805 23.2758H12.953Z" fill="url(#paint2_linear_8528_373819)"/>
<path d="M15.533 29.9085L13.178 24.3812C13.028 24.0321 12.953 23.6394 12.953 23.2612H2.49805C2.49805 24.7449 3.08305 26.243 4.25305 27.3776L12.008 34.8976L16.193 30.8394C15.923 30.5776 15.698 30.2576 15.548 29.894L15.533 29.9085Z" fill="url(#paint3_linear_8528_373819)"/>
<path d="M32.4678 16.6428C32.3178 16.2937 32.0928 15.9737 31.8228 15.6973L24.0078 23.2755H35.0628C35.0628 22.8973 34.9878 22.5191 34.8378 22.1555L32.4828 16.6282L32.4678 16.6428Z" fill="#38D2DA"/>
<path d="M31.8222 30.854C32.0922 30.5921 32.3172 30.2721 32.4672 29.9085L34.8222 24.3812C34.9722 24.0176 35.0472 23.6394 35.0472 23.2612H23.9922L31.8072 30.8394L31.8222 30.854Z" fill="#38D2DA"/>
<path d="M24.0078 23.2754V33.9954C24.3978 33.9954 24.7878 33.9226 25.1628 33.7772L30.8628 31.4935C31.2378 31.3481 31.5528 31.1299 31.8378 30.8681L24.0228 23.2899L24.0078 23.2754Z" fill="#38D2DA"/>
<path d="M16.1934 30.854C16.4634 31.1158 16.7934 31.334 17.1684 31.4794L22.8684 33.763C23.2434 33.9085 23.6334 33.9812 24.0234 33.9812V23.2612L16.2084 30.8394L16.1934 30.854Z" fill="#38D2DA"/>
<path d="M24.0072 23.2764L31.8222 15.6982C31.5522 15.4364 31.2222 15.2182 30.8472 15.0727L25.1472 12.789C24.7722 12.6436 24.3822 12.5708 23.9922 12.5708V23.2909L24.0072 23.2764Z" fill="#38D2DA"/>
<path d="M17.1684 15.057C16.8084 15.2025 16.4784 15.4207 16.1934 15.6825L24.0084 23.2607V12.5552C23.6184 12.5552 23.2284 12.6279 22.8534 12.7734L17.1534 15.057H17.1684Z" fill="#38D2DA"/>
<path d="M16.1937 15.6973C15.9237 15.9591 15.6987 16.2791 15.5487 16.6428L13.1938 22.17C13.0438 22.5337 12.9688 22.9119 12.9688 23.29H24.0237L16.2087 15.7119L16.1937 15.6973Z" fill="#38D2DA"/>
<path d="M13.1781 24.3808L15.5332 29.9081C15.6832 30.2717 15.9082 30.5772 16.1782 30.8535L23.9932 23.2754H12.9531C12.9531 23.6535 13.0281 24.0317 13.1781 24.3954V24.3808Z" fill="#38D2DA"/>
<path d="M36.0082 11.639L32.6182 16.4681C32.2582 16.9772 31.5532 17.1081 31.0282 16.759C30.3682 16.3372 30.3682 15.3481 31.0282 14.9263L36.0082 11.639Z" fill="white" fill-opacity="0.4"/>
<path d="M45.5175 23.2752L35.0475 24.3661C34.4325 24.4243 33.8625 23.9879 33.8025 23.3916C33.7125 22.7079 34.3425 22.097 35.0475 22.1843L45.5175 23.2752Z" fill="white" fill-opacity="0.4"/>
<path d="M36.0081 34.9126L31.0281 31.6253C30.5031 31.2762 30.3681 30.5926 30.7281 30.0835C31.1631 29.4435 32.1831 29.4435 32.6181 30.0835L36.0081 34.9126Z" fill="white" fill-opacity="0.4"/>
<path d="M24.0083 44.1338L22.8833 33.9811C22.8233 33.3847 23.2733 32.832 23.8883 32.7738C24.5933 32.6865 25.2233 33.2975 25.1333 33.9811L24.0083 44.1338Z" fill="white" fill-opacity="0.4"/>
<path d="M24.0076 2.40323L25.1326 12.556C25.1926 13.1523 24.7426 13.705 24.1276 13.7632C23.4226 13.8505 22.7926 13.2396 22.8826 12.556L24.0076 2.40323Z" fill="white" fill-opacity="0.4"/>
<path d="M12.0078 11.639L16.9879 14.9263C17.5129 15.2753 17.6479 15.959 17.2879 16.4681C16.8529 17.1081 15.8329 17.1081 15.3979 16.4681L12.0078 11.639Z" fill="white" fill-opacity="0.4"/>
<path d="M2.49805 23.2764L12.968 22.1854C13.583 22.1273 14.153 22.5636 14.213 23.16C14.303 23.8436 13.673 24.4545 12.968 24.3673L2.49805 23.2764Z" fill="white" fill-opacity="0.4"/>
<path d="M12.0078 34.912L15.3979 30.0829C15.7579 29.5738 16.4629 29.4429 16.9879 29.792C17.6479 30.2138 17.6479 31.2029 16.9879 31.6247L12.0078 34.912Z" fill="white" fill-opacity="0.4"/>
<path d="M15.5332 16.6436L13.1781 22.1709C12.8781 22.8836 12.8781 23.6836 13.1781 24.3964L15.5332 29.9236C15.8332 30.6364 16.4182 31.2036 17.1532 31.4945L22.8532 33.7782C23.5882 34.0691 24.4132 34.0691 25.1482 33.7782L30.8482 31.4945C31.5832 31.2036 32.1682 30.6364 32.4682 29.9236L34.8232 24.3964C35.1232 23.6836 35.1232 22.8836 34.8232 22.1709L32.4682 16.6436C32.1682 15.9309 31.5832 15.3636 30.8482 15.0727L25.1482 12.789C24.4132 12.4981 23.5882 12.4981 22.8532 12.789L17.1532 15.0727C16.4182 15.3636 15.8332 15.9309 15.5332 16.6436Z" fill="#99E0EF"/>
<path d="M15.8797 16.7824L15.5332 16.6436L15.8803 16.7809C16.1422 16.1587 16.6531 15.6633 17.2948 15.4093L17.2963 15.4087L22.9948 13.1257C22.9951 13.1256 22.9954 13.1255 22.9955 13.1254C23.6393 12.8708 24.3619 12.8708 25.0057 13.1254C25.0058 13.1255 25.0061 13.1256 25.0064 13.1257L30.7049 15.4087L30.7064 15.4093C31.3481 15.6633 31.859 16.1587 32.1209 16.7809L32.1215 16.7824L34.4759 22.3082C34.4761 22.3085 34.4762 22.3088 34.4762 22.3091C34.7387 22.9332 34.7387 23.6339 34.4762 24.258C34.4762 24.2583 34.4761 24.2586 34.4759 24.2589L32.1215 29.7847L32.1209 29.7862C31.859 30.4084 31.3481 30.9039 30.7064 31.1578L30.7049 31.1584L25.0064 33.4415C25.0061 33.4416 25.0058 33.4417 25.0054 33.4419C24.3619 33.6963 23.6393 33.6963 22.9957 33.4417C22.9954 33.4417 22.9951 33.4416 22.9948 33.4415L17.2963 31.1584L17.2948 31.1578C16.6531 30.9039 16.1422 30.4084 15.8803 29.7862L15.8797 29.7847L13.5253 24.2589C13.5252 24.2586 13.5251 24.2583 13.525 24.2582C13.2625 23.6339 13.2625 22.9332 13.525 22.3089C13.5251 22.3088 13.5252 22.3085 13.5253 22.3082L15.8797 16.7824Z" fill="#DAE2FF" stroke="white" stroke-width="0.5"/>
<defs>
<linearGradient id="paint0_linear_8528_373819" x1="3.81868" y1="19.5725" x2="31.5134" y2="4.24237" gradientUnits="userSpaceOnUse">
<stop stop-color="white"/>
<stop offset="1" stop-color="white" stop-opacity="0.4"/>
</linearGradient>
<linearGradient id="paint1_linear_8528_373819" x1="31.8232" y1="29.0935" x2="45.5182" y2="29.0935" gradientUnits="userSpaceOnUse">
<stop stop-color="#DAE2FF"/>
<stop offset="1" stop-color="white"/>
</linearGradient>
<linearGradient id="paint2_linear_8528_373819" x1="2.49805" y1="17.4576" x2="16.193" y2="17.4576" gradientUnits="userSpaceOnUse">
<stop stop-color="#466FFF"/>
<stop offset="1" stop-color="#3E2EFF"/>
</linearGradient>
<linearGradient id="paint3_linear_8528_373819" x1="2.49805" y1="29.094" x2="16.193" y2="29.094" gradientUnits="userSpaceOnUse">
<stop stop-color="#3E2EFF"/>
<stop offset="1" stop-color="#466FFF"/>
</linearGradient>
</defs>
</svg>
