<svg width="48" height="48" viewBox="0 0 48 48" fill="none" xmlns="http://www.w3.org/2000/svg">
<path d="M4 18C4 10.268 10.268 4 18 4H42C43.1046 4 44 4.89543 44 6V30C44 37.732 37.732 44 30 44H6C4.89543 44 4 43.1046 4 42V18Z" fill="url(#paint0_linear_4193_3937)"/>
<path fill-rule="evenodd" clip-rule="evenodd" d="M15.958 36C14.8766 36 14 35.0598 14 33.9C14 32.7402 14.8766 31.8 15.958 31.8H20.1119C21.5795 31.8 22.7692 30.524 22.7692 28.95C22.7692 27.376 21.5795 26.1 20.1119 26.1H15.958C14.8766 26.1 14 25.1598 14 24C14 22.8402 14.8766 21.9 15.958 21.9H20.1119C21.5795 21.9 22.7692 20.624 22.7692 19.05C22.7692 17.476 21.5795 16.2 20.1119 16.2H15.958C14.8766 16.2 14 15.2598 14 14.1C14 12.9402 14.8766 12 15.958 12L30.1119 12C33.7423 12 36.6853 15.1564 36.6853 19.05C36.6853 20.979 35.9629 22.7271 34.7925 24C35.9629 25.2729 36.6853 27.021 36.6853 28.95C36.6853 32.8436 33.7423 36 30.1119 36H15.958ZM26.126 31.8H30.1119C31.5795 31.8 32.7692 30.524 32.7692 28.95C32.7692 27.376 31.5795 26.1 30.1119 26.1H26.126C26.4856 26.9715 26.6853 27.9357 26.6853 28.95C26.6853 29.9643 26.4856 30.9285 26.126 31.8ZM26.126 21.9H30.1119C31.5795 21.9 32.7692 20.624 32.7692 19.05C32.7692 17.476 31.5795 16.2 30.1119 16.2H26.126C26.4856 17.0715 26.6853 18.0357 26.6853 19.05C26.6853 20.0643 26.4856 21.0285 26.126 21.9Z" fill="white"/>
<defs>
<linearGradient id="paint0_linear_4193_3937" x1="5.7898" y1="44.0011" x2="44" y2="4" gradientUnits="userSpaceOnUse">
<stop stop-color="#6406FD"/>
<stop offset="0.307292" stop-color="#3833FE"/>
<stop offset="1" stop-color="#309AFF"/>
</linearGradient>
</defs>
</svg>
