<svg width="48" height="48" viewBox="0 0 48 48" fill="none" xmlns="http://www.w3.org/2000/svg">
<path d="M4 18C4 10.268 10.268 4 18 4H42C43.1046 4 44 4.89543 44 6V30C44 37.732 37.732 44 30 44H6C4.89543 44 4 43.1046 4 42V18Z" fill="url(#paint0_linear_3932_37670)"/>
<path d="M28.0313 19.8868C28.0313 19.8868 28.0231 19.8868 28.015 19.8868C27.8924 19.8669 27.7658 19.851 27.6392 19.8351C27.3901 19.7994 27.1491 19.7676 26.9204 19.7437C26.7978 19.7318 26.6712 19.7159 26.5487 19.704C26.4997 19.7 26.4547 19.696 26.4057 19.6881C25.8462 19.6364 25.2621 19.5966 24.6617 19.5728C24.3676 19.5648 24.0735 19.5569 23.7713 19.5569C23.3792 19.5569 21.917 19.5927 19.9605 19.8868L20.0585 22.8599C20.083 23.5515 20.2097 24.2352 20.418 24.895C23.1137 24.569 25.5439 24.7201 27.5371 25.042C28.4357 25.1851 29.2403 25.3679 29.9469 25.5508C29.3955 27.3315 28.354 28.9651 26.9204 30.237C26.565 30.551 26.2097 30.861 25.8584 31.1512C25.2049 31.6917 24.5759 32.2005 24 32.6536C23.42 32.1965 22.791 31.6917 22.1416 31.1512C21.7944 30.861 21.435 30.551 21.0796 30.233C18.968 28.353 17.7018 25.6939 17.612 22.9314L17.4445 17.9153C20.3567 17.2834 22.7747 17.18 23.5997 17.1641C23.6528 17.1641 23.71 17.1641 23.7631 17.1641C23.7631 17.1641 23.7672 17.1641 23.7713 17.1641C23.8039 17.1641 23.8366 17.1641 23.857 17.1641H24.0041H24.1511C24.3063 17.1641 24.8414 17.1681 25.6378 17.2237C30.3513 17.5059 34.0027 18.7898 35.8203 19.5609L36 14.0916C29.8366 11.8896 23.9918 12.0009 23.9918 12.0009C23.9918 12.0009 18.1511 11.8896 12 14.0956L12.2982 23.1024C12.437 27.2838 14.3159 31.2267 17.4935 34.0527C17.8938 34.4105 18.2982 34.7563 18.6903 35.0862C21.5739 37.4789 23.9959 39.2 23.9959 39.2C23.9959 39.2 26.418 37.4789 29.3016 35.0862C29.6978 34.7602 30.098 34.4105 30.4983 34.0527C33.6719 31.2307 35.5548 27.2877 35.6937 23.1024L35.7263 22.1603C35.1831 21.894 33.2389 20.9957 30.3839 20.328C29.6651 20.1611 28.8809 20.01 28.0354 19.8828L28.0313 19.8868Z" fill="white"/>
<defs>
<linearGradient id="paint0_linear_3932_37670" x1="20.6666" y1="-0.999975" x2="49.1734" y2="25.5856" gradientUnits="userSpaceOnUse">
<stop stop-color="#DAA241"/>
<stop offset="0.239583" stop-color="#F3D39B"/>
<stop offset="0.509436" stop-color="#FFE3B3"/>
<stop offset="0.860775" stop-color="#EAC179"/>
<stop offset="1" stop-color="#DAA241"/>
</linearGradient>
</defs>
</svg>
