<svg width="48" height="48" viewBox="0 0 48 48" fill="none" xmlns="http://www.w3.org/2000/svg">
<path d="M24.2995 42.3638H10.6945C6.07454 42.3638 3.19454 37.3688 5.50454 33.3638L12.3145 21.5737L19.1095 9.79879C21.4195 5.79379 27.1945 5.79379 29.5045 9.79879L36.3145 21.5887L43.1245 33.3788C45.4345 37.3838 42.5545 42.3788 37.9345 42.3788H24.2995V42.3638Z" fill="black" fill-opacity="0.1"/>
<path d="M5.18033 31.0724L5.18021 31.0725C2.72639 35.327 5.7857 40.6349 10.695 40.6349H23.9251V40.6499H24.3001H37.9351C42.8444 40.6499 45.9037 35.342 43.4498 31.0875V31.0874L36.6398 19.2974L29.8298 7.50755C27.3755 3.25237 21.2395 3.25237 18.7852 7.50755L11.9903 19.2824L11.9903 19.2825L5.18033 31.0724Z" stroke="url(#paint0_linear_8528_373817)" stroke-width="0.5"/>
<path d="M32.295 22.65V30.15C32.295 30.42 32.22 30.675 32.1 30.9L43.11 37.26C44.115 35.505 44.265 33.255 43.11 31.26L36.3 19.47L32.085 21.9C32.22 22.125 32.28 22.38 32.28 22.65H32.295Z" fill="url(#paint1_linear_8528_373817)"/>
<path d="M16.5149 30.9C16.6499 31.125 16.8299 31.32 17.0699 31.455L23.5649 35.205C23.7899 35.34 24.0599 35.4 24.3149 35.4V40.26H10.6949C8.38488 40.26 6.50988 39.015 5.50488 37.26L16.5149 30.9Z" fill="url(#paint2_linear_8528_373817)"/>
<path d="M24.3008 4.67999V17.4C24.5558 17.4 24.8258 17.46 25.0508 17.595L31.5458 21.345C31.7708 21.48 31.9658 21.675 32.1008 21.9L36.3158 19.47L29.5058 7.67998C28.3508 5.68498 26.3258 4.67999 24.3008 4.67999Z" fill="#99E0EF"/>
<path d="M32.1008 30.9C31.9658 31.125 31.7858 31.32 31.5458 31.455L25.0508 35.205C24.8258 35.34 24.5558 35.4 24.3008 35.4V40.26H37.9058C40.2158 40.26 42.0908 39.015 43.0958 37.26L32.0858 30.9H32.1008Z" fill="#33C1E0"/>
<path d="M5.50531 37.26L16.5153 30.9C16.3803 30.675 16.3203 30.42 16.3203 30.15V22.65C16.3203 22.38 16.3953 22.125 16.5153 21.9L12.3003 19.47L5.50531 31.26C4.35031 33.255 4.50031 35.505 5.50531 37.26Z" fill="url(#paint3_linear_8528_373817)"/>
<path d="M17.0558 21.36L23.5508 17.61C23.7758 17.475 24.0458 17.415 24.3008 17.415V4.67999C22.2758 4.67999 20.2658 5.68498 19.1108 7.67998L12.3008 19.47L16.5158 21.9C16.6508 21.675 16.8308 21.48 17.0708 21.345L17.0558 21.36Z" fill="#33C1E0"/>
<path d="M43.1106 37.26L31.5306 31.875C30.9606 31.605 30.7206 30.945 30.9756 30.375C31.2606 29.745 32.0856 29.52 32.6556 29.925L43.1106 37.26Z" fill="white" fill-opacity="0.4"/>
<path d="M24.2997 40.26L23.1747 35.4C23.0247 34.785 23.4147 34.155 24.0447 34.02C24.8547 33.81 25.6347 34.605 25.4247 35.4L24.2997 40.26Z" fill="white" fill-opacity="0.4"/>
<path d="M36.2998 19.47L32.6548 22.875C32.1898 23.31 31.4548 23.28 31.0198 22.815C30.4348 22.215 30.7348 21.15 31.5298 20.925L36.2998 19.47Z" fill="white" fill-opacity="0.4"/>
<path d="M5.50488 37.26L15.9599 29.925C16.4699 29.565 17.1749 29.685 17.5349 30.195C17.9399 30.765 17.7149 31.575 17.0849 31.875L5.50488 37.26Z" fill="white" fill-opacity="0.4"/>
<path d="M24.3 4.67999L25.425 17.4C25.485 18.015 25.02 18.57 24.405 18.63C23.715 18.705 23.115 18.09 23.175 17.4L24.3 4.67999Z" fill="white" fill-opacity="0.4"/>
<path d="M12.3008 19.47L17.0708 20.925C17.6858 21.105 18.0308 21.75 17.8358 22.365C17.6108 23.175 16.5308 23.445 15.9458 22.875L12.3008 19.47Z" fill="white" fill-opacity="0.4"/>
<path d="M24.8614 17.9193L24.8622 17.9197L31.3564 21.6693C31.3566 21.6693 31.3566 21.6694 31.3567 21.6694C31.7058 21.8722 31.9197 22.2435 31.9197 22.65V30.15C31.9197 30.5564 31.7058 30.9276 31.357 31.1304C31.3567 31.1304 31.3566 31.1305 31.3564 31.1307L24.8622 34.8802L24.8614 34.8807C24.5128 35.083 24.0865 35.083 23.7381 34.8807L23.7372 34.8802L17.2431 31.1307C17.2428 31.1305 17.2426 31.1304 17.2425 31.1304C16.8936 30.9274 16.6797 30.5564 16.6797 30.15V22.65C16.6797 22.2435 16.8937 21.8722 17.2426 21.6694C17.2428 21.6694 17.2429 21.6693 17.2431 21.6693L23.7372 17.9197L23.7381 17.9193C24.0865 17.7168 24.5128 17.7168 24.8614 17.9193Z" fill="#CCEFF7" stroke="white" stroke-width="0.5"/>
<defs>
<linearGradient id="paint0_linear_8528_373817" x1="10.935" y1="4.69117" x2="45.6001" y2="16.2165" gradientUnits="userSpaceOnUse">
<stop stop-color="white"/>
<stop offset="1" stop-color="white" stop-opacity="0.4"/>
</linearGradient>
<linearGradient id="paint1_linear_8528_373817" x1="32.1" y1="28.365" x2="43.92" y2="28.365" gradientUnits="userSpaceOnUse">
<stop stop-color="#CCEFF7"/>
<stop offset="1" stop-color="white"/>
</linearGradient>
<linearGradient id="paint2_linear_8528_373817" x1="5.50488" y1="35.58" x2="24.2999" y2="35.58" gradientUnits="userSpaceOnUse">
<stop stop-color="#466FFF"/>
<stop offset="1" stop-color="#00B1D8"/>
</linearGradient>
<linearGradient id="paint3_linear_8528_373817" x1="4.69531" y1="28.365" x2="16.5153" y2="28.365" gradientUnits="userSpaceOnUse">
<stop stop-color="#00B1D8"/>
<stop offset="1" stop-color="#466FFF"/>
</linearGradient>
</defs>
</svg>
