<svg width="48" height="48" viewBox="0 0 48 48" fill="none" xmlns="http://www.w3.org/2000/svg">
<path d="M24 47.25C35.598 47.25 45 37.848 45 26.25C45 14.652 35.598 5.25 24 5.25C12.402 5.25 3 14.652 3 26.25C3 37.848 12.402 47.25 24 47.25Z" fill="black" fill-opacity="0.1"/>
<path d="M24 45.375C35.8051 45.375 45.375 35.8051 45.375 24C45.375 12.1949 35.8051 2.625 24 2.625C12.1949 2.625 2.625 12.1949 2.625 24C2.625 35.8051 12.1949 45.375 24 45.375Z" fill="white" stroke="url(#paint0_linear_8528_373816)" stroke-width="0.5"/>
<path d="M13.5026 34.501C13.5026 28.6961 18.1975 24.001 24.0025 24.001C26.8975 18.976 25.1875 12.556 20.1625 9.66099C15.4525 6.94599 9.51258 8.28099 6.40758 12.601C6.21258 12.901 6.00258 13.186 5.82258 13.501C0.0175824 23.551 3.45258 36.3911 13.5026 42.1811C16.7426 44.0561 20.2826 44.9561 23.7775 44.986C18.0775 44.8661 13.5026 40.216 13.5026 34.501Z" fill="url(#paint1_linear_8528_373816)"/>
<path d="M6.39258 12.6008C9.51258 8.28077 15.4375 6.94577 20.1475 9.66077C25.1725 12.5558 26.8975 18.9758 23.9875 24.0008C26.8825 29.0258 33.3025 30.7508 38.3275 27.8408C43.1875 25.0358 44.9425 18.9458 42.4375 14.0108C40.6525 10.7108 37.9825 7.83077 34.4875 5.80577C24.7675 0.195776 12.4376 3.27077 6.39258 12.6008Z" fill="url(#paint2_linear_8528_373816)"/>
<path d="M38.343 27.8405C33.318 30.7355 26.898 29.0255 24.003 24.0005C18.198 24.0005 13.5029 28.6955 13.5029 34.5005C13.5029 40.2305 18.093 44.8655 23.778 44.9855C31.113 45.0605 38.253 41.2955 42.183 34.5005C46.113 27.7055 45.798 20.2205 42.438 14.0105C44.943 18.9455 43.188 25.0355 38.328 27.8405H38.343Z" fill="url(#paint3_linear_8528_373816)"/>
<path d="M42.4528 14.0105C43.3678 15.6455 43.8928 17.5355 43.8328 19.4705C43.8028 21.3905 43.2478 23.3405 42.1978 25.0055C41.1778 26.7005 39.6328 28.0805 37.8628 29.0405C36.0628 29.9855 33.9928 30.4205 31.9228 30.3005C31.3078 30.2705 30.8278 29.7305 30.8578 29.1155C30.8878 28.5005 31.4278 28.0205 32.0428 28.0505C32.0878 28.0505 32.1178 28.0505 32.1628 28.0505C33.8128 28.3205 35.5678 28.1405 37.1728 27.4955C38.7628 26.8355 40.2328 25.7855 41.2978 24.3605C42.3778 22.9655 43.0828 21.2255 43.2928 19.4255C43.5178 17.6105 43.2178 15.7205 42.4678 14.0105H42.4528Z" fill="url(#paint4_linear_8528_373816)"/>
<path d="M23.7772 44.9854C21.8722 45.0154 19.9222 44.5804 18.2422 43.5904C16.5322 42.6454 15.0922 41.1754 14.1172 39.4354C13.1272 37.6804 12.6472 35.6404 12.7072 33.5854C12.7822 31.5304 13.4422 29.4754 14.5972 27.7054C14.9422 27.1804 15.6322 27.0304 16.1572 27.3754C16.6822 27.7204 16.8172 28.4104 16.4722 28.9354C16.4572 28.9654 16.4272 28.9954 16.4122 29.0254C15.3322 30.3454 14.6122 31.9804 14.3872 33.7204C14.1772 35.4604 14.3872 37.2754 15.1222 38.9254C15.8422 40.5754 17.0272 42.0604 18.5422 43.1104C20.0422 44.2054 21.8872 44.8204 23.7772 44.9854Z" fill="url(#paint5_linear_8528_373816)"/>
<path d="M23.055 13.1896C22.47 11.6596 21.48 10.2646 20.16 9.19963C18.84 8.16463 17.235 7.39963 15.525 7.14463C13.815 6.85963 12 7.06963 10.335 7.69963C8.655 8.32963 7.17 9.43963 6 10.8646C7.005 9.33463 8.415 8.02963 10.095 7.18963C11.775 6.33463 13.695 5.89963 15.63 6.01963C17.565 6.09463 19.47 6.75463 21.15 7.81963C22.815 8.89963 24.195 10.4446 25.11 12.2596C25.395 12.8296 25.17 13.5046 24.615 13.7896C24.06 14.0747 23.385 13.8496 23.1 13.2947C23.085 13.2646 23.07 13.2196 23.055 13.1896Z" fill="url(#paint6_linear_8528_373816)"/>
<path d="M21.9627 15.1958C19.1277 18.7508 16.8477 22.6958 15.1827 26.9258C14.5676 28.4858 15.5877 30.2258 17.2527 30.4808C21.7227 31.1558 26.2827 31.1558 30.7527 30.4808C32.4177 30.2258 33.4377 28.4858 32.8227 26.9258C31.1727 22.6958 28.8777 18.7358 26.0427 15.1958C25.0077 13.8908 22.9977 13.8908 21.9477 15.1958H21.9627Z" fill="#CDF5EB" stroke="white" stroke-width="0.75" stroke-miterlimit="10"/>
<defs>
<linearGradient id="paint0_linear_8528_373816" x1="9.68181" y1="3" x2="47.4465" y2="14.3836" gradientUnits="userSpaceOnUse">
<stop stop-color="white"/>
<stop offset="1" stop-color="white" stop-opacity="0.4"/>
</linearGradient>
<linearGradient id="paint1_linear_8528_373816" x1="8.87112" y1="39.5116" x2="24.6212" y2="12.2318" gradientUnits="userSpaceOnUse">
<stop stop-color="white"/>
<stop offset="1" stop-color="#06CC9A"/>
</linearGradient>
<linearGradient id="paint2_linear_8528_373816" x1="10.7716" y1="5.04962" x2="42.5461" y2="23.3946" gradientUnits="userSpaceOnUse">
<stop stop-color="white"/>
<stop offset="1" stop-color="#06CC9A"/>
</linearGradient>
<linearGradient id="paint3_linear_8528_373816" x1="21.0341" y1="44.9051" x2="39.7616" y2="12.468" gradientUnits="userSpaceOnUse">
<stop stop-color="#06CC9A"/>
<stop offset="1" stop-color="white"/>
</linearGradient>
<linearGradient id="paint4_linear_8528_373816" x1="42.7502" y1="13.5" x2="37.8667" y2="31.7076" gradientUnits="userSpaceOnUse">
<stop stop-color="white" stop-opacity="0"/>
<stop offset="1" stop-color="white"/>
</linearGradient>
<linearGradient id="paint5_linear_8528_373816" x1="23.9996" y1="45" x2="10.2818" y2="34.9212" gradientUnits="userSpaceOnUse">
<stop stop-color="white" stop-opacity="0"/>
<stop offset="1" stop-color="white"/>
</linearGradient>
<linearGradient id="paint6_linear_8528_373816" x1="6.35742" y1="10.2788" x2="23.6074" y2="12.5288" gradientUnits="userSpaceOnUse">
<stop stop-color="white" stop-opacity="0"/>
<stop offset="1" stop-color="white"/>
</linearGradient>
</defs>
</svg>
