<svg width="48" height="48" viewBox="0 0 48 48" fill="none" xmlns="http://www.w3.org/2000/svg">
<g filter="url(#filter0_d_3091_34581)">
<path d="M4.69193 3.49415C4.91304 2.66895 5.76124 2.17925 6.58643 2.40036L32.66 9.38676C33.4852 9.60787 33.9749 10.4561 33.7538 11.2813L29.463 27.295C29.2419 28.1202 28.3937 28.6099 27.5685 28.3888L1.49486 21.4024C0.669664 21.1813 0.179957 20.3331 0.401067 19.5079L4.69193 3.49415Z" fill="url(#paint0_linear_3091_34581)"/>
</g>
<g filter="url(#filter1_ii_3091_34581)">
<path d="M4.69193 3.49415C4.91304 2.66895 5.76124 2.17925 6.58643 2.40036L32.66 9.38676C33.4852 9.60787 33.9749 10.4561 33.7538 11.2813L29.463 27.295C29.2419 28.1202 28.3937 28.6099 27.5685 28.3888L1.49486 21.4024C0.669664 21.1813 0.179957 20.3331 0.401067 19.5079L4.69193 3.49415Z" fill="url(#paint1_linear_3091_34581)"/>
</g>
<path d="M4.69193 3.49415C4.91304 2.66895 5.76124 2.17925 6.58643 2.40036L32.66 9.38676C33.4852 9.60787 33.9749 10.4561 33.7538 11.2813L29.463 27.295C29.2419 28.1202 28.3937 28.6099 27.5685 28.3888L1.49486 21.4024C0.669664 21.1813 0.179957 20.3331 0.401067 19.5079L4.69193 3.49415Z" fill="url(#paint2_linear_3091_34581)"/>
<path fill-rule="evenodd" clip-rule="evenodd" d="M22.3453 17.1816C22.5852 17.0041 22.6358 16.6657 22.4583 16.4258C22.2808 16.1859 21.9424 16.1354 21.7026 16.3129L17.7048 19.271L16.5457 17.6447C16.3725 17.4017 16.0351 17.3451 15.7921 17.5183C15.5491 17.6915 15.4925 18.0289 15.6657 18.2719L17.144 20.3461C17.2281 20.4642 17.3562 20.5435 17.4994 20.5662C17.6425 20.5889 17.7888 20.5531 17.9054 20.4669L22.3453 17.1816Z" fill="url(#paint3_linear_3091_34581)"/>
<g filter="url(#filter2_i_3091_34581)">
<path fill-rule="evenodd" clip-rule="evenodd" d="M15.5116 21.1679C18.5694 21.93 21.6661 20.069 22.4282 17.0112C23.1904 13.9534 21.3293 10.8567 18.2715 10.0946C15.2137 9.33243 12.117 11.1934 11.3549 14.2513C10.5928 17.3091 12.4538 20.4058 15.5116 21.1679ZM18.6359 13.7266C18.9179 13.5586 19.2827 13.6512 19.4506 13.9333C19.6185 14.2153 19.526 14.5801 19.2439 14.748L17.5409 15.7618L18.5543 17.4641C18.7222 17.7461 18.6296 18.1109 18.3476 18.2788C18.0655 18.4467 17.7007 18.3542 17.5328 18.0721L16.5195 16.3698L14.8175 17.3829C14.5354 17.5508 14.1707 17.4583 14.0027 17.1762C13.8348 16.8941 13.9274 16.5294 14.2095 16.3614L15.9114 15.3483L14.8979 13.6457C14.73 13.3636 14.8225 12.9988 15.1046 12.8309C15.3867 12.663 15.7515 12.7556 15.9194 13.0377L16.9329 14.7403L18.6359 13.7266Z" fill="url(#paint4_linear_3091_34581)"/>
</g>
<g filter="url(#filter3_d_3091_34581)">
<path d="M10.8175 31.3166C10.366 30.5346 10.6339 29.5346 11.4159 29.0831L36.1248 14.8175C36.9068 14.366 37.9067 14.6339 38.3582 15.4159L47.1198 30.5915C47.5713 31.3735 47.3033 32.3734 46.5213 32.8249L21.8125 47.0905C21.0305 47.542 20.0306 47.2741 19.5791 46.4921L10.8175 31.3166Z" fill="url(#paint5_linear_3091_34581)"/>
</g>
<g filter="url(#filter4_ii_3091_34581)">
<path d="M10.8175 31.3166C10.366 30.5346 10.6339 29.5346 11.4159 29.0831L36.1248 14.8175C36.9068 14.366 37.9067 14.6339 38.3582 15.4159L47.1198 30.5915C47.5713 31.3735 47.3033 32.3734 46.5213 32.8249L21.8125 47.0905C21.0305 47.542 20.0306 47.2741 19.5791 46.4921L10.8175 31.3166Z" fill="url(#paint6_linear_3091_34581)"/>
</g>
<path d="M10.8175 31.3166C10.366 30.5346 10.6339 29.5346 11.4159 29.0831L36.1248 14.8175C36.9068 14.366 37.9067 14.6339 38.3582 15.4159L47.1198 30.5915C47.5713 31.3735 47.3033 32.3734 46.5213 32.8249L21.8125 47.0905C21.0305 47.542 20.0306 47.2741 19.5791 46.4921L10.8175 31.3166Z" fill="url(#paint7_linear_3091_34581)"/>
<g filter="url(#filter5_i_3091_34581)">
<path fill-rule="evenodd" clip-rule="evenodd" d="M31.973 35.1227C34.8577 33.4572 35.846 29.7686 34.1806 26.884C32.5151 23.9993 28.8265 23.011 25.9419 24.6764C23.0572 26.3419 22.0689 30.0305 23.7343 32.9151C25.3998 35.7998 29.0884 36.7881 31.973 35.1227ZM30.8526 26.5782C30.8992 26.2663 30.6841 25.9756 30.3722 25.929C30.0602 25.8824 29.7696 26.0974 29.7229 26.4094L28.9459 31.6082L26.8641 31.259C26.5531 31.2068 26.2586 31.4167 26.2064 31.7277C26.1543 32.0388 26.3641 32.3332 26.6752 32.3854L29.3303 32.8308C29.4814 32.8562 29.6364 32.8197 29.7604 32.7297C29.8844 32.6396 29.967 32.5036 29.9896 32.352L30.8526 26.5782Z" fill="url(#paint8_linear_3091_34581)"/>
</g>
<path fill-rule="evenodd" clip-rule="evenodd" d="M30.8528 26.5781C30.8995 26.2662 30.6844 25.9755 30.3724 25.9289C30.0605 25.8823 29.7698 26.0973 29.7232 26.4093L28.9462 31.6081L26.8644 31.2589C26.5533 31.2067 26.2589 31.4166 26.2067 31.7276C26.1545 32.0387 26.3644 32.3331 26.6754 32.3853L29.3306 32.8307C29.4817 32.8561 29.6366 32.8196 29.7606 32.7296C29.8846 32.6396 29.9672 32.5035 29.9899 32.3519L30.8528 26.5781Z" fill="url(#paint9_linear_3091_34581)"/>
<defs>
<filter id="filter0_d_3091_34581" x="0.336106" y="2.08825" width="33.9771" height="26.6127" filterUnits="userSpaceOnUse" color-interpolation-filters="sRGB">
<feFlood flood-opacity="0" result="BackgroundImageFix"/>
<feColorMatrix in="SourceAlpha" type="matrix" values="0 0 0 0 0 0 0 0 0 0 0 0 0 0 0 0 0 0 127 0" result="hardAlpha"/>
<feOffset dx="0.246998"/>
<feGaussianBlur stdDeviation="0.129518"/>
<feColorMatrix type="matrix" values="0 0 0 0 0 0 0 0 0 0 0 0 0 0 0 0 0 0 0.1 0"/>
<feBlend mode="normal" in2="BackgroundImageFix" result="effect1_dropShadow_3091_34581"/>
<feBlend mode="normal" in="SourceGraphic" in2="effect1_dropShadow_3091_34581" result="shape"/>
</filter>
<filter id="filter1_ii_3091_34581" x="0.101147" y="2.34729" width="33.953" height="26.0946" filterUnits="userSpaceOnUse" color-interpolation-filters="sRGB">
<feFlood flood-opacity="0" result="BackgroundImageFix"/>
<feBlend mode="normal" in="SourceGraphic" in2="BackgroundImageFix" result="shape"/>
<feColorMatrix in="SourceAlpha" type="matrix" values="0 0 0 0 0 0 0 0 0 0 0 0 0 0 0 0 0 0 127 0" result="hardAlpha"/>
<feOffset dx="-0.246998"/>
<feGaussianBlur stdDeviation="0.194277"/>
<feComposite in2="hardAlpha" operator="arithmetic" k2="-1" k3="1"/>
<feColorMatrix type="matrix" values="0 0 0 0 1 0 0 0 0 1 0 0 0 0 1 0 0 0 0.6 0"/>
<feBlend mode="normal" in2="shape" result="effect1_innerShadow_3091_34581"/>
<feColorMatrix in="SourceAlpha" type="matrix" values="0 0 0 0 0 0 0 0 0 0 0 0 0 0 0 0 0 0 127 0" result="hardAlpha"/>
<feOffset dx="0.246998"/>
<feGaussianBlur stdDeviation="0.129518"/>
<feComposite in2="hardAlpha" operator="arithmetic" k2="-1" k3="1"/>
<feColorMatrix type="matrix" values="0 0 0 0 0 0 0 0 0 0 0 0 0 0 0 0 0 0 0.1 0"/>
<feBlend mode="normal" in2="effect1_innerShadow_3091_34581" result="effect2_innerShadow_3091_34581"/>
</filter>
<filter id="filter2_i_3091_34581" x="11.0606" y="9.92383" width="11.5385" height="11.4148" filterUnits="userSpaceOnUse" color-interpolation-filters="sRGB">
<feFlood flood-opacity="0" result="BackgroundImageFix"/>
<feBlend mode="normal" in="SourceGraphic" in2="BackgroundImageFix" result="shape"/>
<feColorMatrix in="SourceAlpha" type="matrix" values="0 0 0 0 0 0 0 0 0 0 0 0 0 0 0 0 0 0 127 0" result="hardAlpha"/>
<feOffset dx="-0.123499"/>
<feGaussianBlur stdDeviation="0.123499"/>
<feComposite in2="hardAlpha" operator="arithmetic" k2="-1" k3="1"/>
<feColorMatrix type="matrix" values="0 0 0 0 0 0 0 0 0 0 0 0 0 0 0 0 0 0 0.1 0"/>
<feBlend mode="normal" in2="shape" result="effect1_innerShadow_3091_34581"/>
</filter>
<filter id="filter3_d_3091_34581" x="10.5861" y="14.3391" width="37.2588" height="33.2297" filterUnits="userSpaceOnUse" color-interpolation-filters="sRGB">
<feFlood flood-opacity="0" result="BackgroundImageFix"/>
<feColorMatrix in="SourceAlpha" type="matrix" values="0 0 0 0 0 0 0 0 0 0 0 0 0 0 0 0 0 0 127 0" result="hardAlpha"/>
<feOffset dx="0.246998"/>
<feGaussianBlur stdDeviation="0.129518"/>
<feColorMatrix type="matrix" values="0 0 0 0 0 0 0 0 0 0 0 0 0 0 0 0 0 0 0.1 0"/>
<feBlend mode="normal" in2="BackgroundImageFix" result="effect1_dropShadow_3091_34581"/>
<feBlend mode="normal" in="SourceGraphic" in2="effect1_dropShadow_3091_34581" result="shape"/>
</filter>
<filter id="filter4_ii_3091_34581" x="10.3511" y="14.5981" width="37.2347" height="32.7117" filterUnits="userSpaceOnUse" color-interpolation-filters="sRGB">
<feFlood flood-opacity="0" result="BackgroundImageFix"/>
<feBlend mode="normal" in="SourceGraphic" in2="BackgroundImageFix" result="shape"/>
<feColorMatrix in="SourceAlpha" type="matrix" values="0 0 0 0 0 0 0 0 0 0 0 0 0 0 0 0 0 0 127 0" result="hardAlpha"/>
<feOffset dx="-0.246998"/>
<feGaussianBlur stdDeviation="0.194277"/>
<feComposite in2="hardAlpha" operator="arithmetic" k2="-1" k3="1"/>
<feColorMatrix type="matrix" values="0 0 0 0 1 0 0 0 0 1 0 0 0 0 1 0 0 0 0.6 0"/>
<feBlend mode="normal" in2="shape" result="effect1_innerShadow_3091_34581"/>
<feColorMatrix in="SourceAlpha" type="matrix" values="0 0 0 0 0 0 0 0 0 0 0 0 0 0 0 0 0 0 127 0" result="hardAlpha"/>
<feOffset dx="0.246998"/>
<feGaussianBlur stdDeviation="0.129518"/>
<feComposite in2="hardAlpha" operator="arithmetic" k2="-1" k3="1"/>
<feColorMatrix type="matrix" values="0 0 0 0 0 0 0 0 0 0 0 0 0 0 0 0 0 0 0.1 0"/>
<feBlend mode="normal" in2="effect1_innerShadow_3091_34581" result="effect2_innerShadow_3091_34581"/>
</filter>
<filter id="filter5_i_3091_34581" x="22.8018" y="23.8674" width="12.188" height="12.0643" filterUnits="userSpaceOnUse" color-interpolation-filters="sRGB">
<feFlood flood-opacity="0" result="BackgroundImageFix"/>
<feBlend mode="normal" in="SourceGraphic" in2="BackgroundImageFix" result="shape"/>
<feColorMatrix in="SourceAlpha" type="matrix" values="0 0 0 0 0 0 0 0 0 0 0 0 0 0 0 0 0 0 127 0" result="hardAlpha"/>
<feOffset dx="-0.123499"/>
<feGaussianBlur stdDeviation="0.123499"/>
<feComposite in2="hardAlpha" operator="arithmetic" k2="-1" k3="1"/>
<feColorMatrix type="matrix" values="0 0 0 0 0 0 0 0 0 0 0 0 0 0 0 0 0 0 0.1 0"/>
<feBlend mode="normal" in2="shape" result="effect1_innerShadow_3091_34581"/>
</filter>
<linearGradient id="paint0_linear_3091_34581" x1="19.8503" y1="5.04608" x2="14.5317" y2="24.8956" gradientUnits="userSpaceOnUse">
<stop stop-color="white"/>
<stop offset="1" stop-color="#EDEFF1"/>
</linearGradient>
<linearGradient id="paint1_linear_3091_34581" x1="19.8816" y1="4.9295" x2="14.5317" y2="24.8956" gradientUnits="userSpaceOnUse">
<stop stop-color="#FCC538"/>
<stop offset="1" stop-color="#FF8D00"/>
</linearGradient>
<linearGradient id="paint2_linear_3091_34581" x1="33.5" y1="31" x2="7.33713" y2="-0.445445" gradientUnits="userSpaceOnUse">
<stop offset="0.233847" stop-opacity="0.37"/>
<stop offset="0.447166" stop-opacity="0.1"/>
<stop offset="1" stop-color="white" stop-opacity="0"/>
</linearGradient>
<linearGradient id="paint3_linear_3091_34581" x1="19.6252" y1="15.2613" x2="18.1558" y2="20.7451" gradientUnits="userSpaceOnUse">
<stop stop-color="#FCC538"/>
<stop offset="1" stop-color="#FF8D00"/>
</linearGradient>
<linearGradient id="paint4_linear_3091_34581" x1="18.3946" y1="9.6007" x2="15.5116" y2="21.1679" gradientUnits="userSpaceOnUse">
<stop stop-color="white"/>
<stop offset="1" stop-color="#EDEFF1"/>
</linearGradient>
<linearGradient id="paint5_linear_3091_34581" x1="23.3067" y1="21.1472" x2="34.1669" y2="39.9577" gradientUnits="userSpaceOnUse">
<stop stop-color="white"/>
<stop offset="1" stop-color="#EDEFF1"/>
</linearGradient>
<linearGradient id="paint6_linear_3091_34581" x1="23.7703" y1="21.9503" x2="34.1669" y2="39.9577" gradientUnits="userSpaceOnUse">
<stop stop-color="#9373FF"/>
<stop offset="1" stop-color="#5A3FFF"/>
</linearGradient>
<linearGradient id="paint7_linear_3091_34581" x1="17.7543" y1="48.4636" x2="38.4325" y2="14.8615" gradientUnits="userSpaceOnUse">
<stop offset="0.204231" stop-opacity="0.2"/>
<stop offset="0.384615" stop-opacity="0.1"/>
<stop offset="1" stop-color="white" stop-opacity="0"/>
</linearGradient>
<linearGradient id="paint8_linear_3091_34581" x1="25.6729" y1="24.2106" x2="31.973" y2="35.1227" gradientUnits="userSpaceOnUse">
<stop stop-color="white"/>
<stop offset="1" stop-color="#EDEFF1"/>
</linearGradient>
<linearGradient id="paint9_linear_3091_34581" x1="27.5295" y1="27.4268" x2="30.385" y2="32.3727" gradientUnits="userSpaceOnUse">
<stop stop-color="#9373FF"/>
<stop offset="1" stop-color="#5A3FFF"/>
</linearGradient>
</defs>
</svg>
