<svg width="25" height="25" viewBox="0 0 25 25" fill="none" xmlns="http://www.w3.org/2000/svg">
<path d="M3.125 16.5625L12.5 22.1875C10.7176 22.7494 8.43289 22.5462 6.68345 21.5577C4.93124 20.5677 3.51721 18.3574 3.125 16.5625Z" fill="#13E5BF" fill-opacity="0.2"/>
<path d="M21.875 16.5625L12.5 21.875C14.52 22.5354 17.1094 22.2898 19.0921 21.1281C21.0779 19.9647 21.4305 18.6718 21.875 16.5625Z" fill="#13E5BF" fill-opacity="0.2"/>
<circle cx="12.5" cy="8.75" r="5.625" fill="#13E5BF" fill-opacity="0.2"/>
<path fill-rule="evenodd" clip-rule="evenodd" d="M12.4999 15.625C16.2968 15.625 19.3749 12.547 19.3749 8.75C19.3749 4.95304 16.2968 1.875 12.4999 1.875C8.70293 1.875 5.62489 4.95304 5.62489 8.75C5.62489 12.547 8.70293 15.625 12.4999 15.625ZM12.4999 16.25C16.642 16.25 19.9999 12.8921 19.9999 8.75C19.9999 4.60786 16.642 1.25 12.4999 1.25C8.35775 1.25 4.99989 4.60786 4.99989 8.75C4.99989 12.8921 8.35775 16.25 12.4999 16.25Z" fill="url(#paint0_linear_7814_543342)"/>
<path fill-rule="evenodd" clip-rule="evenodd" d="M21.5065 16.8015C21.0697 18.6199 20.1001 20.3082 18.3985 21.291C16.6855 22.2804 14.6555 22.404 12.8702 21.8913C13.3238 20.1218 14.5275 18.5779 16.2566 17.5793C17.9876 16.5795 19.7659 16.3104 21.5065 16.8015ZM21.9724 16.2904C19.9573 15.6287 17.9003 15.9081 15.944 17.0381C13.9855 18.1693 12.6283 19.966 12.194 22.0402C12.1614 22.196 12.2511 22.3515 12.4024 22.4011C14.3952 23.0555 16.7347 22.9737 18.7111 21.8322C20.7001 20.6833 21.7545 18.6872 22.1808 16.6513L22.2381 16.3776L21.9724 16.2904Z" fill="url(#paint1_linear_7814_543342)"/>
<path fill-rule="evenodd" clip-rule="evenodd" d="M3.49327 16.8015C3.93009 18.6199 4.89969 20.3082 6.60132 21.291C8.31427 22.2804 10.3443 22.404 12.1296 21.8913C11.676 20.1218 10.4722 18.5779 8.74319 17.5793C7.01216 16.5795 5.23387 16.3104 3.49327 16.8015ZM3.0274 16.2904C5.04246 15.6287 7.09951 15.9081 9.05579 17.0381C11.0143 18.1693 12.3715 19.966 12.8058 22.0402C12.8384 22.196 12.7486 22.3515 12.5974 22.4011C10.6046 23.0555 8.26508 22.9737 6.28872 21.8322C4.29966 20.6833 3.24525 18.6872 2.81902 16.6513L2.76172 16.3776L3.0274 16.2904Z" fill="url(#paint2_linear_7814_543342)"/>
<path fill-rule="evenodd" clip-rule="evenodd" d="M12.1874 24.6875V16.25H12.8124V24.6875C12.8124 24.8601 12.6725 25 12.4999 25C12.3273 25 12.1874 24.8601 12.1874 24.6875Z" fill="url(#paint3_linear_7814_543342)"/>
<path d="M12.9218 12.5937H12.2655V11.7781C11.2436 11.6562 10.6249 10.9531 10.6249 10.0156H11.3749C11.3749 10.7187 11.7968 11.1406 12.5936 11.1406C13.3905 11.1406 13.8124 10.7187 13.8124 10.2031C13.8124 8.75 10.6718 9.5 10.6718 7.39062C10.6718 6.67812 11.3093 5.95625 12.2655 5.825V5H12.9218V5.825C13.6153 5.94562 14.1634 6.44207 14.3515 7.08526L13.6718 7.57812C13.6718 6.92187 13.203 6.45312 12.5936 6.45312C11.8905 6.45312 11.4218 6.92187 11.4218 7.39062C11.4218 8.84375 14.5624 8.09375 14.5624 10.2031C14.5624 10.9719 13.9436 11.6562 12.9218 11.7781V12.5937Z" fill="url(#paint4_linear_7814_543342)"/>
<defs>
<linearGradient id="paint0_linear_7814_543342" x1="25.025" y1="13.125" x2="2.76172" y2="13.125" gradientUnits="userSpaceOnUse">
<stop stop-color="#13E5BF"/>
<stop offset="1" stop-color="#01C38D"/>
</linearGradient>
<linearGradient id="paint1_linear_7814_543342" x1="25.025" y1="13.125" x2="2.76172" y2="13.125" gradientUnits="userSpaceOnUse">
<stop stop-color="#13E5BF"/>
<stop offset="1" stop-color="#01C38D"/>
</linearGradient>
<linearGradient id="paint2_linear_7814_543342" x1="25.025" y1="13.125" x2="2.76172" y2="13.125" gradientUnits="userSpaceOnUse">
<stop stop-color="#13E5BF"/>
<stop offset="1" stop-color="#01C38D"/>
</linearGradient>
<linearGradient id="paint3_linear_7814_543342" x1="25.025" y1="13.125" x2="2.76172" y2="13.125" gradientUnits="userSpaceOnUse">
<stop stop-color="#13E5BF"/>
<stop offset="1" stop-color="#01C38D"/>
</linearGradient>
<linearGradient id="paint4_linear_7814_543342" x1="25.025" y1="13.125" x2="2.76172" y2="13.125" gradientUnits="userSpaceOnUse">
<stop stop-color="#13E5BF"/>
<stop offset="1" stop-color="#01C38D"/>
</linearGradient>
</defs>
</svg>
