<svg width="48" height="48" viewBox="0 0 48 48" fill="none" xmlns="http://www.w3.org/2000/svg">
<path d="M20.5901 7.29187L5.5694 18.1909C3.53762 19.6713 2.69588 22.2981 3.46505 24.6927L9.1976 42.3402C9.98129 44.7348 12.2018 46.3458 14.7125 46.3458H33.2598C35.7705 46.3458 38.0055 44.7204 38.7746 42.3402L44.5071 24.6927C45.2909 22.2981 44.4347 19.6858 42.4028 18.2055L27.4112 7.29187C25.3793 5.81156 22.622 5.81156 20.5901 7.29187Z" fill="black" fill-opacity="0.1"/>
<path d="M5.34858 14.8877L5.34916 14.8873L20.3693 3.98859C22.5327 2.41244 25.4685 2.41241 27.6318 3.98852C27.6318 3.98855 27.632 3.98858 27.632 3.98859L42.6236 14.9021L42.6237 14.9022C44.7855 16.4774 45.6981 19.2582 44.8638 21.8084L5.34858 14.8877ZM5.34858 14.8877C3.18451 16.4643 2.28992 19.2603 3.10802 21.8072L3.10839 21.8084L8.84094 39.4559L8.8412 39.4568C9.67518 42.005 12.0391 43.7207 14.7124 43.7207H33.2598C35.9327 43.7207 38.3121 41.9907 39.1314 39.4554L44.8635 21.8091L5.34858 14.8877Z" stroke="url(#paint0_linear_8528_373820)" stroke-width="0.5"/>
<path d="M23.5506 36.9899L17.1795 34.9145C17.0345 34.871 16.9038 34.7984 16.7732 34.7114L11.3164 42.2289C12.2888 42.9255 13.4643 43.3319 14.7269 43.3319H24.0006V37.0479C23.8554 37.0479 23.6958 37.0188 23.5506 36.9753V36.9899Z" fill="#6558FF"/>
<path d="M11.3013 42.2286L16.7581 34.7109C16.642 34.6239 16.5259 34.5078 16.4387 34.3917L12.5058 28.9638C12.4187 28.8333 12.3462 28.7026 12.3026 28.5574L6.33789 30.5022L9.21143 39.3259C9.60327 40.516 10.3579 41.5174 11.3158 42.2286H11.3013Z" fill="url(#paint1_linear_8528_373820)"/>
<path d="M3.46387 18.0929L12.3022 20.9664C12.3457 20.8214 12.4183 20.6907 12.5053 20.5601L16.4383 15.1323C16.5253 15.0017 16.6414 14.9001 16.7575 14.813L13.0713 9.73352L5.56822 15.1904C4.55233 15.9305 3.82669 16.961 3.46387 18.0929Z" fill="url(#paint2_linear_8528_373820)"/>
<path d="M24 12.4766C24.1452 12.4766 24.3048 12.5056 24.4499 12.5492L30.821 14.6245C30.9662 14.668 31.0968 14.7406 31.2273 14.8277L34.9135 9.7482L27.4106 4.29138C26.3946 3.55124 25.1901 3.18842 24 3.18842V12.4766Z" fill="#B2ABFF"/>
<path d="M17.1785 14.6104L23.5496 12.5351C23.6948 12.4915 23.8399 12.4625 23.9996 12.4625V3.17432C22.795 3.17432 21.605 3.53714 20.5891 4.2773L13.0859 9.7341L16.7722 14.8136C16.8883 14.7265 17.0335 14.6539 17.1785 14.6104Z" fill="#8B82FF"/>
<path d="M12.23 28.1223V21.4173C12.23 21.2577 12.259 21.1127 12.3025 20.9675L3.46425 18.0939C3.08691 19.226 3.07241 20.4885 3.46425 21.6786L6.33779 30.5024L12.3025 28.5576C12.259 28.4126 12.23 28.2674 12.23 28.1078V28.1223Z" fill="url(#paint3_linear_8528_373820)"/>
<path d="M44.5356 18.0939L35.6973 20.9675C35.7409 21.1127 35.7699 21.2577 35.7699 21.4173V28.1223C35.7699 28.2819 35.7409 28.4271 35.6973 28.5722L41.662 30.5169L44.5356 21.6932C44.9275 20.5031 44.913 19.2405 44.5356 18.1085V18.0939Z" fill="url(#paint4_linear_8528_373820)"/>
<path d="M31.2273 34.7114C31.1112 34.7984 30.9662 34.871 30.821 34.9145L24.4499 36.9899C24.3048 37.0334 24.1596 37.0623 24 37.0623V43.3464H33.2736C34.5363 43.3464 35.7119 42.9401 36.6842 42.2435L31.2273 34.7258V34.7114Z" fill="#8B82FF"/>
<path d="M35.4797 28.9782L31.5467 34.4059C31.4597 34.5366 31.3436 34.6381 31.2275 34.7251L36.6842 42.2428C37.6567 41.5462 38.4113 40.5303 38.7886 39.3402L41.6621 30.5164L35.6974 28.5718C35.6539 28.7169 35.5813 28.8475 35.4943 28.9782H35.4797Z" fill="#B2ABFF"/>
<path d="M31.5467 15.1479L35.4797 20.5756C35.5667 20.7063 35.6393 20.8368 35.6828 20.982L44.5211 18.1084C44.1584 16.9764 43.4327 15.946 42.4168 15.2059L34.9138 9.74908L31.2275 14.8286C31.3436 14.9156 31.4597 15.0318 31.5467 15.1479Z" fill="#D8D5FF"/>
<path d="M12.6945 29.7768L6.33789 30.5025L11.9108 27.3533C13.7539 26.4245 14.7263 29.4285 12.6945 29.7624V29.7768Z" fill="white" fill-opacity="0.4"/>
<path d="M15.7418 15.5691L13.0859 9.74945L17.8027 14.0888C19.2539 15.5546 16.6852 17.4122 15.7418 15.5837V15.5691Z" fill="white" fill-opacity="0.4"/>
<path d="M30.1966 14.0723L34.9133 9.73297L32.2574 15.5526C31.3141 17.3812 28.7599 15.5235 30.1966 14.0578V14.0723Z" fill="white" fill-opacity="0.4"/>
<path d="M22.7227 12.477L23.9999 3.17432L25.277 12.4625C25.4656 14.3637 22.5485 14.3782 22.7372 12.4625L22.7227 12.477Z" fill="white" fill-opacity="0.4"/>
<path d="M11.9103 22.1721L3.46387 18.0939L12.694 19.763C14.5661 20.1693 13.6664 22.9412 11.9103 22.1721Z" fill="white" fill-opacity="0.4"/>
<path d="M36.0895 27.3675L41.6624 30.5168L35.3059 29.7911C33.2741 29.4573 34.2464 26.4531 36.0895 27.3819V27.3675Z" fill="white" fill-opacity="0.4"/>
<path d="M25.2625 37.0613L23.9854 43.3454L22.7083 37.0613C22.4035 35.0295 25.5528 35.0295 25.248 37.0613H25.2625Z" fill="white" fill-opacity="0.4"/>
<path d="M17.8037 35.4664L11.3164 42.2439L15.7574 33.9862C16.7297 32.3317 19.0808 34.0443 17.8181 35.481L17.8037 35.4664Z" fill="white" fill-opacity="0.4"/>
<path d="M32.2577 33.9704L36.6986 42.2282L30.2114 35.4506C28.9343 34.0139 31.2998 32.3013 32.2722 33.9558L32.2577 33.9704Z" fill="white" fill-opacity="0.4"/>
<path d="M35.3058 19.763L44.536 18.0939L36.0895 22.1721C34.3335 22.9412 33.4336 20.1693 35.3058 19.763Z" fill="white" fill-opacity="0.4"/>
<path d="M31.2407 15.349L31.2434 15.3528L35.175 20.7786C35.3058 20.9647 35.3808 21.1938 35.3808 21.4168V28.1218C35.3808 28.3447 35.3058 28.5738 35.175 28.7599L31.2434 34.1857L31.2407 34.1895C31.1214 34.3587 30.9327 34.4913 30.7013 34.573L24.3342 36.6471V36.6469L24.3264 36.6496C24.1164 36.7231 23.8845 36.7231 23.6744 36.6496H23.6745L23.6667 36.6471L17.2956 34.5717V34.5715L17.2872 34.5691C17.0775 34.5061 16.8861 34.368 16.7601 34.1895L16.7574 34.1857L12.8259 28.7599C12.6951 28.5738 12.6201 28.3447 12.6201 28.1218V21.4168C12.6201 21.1938 12.6951 20.9647 12.826 20.7786L16.7574 15.3529L16.7601 15.349C16.8795 15.18 17.0682 15.0472 17.2997 14.9656L23.6667 12.8916V12.8917L23.6744 12.889C23.8845 12.8155 24.1164 12.8155 24.3264 12.889V12.8891L24.3342 12.8916L30.7053 14.9669V14.967L30.7137 14.9696C30.9233 15.0324 31.1148 15.1705 31.2407 15.349Z" fill="#D8D5FF" stroke="white" stroke-width="0.5"/>
<defs>
<linearGradient id="paint0_linear_8528_373820" x1="9.80353" y1="3.18146" x2="46.9914" y2="14.795" gradientUnits="userSpaceOnUse">
<stop stop-color="white"/>
<stop offset="1" stop-color="white" stop-opacity="0.4"/>
</linearGradient>
<linearGradient id="paint1_linear_8528_373820" x1="6.33789" y1="35.3929" x2="16.7695" y2="35.3929" gradientUnits="userSpaceOnUse">
<stop stop-color="#9601FF"/>
<stop offset="1" stop-color="#3E2EFF"/>
</linearGradient>
<linearGradient id="paint2_linear_8528_373820" x1="3.46387" y1="15.35" x2="16.7721" y2="15.35" gradientUnits="userSpaceOnUse">
<stop stop-color="#9601FF"/>
<stop offset="1" stop-color="#3E2EFF"/>
</linearGradient>
<linearGradient id="paint3_linear_8528_373820" x1="3.174" y1="24.3054" x2="12.3025" y2="24.3054" gradientUnits="userSpaceOnUse">
<stop stop-color="#3E2EFF"/>
<stop offset="1" stop-color="#9601FF"/>
</linearGradient>
<linearGradient id="paint4_linear_8528_373820" x1="35.6973" y1="24.3054" x2="44.8114" y2="24.3054" gradientUnits="userSpaceOnUse">
<stop stop-color="#D8D5FF"/>
<stop offset="1" stop-color="white"/>
</linearGradient>
</defs>
</svg>
