<svg width="134" height="40" viewBox="0 0 134 40" fill="none" xmlns="http://www.w3.org/2000/svg">
    <path d="M27.105 28.865h-.618V26.86l.786.06c.432.034.94.126 1.128.205.189.078.392.233.45.343.059.11.107.328.107.485 0 .17-.09.369-.222.49-.123.114-.4.255-.618.314-.217.06-.673.108-1.013.108zM26.702 26.198c-.205 0-.215-.042-.215-.949V24.3l.618.066c.34.037.763.111.94.166.177.055.366.183.42.283.054.101.098.32.098.486a.79.79 0 0 1-.186.489c-.107.107-.454.232-.823.296a7.74 7.74 0 0 1-.852.112z" fill="#8F96A1"/>
    <path fill-rule="evenodd" clip-rule="evenodd" d="M26.932 32.613c-.633-.004-1.201-.068-1.581-.179A7.518 7.518 0 0 1 24.247 32a7.407 7.407 0 0 1-1.093-.747 6.845 6.845 0 0 1-1.048-1.166 7.488 7.488 0 0 1-.728-1.42c-.198-.554-.274-.987-.305-1.733-.03-.709.004-1.177.117-1.63.088-.35.313-.949.499-1.33.186-.38.587-.967.891-1.304.305-.336.83-.792 1.168-1.014.338-.222.97-.52 1.405-.66.608-.198 1.008-.26 1.73-.268.516-.006 1.183.049 1.482.122.299.073.877.289 1.285.48.577.272.916.526 1.533 1.15.539.547.892 1.01 1.107 1.449.174.355.385.91.469 1.231.085.327.152.996.152 1.515 0 .526-.068 1.191-.156 1.535a7.5 7.5 0 0 1-.518 1.3c-.227.436-.618.95-1.058 1.392-.493.495-.915.808-1.435 1.065-.405.2-.981.43-1.28.509-.315.083-.96.142-1.532.138zm-.445-1.375v-1.384h.79v1.384h.693v-1.375l.37-.059c.204-.032.571-.104.816-.16.244-.056.589-.211.766-.346.176-.134.392-.383.48-.551.089-.173.16-.558.164-.878.003-.38-.051-.657-.165-.83a1.807 1.807 0 0 0-.485-.45 3.555 3.555 0 0 0-.414-.226c-.055-.019.045-.198.222-.4.177-.2.328-.464.336-.584.008-.12.004-.352-.01-.514a1.803 1.803 0 0 0-.164-.567 1.263 1.263 0 0 0-.46-.44c-.176-.094-.564-.22-.863-.282l-.544-.111-.058-1.32h-.683v1.285h-.79v-1.285h-.791v1.384h-1.68v.395c0 .395 0 .396.388.396.221 0 .455.067.543.155.131.131.156.469.156 2.154 0 1.424-.034 2.034-.119 2.118-.065.066-.282.119-.482.119-.327 0-.369.03-.425.309-.034.17-.061.392-.061.494 0 .166.084.185.84.185h.84v1.384h.79z" fill="#8F96A1"/>
    <path d="M13.853 30.348c-6.702 0-7.607-.017-7.801-.153-.183-.129-.22-.248-.22-.712 0-.307.069-1.405.153-2.44.084-1.036.2-2.028.255-2.206.056-.177.243-.427.415-.557.182-.135 1.424-.593 2.947-1.086 2.352-.76 2.699-.9 3.236-1.303.33-.249.68-.437.776-.419.136.026.188.174.241.675a9.52 9.52 0 0 0 .313 1.446c.135.443.363 1.131.507 1.529.143.398.416 1.076.606 1.508.19.432.528 1.1.752 1.486.224.385.515.844.648 1.02l.241.32.388-.6c.213-.33.59-1.003.838-1.496.248-.493.626-1.346.84-1.894.214-.549.506-1.42.648-1.937.142-.516.285-1.183.318-1.482.05-.447.095-.548.258-.567.11-.012.513.21.91.502l.713.524-.256.376c-.14.207-.402.694-.582 1.082a8.41 8.41 0 0 0-.494 1.538c-.116.574-.15 1.05-.109 1.53a9.2 9.2 0 0 0 .212 1.274c.083.317.304.907.49 1.31l.338.732h-7.581z" fill="#8F96A1"/>
    <path d="M16.913 28.668c-.05 0-.203-.189-.338-.42a18.62 18.62 0 0 1-.652-1.322c-.223-.497-.406-1.008-.407-1.137 0-.129.14-.642.31-1.142l.312-.908-.254-.302c-.14-.166-.284-.397-.32-.512-.045-.138 0-.3.128-.47.16-.214.264-.255.579-.234.21.014.494.028.63.03.136.002.407-.025.603-.06.31-.055.384-.028.569.206.116.148.212.321.212.385s-.112.267-.247.45c-.136.185-.248.461-.248.615 0 .153.112.553.248.887.135.335.247.773.247.974 0 .25-.202.774-.64 1.663-.352.713-.682 1.297-.732 1.297z" fill="#8F96A1"/>
    <path fill-rule="evenodd" clip-rule="evenodd" d="M16.858 21.547a4.68 4.68 0 0 1-1.152-.182 4.582 4.582 0 0 1-1-.485 6.105 6.105 0 0 1-.88-.79 6.24 6.24 0 0 1-.703-.975 5.193 5.193 0 0 1-.406-1.083c-.095-.405-.23-.681-.44-.89a1.842 1.842 0 0 1-.406-.691 12.704 12.704 0 0 1-.214-1.173c-.06-.431-.079-.985-.042-1.231.037-.246.124-.56.194-.696.078-.15.146-.775.173-1.583.036-1.071.088-1.446.267-1.905.121-.315.363-.76.537-.988.174-.23.53-.561.792-.738a5.416 5.416 0 0 1 1.134-.531c.451-.145 1.013-.226 1.794-.258.865-.036 1.29-.008 1.779.119.353.09.83.274 1.059.407.229.133.54.408.69.61.15.203.548.636.885.962.491.476.642.699.767 1.13.092.316.156.91.156 1.445 0 .585.056 1.063.158 1.341.087.238.156.688.154 1-.002.311-.057.934-.121 1.383-.065.45-.178.936-.252 1.083a1.3 1.3 0 0 1-.335.405c-.119.083-.26.377-.35.723-.082.32-.266.814-.408 1.098a5.98 5.98 0 0 1-.738 1.054c-.265.296-.699.673-.965.837a5.07 5.07 0 0 1-1.006.453 4.597 4.597 0 0 1-1.12.15zm.28-1.142c.267-.027.623-.12.791-.206.169-.086.495-.29.725-.455.23-.165.575-.525.765-.802.216-.315.404-.76.505-1.194.087-.38.204-.813.259-.96.055-.148.188-.297.295-.331.108-.035.255-.203.326-.374.07-.172.157-.69.192-1.152.037-.49.024-.9-.032-.982-.077-.116-.123-.119-.247-.016a.796.796 0 0 0-.212.315c-.033.104-.101.189-.152.189-.051 0-.092-.5-.092-1.14 0-.78-.046-1.25-.145-1.488a3.19 3.19 0 0 0-.355-.615 1.782 1.782 0 0 0-.422-.386 1.27 1.27 0 0 0-.511-.123c-.163-.002-.578.13-.923.293-.417.197-.78.296-1.087.296-.306 0-.67-.099-1.087-.296-.345-.163-.763-.297-.93-.297-.169 0-.443.107-.62.242-.173.133-.389.395-.478.583-.125.263-.162.641-.162 1.636 0 .712-.035 1.295-.077 1.295-.042 0-.16-.157-.264-.35-.16-.298-.209-.33-.326-.212-.114.114-.118.308-.026 1.147.061.555.131 1.062.156 1.126.025.065.176.192.335.282.213.122.305.265.352.544.035.208.13.623.21.922.08.299.303.774.494 1.057.192.282.49.62.661.751.172.131.469.319.659.418.19.098.48.213.642.256.163.042.515.054.782.027zM28.46 18.814h-2.516v-.655c0-.36.094-.655.208-.655.127 0 .209-.983.209-2.51 0-1.53-.082-2.512-.209-2.512-.114 0-.208-.295-.208-.655v-.655h2.307c2.272 0 2.316.01 2.916.638.414.435.608.857.608 1.325 0 .377-.098.879-.218 1.114-.172.336-.127.552.208.998.267.355.427.893.427 1.43 0 .66-.142 1.01-.609 1.499-.605.635-.621.638-3.124.638zm.489-1.528c.393 0 .861-.155 1.041-.343.18-.19.328-.428.328-.53 0-.104-.148-.342-.328-.53-.18-.19-.648-.344-1.041-.344-.694 0-.714.024-.714.873 0 .85.02.874.714.874zm.022-3.275c.464 0 .78-.122.856-.33.066-.182.006-.477-.136-.656-.142-.178-.527-.325-.857-.325-.527 0-.599.08-.599.655 0 .605.057.656.736.656z" fill="#8F96A1"/>
    <path d="M34.066 18.814v-.655c0-.436.104-.655.313-.655.259 0 .312-.412.312-2.402 0-2.387 0-2.402-.498-2.402-.274 0-.555.154-.623.342-.087.235-.337.32-.804.273-.65-.066-1.061-.167-.741-1.106l-.064-1.037h7.312v2.183h-.736c-.461 0-.78-.121-.855-.327-.066-.18-.344-.328-.618-.328-.495 0-.498.015-.498 2.402 0 1.99.053 2.402.312 2.402.208 0 .312.218.312.655v.655h-3.124z" fill="#8F96A1"/>
    <path fill-rule="evenodd" clip-rule="evenodd" d="M43.022 18.804c-.923-.007-1.596-.143-2.115-.43-.418-.232-.98-.793-1.248-1.246-.37-.626-.488-1.141-.488-2.135 0-.969.12-1.511.457-2.082.252-.425.826-.99 1.277-1.256.618-.364 1.161-.483 2.207-.483.837 0 1.632.132 2.002.333.551.299.615.299.615 0 0-.268.295-.333 1.51-.332l1.51.001.93 2.292c.512 1.26.987 2.291 1.054 2.291.024 0 .074-.134.158-.36.158-.424.435-1.17.878-1.932l.911-2.293h3.045v.655c0 .437-.104.655-.312.655-.26 0-.312.426-.312 2.526v2.525l.526-.069c.449-.059.677-.419 1.562-2.457.57-1.314 1.036-2.42 1.036-2.457 0-.037-.141-.068-.313-.068-.209 0-.312-.22-.312-.664v-.664l3.188.127 1.307 3.057c1.149 2.688 1.371 3.065 1.842 3.126l.535.07v-2.526c0-2.1-.053-2.526-.312-2.526-.208 0-.313-.218-.313-.655 0-.653.007-.655 1.218-.655h1.217l2.876 4.258.064-1.415c.038-.856-.024-1.446-.157-1.492-.12-.043-.22-.364-.22-.714v-.637h2.916v.655c0 .36-.093.655-.208.655-.127 0-.208.983-.208 2.511 0 1.963.061 2.511.281 2.511.158 0 .737-1.077 1.32-2.456.752-1.78.962-2.476.76-2.527-.154-.04-.468-.419-.279-.71v-.639h3.08l1.323 3.092c.848 1.98 1.456 3.127 1.69 3.191.24.066.363.314.363.73v.63H76.76v-.656c0-.447.102-.655.324-.655.18 0 .267-.098.196-.218-.07-.12-.873-.219-1.782-.219-.964 0-1.654.092-1.654.219 0 .12.094.218.208.218.115 0 .209.295.209.655v.655h-4.914l-3-4.452v1.571c0 .902.089 1.571.208 1.571.114 0 .208.298.208.661v.662l-2.863-.061c-2.793-.06-2.866-.073-2.93-.553-.04-.295.063-.545.258-.623.18-.073.274-.22.211-.327-.063-.108-.807-.196-1.653-.196-.845 0-1.595.099-1.666.219-.07.12-.03.218.092.218.057 0 .067.08.082.194.016.129.038.303.139.461v.655H52.81v-.637c0-.35.098-.67.22-.713.057-.02.055-.15.051-.357-.005-.267-.012-.666.104-1.13l-.063-1.412-.842 2.07c-.828 2.036-.853 2.07-1.55 2.07-.695 0-.725-.04-1.553-2.035l-.845-2.036-.063 1.377c-.038.828.024 1.407.156 1.453.12.042.22.363.22.713v.637h-1.458c-1.316 0-1.458-.042-1.458-.433 0-.179 0-.284-.048-.315-.068-.044-.232.061-.629.315-.497.318-1.036.43-2.03.424v-.001zm2.947-1.3c.352 0 .385-.216.385-2.511 0-2.086-.053-2.51-.313-2.51-.194 0-.312.205-.312.545 0 .491-.083.546-.833.546-.694 0-.833-.073-.833-.437 0-.37-.139-.437-.909-.437-.699 0-1.033.13-1.445.563-.296.31-.566.826-.602 1.146-.035.321-.03.852.01 1.179.042.327.313.843.602 1.146.383.401.748.552 1.338.552.447 0 1.028-.149 1.292-.33.438-.301.511-.292.858.11.208.24.551.438.762.438zm14.76-1.965-.303-.762c-.168-.42-.388-.918-.49-1.11-.144-.27-.28-.106-.624.763l-.44 1.109h1.857zm14.89 0h.941l-.392-.819c-.216-.45-.437-.966-.491-1.146-.061-.201-.274.084-.55.737-.247.586-.45 1.102-.45 1.146 0 .045.424.082.941.082z" fill="#8F96A1"/>
    <path d="M82.942 18.814c-1.04 0-1.484-.109-2.033-.496a5.354 5.354 0 0 1-1.177-1.234c-.366-.57-.474-1.043-.474-2.091 0-1.045.108-1.52.47-2.076.257-.397.73-.926 1.051-1.175.431-.335.977-.474 2.092-.533 1.05-.056 1.747.024 2.294.263.733.321.78.398.719 1.168-.062.781-.106.828-.846.892-.67.059-.781.005-.781-.382 0-.389-.13-.45-.953-.45-.776 0-1.066.12-1.562.639-.499.522-.61.822-.61 1.654s.111 1.132.61 1.654c.474.497.797.639 1.458.639.804 0 .849-.035.849-.655 0-.603-.058-.655-.729-.655-.712 0-.729-.021-.729-.874v-.873h3.332v3.703l-.825.441c-.572.306-1.23.441-2.156.441zM86.131 18.814v-.655c0-.437.104-.655.313-.655.26 0 .312-.425.312-2.511 0-2.086-.053-2.51-.312-2.51-.209 0-.313-.22-.313-.662v-.661l5.936.121v.983c0 .977-.006.983-.781 1.05-.596.052-.781-.013-.781-.273 0-.258-.227-.34-.937-.34-.933 0-1.298.104-.938.764v.764h2.916v1.528H88.63v.764c0 .758.008.765.916.765.62 0 .952-.106 1.034-.328.075-.205.394-.327.855-.327h.736v2.183h-6.04z" fill="#8F96A1"/>
    <path fill-rule="evenodd" clip-rule="evenodd" d="M92.38 18.814v-.655c0-.437.103-.655.311-.655.26 0 .313-.425.313-2.511 0-2.086-.053-2.51-.313-2.51-.208 0-.312-.22-.312-.656v-.655h2.301c1.585 0 2.48.097 2.875.311.316.171.687.569.823.884.137.315.25.908.25 1.319 0 .519-.193.975-.63 1.497l-.63.752.442.784c.243.432.573.785.733.785.097 0 .112.084.136.213.022.12.05.276.156.442v.655h-2.933l.047-.82c.028-.494-.103-1.06-.328-1.42-.206-.329-.457-.598-.559-.598-.1 0-.184.344-.184.764 0 .42.094.764.208.764.053 0 .061.075.073.185.014.13.033.308.136.47v.655H92.38zm3.033-4.367c.293 0 .715-.101.937-.226.221-.124.403-.4.403-.611a1.08 1.08 0 0 0-.25-.648c-.137-.144-.56-.262-.937-.262-.664 0-.688.031-.688.874 0 .792.05.873.535.873z" fill="#8F96A1"/>
    <path d="M99.546 17.58h.808v.914h-.808v-.913zM102.452 18.65c-.383 0-.726-.078-1.027-.233a1.721 1.721 0 0 1-.708-.672c-.171-.295-.257-.653-.257-1.073v-.186c0-.387.078-.73.235-1.026a1.73 1.73 0 0 1 .675-.7c.294-.17.641-.255 1.043-.255.28 0 .547.038.8.114.254.074.491.2.708.382v1.037h-.705l-.097-.595a1.14 1.14 0 0 0-.673-.208.924.924 0 0 0-.738.327c-.187.216-.279.522-.279.919v.19c0 .248.043.465.129.653.087.187.208.332.363.438a.948.948 0 0 0 .542.157c.109 0 .219-.01.332-.033.113-.024.222-.055.326-.094l.097-.57h.709v1.015c-.161.111-.366.208-.614.29a2.78 2.78 0 0 1-.861.123z" fill="#8F96A1"/>
    <path fill-rule="evenodd" clip-rule="evenodd" d="M105.389 18.497c.234.102.49.153.768.153.272 0 .524-.051.759-.152.234-.104.439-.248.614-.432.175-.185.311-.4.409-.647.098-.25.147-.52.147-.811v-.064c0-.29-.049-.558-.147-.805a1.958 1.958 0 0 0-1.026-1.079 1.864 1.864 0 0 0-.761-.155 1.836 1.836 0 0 0-1.372.587c-.17.184-.302.4-.395.647a2.268 2.268 0 0 0-.139.805v.064c0 .291.046.561.139.81.093.248.226.463.398.648.171.184.374.328.606.431zm1.477-.94a.817.817 0 0 1-.709.357c-.32 0-.557-.12-.71-.357-.154-.238-.23-.554-.23-.95v-.068c0-.391.075-.705.224-.941.152-.236.388-.354.711-.354.306 0 .545.12.714.36.17.238.255.55.255.935v.069c0 .393-.085.71-.255.949z" fill="#8F96A1"/>
    <path d="M108.327 18.592v-.567l.415-.089v-2.714l-.415-.088v-.57h1.901l.973 2.653h.017l.947-2.653h1.878v.57l-.418.088v2.714l.418.089v.567h-1.804v-.567l.434-.089v-.525l.023-1.896-.017-.002-1.14 3.079h-.763l-1.157-3.043-.019.003.066 1.726v.658l.467.089v.567h-1.806z" fill="#8F96A1"/>
    <path fill-rule="evenodd" clip-rule="evenodd" d="M36.413 30.209v.388h1.167v-.388l-.265-.048.2-.577h1.366l.194.577-.263.048v.388h1.168v-.388l-.268-.038-1.2-3.244h-.617l-1.215 3.244-.267.038zm2.304-1.114H37.68l.476-1.351.035-.104h.016l.032.099.477 1.356z" fill="#8F96A1"/>
    <path d="M40.283 30.597v-.389l.4-.075v-2.74l-.4-.076v-.39h1.467v.39l-.431.076v2.717h1.147l.042-.557h.487v1.044h-2.712zM43.32 30.209v.388h2.711v-1.043h-.486l-.043.557h-1.147v-2.718l.431-.075v-.39H43.32v.39l.4.075v2.74l-.4.076z" fill="#8F96A1"/>
    <path fill-rule="evenodd" clip-rule="evenodd" d="M47.598 30.597v-.388l.267-.038 1.215-3.244h.617l1.2 3.244.267.038v.388h-1.166v-.388l.262-.048-.194-.577h-1.367l-.199.577.265.048v.388h-1.167zm1.268-1.502h1.036l-.477-1.356-.032-.099h-.016l-.035.104-.476 1.351zM51.465 30.209v.388h1.78c.403 0 .717-.089.942-.267.227-.18.34-.443.34-.789a.925.925 0 0 0-.176-.56.81.81 0 0 0-.507-.312.833.833 0 0 0 .399-.293.748.748 0 0 0 .143-.448c0-.333-.116-.582-.347-.749-.23-.168-.552-.252-.963-.252h-1.611v.39l.4.076v2.74l-.4.076zm1.681-1.734h-.645v-1.056h.575c.45 0 .675.18.675.54a.47.47 0 0 1-.161.38c-.108.09-.256.136-.444.136zm.099 1.633H52.5v-1.177h.807c.2 0 .347.054.44.161.096.106.144.257.144.452 0 .183-.056.323-.169.42-.11.096-.27.144-.478.144zM56.438 30.648c-.325 0-.607-.08-.847-.239a1.591 1.591 0 0 1-.56-.658 2.25 2.25 0 0 1-.196-.963v-.055c0-.36.065-.68.196-.958.133-.28.319-.5.557-.66.24-.162.523-.243.847-.243.333 0 .62.081.86.242.242.16.428.38.557.66.13.28.194.6.194.959v.055c0 .361-.065.682-.194.963-.13.279-.314.498-.555.658-.24.16-.526.24-.86.24zm0-.504a.858.858 0 0 0 .547-.168.996.996 0 0 0 .32-.477c.07-.203.106-.44.106-.71v-.061c0-.266-.035-.5-.106-.701a1.012 1.012 0 0 0-.323-.477.855.855 0 0 0-.547-.17.825.825 0 0 0-.532.17 1.02 1.02 0 0 0-.322.474 2.084 2.084 0 0 0-.109.704v.06c0 .27.037.506.109.711.072.203.18.362.322.477a.844.844 0 0 0 .535.168z" fill="#8F96A1"/>
    <path d="M59.416 30.501c.212.1.456.15.731.15.284 0 .533-.05.747-.147.213-.1.379-.243.496-.431a1.26 1.26 0 0 0 .18-.688v-1.992l.4-.075v-.39h-1.437v.39l.4.075v1.992c0 .259-.07.452-.213.58-.142.127-.331.191-.57.191-.234 0-.42-.065-.56-.194-.14-.13-.209-.322-.209-.577v-1.992l.398-.075v-.39h-1.434v.39l.4.075v1.992c0 .267.06.495.177.683.12.188.284.333.494.433zM63.134 30.597v-.388l.4-.076v-2.72h-.738l-.053.47h-.479v-.956h3.18v.956h-.48l-.055-.47h-.739v2.72l.4.076v.388h-1.436zM67.93 30.209v.388h1.438v-.388l-.401-.076v-2.72h.739l.055.47h.479v-.956H67.06v.956h.48l.052-.47h.739v2.72l-.401.076zM70.577 30.597v-.388l.4-.076v-2.74l-.4-.075v-.39h1.437v.39l-.401.075v1.145h1.606v-1.145l-.401-.075v-.39h1.434v.39l-.4.075v2.74l.4.076v.388h-1.434v-.388l.4-.076v-1.101h-1.605v1.101l.4.076v.388h-1.436zM74.59 30.209v.388h2.858v-.95h-.488l-.044.466h-1.29v-1.167h1.288v-.491h-1.288v-1.039h1.222l.043.456h.494v-.945H74.59v.39l.4.076v2.74l-.4.076z" fill="#8F96A1"/>
    <path fill-rule="evenodd" clip-rule="evenodd" d="M79.168 30.597v-.388l.4-.076v-2.74l-.4-.075v-.39h1.61c.412 0 .733.083.964.251.232.167.348.416.348.749a.747.747 0 0 1-.144.448.836.836 0 0 1-.399.293.81.81 0 0 1 .507.313.92.92 0 0 1 .177.56c0 .345-.114.608-.34.788-.226.178-.54.267-.944.267h-1.779zm1.036-2.122h.645c.189 0 .336-.046.444-.136a.472.472 0 0 0 .161-.38c0-.36-.225-.54-.675-.54h-.575v1.056zm0 1.633h.743c.21 0 .368-.048.48-.143.112-.098.168-.238.168-.421 0-.195-.048-.346-.144-.452-.093-.107-.24-.161-.44-.161h-.807v1.177z" fill="#8F96A1"/>
    <path d="M82.53 30.209v.388h1.434v-.388l-.398-.076v-2.74l.398-.075v-.39H82.53v.39l.4.075v2.74l-.4.076zM85.173 30.597v-.388l.4-.076v-2.72h-.737l-.053.47h-.48v-.956h3.18v.956h-.48l-.055-.47h-.739v2.72l.4.076v.388h-1.436zM88.533 30.42c.255.152.564.228.927.228.236 0 .456-.028.661-.085.205-.057.377-.132.517-.225v-.841h-.48l-.067.514a1.343 1.343 0 0 1-.615.14c-.345 0-.614-.118-.807-.357-.193-.239-.29-.567-.29-.986v-.098c0-.269.041-.503.124-.703.084-.2.204-.356.36-.467a.953.953 0 0 1 .565-.166c.139 0 .264.017.376.05.11.034.207.081.29.142l.065.567h.484v-.847a1.682 1.682 0 0 0-.545-.305 2.055 2.055 0 0 0-.677-.109c-.349 0-.648.08-.898.24-.25.158-.443.376-.578.653a2.152 2.152 0 0 0-.201.95v.093c0 .367.067.689.201.966.137.275.332.49.588.645z" fill="#8F96A1"/>
    <path fill-rule="evenodd" clip-rule="evenodd" d="M92.651 30.648c-.323 0-.606-.08-.847-.239a1.593 1.593 0 0 1-.559-.658 2.249 2.249 0 0 1-.197-.963v-.055c0-.36.066-.68.197-.958.133-.28.319-.5.557-.66.24-.162.523-.243.847-.243.333 0 .62.081.86.242.242.16.427.38.557.66.13.28.194.6.194.959v.055c0 .361-.065.682-.194.963a1.56 1.56 0 0 1-.555.658c-.24.16-.527.24-.86.24zm0-.504a.86.86 0 0 0 .548-.168.993.993 0 0 0 .32-.477c.07-.203.105-.44.105-.71v-.061c0-.266-.035-.5-.105-.701a1.014 1.014 0 0 0-.323-.477.856.856 0 0 0-.547-.17.825.825 0 0 0-.532.17c-.142.113-.25.271-.322.474a2.088 2.088 0 0 0-.11.704v.06c0 .27.038.506.11.711.072.203.18.362.322.477a.844.844 0 0 0 .534.168z" fill="#8F96A1"/>
    <path d="M94.59 30.209v.388h1.434v-.388l-.398-.076v-2.74l.398-.075v-.39H94.59v.39l.4.075v2.74l-.4.076zM96.36 30.597v-.388l.402-.076v-2.74l-.401-.075v-.39h1.044l1.684 2.676.014-.002v-2.209l-.463-.075v-.39h1.437v.39l-.401.075v3.204h-.602l-1.725-2.67-.015.003v2.203l.464.076v.388H96.36zM101.668 30.209v.388h1.434v-.388l-.398-.076v-2.74l.398-.075v-.39h-1.434v.39l.401.075v2.74l-.401.076zM103.441 30.597v-.388l.401-.076v-2.74l-.401-.075v-.39h1.044l1.684 2.676.015-.002v-2.209l-.464-.075v-.39h1.437v.39l-.401.075v3.204h-.603l-1.724-2.67-.015.003v2.203l.464.076v.388h-1.437z" fill="#8F96A1"/>
    <path fill-rule="evenodd" clip-rule="evenodd" d="M107.47 30.208v.389h1.555c.327 0 .612-.078.855-.232.244-.157.433-.37.567-.64a2.03 2.03 0 0 0 .205-.926v-.073c0-.35-.069-.66-.207-.93a1.583 1.583 0 0 0-.577-.638 1.588 1.588 0 0 0-.86-.232h-1.538v.391l.403.08v2.733l-.403.078zm1.523-.1h-.484v-2.69h.484c.215 0 .398.056.549.169.153.113.27.267.351.464.08.196.12.42.12.673v.075c0 .247-.04.47-.12.668a1.098 1.098 0 0 1-.351.47.883.883 0 0 1-.549.17z" fill="#8F96A1"/>
    <path d="M112.765 30.65c-.276 0-.519-.05-.731-.149-.21-.1-.375-.245-.494-.433a1.26 1.26 0 0 1-.177-.683v-1.992l-.401-.075v-.39h1.435v.39l-.399.075v1.992c0 .255.07.448.21.577.139.13.326.194.559.194.239 0 .429-.064.57-.191.143-.128.214-.321.214-.58v-1.992l-.401-.075v-.39h1.437v.39l-.401.075v1.992c0 .27-.06.5-.179.688a1.13 1.13 0 0 1-.496.431 1.78 1.78 0 0 1-.746.146zM115.608 30.557c.217.062.449.093.698.093.267 0 .5-.042.699-.126.2-.084.354-.202.464-.353a.885.885 0 0 0 .166-.534.916.916 0 0 0-.31-.714c-.205-.186-.506-.332-.903-.438-.294-.084-.498-.17-.613-.26a.416.416 0 0 1-.168-.34c0-.16.06-.285.181-.376a.753.753 0 0 1 .469-.138c.15 0 .279.017.388.053a.942.942 0 0 1 .27.123l.091.514h.481v-.789a1.711 1.711 0 0 0-.532-.29 2.068 2.068 0 0 0-.72-.105 1.59 1.59 0 0 0-.659.133 1.091 1.091 0 0 0-.445.358.88.88 0 0 0-.16.522c0 .289.104.52.313.696.208.174.519.317.931.428.278.076.472.163.581.262.111.098.167.22.167.366 0 .158-.06.284-.179.378-.119.094-.29.141-.512.141-.151 0-.293-.02-.425-.058a1.013 1.013 0 0 1-.328-.156l-.081-.545h-.491v.845c.203.144.412.248.627.31zM118.853 30.597v-.388l.401-.076v-2.72h-.74l-.052.47h-.479v-.956h3.179v.956h-.48l-.055-.47h-.738v2.72l.401.076v.388h-1.437z" fill="#8F96A1"/>
    <path fill-rule="evenodd" clip-rule="evenodd" d="M121.499 30.209v.388h1.437v-.388l-.401-.076V29.07l.716-.008.635 1.535h.776v-.393l-.287-.06-.529-1.185a1.03 1.03 0 0 0 .478-.37c.118-.169.177-.368.177-.598 0-.335-.114-.595-.343-.782-.228-.188-.55-.282-.962-.282h-1.697v.39l.401.076v2.74l-.401.076zm1.669-1.633h-.633v-1.157h.661c.224 0 .392.053.504.161a.561.561 0 0 1 .168.429c0 .184-.057.325-.171.423-.114.096-.291.144-.529.144z" fill="#8F96A1"/>
    <path d="M125.764 30.597v-.388l.398-.076v-.826l-1.104-1.939-.333-.05v-.39h1.382v.39l-.35.045.68 1.286.056.11.01-.004.053-.104.736-1.288-.416-.045v-.39h1.353v.39l-.343.05-1.091 1.888v.877l.401.076v.388h-1.432zM33.561 22.747h86.415v.314H33.561v-.314z" fill="#8F96A1"/>
</svg>
