<svg width="114" height="40" viewBox="0 0 114 40" fill="none" xmlns="http://www.w3.org/2000/svg">
    <path fill-rule="evenodd" clip-rule="evenodd" d="M34.284 12.194c-.671.377-.848 1.253-.378 1.884.483.65 1.838.772 2.395.215.477-.477.494-1.476.032-1.894-.478-.433-1.467-.532-2.049-.205zM5.832 18.727v6.078h.544c.526 0 .545-.028.545-.836v-.835l.529.566c1.377 1.475 4.175 1.5 5.7.052 1.517-1.44 1.77-4.102.557-5.862-1.35-1.96-4.492-2.24-6.288-.56l-.498.467v-5.147H5.832v6.077zm22.315 1.542v7.62H32.5v-1.814h-1.996v-11.43h1.996v-1.995h-4.354v7.62zM49.19 13.65v.997h1.814v11.43h-1.814v1.814h4.354V12.65h-4.354v.998zm44.992 1.632v.998h-.817c-.75 0-.816.037-.816.454 0 .416.067.453.816.453h.817v2.909c0 3.272.166 3.962 1.066 4.427.951.492 3.113.259 3.104-.335-.007-.479-.307-.692-.688-.488-.641.343-1.565.241-1.999-.22-.372-.396-.394-.591-.394-3.356v-2.937h1.27c1.233 0 1.27-.013 1.27-.453 0-.441-.037-.454-1.27-.454h-1.27v-.998c0-.987-.006-.998-.545-.998-.538 0-.544.01-.544.998zm-51.432.846a5.67 5.67 0 0 0-1.043.553l-.5.35v-.466c0-.453-.033-.466-1.178-.466h-1.18v8.708h2.54v-5.479l.617-.617c.525-.524.743-.617 1.46-.617 1.634 0 2 .924 1.883 4.763l-.06 1.95h2.479l-.06-3.311c-.056-3.084-.089-3.357-.477-3.982-.606-.974-1.478-1.446-2.814-1.525-.618-.036-1.368.027-1.667.139zm-22.859.064c-.1.032-.492.11-.873.174-.886.149-2.064 1.198-2.535 2.26-.77 1.736-.284 4.178 1.032 5.182 1.743 1.329 4.48 1.353 5.866.052.384-.362.391-.407.109-.719-.267-.294-.336-.302-.596-.066-.495.448-1.59.825-2.395.825-1.524 0-2.98-1.136-3.312-2.586l-.115-.498h7.264v-.569c0-1.444-.911-2.963-2.15-3.584-.647-.324-1.933-.588-2.295-.471zm14.06 4.26v4.355H36.31v-8.708h-2.358v4.354zm26.487-4.158c-2.666.533-4.085 3.711-2.806 6.28.709 1.422 2.07 2.233 3.75 2.233 1.25 0 2.245-.327 2.924-.961l.567-.53-.435-.353c-.387-.313-.454-.321-.595-.07-.257.459-1.517 1.007-2.315 1.007-1.34 0-2.621-.855-3.074-2.053-.31-.819-.231-2.24.166-3.019.501-.983 1.312-1.508 2.473-1.605 1.213-.1 1.717.027 2.408.61.453.38.617.428.921.265.472-.252.466-.395-.04-.87-.871-.819-2.543-1.214-3.944-.934zm10.13-.024c-.74.144-1.525.605-2.002 1.176-.308.369-.315.36-.32-.395-.006-.734-.032-.77-.551-.77h-.544v8.526h1.056l.061-2.767c.053-2.37.114-2.855.425-3.382.495-.84 1.157-1.297 2.057-1.417.687-.092.755-.149.755-.622 0-.286-.061-.51-.136-.5-.075.012-.436.08-.801.151zm15.574.084c-.556.152-1.133.492-1.587.936l-.714.696v-.853c0-.789-.034-.853-.453-.853h-.454V27.89h1.089v-4.603l.499.478c1.385 1.326 3.807 1.404 5.462.175 1.217-.904 1.8-3.134 1.295-4.951-.548-1.973-2.986-3.224-5.137-2.636zm16.73-.09c-3.343.673-4.575 4.812-2.171 7.29 1.634 1.683 4.404 1.72 6.112.078 1.721-1.654 1.697-4.64-.051-6.3-.926-.878-2.578-1.332-3.89-1.068zm-28.54 4.224c1.775 3.942 1.882 4.245 1.695 4.812-.505 1.53-1.658 2.153-2.873 1.552-.69-.34-.7-.34-.924.018-.194.312-.17.41.167.682.98.795 3.072.489 3.818-.558.283-.397 2.969-6.254 4.56-9.943l.332-.77h-.517c-.498 0-.578.135-2.124 3.62-.884 1.991-1.656 3.563-1.717 3.492-.06-.07-.796-1.699-1.634-3.619-1.519-3.48-1.526-3.49-2.1-3.492l-.577-.002 1.895 4.208zm-52.338-2.844c.672.43 1.253 1.391 1.253 2.07 0 .379-.046.384-3.038.335l-3.04-.05.063-.453c.087-.64.674-1.539 1.253-1.918 1.073-.703 2.398-.697 3.51.016zm-10.37-.191c1.704.881 2.317 3.4 1.223 5.025-.803 1.19-2.53 1.738-3.875 1.228-2.434-.922-2.752-4.824-.497-6.108.844-.48 2.366-.55 3.149-.145zm77.441.252c1.895 1.35 1.71 4.704-.318 5.777-1.538.813-3.505.302-4.322-1.124-.346-.603-.407-.941-.362-1.997.06-1.42.468-2.202 1.482-2.839.803-.504 2.693-.406 3.52.183zm16.38-.105c2.772 1.868 1.634 6.3-1.618 6.3-1.394 0-2.361-.624-2.952-1.905-.737-1.596-.183-3.602 1.213-4.397.991-.564 2.518-.563 3.357.002z" fill="#8F96A1"/>
</svg>
