<svg width="77" height="40" viewBox="0 0 77 40" fill="none" xmlns="http://www.w3.org/2000/svg">
    <path fill-rule="evenodd" clip-rule="evenodd" d="M11.008 27.706c.897 0 1.794-.31 2.537-.83l.646.664h.459v-4.205h-.46c-.23 1.992-1.29 3.829-2.734 3.829-1.477 0-2.22-1.118-2.22-3.674v-6.522c.033-1.42.087-3.77 1.958-3.77 2.012 0 2.581 2.125 2.92 3.762h.46v-4.083h-.394l-.536.974c-.668-.72-1.532-1.184-2.494-1.184-2.953 0-5.316 3.309-5.316 7.536 0 5.666 3.074 7.503 5.174 7.503zm9.669-.287v-.543h-1.16V13.443h1.16v-.543h-5.261v.543h1.16v13.434h-1.16v.543h5.26zm4.266-14h-.394c-2.045 0-2.494 3.198-2.592 4.106h-.602l.164-4.637h9.833l.165 4.637h-.602c-.11-.896-.547-4.106-2.592-4.106h-.394v13.435h1.498v.542h-5.972v-.542h1.51l-.022-13.435zm15.094 14v-.543h-1.345v-6.65l2.723-6.784h.875v-.543h-2.56v.543h1.018l-2.505 6.186-2.505-6.186h.93v-.543h-4.67v.543h.787l2.986 7.48v5.954h-1.258v.543h5.524zm7.34-9.628h-.055l-1.258 4.659h2.538l-1.226-4.66zm6.18 9.085v.543h-4.802v-.543h1.05l-1.018-3.818h-2.876l-.996 3.819h1.335v.542h-3.041v-.543h1.05L48.12 12.9h.875l3.774 13.978h.787zm2.252.531h-1.728v-1.66h1.728v1.66zm3.424 0h-2.778v-.542h.974V13.442h-.974v-.543h4.211l2.133 8.998h.033l2.275-8.998h4.09v.543h-.929v13.434h.93v.543H64.33v-.543h1.138V13.851h-.033l-3.413 13.557h-.645L58.14 13.563h-.032v13.313h1.137l-.01.532zm12.229 0h-1.728v-1.66h1.728v1.66z" fill="#8F96A1"/>
</svg>
