<svg width="141" height="40" viewBox="0 0 141 40" fill="none" xmlns="http://www.w3.org/2000/svg">
    <path fill-rule="evenodd" clip-rule="evenodd" d="m96.235 17.507-.004.065-.005.095a29.43 29.43 0 0 0-.018.363l.102.015.032.005h.005c.1.015.211.03.326.05l.022.111.01.05v.006l.016.075c.342.06.674.121 1.14.212-.807.382-1.58.407-2.355.432h-.001c-.265.009-.531.018-.798.04l.147.068.069.032a7.411 7.411 0 0 0 .135.062c.03.015.059.032.088.05h.003l.002.002c.084.048.169.097.259.119.085.02.199.01.266-.04.064-.046.107-.12.149-.193v-.002l.04-.067c.02.01.036.023.053.035a.385.385 0 0 0 .052.035 2.315 2.315 0 0 1-.05.1l-.03.06-.018.033-.002.003-.002.003-.011.021-.02.04-.002.001-.002.005v.001l-.025.045c.334.137.258.325.178.525l-.003.008c-.03.076-.062.155-.07.232a.54.54 0 0 1-.099.212c-.11.171-.228.355.128.603-.173.042-.338.078-.496.113l-.008.002c-.257.056-.498.11-.731.177a.616.616 0 0 1-.162.012c-.169 0-.351-.002-.322.32-.071.004-.14.014-.211.023h-.004v.001a1.324 1.324 0 0 1-.384.016c-.399-.07-.693.111-.978.433h1.463c0 .02.002.04.004.06.002.02.005.04.005.061l-.152.025c-.379.062-.763.125-1.14.196l-.01.016a.846.846 0 0 0-.012.016l-.016.024a1.39 1.39 0 0 1-.038.055c.133.07.266.141.409.222-.112.136-.288.175-.459.213-.31.069-.6.134-.454.763l-.405-.022h-.002a13.341 13.341 0 0 1-1.055-.079c-.437-.06-.627-.362-.627-.845v-.18c.01-1.922.019-3.835 0-5.758 0-.513.18-.785.656-.855.121-.014.243-.055.366-.095a7.82 7.82 0 0 1 .078-.025l.036-.011.032-.01-.002-.014-.001-.01-.004-.021-.001-.017-.001-.009-.004-.03c0-.01-.003-.022-.005-.034v-.006h-3.525l-.028.12c.053.02.107.04.16.062.062.023.124.048.187.07.057.02.116.037.175.05.475.1.693.372.675.916-.02.578-.017 1.16-.013 1.752v.01c.002.24.003.48.003.723h-3.99c0-.198 0-.396-.002-.592l-.001-.197v-.008a35.336 35.336 0 0 1 .022-2.06c.01-.182.286-.403.485-.514.138-.083.304-.114.471-.145h.001l.006-.001c.072-.014.145-.027.215-.045a.848.848 0 0 1-.009-.07.886.886 0 0 0-.01-.07h-3.543a.437.437 0 0 0-.023.044.411.411 0 0 1-.024.046 2.44 2.44 0 0 1 .185.082c.045.02.091.042.137.061.041.018.083.034.124.048.674.201.732.282.742 1.006v5.686c0 .835-.048.886-.846 1.006-.071.013-.138.037-.204.061-.04.014-.08.029-.12.04a.436.436 0 0 1 .01.065l.001.002.005.04.001.008v.005l.003.01h3.552l.007-.025.003-.01.005-.02a.739.739 0 0 0 .014-.055 6.757 6.757 0 0 1-.173-.057 3.668 3.668 0 0 0-.302-.094c-.608-.15-.732-.302-.732-.956v-2.807h3.98c0 .308.002.617.004.927v.005c.003.78.007 1.564-.013 2.348-.01.372-.332.443-.627.493a4.401 4.401 0 0 0-.07.013l-.008.002-.033.006-.118.027-.06.014-.052.013h-.001l-.009.003c-.06.015-.12.03-.18.043l.003.026.006.032a.79.79 0 0 1 .01.113h2.991l.007.027.004.016.007.027.006.03.001.003v.002c.007.03.014.063.023.096l-.361.121-.186.062-.175.059v.05c.28-.025.559-.052.838-.08l.137-.014c.235-.023.47-.046.706-.067.005.02.007.043.01.066l.001.015a.543.543 0 0 0 .008.05c-.152.027-.304.052-.46.077-.195.032-.397.065-.613.104.123.08.209.141.294.201a.56.56 0 0 0-.009.056l-.002.008-.002.019-.001.009-.003.01-.002.01h-.892c-.126 0-.249-.003-.371-.006h-.01a18.359 18.359 0 0 0-.379-.005l-1.045.006H88.3a79.92 79.92 0 0 0-2.075.024c-4.91.175-9.817.359-14.734.543l-.55.02-4.426.164-1.016.038-3.794.142h-.017c-2.974.111-5.947.222-8.918.331-3.21.12-6.42.232-9.632.342-.218.01-.446.03-.655.08a.702.702 0 0 0-.237.127v.001c-.05.034-.102.07-.162.104-.589-.11-1.263-.231-1.919-.342a.375.375 0 0 0 .027-.052l.013-.027.014-.033.002-.003.001-.002.009-.02.058-.125c-.222-.044-.428-.088-.635-.132l-.23-.049c0-.024.003-.046.005-.068v-.004a.64.64 0 0 0 .005-.069c.047 0 .094.002.14.004l.078.002h.063c.066 0 .13-.003.194-.016a.746.746 0 0 0 .253-.11c.03-.017.059-.035.089-.05a1.543 1.543 0 0 1-.064-.13c-.047-.102-.094-.204-.173-.253-.083-.047-.19-.05-.298-.052h-.036l-.026-.001a1.06 1.06 0 0 1-.097-.008c.067.151.114.272.18.443-.379 0-.579-.11-.826-.392-.208-.242-.693-.292-1.054-.302-.36-.007-.714.05-1.08.11l-.163.025c-.104.017-.209.032-.315.046.042-.044.084-.094.137-.157l.029-.034.034-.04c-.523-.292-1.045-.473-1.634-.463-.817.02-1.586-.192-2.441-.675.075-.204.153-.409.233-.62v-.002a127.421 127.421 0 0 0 .251-.666.068.068 0 0 0-.017-.004l-.014-.003a.36.36 0 0 1-.079-.02.118.118 0 0 1-.036-.023.072.072 0 0 1-.013-.015l-.002-.005c-.047-.08-.086-.232-.038-.302.085-.149.187-.285.299-.436l.001-.002c.062-.083.127-.17.194-.267-.498-.186-.922-.346-1.346-.507l-.307-.117c.667-.37 1.39-.357 2.155-.343h.004c.313.006.632.012.957-.009-.114-.061-.215-.12-.308-.174-.21-.123-.382-.223-.566-.279-.06-.02-.152.08-.228.165l-.002.002c-.032.035-.061.067-.084.085a1.237 1.237 0 0 0-.013-.021l-.012-.02-.01-.014-.008-.014-.009-.013-.018-.027-.015-.021-.002-.003c-.08-.117-.162-.236-.17-.36-.006-.142.061-.29.128-.433v-.002c.019-.04.037-.08.053-.119.024-.054.069-.108.112-.16.06-.074.118-.143.107-.202-.084-.578.238-.63.564-.685l.047-.007.026-.005a2.857 2.857 0 0 0 .17-.038.89.89 0 0 1 .23-.02c.207 0 .417 0 .492-.342.01-.05.352-.04.532-.02.39.06.684-.1.94-.443H35.18a.228.228 0 0 0-.003-.034c0-.005 0-.01-.002-.016v-.006a.394.394 0 0 1-.005-.054l.549-.094.072-.012a73.395 73.395 0 0 1 .747-.126 9.548 9.548 0 0 0-.38-.362c.106-.124.288-.147.465-.17.297-.037.578-.073.447-.585l1.705-.7.499-.206c-.355.032-.676.064-.982.094l-.331.033-.473.044a.55.55 0 0 1-.01-.065c-.002-.02-.005-.042-.01-.065l.012-.002c.348-.06.696-.12 1.12-.2l-.094-.043h-.003a6.18 6.18 0 0 1-.12-.056c-.042-.02-.08-.04-.116-.062 0-.015-.003-.032-.005-.05a.404.404 0 0 1-.005-.05l.15-.032c.15-.032.299-.064.449-.079l.154-.012.207-.02H39.225l.005-.002c.37-.038.748-.076 1.087.014.802.209 1.599.148 2.395.087h.002c.354-.027.707-.054 1.06-.057.825-.007 1.644-.04 2.465-.072h.003a6593.063 6593.063 0 0 0 4.377-.163l2.565-.096c4.045-.151 8.092-.302 12.134-.444l14.951-.543h.027c2.033-.071 4.066-.141 6.09-.232a.972.972 0 0 0 .193-.026c.034-.007.068-.016.103-.026a3.71 3.71 0 0 0 .295-.099h.001l.007-.003a7.59 7.59 0 0 1 .351-.117l.16.027a104.342 104.342 0 0 1 1.635.285.339.339 0 0 1-.019.05l-.001.003v.001l-.008.019-.037.092v.001l-.04.105c.19.04.37.08.551.12l.003.001.273.06c-.005.02-.007.04-.01.06l-.001.016-.008.045c-.048.004-.096.004-.145.004-.098 0-.197 0-.292.026a.625.625 0 0 0-.151.06 2.275 2.275 0 0 0-.1.055c-.04.024-.079.047-.12.067.02.027.04.057.06.088l.019.028c.067.106.136.215.225.266.074.043.181.03.275.019h.001a.93.93 0 0 1 .105-.009c-.048-.141-.095-.282-.143-.433l.143-.12.036.034.02.018.017.018.067.068.049.05c.137.145.274.289.438.365.342.15.722.272 1.092.272.353 0 .711-.053 1.09-.109h.003l.01-.002c.166-.024.336-.05.512-.07l-.008.006c-.11.087-.184.146-.25.205 0 .025-.001.05-.004.075a.833.833 0 0 0-.004.076l.051.01h.001l.083.02c.128.029.258.064.387.099h.001c.38.102.759.204 1.129.183.639-.051 1.182.171 1.753.404h.001l.008.004c.217.089.438.179.67.256a79.684 79.684 0 0 0-.475 1.318c.064.04.148.103.242.173l.148.11a83 83 0 0 1-.543.32zm-.538-.127c.183-.112.383-.234.512.115-.39.118-.781.237-1.237.384l.03-.021.028-.021.087-.068.042-.032.006-.005c.16-.122.29-.222.435-.295.03-.017.065-.037.097-.057zm-42.053 6.608.015-.067.014-.064a1.458 1.458 0 0 1-.115-.056 2.481 2.481 0 0 0-.056-.03.687.687 0 0 0-.105-.045c-1.13-.322-1.292-.533-1.32-1.77-.014-.677-.013-1.353-.011-2.03v-.014l.001-.674v-2.003l.072.088.064.077v.002c.103.124.176.212.244.306l1.163 1.547.078.105.002.002c1.112 1.481 2.224 2.96 3.345 4.435.086.11.209.188.364.286.084.053.178.113.282.187v-6.22c0-.084.002-.17.005-.254.006-.16.016-.322.026-.485l.016-.267c.029-.563.304-.885.836-.986l.056-.01.018-.004.016-.004a1.541 1.541 0 0 0 .202-.065l.15-.06.002-.001.012-.005a7.42 7.42 0 0 1 .105-.042l-.014-.066a2.704 2.704 0 0 0-.015-.065h-3.4l-.029.15.002.001c.18.06.36.12.54.171.807.232.94.362 1.006 1.218.045.595.049 1.196.053 1.798a102.184 102.184 0 0 1 .007 2.117v.038l-.002.877-.073-.09-.052-.066-.03-.038-.11-.136-.03-.036a4.689 4.689 0 0 1-.114-.147c-1.111-1.48-2.223-2.959-3.343-4.438a7.412 7.412 0 0 1-.302-.448c-.244-.383-.49-.769-.829-.94-.353-.173-.803-.14-1.25-.107l-.19.013a6.556 6.556 0 0 1-.336.013c-.119 0-.241.008-.365.017-.065.005-.13.01-.196.013-.004.025-.007.053-.009.08-.002.028-.005.056-.01.08l.798.333c.523.221.808.634.808 1.238v.69l.002.383c.003 1.253.006 2.505-.03 3.757-.03 1.077-.143 1.157-1.112 1.44-.082.026-.156.07-.23.116l-.005.003a2.346 2.346 0 0 1-.107.062c.01.015.017.03.024.045v.002a.403.403 0 0 0 .023.043h3.439zm20.793-2.254a1.516 1.516 0 0 0-.124-.06 1.817 1.817 0 0 1-.09.097l-.001.001a1.92 1.92 0 0 0-.091.097.69.69 0 0 0-.084.116c-.08.14-.154.284-.228.428l-.004.007v.001a7.26 7.26 0 0 1-.442.772c-.133.191-.39.392-.608.413-.741.05-1.482.04-2.223.03-.332 0-.55-.232-.56-.564-.014-.781-.013-1.562-.01-2.36v-.82h.457c.68-.005 1.02-.007 1.249.16.228.166.347.5.584 1.169.024.064.082.111.156.171l.042.034.03.027c.022.018.044.038.066.06V17.92a5.569 5.569 0 0 0-.172.3l-.003.006-.037.071-.079.15-.015.031-.003.006c-.196.382-.368.718-.631.875-.31.181-.71.188-1.113.196h-.001a6.045 6.045 0 0 0-.53.025v-3.572c.16 0 .316.004.472.007h.001c.346.009.685.017 1.019-.017.978-.09 1.586.412 1.975 1.308.04.083.114.151.212.242.046.04.096.087.15.14v-1.962h-6.308l-.014.071-.014.07c.054.019.107.04.16.06l.008.002c.112.043.224.085.345.119.703.191.76.262.76 1.026v5.636c0 .805-.105.926-.836 1.026a.733.733 0 0 0-.11.024l-.02.006-.022.007-.02.007-.021.007-.074.026a2.33 2.33 0 0 1-.16.054l.028.131h6.82c.019-.775.066-1.52.114-2.264zM42.292 23.94l.006-.034.005-.033.01-.047a3.79 3.79 0 0 0-.203-.046h-.002c-.168-.035-.338-.07-.48-.155-.2-.111-.503-.312-.513-.493a51.72 51.72 0 0 1-.03-2.5v-.049l.002-.682h.57c1.32 0 1.396.06 1.823 1.359.026.068.088.128.172.21a4.478 4.478 0 0 1 .132.132V18.09h-.001c-.047-.02-.095-.04-.15-.06-.02.04-.04.08-.062.12-.054.102-.108.204-.128.312-.115.614-.428 1.017-1.026 1.067-.306.028-.612.022-.918.015h-.007l-.141-.003h-.078c-.056-.002-.112-.002-.167-.002v-3.542c.176 0 .35.001.523.003h.022c.446.004.883.008 1.316-.013.675-.03 1.102.322 1.425.885a2.923 2.923 0 0 1 .108.212l.017.033.027.056c.039.077.079.153.124.223a.81.81 0 0 0 .179.185c.051.044.109.093.172.157v-2.033h-6.411l-.001.005-.028.136a35.32 35.32 0 0 0 .194.067l.041.014.031.01.171.05c.788.2.836.271.836 1.107v5.635c0 .765-.105.886-.836.966a1.368 1.368 0 0 0-.267.077h-.002c-.053.02-.105.04-.158.054.004.02.012.04.019.06.007.02.014.04.019.06 1.206.041 2.431.041 3.656.041l.005-.025.004-.022zm39.62-2.127a1.31 1.31 0 0 1-.102-.005c-.03-.002-.06-.005-.088-.005-.38.846-.902 1.51-1.814 1.701-1.387.292-2.584-.362-3.125-1.801-.56-1.49-.484-3 .142-4.448.731-1.681 2.575-1.902 3.676-.453.214.28.365.607.517.936l.018.04c.072.155.145.312.225.463.048.094.11.178.174.262.025.033.05.066.073.1l.086-.06v-2.919c-.383-.188-.518.04-.65.265l-.005.008c-.058.096-.114.19-.19.25-.808-.603-1.672-.734-2.594-.523-2.184.514-3.534 2.727-3.134 5.153.266 1.67 1.092 2.838 2.668 3.29 1.739.504 3.344-.21 4.094-1.82a.736.736 0 0 0 .028-.28v-.02l-.001-.018v-.092l.001-.015.001-.009zm-19.34-5.947v6.793c0 .865-.085.956-.911 1.066a1.048 1.048 0 0 0-.277.1 2.36 2.36 0 0 1-.112.051.32.32 0 0 0 .014.037l.005.011.004.008.005.015.004.01.003.01.002.01h3.771c.01-.05.02-.1.02-.14-.257-.071-.513-.142-.77-.202-.342-.08-.541-.302-.541-.664-.01-2.214-.01-4.428 0-6.642 0-.1.123-.282.209-.302 1.016-.242 1.71.09 2.222 1.056a1.671 1.671 0 0 1 .102.219l.022.053v.002c.038.093.076.185.123.27.034.064.096.108.18.167.034.025.073.052.115.084v-2.153H59.6v2.063c.176-.196.322-.424.465-.647l.001-.002c.202-.316.397-.622.664-.81.328-.23.755-.29 1.214-.357.206-.03.417-.06.629-.106zM49.37 23.988a.896.896 0 0 1 .019-.075c.007-.026.014-.05.019-.076a8.219 8.219 0 0 0-.318-.106l-.027-.008a4.971 4.971 0 0 0-.092-.027c-.675-.15-.78-.292-.78-1.006v-5.777c0-.664.077-.754.704-.905.114-.027.228-.063.342-.099l.01-.003.16-.05-.028-.12h-3.59l-.029.15c.069.024.136.046.202.07l.021.006.224.076c.693.201.74.262.74 1.036V22.8c0 .715-.114.836-.769.926a1.235 1.235 0 0 0-.256.076c-.054.02-.107.04-.162.055.01.04.02.08.038.131h3.572zm-15.378-3.027-.064.125c-.05.1-.1.2-.155.306l.061.01.052.009.13.022.02.004h.004c.13.023.242.043.34.055l.05-.275.047-.258.018-.1a.572.572 0 0 1-.017-.007c-.02-.008-.037-.014-.06-.014l-.061.09-.036.05a18.349 18.349 0 0 0-.15.223c-.021-.117-.038-.216-.057-.333v-.005l-.002-.004-.016-.101-.051.1-.053.102zm-.913 1.045a9.8 9.8 0 0 1 .018.051v.001c.023.066.047.136.077.2l.165-.082.167-.083.196-.098c.175-.088.351-.176.527-.261a.303.303 0 0 1-.01-.045v-.002c-.002-.014-.005-.03-.01-.044-.239.07-.475.148-.711.226l-.016.005h-.001a36.28 36.28 0 0 1-.402.132z" fill="#8F96A1"/>
    <path d="M121.157 23.998h-3.771l-.005-.02a.536.536 0 0 0-.034-.11l.099-.03c.139-.042.278-.085.424-.101.713-.09.874-.272.874-1.027 0-1.892 0-3.794-.095-5.726l-1.122 2.673-.374.893-.706 1.687-.031.073c-.231.549-.461 1.099-.693 1.648a1.68 1.68 0 0 0-.062-.015h-.001l-.006-.002-.054-.013-2.821-6.763-.017.012-.031.02-.002.002c-.029.019-.045.03-.045.037l-.001.354v.392l-.002.677c-.004 1.186-.008 2.372.013 3.558.019 1.017.247 1.258 1.196 1.5.103.025.206.064.314.105l.004.002h.002l.06.023a.669.669 0 0 0-.008.05l-.002.017a.425.425 0 0 1-.009.064h-3.448a.861.861 0 0 0-.013-.053l-.016-.058a2.183 2.183 0 0 0 .168-.057 4.2 4.2 0 0 1 .138-.049c.056-.018.112-.034.169-.044.665-.141.931-.383.95-1.107.038-1.814.029-3.638.02-5.452v-.084c0-.543-.323-.845-.798-.996-.124-.039-.247-.07-.369-.1l-.011-.002-.099-.025-.044-.011-.048-.013c0-.05 0-.1-.009-.15.038-.01.076-.024.113-.037.076-.027.152-.054.229-.054.247-.004.494-.002.741 0h.004c.369.004.738.008 1.107-.01.333-.02.466.13.599.423a308.73 308.73 0 0 0 1.387 3.23l.026.06c.284.654.567 1.308.848 1.963l.025.058.02.043.031.068.041.09.003.007v.001l.117.256.037-.086.027-.063.085-.197.002-.003v-.003c.067-.152.126-.287.181-.423l.898-2.161.028-.068.274-.658.215-.517.437-1.054c.044-.107.073-.233.102-.358l.002-.01c.052-.226.102-.444.229-.528.192-.116.458-.096.724-.076l.077.006.031.002.057.004c.046.002.092.004.137.004h.176l.072-.001.132-.001.333-.002c.142 0 .285 0 .427.004.073 0 .142.018.211.038l.021.007.028.008.014.005c.026.008.051.016.077.022v.161c-.218.05-.437.101-.656.141-.36.07-.541.282-.541.695.01 2.043.01 4.096 0 6.138 0 .524.285.695.694.796.115.025.227.06.339.093.064.02.127.04.193.057a.716.716 0 0 0-.028.098l-.001.007-.002.01-.002.007-.005.03zM18.96 15.585h3.553c.01.04.02.08.038.13-.04.015-.08.033-.12.05h-.003l-.002.002c-.092.039-.185.079-.283.1-.684.14-.77.23-.77.996v5.635c0 .805.057.886.817 1.077.075.018.147.052.241.095l.002.002c.06.027.129.06.213.094-.674.232-3.467.171-3.77-.08l.202-.044.433-.093.115-.024c.313-.05.493-.252.493-.574.007-.685.005-1.37.003-2.067v-.01c-.002-.353-.003-.71-.003-1.073h-3.98v2.275c0 .583 0 .877.132 1.071.134.197.405.29.95.478.017.005.031.017.043.033.008.01.015.022.023.035a.502.502 0 0 0 .02.033c-.265.252-3.267.262-3.637-.03l.205-.048.003-.001c.177-.042.336-.08.495-.102.36-.06.522-.292.522-.664v-6.19c0-.422-.218-.633-.58-.734a6.312 6.312 0 0 1-.425-.145l-.003-.001-.18-.065.02-.076c.007-.025.014-.05.019-.075h3.533c.005.02.012.04.02.06.006.02.014.04.018.06-.038.015-.077.03-.116.047-.098.04-.2.083-.302.104-.674.131-.769.242-.769.946v2.526h3.629c.218 0 .36-.04.351-.332-.005-.392-.005-.787-.005-1.182v-.565a80.205 80.205 0 0 0-.005-.618c0-.372-.209-.573-.531-.674a10.994 10.994 0 0 1-.301-.097l-.054-.018c-.11-.036-.22-.072-.33-.106a.312.312 0 0 0 .077-.161zM129.013 21.752v.004c-.048.744-.095 1.487-.152 2.25h-6.83l-.028-.12c.05-.018.099-.038.148-.058.089-.037.178-.074.27-.093.788-.121.864-.212.864-1.057v-5.485c0-.875-.057-.945-.864-1.147a3.375 3.375 0 0 1-.263-.07 8.808 8.808 0 0 0-.212-.06c.285-.262 5.281-.353 6.43-.162 0 .534 0 1.077-.009 1.63 0 .071-.067.182-.105.182a.324.324 0 0 1-.228-.1.65.65 0 0 1-.089-.175l-.002-.004a1.106 1.106 0 0 0-.06-.134c-.361-.714-.846-1.197-1.691-1.117a9.607 9.607 0 0 1-1.117.018h-.001a23.212 23.212 0 0 0-.525-.008v3.523a9.26 9.26 0 0 1 .235-.015l.217-.01.029-.001h.002c.351-.015.698-.03 1.036-.105.456-.101.589-.554.694-.997a.965.965 0 0 1 .153-.285l.001-.002.044-.064.014-.02.006-.011a.69.69 0 0 0 .031.071l.023.05.011.022v.001l.002.005c.048.097.095.193.095.294.018.865.009 1.74.001 2.606v.002l-.001.059c0 .07-.038.136-.077.204l-.002.004-.003.005-.003.005a.447.447 0 0 0-.017.031l-.005.01-.006.01-.011.022c-.023-.024-.053-.047-.082-.07l-.002-.002-.005-.003a.515.515 0 0 1-.088-.079.097.097 0 0 1-.022-.047c-.181-1.348-.732-1.46-2.27-1.318v.17l-.001.172-.002.45v.055c-.003.778-.006 1.56.022 2.343.009.181.313.483.494.493.788.04 1.576.03 2.355-.03.18-.01.399-.222.513-.393.163-.243.299-.502.436-.762l.006-.012c.076-.145.152-.29.233-.433.044-.08.109-.148.173-.214.033-.032.064-.065.092-.098a.32.32 0 0 1 .143.07zM23.417 15.574h6.316v1.973c-.057-.055-.11-.1-.156-.14l-.002-.001c-.1-.086-.173-.15-.212-.232-.409-.946-1.045-1.429-2.061-1.318a6.893 6.893 0 0 1-.95.018h-.012a16.777 16.777 0 0 0-.435-.008v3.532c.136-.006.274-.008.412-.01h.001c.344-.007.69-.013 1.022-.07.513-.08.674-.544.798-1.017a1.35 1.35 0 0 1 .149-.334l.005-.01c.022-.04.044-.079.064-.119.048.02.095.04.142.07v3.513c-.057-.065-.11-.117-.156-.162-.081-.08-.139-.136-.157-.2-.418-1.288-.921-1.57-2.28-1.228v.747c-.003.748-.004 1.497.01 2.252.01.443.275.674.674.684l.25.009h.006c.563.02 1.13.04 1.682-.039.304-.04.636-.282.845-.543.168-.204.287-.447.407-.693.07-.143.14-.287.22-.424.043-.07.104-.133.165-.195.035-.036.07-.07.101-.107l.045.026c.024.016.05.032.079.044l-.143 2.295h-6.943c.048-.051.085-.097.116-.135.055-.068.092-.114.14-.127.137-.038.279-.059.422-.08h.001l.087-.013.05-.008c.371-.06.542-.291.532-.694-.009-2.043-.009-4.086 0-6.139 0-.432-.199-.634-.57-.734a6.384 6.384 0 0 1-.254-.072c-.074-.021-.147-.044-.22-.067l-.138-.043a9.475 9.475 0 0 0-.1-.03.61.61 0 0 1 .036-.136 2.01 2.01 0 0 0 .012-.035zM130.615 23.766l-.082.07-.224.19-.013.01-.015.014-.271.23a.921.921 0 0 0-.076-.055 1.061 1.061 0 0 1-.053-.037l-.014-.01-.01-.009v-2.918l.082.084.018.019.003.003c.086.087.156.159.211.246.089.154.172.311.255.468l.003.006h.001l.004.008c.154.29.308.581.497.847.446.614 1.064.926 1.815.916.56-.01 1.054-.172 1.282-.755.247-.624.237-1.268-.209-1.792-.219-.251-.513-.442-.808-.593-.27-.138-.549-.257-.827-.375l-.006-.002-.002-.001-.007-.003a14.868 14.868 0 0 1-.725-.324c-1.206-.573-1.71-1.72-1.292-2.948a2.251 2.251 0 0 1 2.755-1.43c.271.072.527.19.773.303l.002.001.025.011c.089.042.177.082.263.118.119-.095.238-.188.357-.281l.356-.282c.038.04.076.08.123.12v2.728a.811.811 0 0 1-.052.025.8.8 0 0 0-.052.025c-.021-.037-.045-.075-.068-.113l-.009-.013-.014-.021v-.001a4.206 4.206 0 0 1-.112-.186l-.035-.069a13.496 13.496 0 0 1-.191-.4l-.003-.005-.001-.001-.001-.004c-.133-.284-.264-.567-.43-.817-.428-.634-1.073-.856-1.795-.825-.466.02-.827.271-.979.744-.171.544-.133 1.107.276 1.49.333.307.741.537 1.139.76l.003.003.092.052c.24.13.492.24.743.349l.007.003h.002l.002.002c.213.092.426.185.633.29.836.422 1.273 1.127 1.225 2.123-.047 1.017-.484 1.761-1.357 2.184-1.083.503-2.128.342-3.107-.262l-.064.054-.043.036zM104.014 24.008h-3.781l-.014-.072-.014-.07.072-.024.049-.018c.115-.041.232-.084.344-.098.703-.09.817-.222.826-.936V16.5c0-.13-.009-.262-.019-.392-1.624-.161-1.823-.131-2.555 1.318-.055.11-.12.214-.184.317l-.011.018c-.02.033-.041.065-.06.098l-.062-.03a1.205 1.205 0 0 1-.063-.03v-2.074h7.172v2.124l-.044-.02-.027-.011a2.575 2.575 0 0 1-.075-.033.613.613 0 0 1-.12-.067c-.027-.023-.038-.058-.049-.096l-.001-.005c-.007-.027-.014-.055-.026-.08-.743-1.565-.946-1.553-2.473-1.46l-.167.01v6.471c0 .876.095.997.911 1.168.067.014.132.033.197.053l.058.018.015.004.083.026.026.008.039.011a.385.385 0 0 0-.046.155l-.001.006zM11.334 23.837h-3.81a.826.826 0 0 1-.018-.161c.076-.016.153-.035.23-.053.164-.039.33-.078.492-.098.399-.05.589-.282.589-.705 0-2.264 0-4.528-.01-6.793a.202.202 0 0 0-.018-.066 1.587 1.587 0 0 1-.03-.085 3.673 3.673 0 0 1-.523-.016c-.448-.034-.902-.07-1.262.298-.218.221-.397.484-.577.75h-.001a5.799 5.799 0 0 1-.562.74v-2.063h7.181v2.113l-.114-.057a3.473 3.473 0 0 1-.046-.021.657.657 0 0 1-.106-.063c-.019-.013-.029-.047-.04-.08-.005-.019-.01-.037-.017-.05-.674-1.49-.969-1.661-2.612-1.52l-.012.171a4.6 4.6 0 0 0-.017.342v5.988c0 .895.038.946.855 1.137.117.023.229.064.339.105l.098.036a.265.265 0 0 1 .003.073.808.808 0 0 1-.012.078zM106.331 15.897c.428-.292 3.458-.272 3.791.03l-.311.064c-.147.03-.279.056-.412.087-.361.07-.541.282-.541.694.01 2.063.01 4.116 0 6.18 0 .512.294.653.675.744.18.05.351.1.532.16l-.015.072-.014.07h-3.6l-.028-.151c.068-.014.136-.03.204-.047.127-.03.254-.06.385-.074.437-.05.636-.292.636-.765-.01-2.022-.01-4.055 0-6.078 0-.393-.143-.634-.503-.735-.149-.042-.29-.088-.45-.14-.106-.034-.219-.071-.349-.111z" fill="#8F96A1"/>
</svg>
