<svg width="100" height="40" viewBox="0 0 100 40" fill="none" xmlns="http://www.w3.org/2000/svg">
    <path fill-rule="evenodd" clip-rule="evenodd" d="M18.127 25.183c-1.245 1.382-3.375 2.313-5.712 2.299-3.783 0-6.782-2.176-6.915-4.843v-8.987c0-2.73 3.073-5.001 6.944-4.985 2.526 0 4.816 1.095 5.954 2.761h9.025l-1.138 5.065h-4.55l-.976 2.795 5.039-2.27-8.94 13.956 1.269-5.791zm-3.643 1.316.494-2.236c-.773.208-1.674.341-2.549.297-2.807.048-5.141-1.159-6.279-2.937v.857c.044 2.318 2.793 4.287 6.28 4.319.672-.044 1.394-.14 2.054-.3zm.672-3.042.532-2.405a7.276 7.276 0 0 1-3.259.57c-2.807.08-5.141-1.11-6.279-2.762v.699c.044 2.365 2.793 4.318 6.28 4.318.916 0 1.856-.162 2.726-.42zm.72-3.252.521-2.36a9.523 9.523 0 0 1-3.953 1c-2.807-.048-5.141-1.255-6.28-2.938v.698c.045 2.414 2.793 4.367 6.28 4.32 1.245.043 2.454-.233 3.431-.72zm1.709-8.777H13.46l-1.138 5.065h4.373l-.079.357c-1.102.752-2.595 1.24-4.173 1.311-3.487-.079-6.235-2.048-6.28-4.493.03-2.334 2.793-4.287 6.28-4.319 2.068.032 4.003.81 5.14 2.08zm.9 15.894.65-3.493-3.739 1.746 2.113-9.764H13.12l.812-3.668H26.61l-.812 3.667H21.41l-1.95 4.89 4.387-2.095-5.363 8.717z" fill="#8F96A1"/>
    <path d="M36.693 14.843c.015.556-.148.984-.473 1.302-.325.317-.768.476-1.344.476-.576 0-1.05-.206-1.404-.603-.355-.397-.532-.921-.532-1.556V13.43c0-.635.178-1.16.517-1.556.355-.397.813-.604 1.374-.604.591 0 1.05.16 1.39.46.339.318.502.747.487 1.303v.016h-.946c0-.334-.074-.588-.221-.747-.148-.158-.384-.238-.695-.238a.76.76 0 0 0-.68.381c-.162.254-.25.572-.25.969v1.048c0 .397.088.73.25.984a.832.832 0 0 0 .725.381c.295 0 .502-.08.65-.238.147-.159.221-.413.221-.746h.931z" fill="#8F96A1"/>
    <path fill-rule="evenodd" clip-rule="evenodd" d="M42.041 14.414c0 .635-.191 1.175-.56 1.588-.37.413-.858.62-1.464.62-.605 0-1.078-.207-1.462-.62-.37-.413-.562-.953-.562-1.588v-.937c0-.635.192-1.159.562-1.587.369-.413.857-.636 1.448-.636.605 0 1.093.207 1.462.636.384.412.562.952.562 1.587v.937h.014zm-.975-.953c0-.412-.088-.73-.28-1a.93.93 0 0 0-.783-.397c-.325 0-.591.127-.769.397-.177.254-.28.588-.28 1v.937c0 .413.088.747.28 1.016a.904.904 0 0 0 .769.397c.34 0 .59-.127.783-.397.192-.254.28-.603.28-1.016v-.937z" fill="#8F96A1"/>
    <path d="M44.553 16.542h-.975v-5.208h.975v5.208zM50.153 16.542h-.975l-1.95-3.51h-.015v3.51h-.975v-5.208h.975l1.95 3.509h.015v-3.51h.975v5.209zM55.044 12.144h-1.39v4.398h-.975v-4.398H51.32v-.81h3.724v.81zM57.26 14.255v1.493h2.142v.794H56.3v-5.208h3.103v.81h-2.127v1.302h1.802v.81H57.26zM61.766 15.748h2.172v.794h-3.147v-5.208h.975v4.414zM66.272 14.255v1.493h2.143v.794h-3.103v-5.208h3.103v.81h-2.128v1.302h1.803v.81h-1.818zM73.527 15.843a1.85 1.85 0 0 1-.68.556c-.295.159-.68.238-1.152.238-.591 0-1.064-.19-1.433-.588-.37-.396-.562-.904-.562-1.54v-1.095c0-.635.177-1.143.547-1.54.355-.397.828-.604 1.389-.604.591 0 1.049.16 1.36.46.309.303.472.7.457 1.207v.016h-.916c0-.27-.074-.492-.221-.65-.149-.16-.37-.239-.651-.239-.295 0-.532.127-.724.365-.177.255-.266.572-.266.953v1.096c0 .397.089.714.281.968a.887.887 0 0 0 .754.365c.236 0 .414-.031.546-.079a.767.767 0 0 0 .31-.19v-1.017h-.93v-.73h1.906v2.048h-.015z" fill="#8F96A1"/>
    <path fill-rule="evenodd" clip-rule="evenodd" d="M76.038 14.493v2.049h-.975v-5.208h1.685c.546 0 .99.143 1.3.413.31.27.472.65.472 1.127 0 .27-.058.492-.192.699a1.51 1.51 0 0 1-.576.476c.282.095.488.238.621.46.118.207.192.477.192.794v.381c0 .143.015.302.059.46.03.16.104.27.192.35v.08h-1.004c-.089-.08-.148-.207-.177-.382a3.068 3.068 0 0 1-.045-.508v-.365c0-.254-.059-.46-.192-.603a.742.742 0 0 0-.561-.223h-.799zm0-.825h.695c.266 0 .473-.064.606-.19.133-.128.207-.302.207-.556a.812.812 0 0 0-.207-.572c-.133-.143-.325-.206-.591-.206h-.71v1.524zM81.077 15.43l-.325 1.128h-1.02l1.64-5.208h.99l1.626 5.208h-1.02l-.325-1.128h-1.566zm.237-.825h1.093l-.532-1.842h-.015l-.546 1.842zM86.144 14.668v1.874h-.974v-5.208h1.861c.561 0 .99.159 1.315.46.325.302.473.715.473 1.207 0 .492-.163.905-.473 1.207-.325.301-.754.46-1.315.46h-.887zm0-.81h.887c.266 0 .473-.079.62-.238a.925.925 0 0 0 .208-.603.938.938 0 0 0-.207-.62c-.133-.158-.34-.238-.621-.238h-.887v1.7z" fill="#8F96A1"/>
    <path d="M94.152 16.542h-.974v-2.16h-1.98v2.16h-.976v-5.208h.976v2.239h1.98v-2.24h.974v5.209zM34.109 25.05h.606v-3.429h1.093v-.555h-2.792v.555h1.093v3.43zM38.172 25.05h.606v-1.968c0-.746-.34-1.111-1.02-1.111-.192 0-.354.047-.502.127a.797.797 0 0 0-.34.333h-.044l.006-.08c.012-.172.023-.324.023-.476v-1.08h-.59v4.24h.59v-1.492c0-.381.06-.651.178-.81.118-.159.295-.238.546-.238.192 0 .325.063.414.174.089.111.133.286.133.524v1.858z" fill="#8F96A1"/>
    <path fill-rule="evenodd" clip-rule="evenodd" d="M39.812 24.686c.236.27.576.413 1.02.413.192 0 .369-.016.502-.048.148-.032.295-.08.443-.159v-.524c-.162.08-.31.143-.458.175a2.047 2.047 0 0 1-.458.047c-.251 0-.458-.079-.59-.238-.134-.143-.208-.38-.223-.667h1.877v-.349c0-.429-.104-.762-.325-1-.207-.238-.503-.365-.872-.365-.399 0-.724.143-.945.428-.222.286-.34.667-.34 1.16 0 .476.118.857.37 1.127zm.458-2.033a.59.59 0 0 1 .458-.19c.192 0 .34.063.443.19.104.128.163.318.163.572h-1.27c.029-.254.088-.445.206-.572z" fill="#8F96A1"/>
    <path d="M44.673 22.51h.665v-.492h-.68v-.19c0-.175.03-.302.089-.397.059-.08.162-.127.295-.127.148 0 .281.032.429.08l.162-.493a1.709 1.709 0 0 0-.62-.111c-.31 0-.547.08-.71.254-.162.175-.236.445-.236.794v.19l-.458.19v.303h.458v2.54h.606v-2.54zM47.731 24.654l.09.397h.472v-3.017h-.606v1.509c0 .38-.059.65-.177.81-.118.158-.296.237-.547.237-.192 0-.325-.063-.413-.174-.09-.127-.134-.286-.134-.524v-1.858h-.605v1.985c0 .365.074.65.25.826.178.174.43.27.77.27.191 0 .368-.048.516-.128a.926.926 0 0 0 .355-.333h.03zM50.627 24.495c-.148.048-.295.08-.443.08-.118 0-.221-.032-.266-.096-.074-.079-.103-.19-.103-.349v-1.62h.798v-.492h-.798v-.667h-.37l-.206.636-.414.238v.285h.384v1.62c0 .635.28.953.842.953.118 0 .22-.016.324-.032h.001a.808.808 0 0 0 .251-.08v-.476zM53.065 24.654l.089.397h.473v-3.017h-.606v1.509c0 .38-.06.65-.178.81-.118.158-.295.237-.546.237-.192 0-.325-.063-.414-.174-.089-.127-.133-.286-.133-.524v-1.858h-.606v1.985c0 .365.09.65.252.826.177.174.428.27.768.27.192 0 .37-.048.517-.128a.926.926 0 0 0 .355-.333h.03zM56.197 22.003a1.414 1.414 0 0 0-.295-.032.814.814 0 0 0-.473.158c-.148.112-.28.255-.37.43h-.029l-.074-.525h-.472v3.017h.59v-1.572c0-.27.075-.476.222-.65a.712.712 0 0 1 .577-.255c.088 0 .177.016.265.032l.06-.604z" fill="#8F96A1"/>
    <path fill-rule="evenodd" clip-rule="evenodd" d="M56.818 24.686c.236.27.576.413 1.02.413.192 0 .354-.016.502-.048.148-.032.295-.08.443-.159v-.524c-.162.08-.31.143-.458.175a2.047 2.047 0 0 1-.458.047c-.251 0-.458-.079-.591-.238-.133-.143-.207-.38-.222-.667h1.877v-.349c0-.429-.104-.762-.325-1-.207-.238-.503-.365-.872-.365-.399 0-.724.143-.946.428-.221.286-.34.667-.34 1.16 0 .476.119.857.37 1.127zm.458-2.033a.59.59 0 0 1 .458-.19.58.58 0 0 1 .443.19c.104.128.163.318.163.572h-1.27c.029-.254.088-.445.206-.572zM63.083 24.686c.236-.286.354-.667.354-1.16 0-.476-.103-.84-.34-1.127-.236-.285-.561-.428-.96-.428-.428 0-.754.143-.99.413s-.355.65-.355 1.143c0 .317.06.587.163.825.103.238.251.429.458.556.207.127.429.19.695.19.413 0 .738-.142.975-.412zm-.96-.111c-.488 0-.725-.35-.725-1.048 0-.334.06-.588.178-.762.118-.175.295-.27.546-.27.473 0 .71.349.71 1.032 0 .698-.237 1.048-.71 1.048z" fill="#8F96A1"/>
    <path d="M64.856 22.51h.665v-.492h-.68v-.19c0-.175.03-.318.088-.397.06-.08.163-.127.296-.127.148 0 .28.032.428.08l.163-.493a1.709 1.709 0 0 0-.62-.111c-.31 0-.547.08-.71.254-.162.175-.236.445-.236.794v.19l-.458.19v.303h.458v2.54h.606v-2.54zM69.126 25.05h.65v-1.603c0-.317.059-.555.162-.714.104-.159.266-.238.502-.238.178 0 .296.063.385.174.073.127.118.286.118.524v1.858h.59v-1.969c0-.365-.088-.65-.236-.826-.162-.174-.398-.27-.738-.27-.192 0-.37.048-.517.128a.967.967 0 0 0-.355.349h-.044c-.133-.318-.429-.477-.857-.477-.178 0-.34.032-.488.112a.797.797 0 0 0-.34.333h-.03l-.088-.397h-.473v3.017h.591v-1.508c0-.381.06-.651.163-.81.103-.159.266-.238.502-.238.177 0 .31.063.384.174.074.127.118.286.118.524v1.858z" fill="#8F96A1"/>
    <path fill-rule="evenodd" clip-rule="evenodd" d="M74.46 24.686c.236-.286.354-.667.354-1.16 0-.476-.118-.84-.34-1.127-.236-.285-.562-.428-.96-.428-.429 0-.754.143-.99.413-.237.27-.355.65-.355 1.143 0 .317.06.587.163.825.103.238.25.429.458.556.207.127.428.19.694.19.414 0 .739-.142.976-.412zm-.96-.111c-.488 0-.725-.35-.725-1.048 0-.334.06-.588.177-.762.118-.175.296-.27.547-.27.473 0 .709.349.709 1.032 0 .698-.236 1.048-.709 1.048z" fill="#8F96A1"/>
    <path d="M77.37 25.05h.605v-1.952c0-.746-.324-1.111-1.004-1.111-.192 0-.37.031-.517.11a.928.928 0 0 0-.354.334h-.03l-.089-.397h-.473v3.017h.592v-1.508c0-.381.073-.651.177-.81.103-.159.295-.238.546-.238.192 0 .326.063.414.174.089.111.133.286.133.524v1.858z" fill="#8F96A1"/>
    <path fill-rule="evenodd" clip-rule="evenodd" d="M79.01 24.686c.236.27.576.413 1.02.413.192 0 .354-.016.502-.048.147-.032.296-.08.443-.159v-.524c-.162.08-.325.143-.458.175a2.049 2.049 0 0 1-.458.047c-.251 0-.458-.079-.59-.238-.134-.143-.208-.38-.223-.667h1.877v-.349c0-.429-.103-.762-.325-1-.207-.238-.503-.365-.872-.365-.399 0-.724.143-.945.428-.222.286-.34.667-.34 1.16 0 .476.118.857.37 1.127zm.443-2.033a.59.59 0 0 1 .458-.19c.192 0 .34.063.444.19.103.128.162.318.162.572h-1.27c.03-.254.088-.445.206-.572z" fill="#8F96A1"/>
    <path d="M81.92 22.034h-.65l1.153 3.001-.104.286c-.118.365-.324.54-.605.54-.118 0-.222-.016-.31-.032v.508c.118.032.25.048.384.048.517 0 .872-.318 1.093-.937l1.197-3.414h-.65a97.522 97.522 0 0 0-.626 1.954l-.025.079c-.044.142-.073.27-.088.365h-.014a3.397 3.397 0 0 0-.178-.683l-.577-1.715z" fill="#8F96A1"/>
</svg>
