<svg width="70" height="40" viewBox="0 0 70 40" fill="none" xmlns="http://www.w3.org/2000/svg">
    <path d="m29.079 13.69-.001-.007a15.64 15.64 0 0 0-.135-.877c-.23-1.19-1.538-1.343-2.283-.914-.399.23-.583.633-.623 1.052-.048.465-.033.938-.018 1.408l.007.247c.01.455.276.781.67.96.806.363 1.629.695 2.456 1.027 1.221.49 1.982 1.348 2.125 2.682l.033.295c.059.517.118 1.039.105 1.554-.025.873-.133 1.741-.516 2.549-.48 1-1.292 1.593-2.365 1.818-1.175.245-2.324.143-3.33-.542-.853-.582-1.466-1.379-1.604-2.446-.036-.29-.053-.583-.07-.876-.01-.163-.02-.326-.032-.488-.01-.158.05-.215.21-.215.658.006 1.312.006 1.97 0 .164 0 .2.067.21.22.005.095.008.191.01.287v.003c.008.289.016.578.093.85.204.724.592.913 1.302.97.266.02.541-.026.802-.087.506-.118.858-.547.899-1.073l.026-.302v-.002c.03-.338.06-.676.06-1.014 0-.398-.03-.807-.096-1.2a1.038 1.038 0 0 0-.634-.787c-.408-.178-.82-.352-1.233-.526a97.815 97.815 0 0 1-1.234-.526c-1.037-.454-1.752-1.185-2.048-2.309-.21-.812-.235-1.624-.148-2.451.061-.619.24-1.196.526-1.742.51-.966 1.333-1.533 2.375-1.778.787-.184 1.573-.158 2.334.133 1.257.475 2.095 1.354 2.396 2.666.09.403.095.829.099 1.252.002.15.003.3.008.45 0 .05-.112.152-.173.157-.482.004-.957.003-1.425.002h-.006l-.684-.002-.058-.418zM6.285 11.944l.002-.006c.08-.257.16-.514.277-.751.49-.976 1.313-1.527 2.376-1.742.71-.143 1.415-.158 2.104.082 1.292.454 2.146 1.369 2.442 2.682.114.498.114 1.024.113 1.549 0 .228 0 .457.01.683.005.127-.057.189-.2.204a97.99 97.99 0 0 0-1.651.21h-.002l-.502.066-.004-.029c-.009-.07-.017-.132-.017-.19l-.01-.45-.001-.041a38.293 38.293 0 0 0-.04-1.226c-.026-.485-.189-.925-.649-1.144-.495-.24-1.037-.26-1.506.046-.363.24-.506.669-.511 1.088-.016 2.988-.016 5.976.005 8.964.005.5.173.991.71 1.195.562.215 1.307.164 1.721-.439.148-.215.204-.52.225-.787.033-.41.04-.823.046-1.235v-.005l.01-.496c0-.026.002-.05.005-.083l.005-.065.218.014.039.002c.209.014.413.027.617.045.155.016.31.035.465.055.249.03.497.062.745.078.22.015.297.092.291.306-.004.198-.002.396 0 .594v.006c.002.229.004.458-.005.687-.066 1.594-.801 2.769-2.247 3.464-.644.306-1.328.357-2.038.255-.628-.092-1.226-.24-1.752-.618-.771-.547-1.18-1.303-1.359-2.212a.19.19 0 0 0-.03-.069l-.002-.002a.4.4 0 0 1-.014-.026c-.005-3.422-.005-6.86-.005-10.292.043-.122.081-.245.12-.367zM61.278 25.434h.505v-1.727l-.001-3.334v-.09c-.001-2.283-.002-4.568 0-6.854 0-1.22.027-2.441.052-3.662.005-.23-.072-.286-.291-.281-.618.01-1.231.01-1.85 0-.188 0-.26.056-.25.25.026.618.052 1.242.052 1.86.003 1.584.002 3.17 0 4.758v2.699a1.677 1.677 0 0 0-.043-.048L59.45 19a.207.207 0 0 1-.041-.055l-.316-.894-.005-.015c-.208-.591-.417-1.182-.63-1.773l-.681-1.897v-.001l-.054-.15-.628-1.747-.354-.991-.001-.002v-.002l-.001-.001c-.217-.605-.434-1.212-.645-1.818-.046-.133-.108-.169-.24-.169-.471.008-.945.007-1.42.006h-.475a.629.629 0 0 0-.092.008l-.046.006v15.917h2.293v-9.526l.04.069a.297.297 0 0 1 .032.058l.503 1.382.001.003a430.339 430.339 0 0 0 .992 2.714l.015.041v.002h.001v.001c.293.795.585 1.589.873 2.385.166.457.328.915.49 1.373v.002c.163.459.325.916.49 1.373.021.056.108.128.164.128.526.008 1.049.007 1.563.006z" fill="#8F96A1"/>
    <path fill-rule="evenodd" clip-rule="evenodd" d="m41.974 15.995.002 1.474c0 1.41 0 2.82.005 4.22 0 .24.015.48.046.72.122 1.021.623 1.839 1.45 2.426.9.639 1.92.879 3.02.69.827-.143 1.562-.496 2.145-1.099.684-.715 1.016-1.593 1.016-2.574 0-3.04-.02-6.084-.046-9.123-.005-.766-.301-1.456-.802-2.018-.935-1.047-2.11-1.506-3.52-1.322-.904.122-1.68.485-2.308 1.154-.66.705-1.001 1.527-1.006 2.482-.004.97-.003 1.94-.002 2.91V15.995zm5.356.39a575.668 575.668 0 0 0-.002 1.967v.008c0 1.152-.001 2.302.01 3.451.006.874-.648 1.39-1.434 1.43-.557.031-1.068-.137-1.354-.633a2.004 2.004 0 0 1-.27-.965c-.021-2.774-.021-5.543-.006-8.311 0-.388.066-.787.342-1.114.368-.439.853-.577 1.385-.53.48.04.894.265 1.129.704.112.204.183.46.188.695.016 1.1.014 2.199.012 3.298z" fill="#8F96A1"/>
    <path d="M37.675 25.423h-2.303V9.5h2.303v15.922zM19.527 25.422h-2.299V9.51h2.3v15.912zM18.282 27.594v.001c0 1.098 0 2.18-.005 3.263 0 .057-.056.143-.102.159-.271.092-.629-.03-.797-.24-.428-.538-.861-1.071-1.327-1.646l-.012-.014v-.001l-.092-.112v1.676c0 .347 0 .347-.342.347a7.7 7.7 0 0 0-.185 0c-.153.003-.23.004-.268-.035-.039-.038-.037-.117-.034-.275l.002-.18c-.003-.592-.002-1.187-.001-1.78v-.002l.001-.89v-.286c.068 0 .136-.004.203-.008h.001c.154-.01.303-.02.434.023.126.042.223.168.316.288l.003.005.06.075c.423.516.837 1.037 1.25 1.557l.03-.012.027-.012v-1.896c.281-.005.547-.005.838-.005z" fill="#8F96A1"/>
    <path fill-rule="evenodd" clip-rule="evenodd" d="M10.122 27.619c.202 0 .403-.004.603-.008h.002c.473-.008.941-.017 1.407.023.465.036.889.48.93.878.056.511.015 1.002-.5 1.303a.288.288 0 0 0-.072.066.523.523 0 0 0-.034.04h-.001a1.192 1.192 0 0 1-.021.027l.385.564.009.013v.001l.009.012.332.488c-.09 0-.175.001-.255.003a3.358 3.358 0 0 1-.516-.014c-.102-.015-.205-.112-.281-.194a1.295 1.295 0 0 1-.158-.223 5.317 5.317 0 0 0-.041-.068c-.172-.254-.259-.384-.38-.442-.123-.059-.283-.044-.606-.012v.94h-.812v-3.397zm1.048 1.753h.016c.202.002.395.004.59-.006.246-.01.389-.18.455-.399a.533.533 0 0 0-.127-.552c-.169-.168-.91-.306-1.093-.194a.198.198 0 0 0-.067.138c-.012.264-.011.525-.01.798v.213l.234.002h.002z" fill="#8F96A1"/>
    <path d="M24.025 29.462c-.113.276-.2.495-.286.72l-.001.001c-.05.133-.102.265-.148.397-.148.414-.439.562-.853.435-.046-.016-.097-.082-.117-.133v-.003c-.292-.8-.583-1.602-.868-2.408-.008-.024-.01-.049-.013-.09v-.001l-.002-.02v-.017l.192-.003c.158-.005.312-.009.461.013.066.01.143.133.174.22.123.338.24.68.366 1.045v.001l.145.42.071-.193c.123-.332.23-.624.342-.916.016-.046.031-.092.046-.132.169-.49.215-.526.73-.45.062.01.134.097.159.164.122.32.238.645.361.986l.196.54.337-.941.266-.744h.73l-.156.431c-.258.712-.514 1.417-.774 2.118-.015.046-.081.107-.127.107l-.05.003a2.27 2.27 0 0 1-.507-.008c-.072-.01-.148-.127-.179-.21a27.611 27.611 0 0 1-.342-.91v-.001l-.005-.014-.148-.407zM28.833 28.364h.766l.308.875v.001l.018.05v.002l.266.758.152-.413.001-.005c.137-.373.266-.723.379-1.079.05-.168.127-.204.286-.204h.016c.433.005.44.005.597.424.095.251.186.504.283.77l.003.01v.002l.178.49.308-.836c.105-.285.209-.565.31-.845h.716l-.04.113h-.001l-.013.037c-.16.443-.316.874-.467 1.306l-.368 1.027c-.051.143-.133.189-.286.189-.278 0-.416 0-.507-.066-.09-.064-.135-.192-.224-.446l-.005-.014c-.07-.206-.145-.41-.225-.625-.05-.133-.1-.271-.153-.417-.055.144-.11.283-.163.418v.003c-.134.34-.259.66-.368.983-.046.128-.097.159-.22.164-.303.01-.454.015-.554-.054-.098-.067-.146-.207-.243-.484l-.005-.014c-.21-.623-.428-1.234-.651-1.857l-.002-.003-.092-.26z" fill="#8F96A1"/>
    <path fill-rule="evenodd" clip-rule="evenodd" d="M6.572 27.574c.184 0 .366-.003.547-.006a14.68 14.68 0 0 1 1.24.016c.512.035.92.296 1.11.812.163.434.035 1.011-.322 1.323-.235.21-.527.332-.848.337-.195.003-.391.002-.594.001H7.38l-.002.264v.003c-.001.169-.002.334.001.498.005.159-.056.22-.214.21-.128-.007-.255-.005-.386-.003h-.013a11.68 11.68 0 0 1-.199.003c.005-1.155.005-2.294.005-3.458zm.817 1.798.24.001c.195.002.385.004.578-.007.245-.015.45-.24.485-.51.03-.23-.138-.516-.373-.562a7.875 7.875 0 0 0-.67-.097 21.73 21.73 0 0 1-.26-.03v1.205zM19.657 29.907c.154.506.644.587 1.38.24l.046.051.367.414c-.276.27-.577.419-.965.424-.475.005-.925-.041-1.277-.399-.383-.388-.485-.858-.327-1.358a1.31 1.31 0 0 1 .98-.92c.624-.158 1.298.072 1.574.603.094.18.136.386.177.591l.032.155c.036.158-.05.21-.21.21-.34-.004-.68-.003-1.02-.002h-.002l-.51.001c-.081-.01-.163-.01-.245-.01zm1.185-.49c-.122-.322-.378-.522-.628-.476-.301.057-.516.143-.546.476h1.174zM39.962 29.913H38.02a.568.568 0 0 0 .403.424c.287.082.588.061.838-.128.123-.092.19-.04.26.046.039.047.076.094.115.144l.001.001c.05.064.103.131.166.208-.028.023-.056.05-.085.076a.947.947 0 0 1-.212.164c-.638.322-1.277.291-1.849-.138-.582-.43-.602-1.369-.168-1.875.572-.669 1.46-.71 2.11-.148.347.302.438.73.362 1.226zm-.766-.5c-.061-.368-.389-.476-.634-.47-.29.005-.48.194-.51.47h1.144z" fill="#8F96A1"/>
    <path d="m26.622 30.253.204.027h.001c.306.041.586.078.863.111.056.006.122.01.163-.02.04-.03.073-.075.104-.12.016-.021.032-.043.05-.064-.016-.012-.03-.026-.045-.04l-.002-.001c-.04-.038-.08-.076-.127-.087-.166-.04-.334-.073-.503-.105l-.243-.048c-.383-.076-.644-.347-.654-.725-.005-.337.332-.685.654-.787.48-.148.94-.092 1.404.057.164.05.256.132.138.316a2.903 2.903 0 0 0-.128.232l-.06.115a7.583 7.583 0 0 1-.18-.048 2.965 2.965 0 0 0-.377-.09 1.902 1.902 0 0 0-.511.016c-.056.01-.133.112-.133.168.005.057.087.138.153.154.11.027.223.047.337.067h.001c.144.025.289.051.428.091.583.163.792.541.527 1.103-.143.307-.47.42-.777.44-.419.03-.843.04-1.256-.123-.23-.092-.312-.163-.159-.383.055-.08.092-.169.115-.224l.001-.004.007-.015.005-.012zM36.049 28.459v.002c.01.035.018.066.023.093l.154-.062.024-.01c.152-.061.297-.12.445-.168.169-.056.291-.02.271.2a.474.474 0 0 0-.001.08l.001.042c0 .393 0 .393-.393.44-.291.035-.48.27-.486.612a40.9 40.9 0 0 0 0 1.119c.005.153-.04.225-.204.22-.117-.004-.212-.003-.29-.003-.179 0-.265 0-.305-.042-.038-.04-.035-.117-.031-.266.002-.076.005-.17.003-.287a44.129 44.129 0 0 1-.003-.921v-.001c.002-.308.003-.616-.002-.922-.005-.179.056-.25.24-.235.115.006.227.004.344.002l.182-.002.026.103.002.006zM33.808 28.36h.781v2.662l-.172.001a4.469 4.469 0 0 1-.482-.011c-.046-.005-.122-.108-.122-.164A130.25 130.25 0 0 1 33.807 29v-.639z" fill="#8F96A1"/>
    <path fill-rule="evenodd" clip-rule="evenodd" d="M63.728 9.492c.403-.067.858.439.838.802-.031.485-.373.832-.828.848-.363.01-.838-.312-.838-.813 0-.424.348-.863.828-.837zm-.358 1.328c.22.127.44.158.639.03-.128-.153-.25-.301-.409-.495l-.007.123a9.787 9.787 0 0 1-.018.3c-.072.021-.143.037-.205.042zm0 0c-.005-.327-.005-.653-.005-1V9.82c-.286.265-.373.628.005 1zm.108-1.012c.063.006.126.01.19.013l.016.002.166.01c.23.016.333.195.235.4-.021.042-.053.08-.086.117-.022.025-.043.05-.062.076l.2.322c.245-.214.26-.531.05-.832a.482.482 0 0 0-.71-.108zm.464.307a.924.924 0 0 0-.014-.034l-.001-.002-.002-.005-.013-.03h-.322c.025.091.082.168.133.168.055-.004.108-.034.16-.064l.06-.033z" fill="#8F96A1"/>
    <path d="M34.198 28.012c-.342 0-.49-.123-.49-.414 0-.28.189-.444.526-.46.235-.01.45.194.45.424 0 .317-.144.45-.486.45z" fill="#8F96A1"/>
</svg>
