<svg width="24" height="24" viewBox="0 0 24 24" fill="none" xmlns="http://www.w3.org/2000/svg">
<path d="M21.68 18.9655C22.4061 18.5551 23 17.5476 23 16.7266V7.27339C23 6.45245 22.4061 5.44493 21.68 5.03446L13.32 0.307852C12.5939 -0.102617 11.4061 -0.102617 10.68 0.307852L2.31997 5.03446C1.59394 5.44493 1 6.45245 1 7.27339V16.7266C1 17.5476 1.59394 18.5551 2.31997 18.9655L10.68 23.6921C11.4061 24.1026 12.5939 24.1026 13.32 23.6921L21.68 18.9655Z" fill="url(#paint0_linear)"/>
<path d="M16.3291 9.07082C16.032 8.90109 15.6501 8.90109 15.3107 9.07082L12.9344 10.4711L11.322 11.3622L8.98813 12.7625C8.69109 12.9322 8.30919 12.9322 7.96973 12.7625L6.1451 11.6592C5.84807 11.4895 5.6359 11.15 5.6359 10.7681V8.64649C5.6359 8.30702 5.80563 7.96755 6.1451 7.75539L7.96973 6.69456C8.26676 6.52482 8.64866 6.52482 8.98813 6.69456L10.8128 7.79782C11.1098 7.96755 11.322 8.30702 11.322 8.68892V10.0892L12.9344 9.15568V7.71295C12.9344 7.37349 12.7647 7.03402 12.4252 6.82186L9.03056 4.8275C8.73353 4.65776 8.35163 4.65776 8.01216 4.8275L4.53264 6.86429C4.19317 7.03402 4.02344 7.37349 4.02344 7.71295V11.7017C4.02344 12.0411 4.19317 12.3806 4.53264 12.5928L7.96973 14.5871C8.26676 14.7569 8.64866 14.7569 8.98813 14.5871L11.322 13.2293L12.9344 12.2957L15.2682 10.9379C15.5653 10.7681 15.9472 10.7681 16.2866 10.9379L18.1113 11.9987C18.4083 12.1684 18.6205 12.5079 18.6205 12.8898V15.0115C18.6205 15.3509 18.4507 15.6904 18.1113 15.9026L16.3291 16.9634C16.032 17.1331 15.6501 17.1331 15.3107 16.9634L13.486 15.9026C13.189 15.7328 12.9768 15.3934 12.9768 15.0115V13.6536L11.3644 14.5871V15.9874C11.3644 16.3269 11.5341 16.6664 11.8736 16.8785L15.3107 18.8729C15.6077 19.0426 15.9896 19.0426 16.3291 18.8729L19.7662 16.8785C20.0632 16.7088 20.2754 16.3693 20.2754 15.9874V11.9563C20.2754 11.6168 20.1056 11.2773 19.7662 11.0652L16.3291 9.07082Z" fill="white"/>
<defs>
<linearGradient id="paint0_linear" x1="12" y1="0" x2="12" y2="24" gradientUnits="userSpaceOnUse">
<stop stop-color="#AD7CFF"/>
<stop offset="1" stop-color="#8247E5"/>
</linearGradient>
</defs>
</svg>
