<svg width="48" height="48" viewBox="0 0 48 48" fill="none" xmlns="http://www.w3.org/2000/svg">
<path fill-rule="evenodd" clip-rule="evenodd" d="M24.091 12.0068C24.0911 12.5557 24.5352 12.9969 25.0812 13.0526C30.6489 13.6205 35 18.5279 35 24.4977C35 29.1995 32.301 33.2423 28.4344 35.025C27.9447 35.2508 27.6685 35.7973 27.8317 36.3112L30.3017 44.0867C30.4715 44.6214 31.0493 44.9139 31.5705 44.7059C39.4301 41.5689 44.9999 33.7361 44.9999 24.5697C44.9999 13.0421 36.191 3.62361 25.0969 3.00152C24.5424 2.97042 24.0892 3.422 24.0894 3.97737L24.091 12.0068Z" fill="#13E5BF" fill-opacity="0.6"/>
<path fill-rule="evenodd" clip-rule="evenodd" d="M3.54335 29.3331C3.67159 29.8848 4.2504 30.1911 4.78904 30.016L9.88246 28.3597C10.3898 28.1948 10.6742 27.6612 10.5716 27.1377C10.409 26.3077 10.3236 25.4491 10.3236 24.57C10.3236 20.6747 11.9992 17.1805 14.6519 14.8036C15.0523 14.4448 15.1463 13.8416 14.8349 13.4033L11.6795 8.96131C11.3522 8.5006 10.7067 8.40064 10.2751 8.76544C5.83227 12.5206 3 18.2062 3 24.5699C3 26.2098 3.18809 27.8047 3.54335 29.3331Z" fill="#13E5BF" fill-opacity="0.2"/>
<mask id="path-3-inside-1_8095_410106" fill="white">
<path fill-rule="evenodd" clip-rule="evenodd" d="M15.3577 13.5364C15.6842 13.997 16.325 14.0923 16.8027 13.7916C18.2907 12.8549 19.9898 12.2454 21.8081 12.0586C22.3511 12.0028 22.7891 11.5618 22.7884 11.016L22.7804 5.10507C22.7796 4.54951 22.3256 4.09842 21.7711 4.13215C18.2485 4.3464 14.9716 5.49653 12.1738 7.34335C11.7181 7.64417 11.6195 8.2629 11.9353 8.70838L15.3577 13.5364Z"/>
</mask>
<path d="M11.9353 8.70838L11.1194 9.28669L11.9353 8.70838ZM22.7804 5.10507L21.7804 5.10642L22.7804 5.10507ZM16.8027 13.7916L16.27 12.9453L16.8027 13.7916ZM21.7059 11.0638C19.7291 11.2669 17.8835 11.9297 16.27 12.9453L17.3354 14.6379C18.698 13.7802 20.2505 13.2238 21.9103 13.0533L21.7059 11.0638ZM21.7804 5.10642L21.7884 11.0173L23.7884 11.0146L23.7804 5.10371L21.7804 5.10642ZM21.7104 3.13399C18.0067 3.35926 14.5617 4.5689 11.6229 6.50878L12.7247 8.17793C15.3815 6.42416 18.4903 5.33354 21.8318 5.1303L21.7104 3.13399ZM16.1735 12.9581L12.7511 8.13007L11.1194 9.28669L14.5419 14.1148L16.1735 12.9581ZM11.6229 6.50878C10.6683 7.13886 10.4958 8.40689 11.1194 9.28669L12.7511 8.13007C12.7498 8.12835 12.7523 8.1316 12.7511 8.13915C12.7504 8.14319 12.7484 8.15013 12.743 8.15851C12.7372 8.16772 12.7298 8.17451 12.7247 8.17793L11.6229 6.50878ZM23.7804 5.10371C23.7789 4.00677 22.8731 3.06327 21.7104 3.13399L21.8318 5.1303C21.8256 5.13068 21.8153 5.12961 21.8046 5.12552C21.7949 5.12181 21.789 5.11722 21.786 5.11427C21.7803 5.10877 21.7804 5.10439 21.7804 5.10642L23.7804 5.10371ZM16.27 12.9453C16.242 12.9629 16.2114 12.967 16.1892 12.9633C16.1792 12.9616 16.1744 12.9589 16.1737 12.9585C16.1734 12.9583 16.1736 12.9584 16.174 12.9588C16.1744 12.9592 16.1743 12.9592 16.1735 12.9581L14.5419 14.1148C15.2065 15.0523 16.4552 15.1919 17.3354 14.6379L16.27 12.9453ZM21.9103 13.0533C22.9105 12.9506 23.7899 12.1256 23.7884 11.0146L21.7884 11.0173C21.7884 11.0184 21.7883 11.0184 21.7884 11.0178C21.7885 11.0173 21.7886 11.0172 21.7885 11.0176C21.7881 11.0183 21.786 11.0231 21.7793 11.03C21.7645 11.0455 21.7386 11.0605 21.7059 11.0638L21.9103 13.0533Z" fill="url(#paint0_linear_8095_410106)" mask="url(#path-3-inside-1_8095_410106)"/>
<mask id="path-5-inside-2_8095_410106" fill="white">
<path fill-rule="evenodd" clip-rule="evenodd" d="M3.54335 29.3326C3.67159 29.8843 4.2504 30.1907 4.78904 30.0155L10.5361 28.1467C11.0415 27.9823 11.3259 27.4518 11.227 26.9296C11.0781 26.1429 11 25.3297 11 24.4974C11 20.8114 12.5317 17.498 14.9682 15.2101C15.3541 14.8477 15.4403 14.255 15.1337 13.8234L11.6795 8.96082C11.3522 8.50011 10.7067 8.40015 10.2751 8.76495C5.83227 12.5201 3 18.2057 3 24.5694C3 26.2093 3.18809 27.8042 3.54335 29.3326Z"/>
</mask>
<path d="M11.6795 8.96082L10.8642 9.53994L11.6795 8.96082ZM14.9682 15.2101L14.2837 14.4811L14.9682 15.2101ZM15.1337 13.8234L14.3184 14.4025L15.1337 13.8234ZM10.5361 28.1467L10.8453 29.0977L10.5361 28.1467ZM11.227 26.9296L12.2096 26.7436L11.227 26.9296ZM10.2268 27.1957L4.4798 29.0645L5.09828 30.9665L10.8453 29.0977L10.2268 27.1957ZM10 24.4974C10 25.3923 10.084 26.2678 10.2445 27.1156L12.2096 26.7436C12.0722 26.018 12 25.267 12 24.4974H10ZM14.2837 14.4811C11.6492 16.9549 10 20.5307 10 24.4974H12C12 21.092 13.4142 18.041 15.6527 15.9391L14.2837 14.4811ZM10.8642 9.53994L14.3184 14.4025L15.9489 13.2443L12.4947 8.38171L10.8642 9.53994ZM9.62961 8.00121C4.96769 11.9415 2 17.9039 2 24.5694H4C4 18.5075 6.69685 13.0987 10.9207 9.52869L9.62961 8.00121ZM2 24.5694C2 26.286 2.1969 27.9568 2.56932 29.559L4.51738 29.1062C4.17927 27.6516 4 26.1327 4 24.5694H2ZM12.4947 8.38171C11.8487 7.47226 10.5346 7.23631 9.62961 8.00121L10.9207 9.52869C10.9161 9.53258 10.907 9.53798 10.8957 9.54109C10.8855 9.5439 10.8778 9.54368 10.8736 9.54307C10.8656 9.54192 10.863 9.53817 10.8642 9.53994L12.4947 8.38171ZM15.6527 15.9391C16.3678 15.2676 16.572 14.1215 15.9489 13.2443L14.3184 14.4025C14.3189 14.4032 14.3186 14.4026 14.3186 14.4026C14.3188 14.4034 14.3197 14.408 14.3186 14.4166C14.3162 14.4356 14.3056 14.4605 14.2837 14.4811L15.6527 15.9391ZM4.4798 29.0645C4.47774 29.0652 4.48206 29.0638 4.48892 29.0675C4.49257 29.0695 4.4987 29.0738 4.50509 29.082C4.51218 29.0911 4.51607 29.1006 4.51738 29.1062L2.56932 29.559C2.83788 30.7144 4.03469 31.3123 5.09828 30.9665L4.4798 29.0645ZM10.8453 29.0977C11.8719 28.7639 12.3934 27.7149 12.2096 26.7436L10.2445 27.1156C10.2498 27.1439 10.2439 27.169 10.2349 27.185C10.2309 27.1923 10.2276 27.1953 10.227 27.1957C10.2268 27.196 10.2269 27.1958 10.2273 27.1956C10.2277 27.1954 10.2277 27.1954 10.2268 27.1957L10.8453 29.0977Z" fill="url(#paint1_linear_8095_410106)" mask="url(#path-5-inside-2_8095_410106)"/>
<mask id="path-7-inside-3_8095_410106" fill="white">
<path fill-rule="evenodd" clip-rule="evenodd" d="M28.6927 43.1074C28.8587 43.6317 28.5706 44.1944 28.0392 44.3365C26.4248 44.7681 24.7309 44.9978 22.9846 44.9978C14.5199 44.9978 7.28508 39.6 4.37709 31.9792C4.18111 31.4656 4.46605 30.9016 4.98735 30.7272L10.6725 28.8244C11.1996 28.6479 11.7658 28.9373 11.9788 29.4507C13.8201 33.8906 18.0617 36.9978 22.9999 36.9978C23.8958 36.9978 24.7688 36.8955 25.6087 36.7015C26.1497 36.5766 26.716 36.8635 26.8836 37.3929L28.6927 43.1074Z"/>
</mask>
<path d="M26.8836 37.3929L25.9302 37.6948L26.8836 37.3929ZM28.0392 44.3365L27.7809 43.3704L28.0392 44.3365ZM28.6927 43.1074L27.7393 43.4092L28.6927 43.1074ZM22.9846 45.9978C24.819 45.9978 26.5997 45.7564 28.2975 45.3025L27.7809 43.3704C26.2499 43.7797 24.6428 43.9978 22.9846 43.9978V45.9978ZM3.4428 32.3357C6.48929 40.3195 14.0795 45.9978 22.9846 45.9978V43.9978C14.9603 43.9978 8.08087 38.8806 5.31138 31.6226L3.4428 32.3357ZM5.30474 31.6754L10.9899 29.7727L10.3551 27.8761L4.66996 29.7789L5.30474 31.6754ZM11.0551 29.8338C13.0384 34.6162 17.6248 37.9978 22.9999 37.9978V35.9978C18.4985 35.9978 14.6018 33.165 12.9025 29.0676L11.0551 29.8338ZM22.9999 37.9978C23.9722 37.9978 24.9206 37.8867 25.8337 37.6759L25.3837 35.7272C24.6169 35.9042 23.8194 35.9978 22.9999 35.9978V37.9978ZM25.9302 37.6948L27.7393 43.4092L29.646 42.8055L27.837 37.0911L25.9302 37.6948ZM25.8337 37.6759C25.8665 37.6683 25.8971 37.6744 25.9169 37.6849C25.9259 37.6897 25.9296 37.6937 25.9302 37.6944C25.9305 37.6947 25.9303 37.6946 25.9301 37.6941C25.9298 37.6936 25.9299 37.6936 25.9302 37.6948L27.837 37.0911C27.4957 36.0132 26.3785 35.4974 25.3837 35.7272L25.8337 37.6759ZM10.9899 29.7727C10.991 29.7723 10.9911 29.7723 10.9905 29.7724C10.99 29.7725 10.9898 29.7724 10.9901 29.7725C10.9908 29.7725 10.9958 29.7731 11.0041 29.7772C11.0227 29.7862 11.0433 29.8055 11.0551 29.8338L12.9025 29.0676C12.5079 28.1161 11.427 27.5173 10.3551 27.8761L10.9899 29.7727ZM5.31138 31.6226C5.31349 31.6282 5.31544 31.6377 5.31483 31.6484C5.31428 31.6581 5.3119 31.6646 5.31017 31.6681C5.30694 31.6747 5.30302 31.676 5.30474 31.6754L4.66996 29.7789C3.63959 30.1237 3.03296 31.2616 3.4428 32.3357L5.31138 31.6226ZM28.2975 45.3025C29.4123 45.0045 29.9737 43.8406 29.646 42.8055L27.7393 43.4092C27.7399 43.4113 27.7385 43.4072 27.7422 43.4001C27.7442 43.3963 27.7485 43.3901 27.7565 43.3835C27.7653 43.3763 27.7748 43.372 27.7809 43.3704L28.2975 45.3025Z" fill="url(#paint2_linear_8095_410106)" mask="url(#path-7-inside-3_8095_410106)"/>
<path d="M31.5705 44.7059L31.3851 44.2415L31.5705 44.7059ZM28.4344 35.025L28.225 34.571L28.4344 35.025ZM25.0812 13.0526L25.132 12.5552L25.0812 13.0526ZM35.5 24.4977C35.5 18.2869 30.9699 13.1506 25.132 12.5552L25.0305 13.55C30.3278 14.0903 34.5 18.7689 34.5 24.4977H35.5ZM28.6437 35.4791C32.6897 33.6137 35.5 29.3922 35.5 24.4977H34.5C34.5 29.0068 31.9123 32.8709 28.225 34.571L28.6437 35.4791ZM30.7782 43.9353L28.3083 36.1598L27.3552 36.4626L29.8251 44.238L30.7782 43.9353ZM31.7558 45.1703C39.8045 41.9578 45.4999 33.9416 45.4999 24.5697H44.4999C44.4999 33.5305 39.0556 41.18 31.3851 44.2415L31.7558 45.1703ZM45.4999 24.5697C45.4999 12.7862 36.493 3.13976 25.1249 2.5023L25.069 3.50073C35.8889 4.10746 44.4999 13.2981 44.4999 24.5697H45.4999ZM24.591 12.0067L24.5894 3.97727L23.5894 3.97747L23.591 12.0069L24.591 12.0067ZM25.1249 2.5023C24.268 2.45425 23.5892 3.15091 23.5894 3.97747L24.5894 3.97727C24.5893 3.69308 24.8169 3.4866 25.069 3.50073L25.1249 2.5023ZM29.8251 44.238C30.0778 45.0336 30.9498 45.492 31.7558 45.1703L31.3851 44.2415C31.1489 44.3358 30.8652 44.2092 30.7782 43.9353L29.8251 44.238ZM28.225 34.571C27.5323 34.8904 27.1073 35.6821 27.3552 36.4626L28.3083 36.1598C28.2297 35.9125 28.3571 35.6113 28.6437 35.4791L28.225 34.571ZM25.132 12.5552C24.8113 12.5225 24.591 12.2703 24.591 12.0067L23.591 12.0069C23.5911 12.8411 24.259 13.4713 25.0305 13.55L25.132 12.5552Z" fill="url(#paint3_linear_8095_410106)"/>
<defs>
<linearGradient id="paint0_linear_8095_410106" x1="24.3677" y1="9.04746" x2="11.7515" y2="9.04746" gradientUnits="userSpaceOnUse">
<stop stop-color="#13E5BF"/>
<stop offset="1" stop-color="#01C38D"/>
</linearGradient>
<linearGradient id="paint1_linear_8095_410106" x1="17.0819" y1="19.3041" x2="3" y2="19.3041" gradientUnits="userSpaceOnUse">
<stop stop-color="#13E5BF"/>
<stop offset="1" stop-color="#01C38D"/>
</linearGradient>
<linearGradient id="paint2_linear_8095_410106" x1="32.2346" y1="36.8851" x2="4.31494" y2="36.8851" gradientUnits="userSpaceOnUse">
<stop stop-color="#13E5BF"/>
<stop offset="1" stop-color="#01C38D"/>
</linearGradient>
<linearGradient id="paint3_linear_8095_410106" x1="47.9921" y1="23.8866" x2="24.0894" y2="23.8866" gradientUnits="userSpaceOnUse">
<stop stop-color="#13E5BF"/>
<stop offset="1" stop-color="#01C38D"/>
</linearGradient>
</defs>
</svg>
