<svg width="49" height="49" viewBox="0 0 49 49" fill="none" xmlns="http://www.w3.org/2000/svg">
<path fill-rule="evenodd" clip-rule="evenodd" d="M37.2981 31.8318C34.79 36.0629 30.1772 38.8995 24.902 38.8995C16.9491 38.8995 10.5021 32.4526 10.502 24.4998L10.502 24.4998H24.902L36.902 31.6998L37.2981 31.8318Z" fill="#13E5BF" fill-opacity="0.6"/>
<path fill-rule="evenodd" clip-rule="evenodd" d="M24.9022 10.0707L25.531 10.1008C33.1556 10.4662 39.3022 16.7788 39.3022 24.5001C39.3022 32.453 32.8551 38.9001 24.9022 38.9001C17.1597 38.9001 10.8306 32.7894 10.5028 25.1258L10.476 24.5001H24.9022V10.0707ZM26.1022 24.7542L36.5144 30.7823C37.5271 28.9142 38.1022 26.7744 38.1022 24.5001C38.1022 17.6419 32.8027 11.9851 26.1022 11.3445V24.7542ZM35.8949 31.8103L25.3411 25.7001H11.7433C12.35 32.4271 18.0159 37.7001 24.9022 37.7001C29.4889 37.7001 33.5291 35.3609 35.8949 31.8103Z" fill="url(#paint0_linear_606_7032)"/>
<path fill-rule="evenodd" clip-rule="evenodd" d="M24.9022 46.1001C36.8316 46.1001 46.5022 36.4295 46.5022 24.5001C46.5022 12.5708 36.8316 2.90015 24.9022 2.90015C12.9729 2.90015 3.30225 12.5708 3.30225 24.5001C3.30225 36.4295 12.9729 46.1001 24.9022 46.1001ZM24.9022 44.9001C36.1689 44.9001 45.3022 35.7668 45.3022 24.5001C45.3022 13.2335 36.1689 4.10015 24.9022 4.10015C13.6356 4.10015 4.50225 13.2335 4.50225 24.5001C4.50225 35.7668 13.6356 44.9001 24.9022 44.9001Z" fill="url(#paint1_linear_606_7032)"/>
<path d="M22.5021 7.69965C14.5492 7.69965 8.10205 14.1467 8.10205 22.0996H22.5021V7.69965Z" fill="#13E5BF" fill-opacity="0.2"/>
<defs>
<linearGradient id="paint0_linear_606_7032" x1="3.30225" y1="2.90015" x2="3.30225" y2="46.1001" gradientUnits="userSpaceOnUse">
<stop stop-color="#13E5BF"/>
<stop offset="1" stop-color="#01C38D"/>
</linearGradient>
<linearGradient id="paint1_linear_606_7032" x1="3.30225" y1="2.90015" x2="3.30225" y2="46.1001" gradientUnits="userSpaceOnUse">
<stop stop-color="#13E5BF"/>
<stop offset="1" stop-color="#01C38D"/>
</linearGradient>
</defs>
</svg>
