<svg width="48" height="48" viewBox="0 0 48 48" fill="none" xmlns="http://www.w3.org/2000/svg">
<path opacity="0.2" d="M6 20.8528C6 13.7201 11.7822 7.93793 18.9149 7.93793V8.97112C15.4912 8.97112 12.7157 11.7466 12.7157 15.1703V33.7677C12.7157 37.1914 15.4912 39.9668 18.9149 39.9668V41C11.7822 41 6 35.2178 6 28.0851V20.8528Z" fill="url(#paint0_linear_4815_1195)"/>
<path d="M6.425 20.8528C6.425 14.0971 11.7887 8.59409 18.4899 8.37002V8.55953C15.0295 8.77864 12.2907 11.6546 12.2907 15.1703V33.7677C12.2907 37.2833 15.0295 40.1593 18.4899 40.3784V40.5679C11.7887 40.3438 6.425 34.8409 6.425 28.0851V20.8528Z" stroke="url(#paint1_linear_4815_1195)" stroke-width="0.85"/>
<path fill-rule="evenodd" clip-rule="evenodd" d="M23.6924 10.5863C23.315 10.0815 22.8275 9.56572 22.2141 9.13733C26.3438 10.0311 29.6625 12.5599 31.2185 15.7959L31.5666 16.9164L32.0506 15.6094L32.012 15.4851C30.0169 11.2738 25.326 8.24152 19.7641 7.95942C19.4829 7.94516 19.1995 7.93793 18.9141 7.93793V8.12112V8.78793V8.97112C22.9299 8.97112 24.0971 13.2193 24.0971 13.2193L28.3687 25.5506L28.8335 24.2956L24.9077 12.9625L24.8957 12.9227C24.8837 12.8833 24.8663 12.8288 24.8433 12.7615C24.7973 12.627 24.7281 12.4402 24.6322 12.2182C24.4413 11.7767 24.139 11.1839 23.6924 10.5863ZM31.5948 32.2668L31.1077 33.4575L32.1658 36.5122C32.9893 38.8893 35.2285 40.4834 37.7442 40.4834H41.0539C41.3799 40.4834 41.6442 40.2191 41.6442 39.8931V38.2584C41.6442 38.083 41.5021 37.9408 41.3267 37.9408C39.9357 37.9408 38.7066 37.0356 38.2939 35.7072L34.795 24.444L34.2891 25.6806L37.4822 35.9594C37.9519 37.4715 39.2562 38.551 40.7942 38.7556V39.6334H37.7442C35.5908 39.6334 33.6739 38.2688 32.969 36.234L31.5948 32.2668Z" fill="url(#paint2_linear_4815_1195)"/>
<path opacity="0.2" fill-rule="evenodd" clip-rule="evenodd" d="M38.5039 6.03017C38.6409 5.95751 38.8107 6.02125 38.8661 6.16618L41.7582 13.7333C41.8376 13.9412 41.6345 14.1456 41.4261 14.0673L39.4037 13.308L35.0227 25.1767L38.294 35.7072C38.7066 37.0356 39.9357 37.9408 41.3267 37.9408C41.5021 37.9408 41.6442 38.083 41.6442 38.2584V39.893C41.6442 40.2191 41.3799 40.4834 41.0539 40.4834H37.7442C35.2285 40.4834 32.9893 38.8893 32.1658 36.5122L31.4378 34.4105C29.0789 38.3262 24.3587 41 18.9141 41V39.9668C22.9299 39.9668 24.0971 35.6348 24.0971 35.6348L28.1382 24.8851L24.0971 13.2193C24.0971 13.2193 22.9299 8.97111 18.9141 8.97111V7.93792C24.6693 7.93792 29.6151 10.8788 31.8182 15.0958L33.3454 11.0332L31.3762 10.2938C31.1678 10.2156 31.1494 9.92802 31.3461 9.82379L34.4106 8.19956L34.4119 8.19619L34.4149 8.19732L38.5039 6.03017Z" fill="url(#paint3_linear_4815_1195)"/>
<g filter="url(#filter0_i_4815_1195)">
<path fill-rule="evenodd" clip-rule="evenodd" d="M18.9532 7.93795C18.9408 7.93791 18.9283 7.9379 18.9159 7.9379V7.9379C18.9283 7.93791 18.9408 7.93792 18.9532 7.93795ZM18.9149 8.97109C15.4917 8.97165 12.7168 11.7469 12.7168 15.1702V20.3456C12.7168 16.0608 16.1903 12.5873 20.4752 12.5873C21.8142 12.5873 23.0922 12.9307 24.211 13.5457L24.0979 13.2193C24.0979 13.2193 22.9307 8.97109 18.9149 8.97109V8.97109ZM24.2114 35.3329C23.0764 35.9846 21.7674 36.3506 20.3919 36.3506C16.1531 36.3506 12.7168 32.9143 12.7168 28.6755V33.7676C12.7168 37.1913 15.4922 39.9668 18.9159 39.9668C22.9309 39.966 24.0979 35.6348 24.0979 35.6348L24.2114 35.3329Z" fill="url(#paint4_linear_4815_1195)"/>
</g>
<path d="M31.5973 33.1595C29.6317 37.3557 24.9383 40.3882 19.365 40.5437V40.3996C21.3074 40.2498 22.5873 39.142 23.3754 38.0668C23.7981 37.4901 24.0855 36.916 24.2672 36.4873C24.3584 36.2723 24.4237 36.0921 24.4667 35.9641C24.4882 35.9 24.5041 35.8489 24.515 35.8129C24.5196 35.7975 24.5233 35.7848 24.5261 35.7751L33.7676 11.1916L33.926 10.7702L33.5046 10.6119L31.9337 10.0221L34.4455 8.69089L34.6224 8.59717L34.6266 8.59493L34.7729 8.51738L38.5241 6.52926L41.1869 13.4965L39.5629 12.8867L39.1392 12.7276L38.9825 13.1521L31.5973 33.1595ZM41.3388 13.894C41.3388 13.8938 41.3387 13.8937 41.3387 13.8936L41.3388 13.894Z" stroke="url(#paint5_linear_4815_1195)" stroke-width="0.9"/>
<defs>
<filter id="filter0_i_4815_1195" x="12.7168" y="7.9379" width="11.4941" height="34.3903" filterUnits="userSpaceOnUse" color-interpolation-filters="sRGB">
<feFlood flood-opacity="0" result="BackgroundImageFix"/>
<feBlend mode="normal" in="SourceGraphic" in2="BackgroundImageFix" result="shape"/>
<feColorMatrix in="SourceAlpha" type="matrix" values="0 0 0 0 0 0 0 0 0 0 0 0 0 0 0 0 0 0 127 0" result="hardAlpha"/>
<feOffset dy="2.36142"/>
<feGaussianBlur stdDeviation="1.47589"/>
<feComposite in2="hardAlpha" operator="arithmetic" k2="-1" k3="1"/>
<feColorMatrix type="matrix" values="0 0 0 0 0 0 0 0 0 0 0 0 0 0 0 0 0 0 0.25 0"/>
<feBlend mode="normal" in2="shape" result="effect1_innerShadow_4815_1195"/>
</filter>
<linearGradient id="paint0_linear_4815_1195" x1="20.7629" y1="24.469" x2="6" y2="24.469" gradientUnits="userSpaceOnUse">
<stop stop-color="#13E5BF"/>
<stop offset="1" stop-color="#01C38D"/>
</linearGradient>
<linearGradient id="paint1_linear_4815_1195" x1="12.4574" y1="7.93793" x2="12.4574" y2="41" gradientUnits="userSpaceOnUse">
<stop stop-color="#13E5BF"/>
<stop offset="1" stop-color="#01C38D"/>
</linearGradient>
<linearGradient id="paint2_linear_4815_1195" x1="30.2792" y1="7.93793" x2="30.2791" y2="40.4834" gradientUnits="userSpaceOnUse">
<stop stop-color="#13E5BF"/>
<stop offset="1" stop-color="#01C38D"/>
</linearGradient>
<linearGradient id="paint3_linear_4815_1195" x1="45.0472" y1="23.5" x2="18.9141" y2="23.5" gradientUnits="userSpaceOnUse">
<stop stop-color="#13E5BF"/>
<stop offset="1" stop-color="#01C38D"/>
</linearGradient>
<linearGradient id="paint4_linear_4815_1195" x1="18.4641" y1="7.9379" x2="18.4641" y2="39.9668" gradientUnits="userSpaceOnUse">
<stop stop-color="#13E5BF"/>
<stop offset="1" stop-color="#01C38D"/>
</linearGradient>
<linearGradient id="paint5_linear_4815_1195" x1="30.3459" y1="6" x2="30.3459" y2="41" gradientUnits="userSpaceOnUse">
<stop stop-color="#13E5BF"/>
<stop offset="1" stop-color="#01C38D"/>
</linearGradient>
</defs>
</svg>
