<svg width="48" height="48" viewBox="0 0 48 48" fill="none" xmlns="http://www.w3.org/2000/svg">
<path opacity="0.2" fill-rule="evenodd" clip-rule="evenodd" d="M21.6091 20.9089L26.3539 18.1976C25.8482 12.7028 21.2265 8.3999 15.5998 8.3999C9.63513 8.3999 4.7998 13.2352 4.7998 19.1999C4.7998 25.1646 9.63513 29.9999 15.5998 29.9999C17.324 29.9999 18.9539 29.5959 20.3998 28.8773V22.9927C20.3998 22.1314 20.8613 21.3362 21.6091 20.9089ZM15.5998 13.1999L11.9998 19.1999L15.5998 25.1999L19.1998 19.1999L15.5998 13.1999Z" fill="url(#paint0_linear_2312_21389)"/>
<path fill-rule="evenodd" clip-rule="evenodd" d="M10.6004 19.1996L15.5998 10.8672L20.5992 19.1996L15.5998 27.532L10.6004 19.1996ZM15.6 20.3288L12.3095 18.6835L15.5998 13.1996L18.8903 18.6837L15.6 20.3288ZM15.6 21.6704L18.6247 20.1581L15.5998 25.1996L12.5747 20.1578L15.6 21.6704Z" fill="url(#paint1_linear_2312_21389)"/>
<path fill-rule="evenodd" clip-rule="evenodd" d="M29.9999 36.5996V34.7996H28.1999V33.5996H29.9999V24.5996H28.1999V23.3996H29.9999V21.5996H31.1999V23.3996H32.3999V21.5996H33.5999V23.3996H34.1999C35.8568 23.3996 37.1999 24.7428 37.1999 26.3996C37.1999 27.1965 36.8892 27.9209 36.3823 28.4581C37.5678 28.9585 38.3999 30.1319 38.3999 31.4996C38.3999 33.3222 36.9224 34.7996 35.0999 34.7996H33.5999V36.5996H32.3999V34.7996H31.1999V36.5996H29.9999ZM35.0999 33.5996H31.1999V29.3996H35.0999C36.2597 29.3996 37.1999 30.3398 37.1999 31.4996C37.1999 32.6594 36.2597 33.5996 35.0999 33.5996ZM34.1999 28.1996H31.1999V24.5996H34.1999C35.194 24.5996 35.9999 25.4055 35.9999 26.3996C35.9999 27.3937 35.194 28.1996 34.1999 28.1996Z" fill="url(#paint2_linear_2312_21389)"/>
<path fill-rule="evenodd" clip-rule="evenodd" d="M15.5999 32.3996C17.2933 32.3996 18.9122 32.0808 20.3999 31.4998V34.6069C20.3999 35.4681 20.8614 36.2633 21.6092 36.6906L31.8092 42.5192C32.547 42.9408 33.4528 42.9408 34.1906 42.5192L44.3906 36.6906C45.1384 36.2633 45.5999 35.4681 45.5999 34.6069V22.9924C45.5999 22.1311 45.1384 21.3359 44.3906 20.9086L34.1906 15.08C33.4528 14.6584 32.547 14.6584 31.8092 15.08L28.6025 16.9124C27.5194 10.7124 22.11 5.99963 15.5999 5.99963C8.30974 5.99963 2.3999 11.9095 2.3999 19.1996C2.3999 26.4898 8.30974 32.3996 15.5999 32.3996ZM15.5999 31.1996C17.3066 31.1996 18.93 30.8434 20.3999 30.2011V22.9924C20.3999 22.1311 20.8614 21.3359 21.6092 20.9086L27.4874 17.5496C26.6834 11.703 21.6675 7.19963 15.5999 7.19963C8.97249 7.19963 3.5999 12.5722 3.5999 19.1996C3.5999 25.8271 8.97249 31.1996 15.5999 31.1996ZM43.7953 21.9505L33.5953 16.1219C33.2263 15.9111 32.7735 15.9111 32.4045 16.1219L22.2045 21.9505C21.8306 22.1642 21.5999 22.5618 21.5999 22.9924V34.6069C21.5999 35.0375 21.8306 35.4351 22.2045 35.6487L32.4045 41.4773C32.7735 41.6881 33.2263 41.6881 33.5953 41.4773L43.7953 35.6487C44.1692 35.4351 44.3999 35.0375 44.3999 34.6069V22.9924C44.3999 22.5618 44.1692 22.1642 43.7953 21.9505Z" fill="url(#paint3_linear_2312_21389)"/>
<defs>
<linearGradient id="paint0_linear_2312_21389" x1="15.5769" y1="8.3999" x2="15.5769" y2="29.9999" gradientUnits="userSpaceOnUse">
<stop stop-color="#13E5BF"/>
<stop offset="1" stop-color="#01C38D"/>
</linearGradient>
<linearGradient id="paint1_linear_2312_21389" x1="23.9999" y1="5.99964" x2="23.9999" y2="42.8354" gradientUnits="userSpaceOnUse">
<stop stop-color="#13E5BF"/>
<stop offset="1" stop-color="#01C38D"/>
</linearGradient>
<linearGradient id="paint2_linear_2312_21389" x1="23.9999" y1="5.99964" x2="23.9999" y2="42.8354" gradientUnits="userSpaceOnUse">
<stop stop-color="#13E5BF"/>
<stop offset="1" stop-color="#01C38D"/>
</linearGradient>
<linearGradient id="paint3_linear_2312_21389" x1="23.9999" y1="5.99964" x2="23.9999" y2="42.8354" gradientUnits="userSpaceOnUse">
<stop stop-color="#13E5BF"/>
<stop offset="1" stop-color="#01C38D"/>
</linearGradient>
</defs>
</svg>
