<svg width="41" height="41" viewBox="0 0 41 41" fill="none" xmlns="http://www.w3.org/2000/svg">
<path d="M37.5 16.7953C37.8314 16.7953 38.1 16.5267 38.1 16.1953C38.1 15.8639 37.8314 15.5953 37.5 15.5953V16.7953ZM3 16.7953H37.5V15.5953H3V16.7953Z" fill="#01C38D"/>
<path d="M16.9998 6.99512L14.4998 16.4544L20.4998 37.3951L26.4998 16.4544L23.9998 6.99512" stroke="#01C38D" stroke-width="1.2" stroke-linejoin="bevel"/>
<path d="M31.4786 7.53263L31.4842 7.54021L31.4901 7.54762L37.8112 15.5574C37.8761 15.6501 37.9422 15.8695 37.9254 16.1719C37.9084 16.4773 37.8151 16.7102 37.7321 16.8089L37.731 16.8101L20.9158 36.8911C20.9156 36.8913 20.9155 36.8916 20.9153 36.8918C20.6857 37.1632 20.315 37.1632 20.0856 36.8916C20.0854 36.8914 20.0853 36.8913 20.0852 36.8911L3.27001 16.8101L3.26881 16.8087C3.20263 16.7302 3.12279 16.5202 3.12568 16.2108C3.12849 15.9109 3.20836 15.6691 3.28919 15.5565L9.51377 7.54401L9.51815 7.53837L9.5224 7.53263C9.64078 7.37252 9.80606 7.29531 9.96308 7.29531H20.5003H31.0376C31.1951 7.29531 31.3603 7.3726 31.4786 7.53263Z" stroke="url(#paint0_linear)" stroke-width="1.2"/>
<path fill-rule="evenodd" clip-rule="evenodd" d="M16.6726 7.69531H9.50095C9.12419 7.69531 8.768 7.85705 8.53208 8.13556L2.77145 15.4111C2.57739 15.6403 2.48871 16.4198 2.50113 16.6953H14.4591L16.6726 7.69531Z" fill="#13E5BF" fill-opacity="0.2"/>
<path fill-rule="evenodd" clip-rule="evenodd" d="M24.3274 7.69531H31.4991C31.8758 7.69531 32.232 7.85705 32.4679 8.13556L38.2286 15.4111C38.4226 15.6403 38.5113 16.4198 38.4989 16.6953H26.5409L24.3274 7.69531Z" fill="#13E5BF" fill-opacity="0.2"/>
<path fill-rule="evenodd" clip-rule="evenodd" d="M19.7987 36.3377C19.9907 36.5407 20.2404 36.6572 20.5 36.6953L14.5 16.1953H3C3.01161 16.4579 3.11477 16.7168 3.31085 16.9231L19.7987 36.3377Z" fill="#13E5BF" fill-opacity="0.2"/>
<path fill-rule="evenodd" clip-rule="evenodd" d="M21.2013 36.3377C21.0093 36.5407 20.7596 36.6572 20.5 36.6953L26.5 16.1953H38C37.9884 16.4579 37.8852 16.7168 37.6892 16.9231L21.2013 36.3377Z" fill="#13E5BF" fill-opacity="0.2"/>
<defs>
<linearGradient id="paint0_linear" x1="2.52554" y1="6.69531" x2="2.52554" y2="37.6953" gradientUnits="userSpaceOnUse">
<stop stop-color="#13E5BF"/>
<stop offset="1" stop-color="#01C38D"/>
</linearGradient>
</defs>
</svg>
