<svg width="48" height="48" viewBox="0 0 48 48" fill="none" xmlns="http://www.w3.org/2000/svg">
<path opacity="0.2" d="M9.6002 14.3997C8.27471 14.3997 7.2002 15.4742 7.2002 16.7997V37.1997C7.2002 38.5252 8.27471 39.5997 9.60019 39.5997H24.0002V35.98C19.3094 35.6713 15.6002 31.7687 15.6002 26.9997C15.6002 22.2308 19.3094 18.3282 24.0002 18.0194V14.3997H9.6002Z" fill="url(#paint0_linear_1880_16935)"/>
<circle opacity="0.2" cx="24.5998" cy="26.9997" r="7.8" fill="url(#paint1_linear_1880_16935)"/>
<path d="M27.9737 24.1301C28.2331 24.3364 28.2761 24.7139 28.0698 24.9732L24.2516 29.7732C24.1514 29.8992 24.0047 29.9796 23.8446 29.9964C23.6845 30.0132 23.5244 29.965 23.4002 29.8625L21.2184 28.0625C20.9628 27.8516 20.9265 27.4735 21.1374 27.2179C21.3483 26.9623 21.7264 26.926 21.982 27.1369L23.6927 28.5482L27.1306 24.2262C27.3369 23.9669 27.7144 23.9239 27.9737 24.1301Z" fill="url(#paint2_linear_1880_16935)"/>
<path fill-rule="evenodd" clip-rule="evenodd" d="M32.4002 26.9997C32.4002 31.3075 28.908 34.7997 24.6002 34.7997C20.2924 34.7997 16.8002 31.3075 16.8002 26.9997C16.8002 22.6919 20.2924 19.1997 24.6002 19.1997C28.908 19.1997 32.4002 22.6919 32.4002 26.9997ZM31.2002 26.9997C31.2002 30.6448 28.2453 33.5997 24.6002 33.5997C20.9551 33.5997 18.0002 30.6448 18.0002 26.9997C18.0002 23.3546 20.9551 20.3997 24.6002 20.3997C28.2453 20.3997 31.2002 23.3546 31.2002 26.9997Z" fill="url(#paint3_linear_1880_16935)"/>
<path fill-rule="evenodd" clip-rule="evenodd" d="M38.4002 14.3997H34.8002V13.1997C34.8002 7.23504 29.9649 2.39972 24.0002 2.39972C18.0355 2.39972 13.2002 7.23504 13.2002 13.1997V14.3997H9.60019C8.27471 14.3997 7.2002 15.4742 7.2002 16.7997V37.1997C7.2002 38.5252 8.27471 39.5997 9.6002 39.5997H38.4002C39.7257 39.5997 40.8002 38.5252 40.8002 37.1997V16.7997C40.8002 15.4742 39.7257 14.3997 38.4002 14.3997ZM38.4002 15.5997C39.0629 15.5997 39.6002 16.137 39.6002 16.7997V37.1997C39.6002 37.8625 39.0629 38.3997 38.4002 38.3997H9.6002C8.93745 38.3997 8.4002 37.8625 8.4002 37.1997V16.7997C8.4002 16.137 8.93745 15.5997 9.60019 15.5997H38.4002ZM33.6002 13.1997V14.3997H31.2002V13.1997C31.2002 9.22327 27.9766 5.99972 24.0002 5.99972C20.0237 5.99972 16.8002 9.22327 16.8002 13.1997V14.3997H14.4002V13.1997C14.4002 7.89779 18.6983 3.59972 24.0002 3.59972C29.3021 3.59972 33.6002 7.89779 33.6002 13.1997ZM30.0002 13.1997V14.3997H18.0002V13.1997C18.0002 9.88601 20.6865 7.19972 24.0002 7.19972C27.3139 7.19972 30.0002 9.88601 30.0002 13.1997Z" fill="url(#paint4_linear_1880_16935)"/>
<path d="M13.2002 40.7997C12.8688 40.7997 12.6002 41.0683 12.6002 41.3997C12.6002 41.7311 12.8688 41.9997 13.2002 41.9997H34.8002C35.1316 41.9997 35.4002 41.7311 35.4002 41.3997C35.4002 41.0683 35.1316 40.7997 34.8002 40.7997L13.2002 40.7997Z" fill="url(#paint5_linear_1880_16935)"/>
<defs>
<linearGradient id="paint0_linear_1880_16935" x1="15.6002" y1="14.3997" x2="15.6002" y2="39.5997" gradientUnits="userSpaceOnUse">
<stop stop-color="#13E5BF"/>
<stop offset="1" stop-color="#01C38D"/>
</linearGradient>
<linearGradient id="paint1_linear_1880_16935" x1="24.5998" y1="19.1997" x2="24.5998" y2="34.7997" gradientUnits="userSpaceOnUse">
<stop stop-color="#13E5BF"/>
<stop offset="1" stop-color="#01C38D"/>
</linearGradient>
<linearGradient id="paint2_linear_1880_16935" x1="24.0002" y1="2.39972" x2="24.0002" y2="41.9997" gradientUnits="userSpaceOnUse">
<stop stop-color="#13E5BF"/>
<stop offset="1" stop-color="#01C38D"/>
</linearGradient>
<linearGradient id="paint3_linear_1880_16935" x1="24.0002" y1="2.39972" x2="24.0002" y2="41.9997" gradientUnits="userSpaceOnUse">
<stop stop-color="#13E5BF"/>
<stop offset="1" stop-color="#01C38D"/>
</linearGradient>
<linearGradient id="paint4_linear_1880_16935" x1="24.0002" y1="2.39972" x2="24.0002" y2="41.9997" gradientUnits="userSpaceOnUse">
<stop stop-color="#13E5BF"/>
<stop offset="1" stop-color="#01C38D"/>
</linearGradient>
<linearGradient id="paint5_linear_1880_16935" x1="24.0002" y1="2.39972" x2="24.0002" y2="41.9997" gradientUnits="userSpaceOnUse">
<stop stop-color="#13E5BF"/>
<stop offset="1" stop-color="#01C38D"/>
</linearGradient>
</defs>
</svg>
