<svg width="49" height="48" viewBox="0 0 49 48" fill="none" xmlns="http://www.w3.org/2000/svg">
<mask id="mask0_2057_17025" style="mask-type:alpha" maskUnits="userSpaceOnUse" x="21" y="0" width="24" height="26">
<path fill-rule="evenodd" clip-rule="evenodd" d="M32.6991 0C32.3033 0 31.9074 0.100371 31.5528 0.301112L22.3821 5.49289C21.6728 5.89437 21.2358 6.63671 21.2358 7.43983V17.8234C21.2358 18.6265 21.6728 19.3687 22.3821 19.7703L31.5528 24.962C32.2621 25.3636 33.1361 25.3636 33.8454 24.962L43.0159 19.7703C43.7252 19.3687 44.1622 18.6265 44.1622 17.8234V7.43983C44.1622 6.63671 43.7252 5.89437 43.0159 5.49289L33.8454 0.301112C33.4907 0.100371 33.0949 0 32.6991 0Z" fill="url(#paint0_linear_2057_17025)"/>
</mask>
<g mask="url(#mask0_2057_17025)">
<g filter="url(#filter0_ii_2057_17025)">
<path fill-rule="evenodd" clip-rule="evenodd" d="M32.6991 0C32.3033 0 31.9074 0.100371 31.5528 0.301112L22.3821 5.49289C21.6728 5.89437 21.2358 6.63671 21.2358 7.43983V17.8234C21.2358 18.6265 21.6728 19.3687 22.3821 19.7703L31.5528 24.962C32.2621 25.3636 33.1361 25.3636 33.8454 24.962L43.0159 19.7703C43.7252 19.3687 44.1622 18.6265 44.1622 17.8234V7.43983C44.1622 6.63671 43.7252 5.89437 43.0159 5.49289L33.8454 0.301112C33.4907 0.100371 33.0949 0 32.6991 0Z" fill="url(#paint1_linear_2057_17025)"/>
</g>
</g>
<path fill-rule="evenodd" clip-rule="evenodd" d="M34.4811 5.0343L33.2545 5.73907V11.7265L33.9244 12.1119V7.55208L36.2237 8.87374L36.2259 8.87268L36.6723 9.1289L37.0451 8.91609V8.55619L33.9244 6.76489V6.14148L34.4811 5.82165L37.7129 7.67959V9.33322L36.1615 10.22L36.1091 10.1937C36.0146 10.1467 35.9168 10.1227 35.8185 10.1227C35.4493 10.1227 35.1488 10.4308 35.1488 10.8094C35.1488 11.188 35.4493 11.4963 35.8185 11.4963C36.161 11.4963 36.4458 11.2311 36.4809 10.8795L36.4868 10.8203L38.0527 9.92536L39.5048 10.7602V14.4539L38.051 15.2888L32.1426 11.8912V5.73953L30.916 5.0343L27.0147 7.27719V9.32396L25.2227 10.3528V14.8516L27.0147 15.8818V17.9323L30.916 20.1751L32.1426 19.4701V13.4697L31.4728 13.0848V17.6575L28.725 16.0805L28.3521 16.2934V16.6534L31.4728 18.4449V19.0677L30.916 19.3878L27.6843 17.5299V15.8759L29.2358 14.9896L29.2879 15.0157C29.3828 15.0628 29.4803 15.0868 29.5785 15.0868C29.9478 15.0868 30.2483 14.7788 30.2483 14.4C30.2483 14.0212 29.9478 13.7133 29.5785 13.7133C29.2362 13.7133 28.9517 13.9784 28.9162 14.3301L28.9106 14.3891L27.3445 15.2842L25.8923 14.4492V10.7555L27.3462 9.9208L33.2545 13.3179V19.4701L34.4811 20.1751L38.3826 17.9323V15.8855L40.1746 14.8568V10.3578L38.3826 9.3279V7.27719L34.4811 5.0343ZM27.684 7.67949L30.9157 5.82155L31.4724 6.14153V6.76449L27.684 8.93922V7.67949ZM28.0311 9.52704L31.4721 7.55131V11.5055L28.0311 9.52704ZM33.9246 13.7032L37.3659 15.6821L33.9246 17.6578V13.7032ZM33.9246 19.0676V18.445L37.7132 16.27V17.5298L34.4813 19.3878L33.9246 19.0676Z" fill="white"/>
<mask id="mask1_2057_17025" style="mask-type:alpha" maskUnits="userSpaceOnUse" x="21" y="0" width="24" height="26">
<path fill-rule="evenodd" clip-rule="evenodd" d="M32.6991 0C32.3033 0 31.9074 0.100371 31.5528 0.301112L22.3821 5.49289C21.6728 5.89437 21.2358 6.63671 21.2358 7.43983V17.8234C21.2358 18.6265 21.6728 19.3687 22.3821 19.7703L31.5528 24.962C32.2621 25.3636 33.1361 25.3636 33.8454 24.962L43.0159 19.7703C43.7252 19.3687 44.1622 18.6265 44.1622 17.8234V7.43983C44.1622 6.63671 43.7252 5.89437 43.0159 5.49289L33.8454 0.301112C33.4907 0.100371 33.0949 0 32.6991 0Z" fill="url(#paint2_linear_2057_17025)"/>
</mask>
<g mask="url(#mask1_2057_17025)">
<g opacity="0.8" filter="url(#filter1_f_2057_17025)">
<path d="M43.9722 26.1539C43.9722 25.0839 43.4123 24.0978 42.5095 23.5778L34.2394 18.8137C33.3794 18.3183 32.3333 18.3183 31.4733 18.8137L23.2032 23.5778C22.3004 24.0978 21.7406 25.0839 21.7406 26.1539L21.7406 35.4883C21.7406 36.5583 22.3004 37.5443 23.2032 38.0644L31.4733 42.8285C32.3333 43.3239 33.3794 43.3239 34.2394 42.8285L42.5095 38.0644C43.4123 37.5443 43.9722 36.5583 43.9722 35.4883L43.9722 26.1539Z" fill="url(#paint3_radial_2057_17025)" fill-opacity="0.3"/>
</g>
<g opacity="0.8" filter="url(#filter2_f_2057_17025)">
<path d="M32.0986 19.5855C32.0986 18.5154 31.5388 17.5294 30.636 17.0093L22.3659 12.2452C21.5059 11.7498 20.4598 11.7498 19.5998 12.2452L11.3297 17.0093C10.4269 17.5294 9.86704 18.5154 9.86704 19.5855L9.86704 28.9198C9.86704 29.9898 10.4269 30.9759 11.3297 31.4959L19.5998 36.26C20.4598 36.7554 21.5059 36.7554 22.3659 36.26L30.636 31.4959C31.5388 30.9759 32.0986 29.9898 32.0986 28.9198L32.0986 19.5855Z" fill="url(#paint4_radial_2057_17025)" fill-opacity="0.3"/>
</g>
</g>
<g filter="url(#filter3_ii_2057_17025)">
<path fill-rule="evenodd" clip-rule="evenodd" d="M25.8599 32.848C26.6165 32.4159 27.2354 31.3554 27.2354 30.4913V20.5405C27.2354 19.6763 26.6165 18.6158 25.8599 18.1837L17.1478 13.2083C16.3912 12.7763 15.1533 12.7763 14.3967 13.2083L5.68463 18.1837C4.92803 18.6158 4.30908 19.6763 4.30908 20.5405V30.4913C4.30908 31.3554 4.92803 32.4159 5.68463 32.848L14.3967 37.8234C15.1533 38.2555 16.3912 38.2555 17.1478 37.8234L25.8599 32.848Z" fill="url(#paint5_linear_2057_17025)"/>
</g>
<path d="M15.877 17.5515V23.409L21.0527 25.6212L15.877 17.5515Z" fill="white" fill-opacity="0.602"/>
<path d="M15.8771 17.5515L10.7007 25.6212L15.8771 23.409V17.5515Z" fill="white"/>
<path d="M15.877 29.417V33.3971L21.0562 26.5431L15.877 29.417Z" fill="white" fill-opacity="0.602"/>
<path d="M15.8771 33.3971V29.4164L10.7007 26.5431L15.8771 33.3971Z" fill="white"/>
<path d="M15.877 28.4958L21.0527 25.6212L15.877 23.4103V28.4958Z" fill="white" fill-opacity="0.2"/>
<path d="M10.7007 25.6212L15.8771 28.4958V23.4103L10.7007 25.6212Z" fill="white" fill-opacity="0.602"/>
<mask id="mask2_2057_17025" style="mask-type:alpha" maskUnits="userSpaceOnUse" x="4" y="12" width="24" height="27">
<path fill-rule="evenodd" clip-rule="evenodd" d="M25.8599 32.848C26.6165 32.4159 27.2354 31.3554 27.2354 30.4913V20.5405C27.2354 19.6763 26.6165 18.6158 25.8599 18.1837L17.1478 13.2083C16.3912 12.7763 15.1533 12.7763 14.3967 13.2083L5.68463 18.1837C4.92803 18.6158 4.30908 19.6763 4.30908 20.5405V30.4913C4.30908 31.3554 4.92803 32.4159 5.68463 32.848L14.3967 37.8234C15.1533 38.2555 16.3912 38.2555 17.1478 37.8234L25.8599 32.848Z" fill="url(#paint6_linear_2057_17025)"/>
</mask>
<g mask="url(#mask2_2057_17025)">
<g opacity="0.8" filter="url(#filter4_f_2057_17025)">
<path d="M15.9302 37.004C15.9302 38.0741 16.5154 39.0601 17.4593 39.5802L26.1053 44.3443C27.0044 44.8397 28.098 44.8397 28.9971 44.3443L37.6432 39.5802C38.587 39.0601 39.1723 38.0741 39.1723 37.004V27.6697C39.1723 26.5996 38.587 25.6136 37.6432 25.0935L28.9971 20.3295C28.098 19.834 27.0044 19.8341 26.1053 20.3295L17.4593 25.0935C16.5154 25.6136 15.9302 26.5996 15.9302 27.6697V37.004Z" fill="url(#paint7_radial_2057_17025)" fill-opacity="0.5"/>
</g>
</g>
<g filter="url(#filter5_ii_2057_17025)">
<path fill-rule="evenodd" clip-rule="evenodd" d="M43.7969 42.7006C44.5535 42.2685 45.1724 41.2079 45.1724 40.3438V30.393C45.1724 29.5289 44.5535 28.4683 43.7969 28.0363L35.0848 23.0609C34.3282 22.6288 33.0903 22.6288 32.3337 23.0609L23.6216 28.0363C22.865 28.4683 22.2461 29.5289 22.2461 30.393V40.3438C22.2461 41.2079 22.865 42.2685 23.6216 42.7006L32.3337 47.6759C33.0903 48.108 34.3282 48.108 35.0848 47.6759L43.7969 42.7006Z" fill="url(#paint8_linear_2057_17025)"/>
</g>
<path d="M38.3316 33.9536C38.5421 32.5351 37.4705 31.7725 36.0051 31.2638L36.4804 29.3422L35.3198 29.0507L34.8571 30.9216C34.552 30.845 34.2386 30.7727 33.9272 30.7011L34.3933 28.8179L33.2334 28.5264L32.7577 30.4473C32.5051 30.3893 32.2572 30.332 32.0166 30.2717L32.0179 30.2657L30.4173 29.8629L30.1086 31.1122C30.1086 31.1122 30.9697 31.3111 30.9515 31.3234C31.4216 31.4417 31.5065 31.7552 31.4923 32.0037L30.9508 34.1928C30.9832 34.2011 31.0252 34.2131 31.0715 34.2317C31.0328 34.2221 30.9915 34.2114 30.9489 34.2011L30.1899 37.2676C30.1324 37.4116 29.9866 37.6274 29.658 37.5455C29.6696 37.5625 28.8144 37.3333 28.8144 37.3333L28.2383 38.6722L29.7486 39.0516C30.0296 39.1226 30.3049 39.1969 30.576 39.2668L30.0957 41.2104L31.255 41.5019L31.7306 39.579C32.0473 39.6656 32.3547 39.7456 32.6555 39.8208L32.1815 41.7347L33.3421 42.0262L33.8224 40.0864C35.8015 40.4638 37.2896 40.3116 37.9161 38.5076C38.4208 37.0551 37.8909 36.2173 36.8497 35.6709C37.608 35.4947 38.1792 34.992 38.3316 33.9536ZM35.6798 37.7011C35.3212 39.1536 32.8945 38.3683 32.1078 38.1715L32.7451 35.5966C33.5319 35.7945 36.0547 36.1863 35.6798 37.7011ZM36.0388 33.9326C35.7116 35.2538 33.6918 34.5825 33.0367 34.418L33.6145 32.0826C34.2697 32.2472 36.3796 32.5544 36.0388 33.9326Z" fill="white"/>
<defs>
<filter id="filter0_ii_2057_17025" x="20.819" y="0" width="23.621" height="25.2632" filterUnits="userSpaceOnUse" color-interpolation-filters="sRGB">
<feFlood flood-opacity="0" result="BackgroundImageFix"/>
<feBlend mode="normal" in="SourceGraphic" in2="BackgroundImageFix" result="shape"/>
<feColorMatrix in="SourceAlpha" type="matrix" values="0 0 0 0 0 0 0 0 0 0 0 0 0 0 0 0 0 0 127 0" result="hardAlpha"/>
<feOffset dx="-0.55579"/>
<feGaussianBlur stdDeviation="0.208421"/>
<feComposite in2="hardAlpha" operator="arithmetic" k2="-1" k3="1"/>
<feColorMatrix type="matrix" values="0 0 0 0 1 0 0 0 0 1 0 0 0 0 1 0 0 0 0.6 0"/>
<feBlend mode="normal" in2="shape" result="effect1_innerShadow_2057_17025"/>
<feColorMatrix in="SourceAlpha" type="matrix" values="0 0 0 0 0 0 0 0 0 0 0 0 0 0 0 0 0 0 127 0" result="hardAlpha"/>
<feOffset dx="0.55579"/>
<feGaussianBlur stdDeviation="0.138948"/>
<feComposite in2="hardAlpha" operator="arithmetic" k2="-1" k3="1"/>
<feColorMatrix type="matrix" values="0 0 0 0 0 0 0 0 0 0 0 0 0 0 0 0 0 0 0.2 0"/>
<feBlend mode="normal" in2="effect1_innerShadow_2057_17025" result="effect2_innerShadow_2057_17025"/>
</filter>
<filter id="filter1_f_2057_17025" x="19.9723" y="16.6737" width="25.7683" height="28.2948" filterUnits="userSpaceOnUse" color-interpolation-filters="sRGB">
<feFlood flood-opacity="0" result="BackgroundImageFix"/>
<feBlend mode="normal" in="SourceGraphic" in2="BackgroundImageFix" result="shape"/>
<feGaussianBlur stdDeviation="0.884211" result="effect1_foregroundBlur_2057_17025"/>
</filter>
<filter id="filter2_f_2057_17025" x="8.09876" y="10.1052" width="25.7683" height="28.2948" filterUnits="userSpaceOnUse" color-interpolation-filters="sRGB">
<feFlood flood-opacity="0" result="BackgroundImageFix"/>
<feBlend mode="normal" in="SourceGraphic" in2="BackgroundImageFix" result="shape"/>
<feGaussianBlur stdDeviation="0.884211" result="effect1_foregroundBlur_2057_17025"/>
</filter>
<filter id="filter3_ii_2057_17025" x="3.89224" y="12.8843" width="23.621" height="25.2632" filterUnits="userSpaceOnUse" color-interpolation-filters="sRGB">
<feFlood flood-opacity="0" result="BackgroundImageFix"/>
<feBlend mode="normal" in="SourceGraphic" in2="BackgroundImageFix" result="shape"/>
<feColorMatrix in="SourceAlpha" type="matrix" values="0 0 0 0 0 0 0 0 0 0 0 0 0 0 0 0 0 0 127 0" result="hardAlpha"/>
<feOffset dx="-0.55579"/>
<feGaussianBlur stdDeviation="0.208421"/>
<feComposite in2="hardAlpha" operator="arithmetic" k2="-1" k3="1"/>
<feColorMatrix type="matrix" values="0 0 0 0 1 0 0 0 0 1 0 0 0 0 1 0 0 0 0.6 0"/>
<feBlend mode="normal" in2="shape" result="effect1_innerShadow_2057_17025"/>
<feColorMatrix in="SourceAlpha" type="matrix" values="0 0 0 0 0 0 0 0 0 0 0 0 0 0 0 0 0 0 127 0" result="hardAlpha"/>
<feOffset dx="0.55579"/>
<feGaussianBlur stdDeviation="0.138948"/>
<feComposite in2="hardAlpha" operator="arithmetic" k2="-1" k3="1"/>
<feColorMatrix type="matrix" values="0 0 0 0 0 0 0 0 0 0 0 0 0 0 0 0 0 0 0.2 0"/>
<feBlend mode="normal" in2="effect1_innerShadow_2057_17025" result="effect2_innerShadow_2057_17025"/>
</filter>
<filter id="filter4_f_2057_17025" x="14.1618" y="18.1895" width="26.779" height="28.2948" filterUnits="userSpaceOnUse" color-interpolation-filters="sRGB">
<feFlood flood-opacity="0" result="BackgroundImageFix"/>
<feBlend mode="normal" in="SourceGraphic" in2="BackgroundImageFix" result="shape"/>
<feGaussianBlur stdDeviation="0.884211" result="effect1_foregroundBlur_2057_17025"/>
</filter>
<filter id="filter5_ii_2057_17025" x="21.8293" y="22.7368" width="23.621" height="25.2632" filterUnits="userSpaceOnUse" color-interpolation-filters="sRGB">
<feFlood flood-opacity="0" result="BackgroundImageFix"/>
<feBlend mode="normal" in="SourceGraphic" in2="BackgroundImageFix" result="shape"/>
<feColorMatrix in="SourceAlpha" type="matrix" values="0 0 0 0 0 0 0 0 0 0 0 0 0 0 0 0 0 0 127 0" result="hardAlpha"/>
<feOffset dx="-0.55579"/>
<feGaussianBlur stdDeviation="0.208421"/>
<feComposite in2="hardAlpha" operator="arithmetic" k2="-1" k3="1"/>
<feColorMatrix type="matrix" values="0 0 0 0 1 0 0 0 0 1 0 0 0 0 1 0 0 0 0.6 0"/>
<feBlend mode="normal" in2="shape" result="effect1_innerShadow_2057_17025"/>
<feColorMatrix in="SourceAlpha" type="matrix" values="0 0 0 0 0 0 0 0 0 0 0 0 0 0 0 0 0 0 127 0" result="hardAlpha"/>
<feOffset dx="0.55579"/>
<feGaussianBlur stdDeviation="0.138948"/>
<feComposite in2="hardAlpha" operator="arithmetic" k2="-1" k3="1"/>
<feColorMatrix type="matrix" values="0 0 0 0 0 0 0 0 0 0 0 0 0 0 0 0 0 0 0.2 0"/>
<feBlend mode="normal" in2="effect1_innerShadow_2057_17025" result="effect2_innerShadow_2057_17025"/>
</filter>
<linearGradient id="paint0_linear_2057_17025" x1="33.6161" y1="0.282797" x2="27.1481" y2="23.9493" gradientUnits="userSpaceOnUse">
<stop stop-color="#5F697A"/>
<stop offset="1" stop-color="#191E29"/>
</linearGradient>
<linearGradient id="paint1_linear_2057_17025" x1="47.4428" y1="12.6316" x2="21.2358" y2="12.6316" gradientUnits="userSpaceOnUse">
<stop stop-color="#13E5BF"/>
<stop offset="1" stop-color="#01C38D"/>
</linearGradient>
<linearGradient id="paint2_linear_2057_17025" x1="47.4428" y1="12.6316" x2="21.2358" y2="12.6316" gradientUnits="userSpaceOnUse">
<stop stop-color="#13E5BF"/>
<stop offset="1" stop-color="#01C38D"/>
</linearGradient>
<radialGradient id="paint3_radial_2057_17025" cx="0" cy="0" r="1" gradientUnits="userSpaceOnUse" gradientTransform="translate(26.43 28.9032) rotate(5.84857) scale(17.1101 100.328)">
<stop/>
<stop offset="1" stop-opacity="0.1"/>
</radialGradient>
<radialGradient id="paint4_radial_2057_17025" cx="0" cy="0" r="1" gradientUnits="userSpaceOnUse" gradientTransform="translate(14.5565 22.3347) rotate(5.84856) scale(17.1101 100.328)">
<stop/>
<stop offset="1" stop-opacity="0.1"/>
</radialGradient>
<linearGradient id="paint5_linear_2057_17025" x1="15.7723" y1="12.8843" x2="15.7723" y2="38.1475" gradientUnits="userSpaceOnUse">
<stop stop-color="#9BB5F6"/>
<stop offset="1" stop-color="#627EEA"/>
</linearGradient>
<linearGradient id="paint6_linear_2057_17025" x1="15.7723" y1="12.8843" x2="15.7723" y2="38.1475" gradientUnits="userSpaceOnUse">
<stop stop-color="#9BB5F6"/>
<stop offset="1" stop-color="#627EEA"/>
</linearGradient>
<radialGradient id="paint7_radial_2057_17025" cx="0" cy="0" r="1" gradientUnits="userSpaceOnUse" gradientTransform="translate(34.2697 34.2547) rotate(-174.404) scale(17.88 100.373)">
<stop/>
<stop offset="1" stop-opacity="0.1"/>
</radialGradient>
<linearGradient id="paint8_linear_2057_17025" x1="33.7093" y1="22.7368" x2="33.7093" y2="48" gradientUnits="userSpaceOnUse">
<stop stop-color="#FCC538"/>
<stop offset="1" stop-color="#F7931A"/>
</linearGradient>
</defs>
</svg>
