<svg width="32" height="32" viewBox="0 0 32 32" fill="none" xmlns="http://www.w3.org/2000/svg">
<path fill-rule="evenodd" clip-rule="evenodd" d="M14.4059 13.9392L17.5691 12.1316C17.232 8.46845 14.1508 5.59985 10.3997 5.59985C6.42326 5.59985 3.19971 8.8234 3.19971 12.7999C3.19971 16.7763 6.42326 19.9999 10.3997 19.9999C11.5492 19.9999 12.6357 19.7305 13.5997 19.2514V15.3284C13.5997 14.7542 13.9074 14.224 14.4059 13.9392ZM10.3997 8.79985L7.99971 12.7999L10.3997 16.7999L12.7997 12.7999L10.3997 8.79985Z" fill="#13E5BF" fill-opacity="0.2"/>
<path d="M14.6785 2.06995C14.5512 2.13899 14.4712 2.27146 14.4692 2.41628C14.4673 2.5611 14.5438 2.69565 14.6693 2.76804L17.4012 4.34447C17.5925 4.45489 17.8372 4.38928 17.9476 4.19794C18.058 4.00659 17.9924 3.76197 17.801 3.65156L16.3432 2.81035C21.4283 2.94071 25.8308 5.96276 27.9131 10.327L27.9156 10.3301L29.0593 10.9669C27.083 5.84272 22.1873 2.19941 16.4612 2.01342L17.8326 1.26978C18.0268 1.16448 18.0989 0.921683 17.9936 0.727481C17.8883 0.533277 17.6455 0.461208 17.4513 0.566506L14.6785 2.06995Z" fill="url(#paint0_linear)"/>
<path d="M2.68217 20.3546C4.48124 25.8696 9.60179 29.8481 15.625 30.0016L14.2393 30.6712C14.0404 30.7674 13.957 31.0065 14.0532 31.2054C14.1493 31.4043 14.3885 31.4877 14.5874 31.3915L17.4272 30.0191C17.5577 29.9561 17.6438 29.8275 17.6525 29.6829C17.6612 29.5383 17.591 29.4004 17.4691 29.3222L14.8137 27.62C14.6277 27.5008 14.3803 27.5549 14.261 27.7409C14.1418 27.9269 14.1959 28.1743 14.3819 28.2935L15.8037 29.2049C10.574 29.1334 6.04435 26.0034 3.98114 21.4862C3.51844 21.1437 3.08406 20.7651 2.68217 20.3546Z" fill="url(#paint1_linear)"/>
<path fill-rule="evenodd" clip-rule="evenodd" d="M7.06709 12.7999L10.4 7.245L13.733 12.7999L10.4 18.3548L7.06709 12.7999ZM10.4002 13.5527L8.20648 12.4559L10.4 8.79992L12.5937 12.456L10.4002 13.5527ZM10.4002 14.4471L12.4167 13.4389L10.4 16.7999L8.38331 13.4387L10.4002 14.4471Z" fill="url(#paint2_linear)"/>
<path fill-rule="evenodd" clip-rule="evenodd" d="M20.0001 24.3999V23.1999H18.8001V22.3999H20.0001V16.3999H18.8001V15.5999H20.0001V14.3999H20.8001V15.5999H21.6001V14.3999H22.4001V15.5999H22.8001C23.9047 15.5999 24.8001 16.4954 24.8001 17.5999C24.8001 18.1312 24.593 18.6141 24.255 18.9722C25.0454 19.3059 25.6001 20.0881 25.6001 20.9999C25.6001 22.215 24.6151 23.1999 23.4001 23.1999H22.4001V24.3999H21.6001V23.1999H20.8001V24.3999H20.0001ZM23.4001 22.3999H20.8001V19.5999H23.4001C24.1733 19.5999 24.8001 20.2267 24.8001 20.9999C24.8001 21.7731 24.1733 22.3999 23.4001 22.3999ZM22.8001 18.7999H20.8001V16.3999H22.8001C23.4628 16.3999 24.0001 16.9372 24.0001 17.5999C24.0001 18.2627 23.4628 18.7999 22.8001 18.7999Z" fill="url(#paint3_linear)"/>
<path fill-rule="evenodd" clip-rule="evenodd" d="M10.4001 21.5999C11.529 21.5999 12.6083 21.3873 13.6001 21V23.0714C13.6001 23.6456 13.9078 24.1757 14.4063 24.4606L21.2063 28.3463C21.6982 28.6274 22.302 28.6274 22.7939 28.3463L29.5939 24.4606C30.0924 24.1757 30.4001 23.6456 30.4001 23.0714V15.3284C30.4001 14.7543 30.0924 14.2241 29.5939 13.9392L22.7939 10.0535C22.302 9.77246 21.6982 9.77246 21.2063 10.0535L19.0685 11.2751C18.3464 7.14179 14.7402 3.99993 10.4001 3.99993C5.53999 3.99993 1.6001 7.93982 1.6001 12.7999C1.6001 17.66 5.53999 21.5999 10.4001 21.5999ZM10.4001 20.7999C11.5379 20.7999 12.6202 20.5624 13.6001 20.1343V15.3284C13.6001 14.7543 13.9078 14.2241 14.4063 13.9392L18.3251 11.6999C17.7891 7.80215 14.4452 4.79993 10.4001 4.79993C5.98182 4.79993 2.4001 8.38165 2.4001 12.7999C2.4001 17.2182 5.98182 20.7999 10.4001 20.7999ZM29.197 14.6338L22.397 10.7481C22.1511 10.6076 21.8491 10.6076 21.6032 10.7481L14.8032 14.6338C14.5539 14.7763 14.4001 15.0414 14.4001 15.3284V23.0714C14.4001 23.3585 14.5539 23.6236 14.8032 23.766L21.6032 27.6517C21.8491 27.7923 22.1511 27.7923 22.397 27.6517L29.197 23.766C29.4463 23.6236 29.6001 23.3585 29.6001 23.0714V15.3284C29.6001 15.0414 29.4463 14.7763 29.197 14.6338Z" fill="url(#paint4_linear)"/>
<defs>
<linearGradient id="paint0_linear" x1="1.6001" y1="0.518066" x2="1.6001" y2="31.4315" gradientUnits="userSpaceOnUse">
<stop stop-color="#13E5BF"/>
<stop offset="1" stop-color="#01C38D"/>
</linearGradient>
<linearGradient id="paint1_linear" x1="1.6001" y1="0.518066" x2="1.6001" y2="31.4315" gradientUnits="userSpaceOnUse">
<stop stop-color="#13E5BF"/>
<stop offset="1" stop-color="#01C38D"/>
</linearGradient>
<linearGradient id="paint2_linear" x1="1.6001" y1="0.518066" x2="1.6001" y2="31.4315" gradientUnits="userSpaceOnUse">
<stop stop-color="#13E5BF"/>
<stop offset="1" stop-color="#01C38D"/>
</linearGradient>
<linearGradient id="paint3_linear" x1="1.6001" y1="0.518066" x2="1.6001" y2="31.4315" gradientUnits="userSpaceOnUse">
<stop stop-color="#13E5BF"/>
<stop offset="1" stop-color="#01C38D"/>
</linearGradient>
<linearGradient id="paint4_linear" x1="1.6001" y1="0.518066" x2="1.6001" y2="31.4315" gradientUnits="userSpaceOnUse">
<stop stop-color="#13E5BF"/>
<stop offset="1" stop-color="#01C38D"/>
</linearGradient>
</defs>
</svg>
