<svg width="81" height="81" viewBox="0 0 81 81" fill="none" xmlns="http://www.w3.org/2000/svg">
<path fill-rule="evenodd" clip-rule="evenodd" d="M41.6766 5.0404C40.946 4.62944 40.054 4.62944 39.3234 5.0404L9.72337 21.6904C8.96767 22.1155 8.5 22.9151 8.5 23.7822V56.9749C8.5 57.842 8.96767 58.6416 9.72337 59.0667L39.3234 75.7167C40.054 76.1276 40.946 76.1276 41.6766 75.7167L71.2766 59.0667C72.0323 58.6416 72.5 57.842 72.5 56.9749V23.7822C72.5 22.9151 72.0323 22.1155 71.2766 21.6904L41.6766 5.0404ZM41.7092 13.0838C40.9619 12.6479 40.0378 12.6479 39.2906 13.0838L17.6906 25.6838C16.9533 26.1139 16.4999 26.9033 16.4999 27.7569V52.9999C16.4999 53.8535 16.9533 54.6429 17.6906 55.073L39.2906 67.673C40.0378 68.1089 40.9619 68.1089 41.7092 67.673L63.3092 55.073C64.0465 54.6429 64.4999 53.8535 64.4999 52.9999V27.7569C64.4999 26.9033 64.0465 26.1139 63.3092 25.6838L41.7092 13.0838Z" fill="#13E5BF" fill-opacity="0.2"/>
<path fill-rule="evenodd" clip-rule="evenodd" d="M41.4805 7.22609L69.4805 22.9761C70.1103 23.3303 70.5 23.9967 70.5 24.7192V56.0405C70.5 56.763 70.1103 57.4294 69.4805 57.7836L41.4805 73.5336C40.8717 73.8761 40.1283 73.8761 39.5195 73.5336L11.5195 57.7836C10.8897 57.4294 10.5 56.763 10.5 56.0405V24.7192C10.5 23.9967 10.8897 23.3303 11.5195 22.9761L39.5195 7.22609C40.1283 6.88362 40.8717 6.88362 41.4805 7.22609ZM38.539 5.48294C39.7566 4.79801 41.2434 4.79801 42.461 5.48294L70.461 21.2329C71.7206 21.9414 72.5 23.2741 72.5 24.7192V56.0405C72.5 57.4855 71.7206 58.8183 70.461 59.5268L42.461 75.2768C41.2434 75.9617 39.7566 75.9617 38.539 75.2768L10.539 59.5268C9.27945 58.8183 8.5 57.4856 8.5 56.0405V24.7192C8.5 23.2741 9.27945 21.9414 10.539 21.2329L38.539 5.48294ZM41.9882 22.2406L45.2689 20.3786L55.7064 26.3042V31.7217L60.5003 34.4429V46.3276L55.7064 49.0457V54.453L45.2689 60.3786L41.9882 58.5161V42.2632L26.1814 33.288L22.292 35.4935V45.2516L26.177 47.4572L30.3661 45.0932L30.3824 44.9367C30.4762 44.0074 31.2374 43.307 32.1533 43.307C33.1414 43.307 33.945 44.1207 33.945 45.1213C33.945 46.122 33.1414 46.9357 32.1533 46.9357C31.8908 46.9357 31.6295 46.8728 31.3758 46.7478L31.2366 46.6796L27.0859 49.0207V53.3899L35.7313 58.2984L37.2208 57.453V55.8069L28.8727 51.0742V50.1235L29.8696 49.561L37.2208 53.7272V41.6466L39.0124 42.6638V58.5161L35.7313 60.3786L25.2947 54.453V49.0368L20.5003 46.3147V34.4291L25.2947 31.711V26.3042L35.7313 20.3786L39.0124 22.2411V38.494L54.8192 47.4692L58.7087 45.2637V35.506L54.8236 33.2996L50.6346 35.6644L50.6192 35.8209C50.5249 36.7493 49.7636 37.4501 48.8473 37.4501C47.8588 37.4501 47.0557 36.636 47.0557 35.6358C47.0557 34.6352 47.8588 33.8211 48.8473 33.8211C49.1099 33.8211 49.3716 33.8849 49.6249 34.0093L49.7641 34.078L53.9152 31.736V27.3673L45.2689 22.4588L43.7794 23.3037V24.9503L52.128 29.6825V30.6332L51.1306 31.1957L49.9363 30.519L49.9306 30.5221L43.7794 27.03V39.0762L41.9882 38.0586V22.2406ZM35.7311 22.4587L27.0856 27.3672V30.6952L37.2205 24.9498V23.3046L35.7311 22.4587ZM28.0153 32.249L37.2207 27.0291V37.476L28.0153 32.249ZM52.9856 48.5089L43.7794 43.2806V53.7283L52.9856 48.5089ZM43.7794 57.4528V55.8076L53.9152 50.0618V53.3897L45.2688 58.2982L43.7794 57.4528Z" fill="url(#paint0_linear)"/>
<defs>
<linearGradient id="paint0_linear" x1="8.5" y1="4.96924" x2="8.5" y2="75.7905" gradientUnits="userSpaceOnUse">
<stop stop-color="#13E5BF"/>
<stop offset="1" stop-color="#01C38D"/>
</linearGradient>
</defs>
</svg>
