<svg width="48" height="48" viewBox="0 0 48 48" fill="none" xmlns="http://www.w3.org/2000/svg">
<path d="M18.4174 13.4935C18.1304 13.6592 18.0321 14.0262 18.1978 14.3132C18.3635 14.6001 18.7304 14.6985 19.0174 14.5328L27.3313 9.73277C27.6182 9.56709 27.7166 9.20013 27.5509 8.91316C27.3852 8.62618 27.0182 8.52786 26.7313 8.69354L18.4174 13.4935Z" fill="url(#paint0_linear)"/>
<path d="M19.3978 16.3916C19.2321 16.1046 19.3304 15.7377 19.6174 15.572L24.8136 12.572C25.1005 12.4063 25.4675 12.5046 25.6332 12.7916C25.7989 13.0786 25.7005 13.4455 25.4136 13.6112L20.2174 16.6112C19.9304 16.7769 19.5635 16.6786 19.3978 16.3916Z" fill="url(#paint1_linear)"/>
<path fill-rule="evenodd" clip-rule="evenodd" d="M33.6 35.9998V29.9998C33.6 29.3371 33.0628 28.7998 32.4 28.7998H15.6C14.9373 28.7998 14.4 29.3371 14.4 29.9998V35.9998C14.4 36.6626 14.9373 37.1998 15.6 37.1998H32.4C33.0628 37.1998 33.6 36.6626 33.6 35.9998ZM32.4 29.9998H15.6V35.9998H32.4V29.9998Z" fill="url(#paint2_linear)"/>
<path fill-rule="evenodd" clip-rule="evenodd" d="M13.8 12.6955L16.8625 17.9998H6.00005C5.33731 17.9998 4.80005 18.5371 4.80005 19.1998V22.7998C4.80005 23.4626 5.33731 23.9998 6.00005 23.9998H8.40005V40.7998C8.40005 42.1253 9.47457 43.1998 10.8 43.1998H37.2C38.5255 43.1998 39.6 42.1253 39.6 40.7998V23.9998H42C42.6628 23.9998 43.2 23.4626 43.2 22.7998V19.1998C43.2 18.5371 42.6628 17.9998 42 17.9998H28.7097L34.8176 14.4734C35.3916 14.142 35.5882 13.4081 35.2569 12.8342L29.8326 3.43907C29.5012 2.86512 28.7673 2.66847 28.1934 2.99984L14.2393 11.0562C13.6653 11.3876 13.4687 12.1215 13.8 12.6955ZM28.7934 4.03907L14.8393 12.0955L18.2482 17.9998H26.3097L34.2176 13.4342L28.7934 4.03907ZM9.60005 40.7998V23.9998H38.4V40.7998C38.4 41.4626 37.8628 41.9998 37.2 41.9998H10.8C10.1373 41.9998 9.60005 41.4626 9.60005 40.7998ZM42 19.1998V22.7998H39.756C39.754 22.7998 39.752 22.7999 39.75 22.7999H8.25005C8.24805 22.7999 8.24606 22.7998 8.24407 22.7998H6.00005V19.1998H42Z" fill="url(#paint3_linear)"/>
<path d="M14.2396 11.0562C13.6657 11.3876 13.469 12.1215 13.8004 12.6955L17.5557 19.1998H26.6315L34.818 14.4734C35.3919 14.142 35.5886 13.4081 35.2572 12.8342L29.8329 3.43907C29.5015 2.86512 28.7676 2.66847 28.1937 2.99984L14.2396 11.0562Z" fill="#13E5BF" fill-opacity="0.2"/>
<path fill-rule="evenodd" clip-rule="evenodd" d="M39.5999 24H8.3999V40.9412C8.3999 42.1887 9.47442 43.2 10.7999 43.2H37.1999C38.5254 43.2 39.5999 42.1887 39.5999 40.9412V24ZM15.5999 28.8C14.9372 28.8 14.3999 29.3373 14.3999 30V36C14.3999 36.6627 14.9372 37.2 15.5999 37.2H32.3999C33.0626 37.2 33.5999 36.6627 33.5999 36V30C33.5999 29.3373 33.0626 28.8 32.3999 28.8H15.5999Z" fill="#13E5BF" fill-opacity="0.2"/>
<defs>
<linearGradient id="paint0_linear" x1="4.80005" y1="2.83887" x2="4.80005" y2="43.1998" gradientUnits="userSpaceOnUse">
<stop stop-color="#13E5BF"/>
<stop offset="1" stop-color="#01C38D"/>
</linearGradient>
<linearGradient id="paint1_linear" x1="4.80005" y1="2.83887" x2="4.80005" y2="43.1998" gradientUnits="userSpaceOnUse">
<stop stop-color="#13E5BF"/>
<stop offset="1" stop-color="#01C38D"/>
</linearGradient>
<linearGradient id="paint2_linear" x1="4.80005" y1="2.83887" x2="4.80005" y2="43.1998" gradientUnits="userSpaceOnUse">
<stop stop-color="#13E5BF"/>
<stop offset="1" stop-color="#01C38D"/>
</linearGradient>
<linearGradient id="paint3_linear" x1="4.80005" y1="2.83887" x2="4.80005" y2="43.1998" gradientUnits="userSpaceOnUse">
<stop stop-color="#13E5BF"/>
<stop offset="1" stop-color="#01C38D"/>
</linearGradient>
</defs>
</svg>
