<svg width="48" height="48" viewBox="0 0 48 48" fill="none" xmlns="http://www.w3.org/2000/svg">
<path d="M31.1857 16.3986C34.1055 18.594 36.0002 22.1855 36.0002 26.2489C36.0002 30.6686 33.9308 34.0668 30.5716 36.1852C29.0164 37.1755 26.7897 38.1664 24.7652 38.3648C26.9088 38.1311 28.7211 36.7742 29.5939 34.8947C29.802 34.4589 29.9606 33.9241 29.9804 33.3992C29.9903 33.2606 30.0002 33.1219 30.0002 32.9833C30.0002 31.6264 29.3165 30.4281 28.276 29.715C26.6509 28.6751 25.5708 26.8529 25.5708 24.7731C25.5708 24.5057 25.5906 24.2482 25.6203 24.0006C23.5097 25.3178 22.0035 27.5164 21.6468 30.0914C20.9531 29.5863 20.5072 28.7643 20.5072 27.8432C20.5072 27.6947 20.5171 27.5461 20.5369 27.4075C19.001 28.5068 18.0002 30.2993 18.0002 32.3296C18.0002 34.5381 19.1893 36.4694 20.9531 37.5192C21.8686 38.0799 22.9307 38.3964 24.0813 38.4005C24.0733 38.4006 24.0653 38.4006 24.0573 38.4006C19.4259 38.4006 15.7996 35.5215 13.969 31.3811C13.5938 30.5242 13.2917 29.4457 13.246 28.3962C13.2185 28.1266 13.2002 27.8473 13.2002 27.5681C13.2002 24.8527 14.4999 22.4551 16.477 21.0301C19.5798 18.9406 21.6301 15.2913 21.6301 11.1412C21.6301 10.6212 21.6026 10.1013 21.5385 9.60059C25.5567 12.2293 28.4124 16.6393 29.0897 21.7811C30.3986 20.7605 31.2498 19.1236 31.2498 17.2748C31.2498 16.9763 31.2315 16.6874 31.1857 16.3986Z" fill="#13E5BF" fill-opacity="0.2"/>
<path fill-rule="evenodd" clip-rule="evenodd" d="M25.1764 3.06115C24.4458 2.65019 23.5538 2.65019 22.8232 3.06115L6.02318 12.5111C5.26747 12.9362 4.7998 13.7359 4.7998 14.6029V33.3957C4.7998 34.2627 5.26747 35.0624 6.02318 35.4874L22.8232 44.9374C23.5538 45.3484 24.4458 45.3484 25.1764 44.9374L41.9764 35.4874C42.7321 35.0624 43.1998 34.2627 43.1998 33.3957V14.6029C43.1998 13.7359 42.7321 12.9362 41.9764 12.5111L25.1764 3.06115ZM25.1991 6.6912C24.4569 6.263 23.5427 6.263 22.8005 6.6912L9.60047 14.3066C8.85753 14.7352 8.3998 15.5277 8.3998 16.3854V31.6131C8.3998 32.4708 8.85753 33.2634 9.60047 33.692L22.8005 41.3074C23.5427 41.7356 24.4569 41.7356 25.1991 41.3074L38.3991 33.692C39.1421 33.2634 39.5998 32.4708 39.5998 31.6131V16.3854C39.5998 15.5277 39.1421 14.7352 38.3991 14.3066L25.1991 6.6912Z" fill="#13E5BF" fill-opacity="0.2"/>
<path d="M16.7998 30.9005C16.7998 28.3927 18.0008 26.1785 19.8439 24.8207C21.1597 24.017 23.9105 22.0077 24.3865 20.3994C24.3509 20.7052 24.3271 21.0233 24.3271 21.3536C24.3271 22.3279 24.7375 23.2871 25.3535 24.1726C23.383 25.5047 21.9879 27.625 21.6464 30.0902C20.9527 29.5851 20.5068 28.7631 20.5068 27.8421C20.5068 27.6935 20.5167 27.5449 20.5366 27.4063C19.0006 28.5056 17.9998 30.2982 17.9998 32.3284C17.9998 34.537 19.1889 36.4682 20.9527 37.518C21.805 38.0401 22.7844 38.3504 23.844 38.3941C22.5606 38.3451 21.3744 37.9608 20.3433 37.3107C18.2267 36.014 16.7998 33.6285 16.7998 30.9005Z" fill="#13E5BF" fill-opacity="0.2"/>
<path d="M24.1138 38.3994C24.1174 38.3994 24.121 38.3994 24.1247 38.3994C27.038 38.3994 29.5588 36.6256 30.7123 34.0689C30.962 33.5306 31.1522 32.8701 31.176 32.2217C31.1879 32.0505 31.1998 31.8791 31.1998 31.7079C31.1998 30.032 30.3793 28.5518 29.1308 27.671C28.0069 26.9307 26.5828 25.7986 25.578 24.4805C25.5731 24.5763 25.5704 24.6734 25.5704 24.7719C25.5704 26.8517 26.6505 28.674 28.2756 29.7139C29.3161 30.4269 29.9998 31.6253 29.9998 32.9821C29.9998 33.1207 29.9899 33.2594 29.98 33.398C29.9602 33.9229 29.8016 34.4577 29.5935 34.8935C28.6336 36.9606 26.5373 38.3955 24.1138 38.3994Z" fill="#13E5BF" fill-opacity="0.2"/>
<path fill-rule="evenodd" clip-rule="evenodd" d="M28.8476 20.3788C27.9936 16.3893 25.8113 12.9276 22.8175 10.5275C22.4059 10.1976 21.979 9.8877 21.5381 9.59928C21.6016 10.0955 21.6292 10.6107 21.6297 11.1261L21.6297 11.1399C21.6297 15.29 19.5794 18.9393 16.4766 21.0288C14.4995 22.4538 13.1998 24.8514 13.1998 27.5668C13.1998 27.846 13.2181 28.1253 13.2456 28.3949C13.2913 29.4444 13.5934 30.5229 13.9687 31.3798C15.7992 35.5202 19.4256 38.3993 24.0569 38.3993C24.0649 38.3993 24.0729 38.3993 24.0809 38.3992C24.0885 38.3993 24.0962 38.3993 24.1039 38.3993C24.3271 38.3993 24.5476 38.3871 24.7648 38.3635C26.7893 38.1651 29.016 37.1742 30.5712 36.1839C33.9304 34.0655 35.9998 30.6673 35.9998 26.2476C35.9998 22.8036 34.6387 19.6986 32.446 17.4953C32.3714 17.4203 32.2958 17.3464 32.2193 17.2735C31.8914 16.9613 31.5462 16.6686 31.1854 16.3973C31.2311 16.6861 31.2494 16.975 31.2494 17.2735C31.2494 17.5101 31.2355 17.7432 31.2084 17.972C31.0876 18.9937 30.7053 19.9292 30.1349 20.7033C29.8349 21.1105 29.4828 21.473 29.0893 21.7798C29.027 21.3063 28.9461 20.839 28.8476 20.3788ZM29.2054 35.6008C29.4571 35.4608 29.6986 35.317 29.9267 35.1717L29.9311 35.1689C32.9545 33.2623 34.7998 30.2405 34.7998 26.2476C34.7998 23.4723 33.8264 20.9522 32.228 19.036C31.8452 20.5271 30.9876 21.8213 29.8272 22.7261L28.1735 24.0157L27.8996 21.9365C27.3823 18.0096 25.5043 14.5499 22.797 12.0875C22.5094 16.2367 20.3482 19.8606 17.1638 22.0127C15.5074 23.2138 14.3998 25.2443 14.3998 27.5668C14.3998 27.7949 14.4148 28.0321 14.4394 28.2733L14.4429 28.3079L14.4444 28.3426C14.4824 29.2142 14.7386 30.1458 15.067 30.8965C15.9753 32.9499 17.3435 34.6278 19.0532 35.7346C18.3893 34.7655 17.9998 33.5923 17.9998 32.3283C17.9998 30.878 18.5105 29.549 19.3621 28.5074C19.5562 28.27 19.768 28.0475 19.9955 27.8419C20.1672 27.6868 20.3478 27.5412 20.5366 27.4062C20.5167 27.5448 20.5068 27.6934 20.5068 27.8419C20.5068 28.1821 20.5677 28.5088 20.6793 28.811L20.6887 28.8359C20.881 29.3413 21.216 29.7767 21.6464 30.0901C21.7124 29.6138 21.8177 29.1503 21.9589 28.703C22.4203 27.241 23.265 25.9507 24.3725 24.9436C24.4365 24.8854 24.5014 24.8281 24.5672 24.7718C24.8975 24.4889 25.2494 24.2305 25.62 23.9993C25.5902 24.2469 25.5704 24.5044 25.5704 24.7718C25.5704 25.0073 25.5843 25.2396 25.6112 25.4677C25.8221 27.2543 26.8346 28.7916 28.2756 29.7137C29.3161 30.4268 29.9998 31.6251 29.9998 32.982C29.9998 33.1206 29.9899 33.2592 29.98 33.3979C29.9602 33.9228 29.8016 34.4576 29.5935 34.8934C29.4797 35.1385 29.3499 35.3748 29.2054 35.6008ZM24.6257 37.1714C26.3456 36.9866 27.8033 35.8993 28.5052 34.388L28.5106 34.3762C28.6634 34.0562 28.7684 33.682 28.7808 33.3526L28.7816 33.3325L28.783 33.3124C28.7935 33.1665 28.7998 33.0706 28.7998 32.982C28.7998 32.0437 28.3313 31.213 27.6107 30.7129C26.1168 29.7505 25.0063 28.2356 24.5714 26.4527C23.6562 27.5036 23.0349 28.8121 22.835 30.2547L22.56 32.2398L20.94 31.0601C20.5058 30.7439 20.1395 30.3414 19.8646 29.8787C19.4415 30.5979 19.1998 31.4346 19.1998 32.3283C19.1998 34.0958 20.1504 35.6439 21.5665 36.4867L21.5796 36.4945C22.3091 36.9413 23.1547 37.1951 24.0809 37.1992C24.2586 37.1984 24.4405 37.1889 24.6257 37.1714Z" fill="url(#paint0_linear)"/>
<path fill-rule="evenodd" clip-rule="evenodd" d="M25.1764 3.06115C24.4458 2.65019 23.5538 2.65019 22.8232 3.06115L6.02318 12.5111C5.26747 12.9362 4.7998 13.7359 4.7998 14.6029V33.3957C4.7998 34.2627 5.26747 35.0624 6.02318 35.4874L22.8232 44.9374C23.5538 45.3484 24.4458 45.3484 25.1764 44.9374L41.9764 35.4874C42.7321 35.0624 43.1998 34.2627 43.1998 33.3957V14.6029C43.1998 13.7359 42.7321 12.9362 41.9764 12.5111L25.1764 3.06115ZM41.3881 13.557L24.5881 4.10704C24.2228 3.90156 23.7768 3.90156 23.4115 4.10704L6.61149 13.557C6.23364 13.7696 5.9998 14.1694 5.9998 14.6029V33.3957C5.9998 33.8292 6.23364 34.229 6.61149 34.4416L23.4115 43.8916C23.7768 44.097 24.2228 44.097 24.5881 43.8916L41.3881 34.4416C41.766 34.229 41.9998 33.8292 41.9998 33.3957V14.6029C41.9998 14.1694 41.766 13.7696 41.3881 13.557Z" fill="url(#paint1_linear)"/>
<defs>
<linearGradient id="paint0_linear" x1="4.7998" y1="2.75293" x2="4.7998" y2="45.2457" gradientUnits="userSpaceOnUse">
<stop stop-color="#13E5BF"/>
<stop offset="1" stop-color="#01C38D"/>
</linearGradient>
<linearGradient id="paint1_linear" x1="4.7998" y1="2.75293" x2="4.7998" y2="45.2457" gradientUnits="userSpaceOnUse">
<stop stop-color="#13E5BF"/>
<stop offset="1" stop-color="#01C38D"/>
</linearGradient>
</defs>
</svg>
