<svg width="64" height="64" viewBox="0 0 64 64" fill="none" xmlns="http://www.w3.org/2000/svg">
<path fill-rule="evenodd" clip-rule="evenodd" d="M33.177 3.86144C32.4464 3.45048 31.5544 3.45048 30.8238 3.86144L7.62376 16.9114C6.86806 17.3365 6.40039 18.1362 6.40039 19.0032V44.996C6.40039 45.863 6.86806 46.6627 7.62376 47.0877L30.8238 60.1377C31.5544 60.5487 32.4464 60.5487 33.177 60.1377L56.377 47.0877C57.1327 46.6627 57.6004 45.863 57.6004 44.996V19.0032C57.6004 18.1362 57.1327 17.3365 56.377 16.9114L33.177 3.86144ZM33.2097 10.305C32.4624 9.8691 31.5384 9.8691 30.7911 10.305L13.9911 20.105C13.2538 20.5351 12.8004 21.3245 12.8004 22.1781V41.8211C12.8004 42.6747 13.2538 43.4641 13.9911 43.8942L30.7911 53.6942C31.5384 54.1301 32.4624 54.1301 33.2097 53.6942L50.0097 43.8942C50.747 43.4641 51.2004 42.6747 51.2004 41.8211V22.1781C51.2004 21.3245 50.747 20.5351 50.0097 20.105L33.2097 10.305Z" fill="#13E5BF" fill-opacity="0.2"/>
<path fill-rule="evenodd" clip-rule="evenodd" d="M32.7848 5.4776L55.1848 18.0776C55.6886 18.361 56.0004 18.8941 56.0004 19.4721V44.5291C56.0004 45.1071 55.6886 45.6402 55.1848 45.9236L32.7848 58.5236C32.2977 58.7976 31.703 58.7976 31.216 58.5236L8.81597 45.9236C8.31217 45.6402 8.00039 45.1071 8.00039 44.5291V19.4721C8.00039 18.8941 8.31217 18.361 8.81597 18.0776L31.216 5.4776C31.703 5.20363 32.2977 5.20363 32.7848 5.4776ZM30.4316 4.08308C31.4057 3.53513 32.5951 3.53513 33.5692 4.08308L55.9692 16.6831C56.9768 17.2499 57.6004 18.316 57.6004 19.4721V44.5291C57.6004 45.6852 56.9768 46.7514 55.9692 47.3181L33.5692 59.9181C32.5951 60.4661 31.4057 60.4661 30.4316 59.9181L8.03156 47.3181C7.02395 46.7514 6.40039 45.6852 6.40039 44.5291V19.4721C6.40039 18.316 7.02395 17.2499 8.03155 16.6831L30.4316 4.08308ZM33.191 17.4892L35.8155 15.9996L44.1655 20.7401V25.0741L48.0006 27.2511V36.7588L44.1655 38.9333V43.2591L35.8155 47.9996L33.191 46.5096V33.5072L20.5455 26.3271L17.434 28.0915V35.898L20.542 37.6624L23.8932 35.7713L23.9063 35.6461C23.9814 34.9027 24.5903 34.3424 25.323 34.3424C26.1135 34.3424 26.7564 34.9933 26.7564 35.7938C26.7564 36.5943 26.1135 37.2453 25.323 37.2453C25.113 37.2453 24.904 37.1949 24.701 37.095L24.5896 37.0404L21.2691 38.9133V42.4086L28.1855 46.3354L29.377 45.6591V44.3422L22.6985 40.5561V39.7955L23.4961 39.3455L29.377 42.6785V33.014L30.8103 33.8277V46.5096L28.1855 47.9996L19.8361 43.2591V38.9262L16.0007 36.7485V27.24L19.8361 25.0655V20.7401L28.1855 15.9996L30.8103 17.4896V30.4919L43.4558 37.6721L46.5673 35.9077V28.1015L43.4593 26.3364L40.1081 28.2282L40.0957 28.3535C40.0203 29.0962 39.4113 29.6568 38.6783 29.6568C37.8874 29.6568 37.2449 29.0055 37.2449 28.2054C37.2449 27.4049 37.8874 26.7536 38.6783 26.7536C38.8883 26.7536 39.0976 26.8046 39.3003 26.9042L39.4117 26.9591L42.7326 25.0855V21.5905L35.8155 17.6637L34.6239 18.3397V19.6569L41.3028 23.4428V24.2033L40.5049 24.6533L39.5495 24.1119L39.5449 24.1144L34.6239 21.3207V30.9577L33.191 30.1436V17.4892ZM28.1852 17.6637L21.2689 21.5905V24.2529L29.3768 19.6566V18.3404L28.1852 17.6637ZM22.0126 25.4959L29.3769 21.32V29.6775L22.0126 25.4959ZM41.9889 38.5039L34.6239 34.3212V42.6794L41.9889 38.5039ZM34.6239 45.659V44.3428L42.7325 39.7461V42.4085L35.8154 46.3353L34.6239 45.659Z" fill="url(#paint0_linear_4903_43886)"/>
<defs>
<linearGradient id="paint0_linear_4903_43886" x1="6.40039" y1="3.67212" x2="6.40039" y2="60.3291" gradientUnits="userSpaceOnUse">
<stop stop-color="#13E5BF"/>
<stop offset="1" stop-color="#01C38D"/>
</linearGradient>
</defs>
</svg>
